<svg xmlns="http://www.w3.org/2000/svg" width="29.533" height="26.059" viewBox="0 0 29.533 26.059">
  <g id="svgexport-6_86_" data-name="svgexport-6 (86)" transform="translate(0 -30)">
    <g id="Group_57647" data-name="Group 57647" transform="translate(0 30)">
      <g id="Group_57646" data-name="Group 57646" transform="translate(0 0)">
        <path id="Path_263455" data-name="Path 263455" d="M30,150v15.635l.753.579.984-.579,9.931-12.305-1.1-3.33Z" transform="translate(-28.263 -143.051)" fill="#007680"/>
        <path id="Path_263456" data-name="Path 263456" d="M293.466,150H282.893L282,156.08l9.729,9.555.637.579,1.1-.579Z" transform="translate(-265.67 -143.051)" fill="#0d5767"/>
        <path id="Path_263457" data-name="Path 263457" d="M60,180v13.9l6.08.579,5.212-.579,1.123-6.949L71.292,180Z" transform="translate(-56.526 -171.314)" fill="#fff2f2"/>
        <path id="Path_263458" data-name="Path 263458" d="M255,180v13.9l6.949,1.564,4.343-1.564V180Z" transform="translate(-240.233 -171.314)" fill="#ede4f0"/>
        <path id="Path_263459" data-name="Path 263459" d="M0,420a3.475,3.475,0,0,0,3.474,3.474H14.767l.579-2.258L14.767,420Z" transform="translate(0 -397.416)" fill="#0d5767"/>
        <path id="Path_263460" data-name="Path 263460" d="M255,420v3.474h11.292A3.475,3.475,0,0,0,269.767,420Z" transform="translate(-240.233 -397.416)" fill="#004b56"/>
        <path id="Path_263461" data-name="Path 263461" d="M274.39,94.344v-1.1l1.738-1.738,1.058-.177.171,1.405-1.738,1.738Z" transform="translate(-258.501 -87.781)" fill="#00a7ff"/>
        <path id="Path_263462" data-name="Path 263462" d="M276.127,186.989l-1.738-1.738V184l1.229.023,1.737,1.737-.325.981Z" transform="translate(-258.5 -175.082)" fill="#00a7ff"/>
        <path id="Path_263463" data-name="Path 263463" d="M90,210h6.08v1.737H90Z" transform="translate(-84.788 -199.577)" fill="#aae551"/>
        <path id="Path_263464" data-name="Path 263464" d="M90,270h2.606v1.737H90Z" transform="translate(-84.788 -256.102)" fill="#ede4f0"/>
        <path id="Path_263465" data-name="Path 263465" d="M90,330h6.08v1.737H90Z" transform="translate(-84.788 -312.628)" fill="#ff9963"/>
        <path id="Path_263466" data-name="Path 263466" d="M165,270h1.737v1.737H165Z" transform="translate(-155.445 -256.102)" fill="#ede4f0"/>
        <path id="Path_263467" data-name="Path 263467" d="M225,330v1.737h1.737l.579-.869-.579-.869Z" transform="translate(-211.971 -312.628)" fill="#ff9963"/>
        <path id="Path_263468" data-name="Path 263468" d="M255,330h9.555v1.737H255Z" transform="translate(-240.233 -312.628)" fill="#f66"/>
        <ellipse id="Ellipse_266" data-name="Ellipse 266" cx="2.706" cy="2.526" rx="2.706" ry="2.526" transform="translate(17.32)" fill="#00c3ff"/>
        <ellipse id="Ellipse_267" data-name="Ellipse 267" cx="2.706" cy="2.526" rx="2.706" ry="2.526" transform="translate(17.32 10.464)" fill="#00c3ff"/>
        <path id="Path_263469" data-name="Path 263469" d="M210,122.606a2.609,2.609,0,0,0,2.606,2.606l.579-2.606L212.606,120A2.609,2.609,0,0,0,210,122.606Z" transform="translate(-197.839 -114.788)" fill="#00eaff"/>
        <path id="Path_263470" data-name="Path 263470" d="M255,120v5.212A2.606,2.606,0,0,0,255,120Z" transform="translate(-240.233 -114.788)" fill="#00c3ff"/>
      </g>
    </g>
  </g>
</svg>
