<svg xmlns="http://www.w3.org/2000/svg" width="54.709" height="42.531" viewBox="0 0 54.709 42.531">
  <g id="svgexport-6_4_" data-name="svgexport-6 (4)" transform="translate(-2.452 -7.698)">
    <g id="_x33_5">
      <path id="Path_263971" data-name="Path 263971" d="M50.549,10.969V42.031A3.268,3.268,0,0,1,47.277,45.3H5.723a3.268,3.268,0,0,1-3.272-3.272V10.969A3.268,3.268,0,0,1,5.723,7.7H47.277a3.268,3.268,0,0,1,3.272,3.272Z" fill="#474646"/>
      <path id="Path_263972" data-name="Path 263972" d="M29.194,13.151v9.238a2.181,2.181,0,0,1-2.181,2.181H7.9a2.181,2.181,0,0,1-2.181-2.181V13.151A2.181,2.181,0,0,1,7.9,10.969H27.013a2.181,2.181,0,0,1,2.181,2.181Z" fill="#7979f7"/>
      <path id="Path_263973" data-name="Path 263973" d="M28.932,12.115a2.211,2.211,0,0,0-1.036-.262H8.788a2.181,2.181,0,0,0-2.181,2.181v9.238a2.1,2.1,0,0,0,.273,1.036,2.158,2.158,0,0,1-1.156-1.92V13.151A2.181,2.181,0,0,1,7.9,10.969H27.013a2.173,2.173,0,0,1,1.92,1.145Z" fill="#5e5eef"/>
      <g id="Group_58603" data-name="Group 58603">
        <g id="Group_58599" data-name="Group 58599">
          <path id="Path_263974" data-name="Path 263974" d="M15.918,27.97v2.056a.906.906,0,0,1-.906.906H12.957a.906.906,0,0,1-.906-.906V27.97a.906.906,0,0,1,.906-.906h2.056A.906.906,0,0,1,15.918,27.97Z" fill="#e4e3ff"/>
          <path id="Path_263975" data-name="Path 263975" d="M15.918,33.8v2.056a.906.906,0,0,1-.906.906H12.957a.906.906,0,0,1-.906-.906V33.8a.906.906,0,0,1,.906-.906h2.056A.906.906,0,0,1,15.918,33.8Z" fill="#e4e3ff"/>
          <path id="Path_263976" data-name="Path 263976" d="M15.918,39.629v2.056a.906.906,0,0,1-.906.906H12.957a.906.906,0,0,1-.906-.906V39.629a.906.906,0,0,1,.906-.906h2.056A.906.906,0,0,1,15.918,39.629Z" fill="#e4e3ff"/>
        </g>
        <g id="Group_58600" data-name="Group 58600">
          <path id="Path_263977" data-name="Path 263977" d="M22.556,27.97v2.056a.906.906,0,0,1-.906.906H19.595a.906.906,0,0,1-.906-.906V27.97a.906.906,0,0,1,.906-.906H21.65A.906.906,0,0,1,22.556,27.97Z" fill="#e4e3ff"/>
          <path id="Path_263978" data-name="Path 263978" d="M22.556,33.8v2.056a.906.906,0,0,1-.906.906H19.595a.906.906,0,0,1-.906-.906V33.8a.906.906,0,0,1,.906-.906H21.65A.906.906,0,0,1,22.556,33.8Z" fill="#e4e3ff"/>
          <path id="Path_263979" data-name="Path 263979" d="M22.556,39.629v2.056a.906.906,0,0,1-.906.906H19.595a.906.906,0,0,1-.906-.906V39.629a.906.906,0,0,1,.906-.906H21.65A.906.906,0,0,1,22.556,39.629Z" fill="#e4e3ff"/>
        </g>
        <g id="Group_58602" data-name="Group 58602">
          <path id="Path_263980" data-name="Path 263980" d="M29.194,27.97v2.056a.906.906,0,0,1-.906.906H26.232a.906.906,0,0,1-.906-.906V27.97a.906.906,0,0,1,.906-.906h2.056A.906.906,0,0,1,29.194,27.97Z" fill="#e4e3ff"/>
          <path id="Path_263981" data-name="Path 263981" d="M29.194,27.972v2.05a.9.9,0,0,1-.905.905H26.227a.914.914,0,0,1-.894-.774.622.622,0,0,0,.142.011h2.05a.9.9,0,0,0,.905-.905V27.209a.529.529,0,0,0-.011-.131.9.9,0,0,1,.774.894Z" fill="#d0d0f7"/>
          <g id="Group_58601" data-name="Group 58601">
            <path id="Path_263982" data-name="Path 263982" d="M29.194,33.8v2.056a.906.906,0,0,1-.906.906H26.232a.906.906,0,0,1-.906-.906V33.8a.906.906,0,0,1,.906-.906h2.056A.906.906,0,0,1,29.194,33.8Z" fill="#e4e3ff"/>
            <path id="Path_263983" data-name="Path 263983" d="M29.194,39.629v2.056a.906.906,0,0,1-.906.906H26.232a.906.906,0,0,1-.906-.906V39.629a.906.906,0,0,1,.906-.906h2.056A.906.906,0,0,1,29.194,39.629Z" fill="#e4e3ff"/>
          </g>
        </g>
      </g>
      <path id="Path_263984" data-name="Path 263984" d="M9.29,29A1.5,1.5,0,1,1,7.8,27.5,1.5,1.5,0,0,1,9.29,29Z" fill="#f9b938"/>
      <path id="Path_263985" data-name="Path 263985" d="M9.29,29a1.5,1.5,0,0,1-2.748.818,1.5,1.5,0,0,0,2.29-1.265,1.423,1.423,0,0,0-.251-.818A1.484,1.484,0,0,1,9.29,29Z" fill="#ecb021"/>
      <path id="Path_263986" data-name="Path 263986" d="M9.29,34.93a1.5,1.5,0,1,1-1.494-1.5A1.5,1.5,0,0,1,9.29,34.93Z" fill="#00d67f"/>
      <path id="Path_263987" data-name="Path 263987" d="M9.29,34.931a1.5,1.5,0,0,1-2.759.807,1.549,1.549,0,0,0,.807.229,1.5,1.5,0,0,0,1.494-1.494,1.462,1.462,0,0,0-.24-.807,1.475,1.475,0,0,1,.7,1.265Z" fill="#00c179"/>
      <path id="Path_263988" data-name="Path 263988" d="M9.29,40.858a1.5,1.5,0,1,1-1.494-1.5A1.5,1.5,0,0,1,9.29,40.858Z" fill="#fc6559"/>
      <path id="Path_263989" data-name="Path 263989" d="M9.29,40.853a1.5,1.5,0,0,1-2.748.818,1.5,1.5,0,0,0,2.29-1.265,1.423,1.423,0,0,0-.251-.818,1.484,1.484,0,0,1,.709,1.265Z" fill="#f05543"/>
      <g id="Group_58604" data-name="Group 58604">
        <path id="Path_263990" data-name="Path 263990" d="M12.213,17.015a2.214,2.214,0,0,0-1.1-.269,2.559,2.559,0,0,0-1.145.231,2.4,2.4,0,0,0-.476.313,3.144,3.144,0,0,1,.392-1.129,1.338,1.338,0,0,1,1.274-.624,2.6,2.6,0,0,1,1.115.247.5.5,0,0,0,.54-.117.479.479,0,0,0,.134-.335.47.47,0,0,0-.069-.247.479.479,0,0,0-.182-.18,3.871,3.871,0,0,0-.71-.278,3.219,3.219,0,0,0-.888-.11,2.332,2.332,0,0,0-1.546.5A2.791,2.791,0,0,0,8.7,16.264a4.632,4.632,0,0,0-.254,1.514c0,2.153.845,3.244,2.512,3.244a2.509,2.509,0,0,0,1.2-.277,1.989,1.989,0,0,0,.8-.762,2.1,2.1,0,0,0,.278-1.065,2.341,2.341,0,0,0-.268-1.141,1.931,1.931,0,0,0-.751-.763ZM12.186,18.9a1.094,1.094,0,0,1-.574.973,1.338,1.338,0,0,1-.649.154c-.829,0-1.306-.475-1.463-1.452a1.6,1.6,0,0,1,1.515-.855,1.124,1.124,0,0,1,.873.318,1.209,1.209,0,0,1,.3.862Z" fill="#e4e3ff"/>
        <path id="Path_263991" data-name="Path 263991" d="M14.7,19.681h-.087A.616.616,0,0,0,14,20.3v.052a.616.616,0,0,0,.614.614H14.7a.619.619,0,0,0,.614-.614V20.3a.616.616,0,0,0-.614-.614Z" fill="#e4e3ff"/>
        <path id="Path_263992" data-name="Path 263992" d="M14.7,16.215h-.087a.616.616,0,0,0-.614.614v.052a.619.619,0,0,0,.614.614H14.7a.619.619,0,0,0,.614-.614v-.052a.619.619,0,0,0-.614-.614Z" fill="#e4e3ff"/>
        <path id="Path_263993" data-name="Path 263993" d="M18.521,14.516a2.156,2.156,0,0,0-1.857.9,3.983,3.983,0,0,0-.629,2.356,3.983,3.983,0,0,0,.629,2.356,2.155,2.155,0,0,0,1.857.9,2.154,2.154,0,0,0,1.854-.9,3.96,3.96,0,0,0,.633-2.356,3.96,3.96,0,0,0-.633-2.356A2.157,2.157,0,0,0,18.521,14.516Zm1.442,3.253a3.166,3.166,0,0,1-.385,1.691,1.256,1.256,0,0,1-2.113,0,3.166,3.166,0,0,1-.385-1.691,3.143,3.143,0,0,1,.385-1.681,1.254,1.254,0,0,1,2.113,0A3.142,3.142,0,0,1,19.963,17.769Z" fill="#e4e3ff"/>
        <path id="Path_263994" data-name="Path 263994" d="M25.842,15.413a2.367,2.367,0,0,0-3.711,0,3.983,3.983,0,0,0-.629,2.356,3.983,3.983,0,0,0,.629,2.356,2.367,2.367,0,0,0,3.711,0,3.965,3.965,0,0,0,.634-2.356A3.965,3.965,0,0,0,25.842,15.413Zm-.412,2.356a3.166,3.166,0,0,1-.385,1.691,1.255,1.255,0,0,1-2.112,0,3.157,3.157,0,0,1-.385-1.691,3.137,3.137,0,0,1,.385-1.681,1.253,1.253,0,0,1,2.112,0,3.142,3.142,0,0,1,.385,1.681Z" fill="#e4e3ff"/>
      </g>
      <g id="Group_58605" data-name="Group 58605">
        <path id="Path_263995" data-name="Path 263995" d="M15.921,27.972v2.05a.9.9,0,0,1-.905.905H12.954a.894.894,0,0,1-.883-.785.561.561,0,0,0,.12.022h2.061a.9.9,0,0,0,.905-.905V27.209c0-.044-.022-.076-.022-.12a.9.9,0,0,1,.785.883Z" fill="#d0d0f7"/>
        <path id="Path_263996" data-name="Path 263996" d="M15.921,33.8v2.061a.9.9,0,0,1-.905.905H12.954a.9.9,0,0,1-.883-.785c.044,0,.087.022.12.022h2.061a.9.9,0,0,0,.905-.905V33.033c0-.033-.022-.076-.022-.12a.9.9,0,0,1,.785.883Z" fill="#d0d0f7"/>
        <path id="Path_263997" data-name="Path 263997" d="M15.921,39.631v2.05a.9.9,0,0,1-.905.905H12.954a.894.894,0,0,1-.883-.785.669.669,0,0,0,.12.033h2.061a.91.91,0,0,0,.905-.905V38.868c0-.044-.022-.076-.022-.12a.9.9,0,0,1,.785.883Z" fill="#d0d0f7"/>
        <path id="Path_263998" data-name="Path 263998" d="M22.552,27.972v2.05a.9.9,0,0,1-.905.905H19.6a.894.894,0,0,1-.883-.785.46.46,0,0,0,.12.022h2.061a.91.91,0,0,0,.905-.905V27.209a.49.49,0,0,0-.033-.12.894.894,0,0,1,.785.883Z" fill="#d0d0f7"/>
        <path id="Path_263999" data-name="Path 263999" d="M22.552,33.8v2.061a.9.9,0,0,1-.905.905H19.6a.9.9,0,0,1-.883-.785c.043,0,.076.022.12.022h2.061a.91.91,0,0,0,.905-.905V33.033a.667.667,0,0,0-.033-.12.894.894,0,0,1,.785.883Z" fill="#d0d0f7"/>
        <path id="Path_264000" data-name="Path 264000" d="M22.552,39.631v2.05a.9.9,0,0,1-.905.905H19.6a.894.894,0,0,1-.883-.785.487.487,0,0,0,.12.033h2.061a.917.917,0,0,0,.905-.905V38.868a.493.493,0,0,0-.033-.12.894.894,0,0,1,.785.883Z" fill="#d0d0f7"/>
        <path id="Path_264001" data-name="Path 264001" d="M29.194,33.8v2.061a.9.9,0,0,1-.905.905H26.227a.893.893,0,0,1-.873-.785c.033,0,.076.022.12.022h2.05a.9.9,0,0,0,.905-.905V33.033a.561.561,0,0,0-.022-.12.9.9,0,0,1,.785.883Z" fill="#d0d0f7"/>
        <path id="Path_264002" data-name="Path 264002" d="M29.194,39.631v2.05a.9.9,0,0,1-.905.905H26.227a.884.884,0,0,1-.873-.785.387.387,0,0,0,.12.033h2.05a.91.91,0,0,0,.905-.905V38.868a.464.464,0,0,0-.022-.12.9.9,0,0,1,.785.883Z" fill="#d0d0f7"/>
      </g>
      <g id="Group_58606" data-name="Group 58606">
        <path id="Path_264003" data-name="Path 264003" d="M47.079,13.707a.664.664,0,0,1-.666.666H33.447a.666.666,0,1,1,0-1.332H46.413a.664.664,0,0,1,.666.666Z" fill="#e4e3ff"/>
        <path id="Path_264004" data-name="Path 264004" d="M46.077,16.519a.664.664,0,0,1-.666.666H34.449a.666.666,0,1,1,0-1.332H45.411A.664.664,0,0,1,46.077,16.519Z" fill="#e4e3ff"/>
        <path id="Path_264005" data-name="Path 264005" d="M46.077,22.142a.664.664,0,0,1-.666.666H34.449a.666.666,0,1,1,0-1.332H45.411A.664.664,0,0,1,46.077,22.142Z" fill="#e4e3ff"/>
        <path id="Path_264006" data-name="Path 264006" d="M47.079,19.331a.664.664,0,0,1-.666.666H33.447a.666.666,0,1,1,0-1.332H46.413A.664.664,0,0,1,47.079,19.331Z" fill="#e4e3ff"/>
      </g>
      <path id="Path_264007" data-name="Path 264007" d="M45.848,29.216V40.438a1.094,1.094,0,0,1-1.091,1.091H35.1a1.094,1.094,0,0,1-1.091-1.091V29.216A1.094,1.094,0,0,1,35.1,28.125h9.652a1.094,1.094,0,0,1,1.091,1.091Z" fill="#2d2c2c"/>
      <path id="Path_264008" data-name="Path 264008" d="M43.994,30.633V39.02a.656.656,0,0,1-.654.654H36.523a.656.656,0,0,1-.654-.654V30.634a.656.656,0,0,1,.654-.654h6.816a.656.656,0,0,1,.654.654Z" fill="#7979f7"/>
      <path id="Path_264009" data-name="Path 264009" d="M43.992,30.638v8.38a.657.657,0,0,1-.65.66h-6.82a.657.657,0,0,1-.65-.66v-.14h6.67a.657.657,0,0,0,.66-.65v-8.25h.14a.657.657,0,0,1,.65.66Z" fill="#5e5eef"/>
      <g id="Group_58607" data-name="Group 58607" opacity="0.3">
        <path id="Path_264010" data-name="Path 264010" d="M4.152,37.8a.5.5,0,0,1-.5-.5V21.009a.5.5,0,0,1,1,0V37.3A.5.5,0,0,1,4.152,37.8Z" fill="#fff"/>
      </g>
      <g id="Group_58608" data-name="Group 58608" opacity="0.3">
        <path id="Path_264011" data-name="Path 264011" d="M4.152,14.009a.5.5,0,0,1-.5-.5V10.969A2.074,2.074,0,0,1,5.723,8.9H8.441a.5.5,0,0,1,0,1H5.723a1.073,1.073,0,0,0-1.071,1.072v2.539a.5.5,0,0,1-.5.5Z" fill="#fff"/>
      </g>
      <g id="Group_58611" data-name="Group 58611" opacity="0.3">
        <g id="Group_58609" data-name="Group 58609">
          <path id="Path_264012" data-name="Path 264012" d="M30.014,9.9H24.284a.5.5,0,0,1,0-1h5.729a.5.5,0,0,1,0,1Z" fill="#fff"/>
        </g>
        <g id="Group_58610" data-name="Group 58610">
          <path id="Path_264013" data-name="Path 264013" d="M33.264,9.9H31.889a.5.5,0,1,1,0-1h1.375a.5.5,0,0,1,0,1Z" fill="#fff"/>
        </g>
      </g>
    </g>
    <g id="Group_58613" data-name="Group 58613" transform="translate(39.16 32.229)">
      <circle id="Ellipse_71" data-name="Ellipse 71" cx="9" cy="9" r="9" fill="#3b86fe"/>
      <g id="Group_25422" data-name="Group 25422" transform="translate(3.316 3.316)">
        <path id="Path_420" data-name="Path 420" d="M-1.936-14.253H2.987v1.245H-1.936v5.357H-3.281v-5.357H-8.1v-1.245h4.824v-5.179h1.345Z" transform="translate(8.105 19.433)" fill="#f4f4f4" stroke="#f4f4f4" stroke-width="1"/>
      </g>
    </g>
  </g>
</svg>
