<svg xmlns="http://www.w3.org/2000/svg" width="54.922" height="50" viewBox="0 0 54.922 50">
  <g id="Countries" transform="translate(-1 -2)">
    <g id="Group_31799" data-name="Group 31799" transform="translate(1 2)">
      <g id="Group_31795" data-name="Group 31795" transform="translate(0)">
        <path id="Path_12201" data-name="Path 12201" d="M114.876,69.65h-.681a2.43,2.43,0,0,0-.371-1.24,2.272,2.272,0,0,1,.708-3.033,2.293,2.293,0,0,0,.82-1.289,3.2,3.2,0,0,0-.919-3.207c-.168-.151-.316-.326-.473-.49a2.339,2.339,0,0,1-.311-3.47,2.249,2.249,0,0,0-1.19-3.562c-.965-.332-1.935-.651-2.911-.949a2.066,2.066,0,0,1-1.278-1.036c-.659-1.193-1.357-2.364-2.047-3.539a1.341,1.341,0,0,0-2.451-.069c-.15.231-.285.473-.438.7a1.4,1.4,0,0,1-1.054.7,1.333,1.333,0,0,1-1.375-1.823c.364-1.464.756-2.922,1.137-4.382a1.481,1.481,0,0,1,.806-.983c.78-.4,1.56-.794,2.33-1.21a1.316,1.316,0,0,0,.656-1.652,2.437,2.437,0,0,0-2.177-1.827,10.077,10.077,0,0,1-4.951-2.078,20.169,20.169,0,0,1,1.519-2.527c.643-.971,1.44-1.819,2.13-2.752a20.508,20.508,0,0,0,2.138,2.822,1.936,1.936,0,0,0,2.553.361,4.545,4.545,0,0,0,1.31-1.473,11.663,11.663,0,0,0,1.964-3.169c.925-2.16,1.272-4.328-.029-6.483a23.794,23.794,0,0,1,10.532,1.156,23.352,23.352,0,0,1,10.487,7.276,15.4,15.4,0,0,0-.936,1.592,2.443,2.443,0,0,1-1.908,1.267,2.329,2.329,0,0,0-1.908,1.331c-.258.506-.524,1.009-.805,1.5a2.307,2.307,0,0,1-2.2,1.259q-.535-.014-1.07-.018a4.1,4.1,0,0,0-2.928,1.225,4.948,4.948,0,0,0-1.368,3,6.438,6.438,0,0,1-1.418,3.208c-.538.649-1.025,1.341-1.52,2.025a1.428,1.428,0,0,0,.3,2.072c.555.423,1.128.821,1.7,1.225a1.4,1.4,0,0,0,1.244.231c.422-.116.849-.21,1.274-.314a9.377,9.377,0,0,0,.02,1.7,13.156,13.156,0,0,0,3.726,7,1.9,1.9,0,0,0,2.678.095,5.292,5.292,0,0,0,1.054-1.259c.133-.162.274-.319.4-.487a13.713,13.713,0,0,0,2.226-4.507l4.626,3.561a1.544,1.544,0,0,1-.068.182A23.712,23.712,0,0,1,117.3,69.266c-.8.163-1.631.164-2.425.384" transform="translate(-89.185 -19.721)" fill="#6dd5b3"/>
        <path id="Path_12202" data-name="Path 12202" d="M69.1,158.914a10.078,10.078,0,0,0,4.951,2.077,2.437,2.437,0,0,1,2.177,1.827,1.316,1.316,0,0,1-.656,1.652c-.77.416-1.55.814-2.33,1.21a1.481,1.481,0,0,0-.806.983c-.382,1.46-.773,2.918-1.137,4.382a1.333,1.333,0,0,0,1.375,1.823,1.4,1.4,0,0,0,1.054-.7c.154-.229.288-.471.438-.7a1.341,1.341,0,0,1,2.451.069c.69,1.175,1.388,2.347,2.047,3.539a2.067,2.067,0,0,0,1.278,1.036c.976.3,1.946.617,2.911.949a2.249,2.249,0,0,1,1.19,3.562,2.339,2.339,0,0,0,.311,3.47c.157.164.3.339.473.49a3.2,3.2,0,0,1,.919,3.207,2.292,2.292,0,0,1-.82,1.289,2.272,2.272,0,0,0-.708,3.033,2.429,2.429,0,0,1,.371,1.24H81.47c-.083-.145-.229-.091-.348-.1a24.666,24.666,0,0,1-6.06-1.405.845.845,0,0,0-.375-.548,20.359,20.359,0,0,1-2.059-2.058,26.4,26.4,0,0,1-6.651-19.673,26.334,26.334,0,0,1,1.861-8.017c.362-.884.776-1.746,1.166-2.618l.092-.013" transform="translate(-59.574 -143.421)" fill="#5675d3"/>
        <path id="Path_12204" data-name="Path 12204" d="M9.624,113.569c-.39.872-.8,1.734-1.166,2.618A26.9,26.9,0,0,0,7.866,134.6a26.029,26.029,0,0,0,5.381,9.272,20.364,20.364,0,0,0,2.059,2.058.845.845,0,0,1,.375.548A23.937,23.937,0,0,1,.271,126.342,5.651,5.651,0,0,0,.1,124.684v-1.073c.144-.062.093-.192.1-.3a23.236,23.236,0,0,1,2.253-9.427,21.128,21.128,0,0,1,3.4-5.237c.159.507.326,1.011.476,1.521A4.21,4.21,0,0,0,8.23,112.7c.469.283.93.581,1.394.872" transform="translate(-0.096 -98.062)" fill="#5675d3"/>
        <path id="Path_12207" data-name="Path 12207" d="M120.266,5.578A5.421,5.421,0,0,1,122.285,1.2a4.919,4.919,0,0,1,1.792-.926c.144-.04.327-.02.426-.18h1.752c.026.1.118.086.187.11-.156.2-.319.4-.466.616A6.543,6.543,0,0,0,124.689,3.5c-1.466.993-1.539,2.316-.191,3.434a4.9,4.9,0,0,0,.382,1.453,7.2,7.2,0,0,0,2.933,3.637,4.545,4.545,0,0,1-1.31,1.473,1.936,1.936,0,0,1-2.553-.361,20.529,20.529,0,0,1-2.138-2.822,11,11,0,0,1-1.545-4.733" transform="translate(-108.64 -0.097)" fill="#e4596e"/>
        <path id="Path_12208" data-name="Path 12208" d="M281.443,109.811a22.913,22.913,0,0,1,4.925,9.82,23.708,23.708,0,0,1-1.562,15.545c-.053.117-.122.228-.184.341L280,131.956c.05-.368.1-.737.15-1.105a5.169,5.169,0,0,0-4.046-5.734,4.692,4.692,0,0,0-4.107.87,5.48,5.48,0,0,0-2.1,3.429c-.425.1-.852.2-1.274.314a1.4,1.4,0,0,1-1.244-.231c-.568-.4-1.142-.8-1.7-1.225a1.428,1.428,0,0,1-.3-2.072c.495-.684.982-1.376,1.52-2.025a6.437,6.437,0,0,0,1.418-3.208,4.948,4.948,0,0,1,1.368-3,4.1,4.1,0,0,1,2.928-1.225q.535,0,1.07.018a2.306,2.306,0,0,0,2.2-1.259c.281-.494.547-1,.805-1.5a2.328,2.328,0,0,1,1.908-1.331,2.443,2.443,0,0,0,1.908-1.267,15.447,15.447,0,0,1,.936-1.592" transform="translate(-239.316 -99.108)" fill="#5675d3"/>
        <path id="Path_12209" data-name="Path 12209" d="M314.28,269.52a5.479,5.479,0,0,1,2.1-3.429,4.692,4.692,0,0,1,4.107-.87,6.492,6.492,0,0,0-1.839,3.265,1.948,1.948,0,0,0-.164,3.441,7.5,7.5,0,0,0,3.273,5.128,5.3,5.3,0,0,1-1.054,1.259,1.9,1.9,0,0,1-2.678-.095,13.156,13.156,0,0,1-3.726-7,9.378,9.378,0,0,1-.02-1.7" transform="translate(-283.701 -239.212)" fill="#e45a6e"/>
        <path id="Path_12210" data-name="Path 12210" d="M360.918,278.542a7.5,7.5,0,0,1-3.273-5.128c.169.054.335.12.507.16a1.869,1.869,0,0,0,2.214-1.267,1.9,1.9,0,0,0-1.131-2.34,2.287,2.287,0,0,0-1.427.005,6.491,6.491,0,0,1,1.839-3.265,5.168,5.168,0,0,1,4.046,5.734c-.049.369-.1.737-.149,1.105a13.717,13.717,0,0,1-2.227,4.507c-.125.168-.266.325-.4.487" transform="translate(-322.862 -240.7)" fill="#e45a6e"/>
        <path id="Path_12211" data-name="Path 12211" d="M166.967,13.042a7.2,7.2,0,0,1-2.933-3.637,4.891,4.891,0,0,1-.382-1.453c.137.048.272.1.412.143a1.888,1.888,0,0,0,1.925-3.086,2,2,0,0,0-2.145-.492,6.545,6.545,0,0,1,1.286-2.673c.147-.211.31-.411.466-.615A5.308,5.308,0,0,1,168.9,3.39c1.3,2.155.955,4.323.029,6.483a11.665,11.665,0,0,1-1.964,3.169" transform="translate(-147.795 -1.119)" fill="#e4596e"/>
        <path id="Path_12212" data-name="Path 12212" d="M65,56.279a11,11,0,0,0,1.545,4.733c-.69.933-1.487,1.782-2.13,2.752A20.189,20.189,0,0,0,62.9,66.291l-.092.013c-.464-.291-.925-.589-1.394-.872A4.21,4.21,0,0,1,59.5,62.909c-.149-.51-.317-1.014-.476-1.521a20.892,20.892,0,0,1,4.079-3.848c.61-.45,1.262-.842,1.9-1.261" transform="translate(-53.278 -50.798)" fill="#6dd5b3"/>
        <path id="Path_12213" data-name="Path 12213" d="M154.942,33.944a2,2,0,0,1,2.145.492,1.888,1.888,0,0,1-1.925,3.086c-.14-.04-.275-.095-.412-.143-1.348-1.118-1.275-2.442.191-3.434" transform="translate(-138.893 -30.545)" fill="#e7e5f8"/>
        <path id="Path_12214" data-name="Path 12214" d="M348.95,299.08a2.287,2.287,0,0,1,1.427-.005,1.9,1.9,0,0,1,1.131,2.34,1.869,1.869,0,0,1-2.214,1.267c-.172-.041-.338-.106-.507-.16a1.948,1.948,0,0,1,.164-3.441" transform="translate(-314.004 -269.806)" fill="#e7e5f8"/>
      </g>
    </g>
    <g id="Group_31812" data-name="Group 31812" transform="translate(33.454 29.532)">
      <circle id="Ellipse_71" data-name="Ellipse 71" cx="11.234" cy="11.234" r="11.234" fill="#3b86fe"/>
      <g id="Group_25422" data-name="Group 25422" transform="translate(4.139 4.139)">
        <path id="Path_420" data-name="Path 420" d="M-.405-12.968H5.741v1.554H-.405v6.687H-2.084v-6.687H-8.1v-1.554h6.021v-6.465H-.405Z" transform="translate(8.105 19.433)" fill="#f4f4f4" stroke="#f4f4f4" stroke-width="1"/>
      </g>
    </g>
  </g>
</svg>
