<svg xmlns="http://www.w3.org/2000/svg" width="46.916" height="50" viewBox="0 0 46.916 50">
  <g id="add_city" data-name="add city" transform="translate(-1.084 -0.115)">
    <g id="Group_31815" data-name="Group 31815" transform="translate(1.084 0.115)">
      <path id="Path_12239" data-name="Path 12239" d="M43.1,480.612c.6,0,1.2.017,1.8.008.415-.006.789.051.956.5s-.114.728-.436.972H1.572c-.32-.242-.6-.509-.439-.964s.527-.511.942-.5c.546.009,1.093,0,1.64-.007l1.549,0H6.73l6.376.015c1.019,0,1.019,0,1.027-1,0-.049,0-.1,0-.146-.009-.419.181-.638.614-.63s.876.007,1.314.009l.125.006,1.263,0c-.343.395-.141.872-.2,1.31-.042.333.083.45.431.449q7.586-.018,15.172-.013l7.24-.01,1.494,0,1.507,0" transform="translate(-1.084 -432.088)" fill="#c4cbd2"/>
      <path id="Path_12240" data-name="Path 12240" d="M106.614.115v2.44a2.043,2.043,0,0,0-.258.135q-3.109,2.225-6.216,4.454A1.314,1.314,0,0,0,99.5,8.508l-.193.005c-.587.02-.933.294-.948.749-.014.428.353.7.951.718.064,0,.128.006.192.01q0,.332,0,.664l-.193.007c-.589.021-.933.293-.949.748-.015.429.353.708.949.719.064,0,.128,0,.192.007q0,.334,0,.667c-.8.021-1.069.2-1.08.716-.011.551.26.744,1.08.765v.667c-.128,0-.257.012-.385.008a.718.718,0,0,0-.186,1.417,3.407,3.407,0,0,0,.571.056q0,.332,0,.665c-.049,0-.1.007-.146.008-.647.015-1.023.291-1,.732s.448.737,1.032.735l3.109-.009q0,.056,0,.112l-5.635-.017q.011-2.8.021-5.605c0-1.755.013-3.51-.006-5.265a1.548,1.548,0,0,1,.708-1.4c2.916-2.081,5.818-4.182,8.725-6.276Z" transform="translate(-87.517 -0.115)" fill="#d4ea57"/>
      <path id="Path_12241" data-name="Path 12241" d="M52.7,189.934l5.635.017c0,.2.013.39.013.585q0,13.452,0,26.9c0,.211.008.423.012.634l-.04.09c-.438,0-.876,0-1.314-.009s-.623.21-.614.63c0,.049,0,.1,0,.146-.008,1-.008,1-1.027,1l-6.376-.015q.01-1.5.019-3.008a3.747,3.747,0,0,0,2.224-1.367,3.906,3.906,0,0,0,.678-3.616q0-8.982.006-17.965a1.647,1.647,0,0,0-.074-.478.7.7,0,0,0-.755-.555.664.664,0,0,0-.633.73c0,.13,0,.26,0,.391l0,15.914-.883-.461q0-7.787.012-15.574a1.406,1.406,0,0,0-.118-.568.689.689,0,0,0-1.009-.311c-.353.2-.338.518-.338.847q0,7.69,0,15.379l-.191.007q0-9.213-.007-18.426a1.285,1.285,0,0,1,.3-.9l4.486-.024m3.8,14.115c0-3.434-.01-6.869.01-10.3,0-.54-.268-.788-.637-.818a.71.71,0,0,0-.784.64,2.948,2.948,0,0,0-.048.579q0,9.912,0,19.824a2.23,2.23,0,0,0,.138.858.629.629,0,0,0,.652.41c.4-.006.673-.336.673-.839q0-5.176,0-10.352m-3.708,0q0,5.078,0,10.156a2.4,2.4,0,0,0,.008.439.688.688,0,0,0,.571.585.625.625,0,0,0,.748-.4,2.223,2.223,0,0,0,.138-.858q-.006-9.912,0-19.824a3.081,3.081,0,0,0-.01-.439.822.822,0,0,0-.825-.793c-.412.045-.626.342-.626.88q0,5.127,0,10.254" transform="translate(-43.346 -171.393)" fill="#f89400"/>
      <path id="Path_12242" data-name="Path 12242" d="M30.248,190.023a1.285,1.285,0,0,0-.3.9q.012,9.213.007,18.426a5.456,5.456,0,0,0-1.936.7c-.005-.83-.015-1.659-.015-2.489q0-8.348,0-16.7c0-.751.1-.856.83-.854.47,0,.941.011,1.411.017" transform="translate(-25.377 -171.458)" fill="#f89425"/>
      <path id="Path_12243" data-name="Path 12243" d="M13.574,388.631a5.453,5.453,0,0,1,1.936-.7l.191-.007a3.382,3.382,0,0,1,1.086.183c-.129.185-.345.23-.528.326a3.841,3.841,0,0,0-.585,6.317c.1.083.214.143.23.289-.33.079-.93-.259-.806.523a5.285,5.285,0,0,1-1.523-.614,4.507,4.507,0,0,1-1.369-1.9,3.822,3.822,0,0,1,1.172-4.209,2.791,2.791,0,0,0,.2-.21" transform="translate(-10.928 -350.044)" fill="#87ca3c"/>
      <path id="Path_12244" data-name="Path 12244" d="M28.027,459.837a5.283,5.283,0,0,0,1.524.614q.005,1.5.01,3l-1.549,0,.015-3.619" transform="translate(-25.382 -414.932)" fill="#df8500"/>
      <path id="Path_12245" data-name="Path 12245" d="M275.849,73.014l-7.241.011c0-.386-.005-.772-.005-1.159a.525.525,0,0,0-.589-.6h-1.349q0-.979,0-1.957c.376-.351.289-.7,0-1.052l-.006-1.288c.392-.32.313-.641,0-.962q0-.643,0-1.287c.381-.35.286-.7,0-1.052q0-.644-.008-1.288c.394-.319.313-.64,0-.962q0-.644,0-1.288c.383-.349.285-.7,0-1.051q0-.6,0-1.2c.282-.351.378-.7,0-1.051q0-.644,0-1.288c.309-.322.39-.643,0-.962l.007-1.288c.284-.351.378-.7,0-1.052q0-.644,0-1.287a.589.589,0,0,0,0-.962q0-.644.005-1.288a.692.692,0,0,0,0-1.051q0-.644-.005-1.288a.589.589,0,0,0,0-.962l0-1.287c.38-.35.286-.7,0-1.052l-.007-1.288c.394-.32.313-.641,0-.962a3.209,3.209,0,0,0-.118-1.064c.194-.314.523-.585.289-1.027s-.647-.463-1.073-.455c-.256,0-.512,0-.768,0q0-.388,0-.777c.372,0,.745.011,1.116-.009a.8.8,0,0,0,.8-.8c-.023-.392-.333-.648-.816-.656-.534-.008-1.068-.016-1.6,0-.372.012-.663.157-.682.6l-.355-.017q0-1.1,0-2.191c0-1.1,0-1.1-1.092-1.125,0-1.823-.007-3.646,0-5.469,0-.5.175-.677.674-.677q7.575,0,15.15,0c.528,0,.66.168.661.783q0,6.665,0,13.33,0,10.6,0,21.191c0,.211-.008.423-.013.634a3.648,3.648,0,0,0-1.255-.517l-.311-.122c.35-.815.082-1.228-.8-1.229-.47,0-.94-.01-1.41,0a.711.711,0,0,0-.691.97c.109.318.408.39.677.5a5.613,5.613,0,0,0-1.659,1.38.808.808,0,0,0-.8-.594c-1.315-.015-2.631-.017-3.946,0a.8.8,0,0,0-.8.766.741.741,0,0,0,.845.689c1.429,0,2.858-.005,4.287-.009l-.2.887c-1.395,0-2.79.006-4.184,0a.685.685,0,0,0-.743.622.694.694,0,0,0,.5.748,1.4,1.4,0,0,0,.569.1q1.679-.009,3.357,0a1.22,1.22,0,0,0,.566-.11l.453,1.178a1.607,1.607,0,0,0-1.046-.293c-1.167.02-2.334,0-3.5.008-.57,0-.905.273-.911.725s.333.736.9.738c1.183,0,2.367,0,3.55,0,.881,0,1.08-.2,1.1-1.082a4.4,4.4,0,0,0,2.455,1.584q.008,1.5.016,3m-5.265-24.1c.633,0,1.266,0,1.9,0,.551,0,.9-.3.888-.749s-.347-.711-.876-.713q-1.9-.007-3.8,0c-.531,0-.859.286-.864.725s.325.731.851.737c.633.007,1.266,0,1.9,0m.035,12.3c-.665,0-1.331,0-2,0a.628.628,0,0,0-.534.172.683.683,0,0,0-.226.7.844.844,0,0,0,.861.586c.55.028,1.1.008,1.655.008.714,0,1.429.014,2.142-.005a.779.779,0,0,0,.852-.8c-.019-.4-.348-.656-.855-.658-.633,0-1.266,0-1.9,0m.027-25.195c-.664,0-1.329-.006-1.993,0a.765.765,0,0,0-.825.66.809.809,0,0,0,.724.786c1.36.026,2.722.03,4.082,0a.729.729,0,0,0,.737-.754.757.757,0,0,0-.83-.693c-.632,0-1.264,0-1.9,0m-.01,3.715c.616,0,1.232,0,1.847,0,.545,0,.891-.288.89-.732,0-.42-.33-.721-.864-.727q-1.92-.021-3.84,0a.813.813,0,0,0-.836.73c0,.43.333.723.858.728.648.006,1.3,0,1.944,0m.006,20.606c.616,0,1.231,0,1.847,0,.542,0,.889-.294.884-.737a.8.8,0,0,0-.879-.723q-1.9-.018-3.791,0a.82.82,0,0,0-.875.794c.017.385.369.661.869.665.648.006,1.3,0,1.944,0m-.015-19.732c-.681,0-1.363.009-2.044,0a.7.7,0,0,0-.2,1.387,2.019,2.019,0,0,0,.524.082q1.679-.005,3.358,0a2.039,2.039,0,0,0,.525-.076.652.652,0,0,0,.57-.774.7.7,0,0,0-.791-.619c-.649.01-1.3,0-1.946,0m.012,16.017h-1.993a.709.709,0,0,0-.715.4c-.258.549.131,1.055.834,1.06,1.215.01,2.431,0,3.646,0a1.467,1.467,0,0,0,.336-.033.7.7,0,0,0,.616-.791.718.718,0,0,0-.78-.643c-.648.017-1.3,0-1.944,0m-.029-.874c.616,0,1.233,0,1.849,0,.556,0,.89-.239.915-.647.027-.432-.247-.712-.8-.805a1.752,1.752,0,0,0-.291-.012c-1.119,0-2.238,0-3.358,0a1.932,1.932,0,0,0-.525.077.671.671,0,0,0-.55.795.681.681,0,0,0,.762.6c.664-.02,1.33-.005,1.995,0m-.048-11.429c.648,0,1.3,0,1.942,0,.525,0,.859-.286.869-.715a.736.736,0,0,0-.8-.739c-1.311-.021-2.622-.018-3.933,0a.8.8,0,0,0-.8.755.743.743,0,0,0,.831.7c.631.008,1.263,0,1.894,0m.038-9.179c.7,0,1.393,0,2.09,0a.673.673,0,0,0,.671-.645.6.6,0,0,0-.458-.706,1.776,1.776,0,0,0-.567-.114c-1.15.007-2.3,0-3.451.007a2.27,2.27,0,0,0-.474.076.657.657,0,0,0-.558.784.678.678,0,0,0,.754.606c.664-.018,1.329,0,1.993-.006m.013,16.893c-.647,0-1.3-.005-1.943,0a.743.743,0,0,0-.833.7.8.8,0,0,0,.8.757c1.311.017,2.622.019,3.933,0a.738.738,0,0,0,.8-.737c-.008-.43-.342-.713-.866-.718-.631-.006-1.263,0-1.894,0m-.025-21.482c.7,0,1.394,0,2.09,0a.663.663,0,0,0,.682-.573.628.628,0,0,0-.48-.785,1.933,1.933,0,0,0-.52-.1q-1.774-.013-3.549,0a1.373,1.373,0,0,0-.424.084.687.687,0,0,0-.539.763.678.678,0,0,0,.746.617c.664-.015,1.329,0,1.993,0m.056.876c-.664,0-1.327-.007-1.991,0a.741.741,0,0,0-.817.716.811.811,0,0,0,.774.737c1.327.019,2.655.022,3.982,0a.73.73,0,0,0,.782-.754.758.758,0,0,0-.835-.7c-.631-.008-1.263,0-1.894,0m-.025,19.731c.631,0,1.263,0,1.894,0,.478,0,.813-.239.859-.6.049-.387-.192-.686-.668-.809a1.759,1.759,0,0,0-.429-.052c-1.117,0-2.234,0-3.352,0a1.384,1.384,0,0,0-.568.1.693.693,0,0,0-.5.789.677.677,0,0,0,.726.584c.68-.015,1.36,0,2.04,0M270.6,45.2c-.68,0-1.36.007-2.04,0a.7.7,0,0,0-.275,1.343,1.361,1.361,0,0,0,.659.127c1.1-.008,2.2,0,3.3,0a1.835,1.835,0,0,0,.525-.069c.415-.121.667-.38.589-.813a.691.691,0,0,0-.77-.586c-.664.011-1.328,0-1.992,0m5.262,0c-.291,0-.582,0-.873,0a.562.562,0,0,0-.629.48c-.069.373-.021.76.405.874a4.155,4.155,0,0,0,2.2,0,.639.639,0,0,0,.48-.751.679.679,0,0,0-.755-.6c-.274.016-.549,0-.824,0M265.332,30.556v0c.292,0,.583-.006.875,0a.7.7,0,0,0,.25-1.344,4.006,4.006,0,0,0-2.245,0,.7.7,0,0,0,.245,1.349c.291-.007.583,0,.875,0m10.523,20.6c.291,0,.582-.007.873,0a.667.667,0,0,0,.71-.6.639.639,0,0,0-.477-.753,4.157,4.157,0,0,0-2.2,0c-.426.113-.478.5-.409.872a.58.58,0,0,0,.674.485c.274-.01.549,0,.824,0m.091-10.553c-.308,0-.617,0-.925,0a.618.618,0,0,0-.67.572c-.056.381.056.7.458.8a4.52,4.52,0,0,0,2.161-.014.628.628,0,0,0,.466-.757.648.648,0,0,0-.662-.6h-.828m-.032-5.464c.276,0,.552,0,.828,0a.654.654,0,0,0,.7-.616.635.635,0,0,0-.483-.747,4.71,4.71,0,0,0-2.115-.017.618.618,0,0,0-.492.774.626.626,0,0,0,.69.6c.292,0,.584,0,.876,0m-.021,13.767c.259,0,.519.008.778,0a.73.73,0,1,0,.025-1.458c-.535-.014-1.071-.019-1.605,0-.5.019-.741.272-.746.715-.005.468.245.715.77.742.259.013.519,0,.778,0m0-17.481h-.827c-.479.021-.7.227-.725.669a.7.7,0,0,0,.635.778,13.882,13.882,0,0,0,1.749,0,.782.782,0,0,0,.715-.784.741.741,0,0,0-.818-.663c-.243-.006-.486,0-.73,0m-.013,24.317c.308,0,.617.006.925,0a.647.647,0,0,0,.626-.582.614.614,0,0,0-.408-.745,4.223,4.223,0,0,0-2.251-.027c-.372.091-.476.409-.427.772a.605.605,0,0,0,.61.58c.307.018.617,0,.925,0m-.006-3.711c-.276,0-.551,0-.827,0a.633.633,0,0,0-.7.59.663.663,0,0,0,.558.832,6.211,6.211,0,0,0,1.935-.006.67.67,0,0,0,.589-.771.7.7,0,0,0-.774-.647c-.259,0-.519,0-.778,0m-.031-12.3h.826a.693.693,0,0,0,.76-.662.67.67,0,0,0-.605-.759,5.9,5.9,0,0,0-1.929.021.648.648,0,0,0-.547.828.633.633,0,0,0,.717.572c.259,0,.518,0,.778,0m.034-3.715c-.243,0-.486,0-.729,0-.538.008-.769.192-.805.635a.66.66,0,0,0,.657.793,9.906,9.906,0,0,0,1.792,0,.7.7,0,0,0,.646-.735c.007-.409-.316-.677-.784-.693-.259-.009-.518,0-.778,0m0,8.3c.243,0,.486,0,.729,0,.5-.011.814-.269.84-.693a.806.806,0,0,0-.8-.764c-.533-.023-1.069-.024-1.6,0a.718.718,0,0,0-.706.763c.013.442.271.68.758.692.259.006.518,0,.777,0m-.022,16.017c.275,0,.551,0,.826,0a.691.691,0,0,0,.749-.674.656.656,0,0,0-.573-.735,5.384,5.384,0,0,0-2.021.027.637.637,0,0,0-.487.822.62.62,0,0,0,.679.559c.275,0,.551,0,.826,0m-.021-2.251h.787a.6.6,0,0,0,.1-.005.829.829,0,0,0,.724-.784.734.734,0,0,0-.809-.672c-.551-.009-1.1-.009-1.652,0a.6.6,0,0,0-.632.554.666.666,0,0,0,.437.816,3.244,3.244,0,0,0,1.047.089m.055-27.535v0c.275,0,.551-.009.826,0a.669.669,0,0,0,.718-.593.638.638,0,0,0-.472-.758,4.18,4.18,0,0,0-2.2-.005c-.369.1-.466.421-.413.78a.606.606,0,0,0,.619.569c.307.014.616,0,.924,0m-10.513.877v0c-.275,0-.551-.006-.826,0-.484.013-.7.217-.737.656a.667.667,0,0,0,.619.787,9.649,9.649,0,0,0,1.793,0,.723.723,0,1,0-.122-1.442c-.243-.006-.486,0-.729,0m-.067,3.716v0h.826a.7.7,0,0,0,.189-1.388,4.731,4.731,0,0,0-1.967,0c-.461.1-.614.4-.535.88.065.4.364.5.712.512.259.009.518,0,.777,0" transform="translate(-236.837 -24.496)" fill="#fc8072"/>
      <path id="Path_12246" data-name="Path 12246" d="M395.065,389.83a3.653,3.653,0,0,1,1.255.517,4.367,4.367,0,0,1,1.449,2.081,3.864,3.864,0,0,1-1.208,4.005c-.086.072-.162.158-.242.237a3.376,3.376,0,0,1-1.262.508,1.119,1.119,0,0,0-.45-.277,3.857,3.857,0,0,1-.33-6.607c.256-.168.577-.224.789-.465" transform="translate(-354.326 -351.763)" fill="#87ca3c"/>
      <path id="Path_12247" data-name="Path 12247" d="M123.6,31.052a1.314,1.314,0,0,1,.637-1.364q3.107-2.228,6.216-4.454a2.048,2.048,0,0,1,.258-.135l.014,6.346-.66.022a.916.916,0,0,0-.874-.411c-1.864.006-3.727,0-5.591,0" transform="translate(-111.611 -22.659)" fill="#d4ea57"/>
      <path id="Path_12248" data-name="Path 12248" d="M213.769,90.062c1.092.028,1.092.028,1.092,1.125q0,1.1,0,2.191l-6.359.009c0-.883.007-1.766,0-2.648a.951.951,0,0,1,.2-.67l1.261,0h1.384l2.424,0" transform="translate(-188.243 -81.276)" fill="#e4e7eb"/>
      <path id="Path_12249" data-name="Path 12249" d="M224.058,17.967h-1.384a3.339,3.339,0,0,1-.081-.77c.005-1.884,0-3.768.007-5.652a4.038,4.038,0,0,1,.1-.866.691.691,0,0,1,1.339,0,3.681,3.681,0,0,1,.1.817q.012,2.9,0,5.8a6.057,6.057,0,0,1-.075.673" transform="translate(-200.956 -9.178)" fill="#c4cbd2"/>
      <path id="Path_12250" data-name="Path 12250" d="M189.245,90.07a.95.95,0,0,0-.2.67c.01.883,0,1.766,0,2.648l-.3.006-1.8-.027a6.333,6.333,0,0,0,0-1.435,1.6,1.6,0,0,0-.007-.818c.111-.339-.084-.767.3-1.028l.66-.022,1.345.007" transform="translate(-168.788 -81.277)" fill="#e4e7eb"/>
      <path id="Path_12251" data-name="Path 12251" d="M415.995,460.368a3.38,3.38,0,0,0,1.262-.508q.01,1.808.021,3.616l-1.507,0q0-1.5.009-3l.216-.108" transform="translate(-375.264 -414.953)" fill="#fc8072"/>
      <path id="Path_12252" data-name="Path 12252" d="M154.56,186.47c0-.211-.012-.423-.012-.634q0-13.452,0-26.9c0-.2-.009-.39-.013-.585q0-.056,0-.112,0-.727,0-1.454,0-.344,0-.689c0-.144.012-.289.014-.433.009-.6.139-.734.735-.741l.914-.009.5.024a5.736,5.736,0,0,0-.1,1.552.9.9,0,0,0-.682.979c0,.618-.129,1.293.68,1.557v.786c-.725.23-.678.821-.688,1.413a1,1,0,0,0,.686,1.124q0,.392,0,.784c-.665.212-.686.741-.689,1.317,0,.558.08,1.027.688,1.221q0,.392,0,.783c-.576.187-.7.623-.688,1.173.008.582-.009,1.145.688,1.365q0,.392,0,.785a.97.97,0,0,0-.684,1.076c.012.6-.068,1.221.687,1.461v.786a.976.976,0,0,0-.687,1.071c.018.6-.068,1.224.689,1.465q0,.393,0,.787a.91.91,0,0,0-.681.976c.011.193,0,.387,0,.581a.9.9,0,0,0,.682.978q0,.394,0,.787c-.329.153-.634.344-.668.745a4.824,4.824,0,0,0,0,1.014.79.79,0,0,0,.67.776q0,2.145,0,4.289c-.229.077-.461-.137-.689.007l-1.263,0-.085-.1" transform="translate(-139.543 -139.788)" fill="#e4e7eb"/>
      <path id="Path_12253" data-name="Path 12253" d="M166.725,478.587c.228-.144.46.07.689-.007l1.753,0,2.832,0h1.541l2.832,0,3.816,0h1.349a.525.525,0,0,1,.589.6c0,.386,0,.773.005,1.159q-7.586,0-15.172.013c-.347,0-.473-.116-.431-.449.056-.438-.146-.915.2-1.31" transform="translate(-150.36 -431.805)" fill="#c4cbd2"/>
      <path id="Path_12254" data-name="Path 12254" d="M43.623,464.093q-.005-1.5-.01-3c-.124-.782.476-.444.806-.523.382-.032.8-.111.691.516q-.01,1.5-.02,3.008H43.623" transform="translate(-39.444 -415.573)" fill="#795532"/>
      <path id="Path_12255" data-name="Path 12255" d="M401.832,466.148q0,1.5-.009,3l-1.494,0q-.008-1.5-.016-3a3.665,3.665,0,0,0,1.519,0" transform="translate(-361.317 -420.625)" fill="#795532"/>
      <path id="Path_12256" data-name="Path 12256" d="M154.458,478.026l.085.1-.125-.006.04-.09" transform="translate(-139.441 -431.345)" fill="#c4cbd2"/>
      <path id="Path_12257" data-name="Path 12257" d="M119.728,86.459c-.381.261-.187.689-.3,1.028-.226.01-.451.028-.677.029q-2.744.008-5.487.011c-.064,0-.128-.008-.192-.01-.6-.014-.965-.29-.951-.718.015-.455.361-.729.948-.749l.193-.005c1.864,0,3.727.009,5.591,0a.915.915,0,0,1,.874.411" transform="translate(-101.276 -77.652)" fill="#87ca3c"/>
      <path id="Path_12258" data-name="Path 12258" d="M119.438,108.129a6.341,6.341,0,0,1,0,1.436l-.007-.008a.473.473,0,0,0-.325-.07l-5.842.008c-.064,0-.128-.006-.193-.007-.6-.011-.965-.29-.949-.719.016-.455.361-.726.949-.748l.193-.007q2.757,0,5.514.007a1.293,1.293,0,0,1,.659.107" transform="translate(-101.277 -97.476)" fill="#87ca3c"/>
      <path id="Path_12259" data-name="Path 12259" d="M113.84,131.487c-.82-.021-1.091-.213-1.08-.765.01-.517.279-.7,1.08-.716l4.672.016q0,.725,0,1.449l-4.672.016" transform="translate(-101.851 -117.318)" fill="#87ca3c"/>
      <path id="Path_12260" data-name="Path 12260" d="M118.071,152.273l-.914.009c-.6.007-.726.139-.735.741,0,.144-.009.289-.014.433l-3,.012a3.407,3.407,0,0,1-.57-.056.718.718,0,0,1,.186-1.417c.128,0,.257,0,.385-.008l4.672.016-.006.27" transform="translate(-101.417 -137.153)" fill="#87ca3c"/>
      <path id="Path_12261" data-name="Path 12261" d="M116.272,173.965l0,1.454-3.109.009c-.584,0-1.005-.3-1.032-.735s.35-.716,1-.732c.049,0,.1-.006.145-.008l3,.012" transform="translate(-101.28 -156.973)" fill="#87ca3c"/>
      <path id="Path_12262" data-name="Path 12262" d="M129.988,101.629a1.293,1.293,0,0,0-.659-.107q-2.757,0-5.514-.007,0-.332,0-.664,2.744,0,5.487-.011c.226,0,.452-.019.677-.029a1.6,1.6,0,0,1,.007.818" transform="translate(-111.827 -90.975)" fill="#d4ea57"/>
      <path id="Path_12263" data-name="Path 12263" d="M128.489,123.776l-4.672-.016q0-.334,0-.667l5.842-.008a.472.472,0,0,1,.325.07c-.224.014-.448.04-.672.038a.733.733,0,0,0-.822.584" transform="translate(-111.829 -111.073)" fill="#d4ea57"/>
      <path id="Path_12264" data-name="Path 12264" d="M128.489,145.7l-4.672-.016q0-.333,0-.667l4.672-.015v.7" transform="translate(-111.829 -130.852)" fill="#d4ea57"/>
      <path id="Path_12265" data-name="Path 12265" d="M126.817,167.716l-3-.012q0-.332,0-.665l3-.012q0,.344,0,.689" transform="translate(-111.825 -150.723)" fill="#d4ea57"/>
      <path id="Path_12266" data-name="Path 12266" d="M122.246,231.676q0,5.176,0,10.352c0,.5-.269.832-.673.839a.629.629,0,0,1-.652-.41,2.23,2.23,0,0,1-.138-.858q.006-9.912,0-19.824a2.955,2.955,0,0,1,.048-.579.71.71,0,0,1,.784-.64c.369.03.64.278.637.818-.019,3.434-.01,6.868-.01,10.3" transform="translate(-109.09 -199.02)" fill="#fec400"/>
      <path id="Path_12267" data-name="Path 12267" d="M97.76,231.554q0-5.127,0-10.254c0-.537.214-.834.626-.88a.822.822,0,0,1,.825.793,3.1,3.1,0,0,1,.01.439q0,9.912,0,19.824a2.223,2.223,0,0,1-.138.858.625.625,0,0,1-.748.4.688.688,0,0,1-.571-.585,2.4,2.4,0,0,1-.008-.439q0-5.078,0-10.156" transform="translate(-88.311 -198.898)" fill="#fec400"/>
      <path id="Path_12268" data-name="Path 12268" d="M37.74,397.249c.108-.627-.309-.548-.691-.516-.016-.146-.126-.206-.23-.289a3.841,3.841,0,0,1,.585-6.317c.183-.1.4-.141.528-.326l.368.043.883.461a4.75,4.75,0,0,1,1.459,1.961,3.907,3.907,0,0,1-.678,3.616,3.747,3.747,0,0,1-2.224,1.367" transform="translate(-32.075 -351.737)" fill="#87ca3c"/>
      <path id="Path_12269" data-name="Path 12269" d="M75.325,239.529a4.752,4.752,0,0,0-1.459-1.961q0-7.957,0-15.914c0-.13,0-.26,0-.391a.665.665,0,0,1,.633-.73.7.7,0,0,1,.755.555,1.644,1.644,0,0,1,.074.478q0,8.982-.006,17.964" transform="translate(-66.757 -199)" fill="#fec400"/>
      <path id="Path_12270" data-name="Path 12270" d="M51.4,237.279l-.368-.043a3.379,3.379,0,0,0-1.085-.183q0-7.69,0-15.379c0-.329-.015-.652.338-.847a.689.689,0,0,1,1.009.311,1.408,1.408,0,0,1,.118.568q-.011,7.787-.012,15.574" transform="translate(-45.174 -199.173)" fill="#fec400"/>
      <path id="Path_12271" data-name="Path 12271" d="M188.388,186.556l-3.816,0q0-4.627,0-9.255c0-.52-.183-.7-.7-.7-.713,0-1.425,0-2.138.008h-1.529c-.7,0-1.393-.01-2.089-.008-.582,0-.752.17-.752.752q0,4.6,0,9.206l-1.753,0q0-2.145,0-4.289c.473-.057.77-.269.785-.8.039-1.406,0-1.508-.789-1.736q0-.393,0-.787c.621-.123.775-.3.782-.9,0-.21,0-.42,0-.631,0-.688-.1-.81-.786-1.009q0-.393,0-.787c.584-.117.766-.316.784-.854.044-1.36-.009-1.474-.785-1.681q0-.393,0-.786c.6-.119.775-.317.784-.9q.006-.364,0-.729c-.009-.586-.184-.785-.786-.9q0-.392,0-.785c.58-.113.769-.317.784-.855,0-.178,0-.356,0-.534,0-.845-.023-.878-.786-1.148v-.783c.563-.093.769-.315.784-.853.005-.178,0-.357,0-.535,0-.849-.016-.871-.785-1.151q0-.392,0-.784c.6-.119.776-.318.786-.9,0-.194,0-.388,0-.582,0-.749-.067-.836-.784-1.053q0-.393,0-.786c.679-.18.782-.311.786-1,0-.21,0-.42,0-.63-.01-.585-.183-.784-.783-.9a5.742,5.742,0,0,1,.1-1.552l2.612-.025,8.4.008a4.285,4.285,0,0,1,1.544.125,3.209,3.209,0,0,1,.118,1.064q0,.481,0,.962,0,.644.007,1.288,0,.526,0,1.052,0,.644,0,1.287,0,.481,0,.962,0,.644.005,1.288v1.051l-.005,1.288q0,.481,0,.962,0,.644,0,1.287,0,.526,0,1.052,0,.644-.007,1.288l0,.962q0,.644,0,1.288l0,1.051q0,.6,0,1.2l0,1.051q0,.644,0,1.288,0,.481,0,.962,0,.644.008,1.288,0,.526,0,1.052,0,.643,0,1.287,0,.481,0,.962,0,.644.006,1.288,0,.526,0,1.052,0,.979,0,1.957m-3.524-12.17c0-.2.011-.391,0-.585a.722.722,0,0,0-1.438-.037,5.213,5.213,0,0,0,0,1.216.67.67,0,0,0,.74.628.7.7,0,0,0,.693-.686,4.625,4.625,0,0,0,0-.536m-6.336-16.651h0c0-.163.01-.326,0-.487a.755.755,0,0,0-.735-.757.747.747,0,0,0-.719.77c-.014.341-.017.683,0,1.024a.739.739,0,0,0,.724.712.757.757,0,0,0,.721-.677,4.164,4.164,0,0,0,0-.584m-1.455,16.547c0,.233-.01.413,0,.591a.725.725,0,1,0,1.451.012,8.7,8.7,0,0,0,0-1.072.715.715,0,0,0-.651-.685.687.687,0,0,0-.74.438,1.964,1.964,0,0,0-.06.716m7.813-16.558h-.02c0-.163.01-.326,0-.487a.726.726,0,1,0-1.451-.013,8.646,8.646,0,0,0,0,1.072.712.712,0,0,0,.65.685.66.66,0,0,0,.752-.484,3.873,3.873,0,0,0,.069-.771m-.022,13.343c0-.195.012-.391,0-.585a.709.709,0,0,0-.689-.691.762.762,0,0,0-.756.685,8.006,8.006,0,0,0,0,1.12.723.723,0,0,0,.743.691.734.734,0,0,0,.7-.732c.012-.162,0-.325,0-.487m-7.791-.055c0,.179-.01.358,0,.536a.726.726,0,1,0,1.452.006,9.205,9.205,0,0,0,0-1.023.788.788,0,0,0-.755-.745.732.732,0,0,0-.7.739c-.011.162,0,.325,0,.487m7.792-6.609c0-.178.011-.358,0-.535a.735.735,0,0,0-.709-.728.775.775,0,0,0-.74.7,7.04,7.04,0,0,0,0,1.118.74.74,0,0,0,.715.677.708.708,0,0,0,.728-.7c.016-.177,0-.357,0-.535m-7.791-.043c0,.195-.012.39,0,.584a.711.711,0,0,0,.687.693.764.764,0,0,0,.758-.681,8.219,8.219,0,0,0,0-1.118.741.741,0,0,0-.744-.69.71.71,0,0,0-.7.678c-.017.177,0,.357,0,.535m7.785,3.378h.006c0-.178.01-.358,0-.535a.733.733,0,0,0-.7-.74.788.788,0,0,0-.752.695,7.154,7.154,0,0,0,.008,1.166.685.685,0,0,0,.744.625.667.667,0,0,0,.688-.628,4.625,4.625,0,0,0,0-.583m-7.787-.056c0,.178-.01.357,0,.535a.738.738,0,0,0,.738.748.771.771,0,0,0,.714-.731,9.635,9.635,0,0,0,0-1.022.791.791,0,0,0-.75-.751.735.735,0,0,0-.7.734c-.012.161,0,.324,0,.487m1.457-6.566h0c0-.178.009-.357,0-.535a.747.747,0,0,0-.726-.765.735.735,0,0,0-.729.758c-.015.34-.016.682,0,1.022a.768.768,0,0,0,.716.727.806.806,0,0,0,.734-.72c.015-.161,0-.324,0-.486m6.334.041c0-.272.016-.468,0-.66a.683.683,0,0,0-.706-.667.668.668,0,0,0-.732.634,6.272,6.272,0,0,0,0,1.214.722.722,0,0,0,1.385.172,1.966,1.966,0,0,0,.053-.693m2.15-.15a3.29,3.29,0,0,0-.052-.588.7.7,0,0,0-.775-.59.683.683,0,0,0-.645.769c.011.34-.009.681.008,1.021a.673.673,0,0,0,.636.68.689.689,0,0,0,.749-.486,2.574,2.574,0,0,0,.078-.806m-1.467,16.669h0c0,.162,0,.324,0,.486a.69.69,0,0,0,.657.762.658.658,0,0,0,.744-.557,2.861,2.861,0,0,0,0-1.391.71.71,0,0,0-1.4.165c-.011.178,0,.356,0,.535m0-19.96q0,.243,0,.486a.705.705,0,0,0,.643.776.744.744,0,0,0,.8-.68,5.285,5.285,0,0,0,0-1.114.765.765,0,0,0-.8-.684.7.7,0,0,0-.639.779c.006.145,0,.291,0,.437m0,23.312c0,.113,0,.227,0,.34.007.547.291.893.732.89.4,0,.707-.357.726-.872a6.264,6.264,0,0,0-.011-.921.764.764,0,0,0-.8-.7.721.721,0,0,0-.653.775c0,.162,0,.324,0,.486M187,171.064a3.993,3.993,0,0,0,0-.581.8.8,0,0,0-.753-.695.734.734,0,0,0-.691.788c-.011.34-.017.681,0,1.019a.676.676,0,0,0,.634.684.713.713,0,0,0,.75-.5,1.883,1.883,0,0,0,.06-.718m-.007,3.339a3.562,3.562,0,0,0-.006-.629.736.736,0,0,0-.783-.648c-.378,0-.638.317-.652.764a10.252,10.252,0,0,0,.006,1.068.684.684,0,0,0,1.03.549c.452-.246.429-.679.406-1.1m-1.439-10.022h0c0,.178-.006.356,0,.534a.687.687,0,0,0,.655.713.65.65,0,0,0,.729-.507,2.664,2.664,0,0,0-.008-1.478.647.647,0,0,0-.744-.479.67.67,0,0,0-.626.636,5.577,5.577,0,0,0,0,.582m-2.821.017c0-.194,0-.389,0-.583a.654.654,0,0,0-.6-.658.644.644,0,0,0-.758.461,2.408,2.408,0,0,0,0,1.525.638.638,0,0,0,.745.475.654.654,0,0,0,.618-.687c0-.178,0-.356,0-.534m-3.516-.041h0c0,.194,0,.388,0,.583a.66.66,0,0,0,.624.682.623.623,0,0,0,.724-.44,2.306,2.306,0,0,0-.01-1.614.634.634,0,0,0-.743-.41.653.653,0,0,0-.588.617c-.012.193,0,.388,0,.583m6.331,3.339c0,.162-.006.324,0,.485a.739.739,0,0,0,.7.784.782.782,0,0,0,.746-.7,5.521,5.521,0,0,0,0-1.113.784.784,0,0,0-.754-.688.741.741,0,0,0-.687.793c-.006.145,0,.291,0,.437m-2.817.038h0c0-.178,0-.356,0-.534a.657.657,0,0,0-.6-.7.629.629,0,0,0-.759.449,2.279,2.279,0,0,0,.025,1.614.63.63,0,0,0,.753.39.653.653,0,0,0,.573-.631c.007-.194,0-.388,0-.583m-3.52-.034h0c0,.194,0,.389,0,.583a.7.7,0,0,0,1.37.173,2.559,2.559,0,0,0,.009-1.433.7.7,0,0,0-1.383.192c.006.162,0,.324,0,.486m3.52,3.361h0c0-.178,0-.356,0-.534a.662.662,0,0,0-.639-.718.641.641,0,0,0-.732.5,2.449,2.449,0,0,0,.016,1.525.641.641,0,0,0,.725.446.655.655,0,0,0,.623-.634c.011-.194,0-.388,0-.583m-3.519-.048c0,.178,0,.356,0,.534a.7.7,0,0,0,1.387.193,2.889,2.889,0,0,0,.04-1.249.73.73,0,0,0-.743-.694c-.421,0-.675.331-.685.827,0,.13,0,.259,0,.389m3.519,3.383h0c0-.194,0-.388,0-.582a.632.632,0,0,0-.576-.666.641.641,0,0,0-.774.427,2.322,2.322,0,0,0,.015,1.613.633.633,0,0,0,.744.407.654.654,0,0,0,.586-.617c.012-.193,0-.388,0-.582m-3.517-.078h0c0,.21-.006.421,0,.63a.656.656,0,0,0,.607.649.636.636,0,0,0,.734-.426,2.392,2.392,0,0,0,.017-1.569.646.646,0,0,0-.757-.46.639.639,0,0,0-.606.691c0,.162,0,.323,0,.485m3.521-13.25h0c0-.194.005-.388,0-.582a.7.7,0,0,0-1.359-.183,2.516,2.516,0,0,0-.016,1.478.657.657,0,0,0,.77.508.636.636,0,0,0,.609-.688c0-.178,0-.356,0-.533m-3.52.006h0c0,.162.006.324,0,.485a.646.646,0,0,0,.616.731.668.668,0,0,0,.78-.561,2.589,2.589,0,0,0-.034-1.431.7.7,0,0,0-1.358.195c0,.194,0,.388,0,.582m0-3.326h0c0,.162.006.324,0,.485a.647.647,0,0,0,.612.734.666.666,0,0,0,.782-.557,2.594,2.594,0,0,0-.031-1.432.647.647,0,0,0-.755-.465.654.654,0,0,0-.6.652c-.006.194,0,.388,0,.582m3.52.039h0c0-.21.007-.421,0-.63a.657.657,0,0,0-.612-.645.638.638,0,0,0-.731.431,2.446,2.446,0,0,0-.028,1.523.653.653,0,0,0,.774.5.637.637,0,0,0,.6-.694c0-.162,0-.323,0-.485" transform="translate(-158.56 -139.785)" fill="#e4e7eb"/>
      <path id="Path_12272" data-name="Path 12272" d="M211.833,127.038l-8.4-.008a12.012,12.012,0,0,1,.2-3l.3-.006,6.359-.009.355.017c1.066.051,1.1.076,1.181.871q0,.388,0,.777a7.931,7.931,0,0,0,.009,1.361" transform="translate(-183.666 -111.91)" fill="#c4cbd2"/>
      <path id="Path_12273" data-name="Path 12273" d="M373.566,395.692a3.665,3.665,0,0,1-1.519,0,4.4,4.4,0,0,1-2.455-1.583l0,.007c-.01-.057-.032-.1-.1-.1h.011l-.454-1.179a8.78,8.78,0,0,1-.065-1.356l.2-.887.413-.852a5.614,5.614,0,0,1,1.659-1.38,4.772,4.772,0,0,1,2.224-.242l.311.122c-.212.241-.533.3-.789.465a3.857,3.857,0,0,0,.33,6.607,1.117,1.117,0,0,1,.45.277l-.215.108" transform="translate(-333.051 -350.169)" fill="#87ca3c"/>
      <path id="Path_12274" data-name="Path 12274" d="M323.965,446.329c-.016.885-.215,1.082-1.1,1.082-1.183,0-2.367,0-3.55,0-.565,0-.9-.286-.9-.737s.34-.724.911-.725c1.167,0,2.335.012,3.5-.008a1.607,1.607,0,0,1,1.046.292h-.011l.1.1Z" transform="translate(-287.423 -402.391)" fill="#f14f4c"/>
      <path id="Path_12275" data-name="Path 12275" d="M321.17,236.508c-.633,0-1.266.005-1.9,0-.526-.006-.856-.3-.851-.737s.333-.723.863-.725q1.9-.008,3.8,0c.529,0,.864.283.876.713s-.337.745-.888.749c-.633.005-1.266,0-1.9,0" transform="translate(-287.423 -212.094)" fill="#f14f4c"/>
      <path id="Path_12276" data-name="Path 12276" d="M321.206,375.992c.633,0,1.266,0,1.9,0,.507,0,.837.259.855.658a.779.779,0,0,1-.852.8c-.714.02-1.428.006-2.142.005-.552,0-1.1.019-1.655-.008a.843.843,0,0,1-.861-.586.683.683,0,0,1,.226-.7.628.628,0,0,1,.534-.172c.665,0,1.331,0,2,0" transform="translate(-287.423 -339.276)" fill="#f14f4c"/>
      <path id="Path_12277" data-name="Path 12277" d="M321.173,118.045c.632,0,1.264,0,1.9,0a.757.757,0,0,1,.83.693.729.729,0,0,1-.737.754c-1.36.03-2.722.026-4.082,0a.809.809,0,0,1-.724-.786.765.765,0,0,1,.825-.66c.664-.008,1.329,0,1.993,0" transform="translate(-287.364 -106.524)" fill="#f14f4c"/>
      <path id="Path_12278" data-name="Path 12278" d="M321.214,142.523c-.648,0-1.3,0-1.944,0-.526-.005-.862-.3-.858-.728a.813.813,0,0,1,.836-.73q1.92-.021,3.84,0c.534.006.863.307.864.727,0,.444-.345.731-.89.732-.616,0-1.232,0-1.847,0" transform="translate(-287.416 -127.287)" fill="#f14f4c"/>
      <path id="Path_12279" data-name="Path 12279" d="M321.168,353.482c-.648,0-1.3,0-1.944,0-.5,0-.852-.28-.869-.665a.82.82,0,0,1,.875-.794q1.9-.018,3.791,0a.8.8,0,0,1,.879.723c0,.444-.343.736-.884.737-.616,0-1.231,0-1.847,0" transform="translate(-287.364 -317.64)" fill="#f14f4c"/>
      <path id="Path_12280" data-name="Path 12280" d="M321.3,165.017c.649,0,1.3.008,1.946,0a.7.7,0,0,1,.791.619.652.652,0,0,1-.57.774,2.04,2.04,0,0,1-.525.076q-1.679,0-3.358,0a2.019,2.019,0,0,1-.524-.082.7.7,0,0,1,.2-1.387c.681.013,1.362,0,2.044,0" transform="translate(-287.506 -148.907)" fill="#f14f4c"/>
      <path id="Path_12281" data-name="Path 12281" d="M321.366,328.979c.648,0,1.3.013,1.944,0a.718.718,0,0,1,.78.643.7.7,0,0,1-.616.791,1.465,1.465,0,0,1-.336.033c-1.215,0-2.431.008-3.646,0-.7-.006-1.092-.512-.835-1.061a.709.709,0,0,1,.716-.4q1,0,1.993,0" transform="translate(-287.565 -296.852)" fill="#f14f4c"/>
      <path id="Path_12282" data-name="Path 12282" d="M321.26,306.534c-.665,0-1.33-.015-1.995,0a.681.681,0,0,1-.762-.6.672.672,0,0,1,.55-.795,1.932,1.932,0,0,1,.525-.077c1.119,0,2.238,0,3.358,0a1.753,1.753,0,0,1,.291.012c.551.094.824.373.8.805-.025.408-.359.646-.915.647-.616,0-1.233,0-1.849,0" transform="translate(-287.487 -275.281)" fill="#f14f4c"/>
      <path id="Path_12283" data-name="Path 12283" d="M321.167,189.485c-.631,0-1.263.006-1.894,0a.743.743,0,0,1-.831-.7.8.8,0,0,1,.8-.755c1.311-.017,2.622-.019,3.933,0a.736.736,0,0,1,.8.739c-.009.43-.343.711-.869.715-.647.006-1.295,0-1.942,0" transform="translate(-287.442 -169.661)" fill="#f14f4c"/>
      <path id="Path_12284" data-name="Path 12284" d="M321.248,95.558c-.664,0-1.329-.013-1.993.005a.678.678,0,0,1-.755-.606.657.657,0,0,1,.558-.784,2.27,2.27,0,0,1,.475-.076c1.15-.006,2.3,0,3.451-.007a1.773,1.773,0,0,1,.567.114.6.6,0,0,1,.458.706.673.673,0,0,1-.671.645c-.7.006-1.394,0-2.09,0" transform="translate(-287.486 -84.911)" fill="#f14f4c"/>
      <path id="Path_12285" data-name="Path 12285" d="M321.219,282.032c.631,0,1.263,0,1.894,0,.524,0,.858.288.866.717a.738.738,0,0,1-.8.737c-1.311.021-2.622.018-3.933,0a.8.8,0,0,1-.8-.757.743.743,0,0,1,.833-.7c.648-.007,1.3,0,1.943,0" transform="translate(-287.444 -254.493)" fill="#f14f4c"/>
      <path id="Path_12286" data-name="Path 12286" d="M321.223,48.6c-.664,0-1.329-.011-1.993,0a.678.678,0,0,1-.746-.617.687.687,0,0,1,.539-.763,1.367,1.367,0,0,1,.424-.084q1.774-.01,3.549,0a1.937,1.937,0,0,1,.52.1.628.628,0,0,1,.48.785.663.663,0,0,1-.682.573c-.7,0-1.394,0-2.09,0" transform="translate(-287.473 -42.54)" fill="#f14f4c"/>
      <path id="Path_12287" data-name="Path 12287" d="M321.234,71.073c.631,0,1.263-.006,1.894,0a.758.758,0,0,1,.835.7.73.73,0,0,1-.782.754c-1.327.023-2.655.02-3.982,0a.811.811,0,0,1-.774-.737.741.741,0,0,1,.817-.716c.664-.009,1.327,0,1.991,0" transform="translate(-287.428 -64.14)" fill="#f14f4c"/>
      <path id="Path_12288" data-name="Path 12288" d="M321.22,259.542c-.68,0-1.36-.011-2.04,0a.677.677,0,0,1-.726-.584.693.693,0,0,1,.5-.789,1.383,1.383,0,0,1,.568-.1c1.117.005,2.234,0,3.352,0a1.753,1.753,0,0,1,.429.052c.477.123.717.421.668.809-.046.362-.381.6-.859.6-.632,0-1.263,0-1.894,0" transform="translate(-287.44 -232.878)" fill="#f14f4c"/>
      <path id="Path_12289" data-name="Path 12289" d="M321.17,212c.664,0,1.328.008,1.992,0a.691.691,0,0,1,.77.586c.079.433-.174.692-.589.813a1.839,1.839,0,0,1-.525.069c-1.1,0-2.2,0-3.3,0a1.363,1.363,0,0,1-.659-.127.7.7,0,0,1,.275-1.343c.68.01,1.36,0,2.04,0" transform="translate(-287.409 -191.297)" fill="#f14f4c"/>
      <path id="Path_12290" data-name="Path 12290" d="M324,399.594l-.413.852c-1.429,0-2.858.011-4.287.009a.741.741,0,0,1-.845-.689.8.8,0,0,1,.8-.766c1.315-.018,2.631-.015,3.946,0a.807.807,0,0,1,.8.594" transform="translate(-287.451 -360.026)" fill="#f14f4c"/>
      <path id="Path_12291" data-name="Path 12291" d="M323.387,422.948a8.776,8.776,0,0,0,.065,1.356,1.219,1.219,0,0,1-.566.11q-1.679-.007-3.357,0a1.4,1.4,0,0,1-.569-.1.694.694,0,0,1-.5-.748.685.685,0,0,1,.743-.622c1.395.011,2.79,0,4.184,0" transform="translate(-287.45 -381.642)" fill="#f14f4c"/>
      <path id="Path_12292" data-name="Path 12292" d="M386.477,211.986c.275,0,.55.012.824,0a.679.679,0,0,1,.755.6.639.639,0,0,1-.48.751,4.156,4.156,0,0,1-2.2,0c-.426-.115-.474-.5-.405-.874a.561.561,0,0,1,.628-.48c.291.006.582,0,.873,0" transform="translate(-347.454 -191.286)" fill="#f14f4c"/>
      <path id="Path_12293" data-name="Path 12293" d="M278.394,48.238c-.292,0-.583-.006-.875,0a.7.7,0,0,1-.245-1.349,4.005,4.005,0,0,1,2.245,0,.7.7,0,0,1-.25,1.344c-.291-.008-.583,0-.875,0Z" transform="translate(-249.898 -42.178)" fill="#f14f4c"/>
      <path id="Path_12294" data-name="Path 12294" d="M386.471,259.234c-.275,0-.55-.008-.824,0a.58.58,0,0,1-.674-.485c-.069-.373-.018-.759.409-.872a4.156,4.156,0,0,1,2.2,0,.639.639,0,0,1,.477.753.667.667,0,0,1-.71.6c-.291-.009-.582,0-.873,0" transform="translate(-347.452 -232.57)" fill="#f14f4c"/>
      <path id="Path_12295" data-name="Path 12295" d="M386.618,165.039h.828a.648.648,0,0,1,.662.6.628.628,0,0,1-.466.757,4.519,4.519,0,0,1-2.161.014c-.4-.094-.514-.416-.458-.8a.618.618,0,0,1,.67-.571c.308-.006.617,0,.925,0" transform="translate(-347.508 -148.927)" fill="#f14f4c"/>
      <path id="Path_12296" data-name="Path 12296" d="M386.6,95.347c-.292,0-.584,0-.876,0a.626.626,0,0,1-.69-.6.618.618,0,0,1,.492-.774,4.708,4.708,0,0,1,2.115.017.635.635,0,0,1,.483.747.654.654,0,0,1-.7.616c-.276-.005-.552,0-.828,0" transform="translate(-347.525 -84.7)" fill="#f14f4c"/>
      <path id="Path_12297" data-name="Path 12297" d="M386.633,236.451c-.259,0-.519.011-.778,0-.525-.027-.775-.274-.77-.742,0-.443.249-.7.746-.715.534-.02,1.07-.016,1.605,0a.73.73,0,1,1-.025,1.458c-.259.01-.519,0-.778,0" transform="translate(-347.577 -212.038)" fill="#f14f4c"/>
      <path id="Path_12298" data-name="Path 12298" d="M386.63,71.077c.243,0,.487-.005.73,0a.741.741,0,0,1,.818.663.782.782,0,0,1-.715.784,13.881,13.881,0,0,1-1.749,0,.7.7,0,0,1-.635-.778c.022-.441.246-.648.725-.669h.827" transform="translate(-347.57 -64.144)" fill="#f14f4c"/>
      <path id="Path_12299" data-name="Path 12299" d="M386.557,306.239c-.308,0-.618.014-.925,0a.605.605,0,0,1-.61-.58c-.049-.362.054-.681.427-.772a4.224,4.224,0,0,1,2.251.027.614.614,0,0,1,.408.745.647.647,0,0,1-.626.582c-.308.007-.617,0-.925,0" transform="translate(-347.51 -274.989)" fill="#f14f4c"/>
      <path id="Path_12300" data-name="Path 12300" d="M386.543,282.046c.259,0,.519,0,.778,0a.7.7,0,0,1,.774.647.669.669,0,0,1-.589.771,6.209,6.209,0,0,1-1.935.006.663.663,0,0,1-.558-.832.633.633,0,0,1,.7-.59c.276,0,.551,0,.827,0" transform="translate(-347.502 -254.507)" fill="#f14f4c"/>
      <path id="Path_12301" data-name="Path 12301" d="M386.522,142.336c-.259,0-.518,0-.778,0a.633.633,0,0,1-.717-.572.648.648,0,0,1,.547-.827,5.9,5.9,0,0,1,1.929-.021.67.67,0,0,1,.605.759.693.693,0,0,1-.76.662h-.826" transform="translate(-347.512 -127.1)" fill="#f14f4c"/>
      <path id="Path_12302" data-name="Path 12302" d="M386.594,118.041c.259,0,.519-.007.778,0,.467.016.791.284.784.693a.7.7,0,0,1-.647.735,9.906,9.906,0,0,1-1.792,0,.66.66,0,0,1-.658-.793c.036-.443.268-.627.805-.635.243,0,.486,0,.729,0" transform="translate(-347.55 -106.52)" fill="#f14f4c"/>
      <path id="Path_12303" data-name="Path 12303" d="M386.619,189.443c-.259,0-.518.005-.777,0-.488-.012-.745-.251-.758-.692a.718.718,0,0,1,.706-.763c.533-.025,1.069-.024,1.6,0a.806.806,0,0,1,.8.764c-.025.424-.335.682-.839.693-.243.005-.486,0-.729,0" transform="translate(-347.575 -169.619)" fill="#f14f4c"/>
      <path id="Path_12304" data-name="Path 12304" d="M386.533,353.279c-.276,0-.551,0-.826,0a.62.62,0,0,1-.679-.559.637.637,0,0,1,.487-.822,5.382,5.382,0,0,1,2.021-.027.656.656,0,0,1,.573.735.691.691,0,0,1-.749.674c-.275,0-.551,0-.826,0" transform="translate(-347.51 -317.438)" fill="#f14f4c"/>
      <path id="Path_12305" data-name="Path 12305" d="M386.513,330.449a3.242,3.242,0,0,1-1.048-.089.666.666,0,0,1-.437-.816.6.6,0,0,1,.632-.554c.551-.012,1.1-.012,1.652,0a.734.734,0,0,1,.809.671.829.829,0,0,1-.724.784.618.618,0,0,1-.1.006h-.787" transform="translate(-347.512 -296.858)" fill="#f14f4c"/>
      <path id="Path_12306" data-name="Path 12306" d="M386.555,48.284c-.308,0-.616.011-.924,0a.606.606,0,0,1-.619-.569c-.053-.359.044-.684.413-.78a4.18,4.18,0,0,1,2.2.005.638.638,0,0,1,.472.758.669.669,0,0,1-.718.593c-.275-.011-.551,0-.826,0Z" transform="translate(-347.499 -42.228)" fill="#f14f4c"/>
      <path id="Path_12307" data-name="Path 12307" d="M278.833,71.046c.243,0,.486-.005.728,0a.723.723,0,1,1,.122,1.441,9.65,9.65,0,0,1-1.794,0,.667.667,0,0,1-.619-.787c.038-.438.253-.642.737-.656.275-.008.55,0,.826,0Z" transform="translate(-250.29 -64.112)" fill="#f14f4c"/>
      <path id="Path_12308" data-name="Path 12308" d="M278.687,95.322c-.259,0-.518.007-.777,0-.348-.012-.646-.109-.712-.512-.078-.483.075-.778.535-.88a4.73,4.73,0,0,1,1.967,0,.7.7,0,0,1-.189,1.388h-.826Z" transform="translate(-250.21 -84.672)" fill="#f14f4c"/>
      <path id="Path_12309" data-name="Path 12309" d="M387.762,377.193a4.772,4.772,0,0,0-2.223.242c-.268-.108-.568-.18-.677-.5a.711.711,0,0,1,.692-.97c.47-.013.94,0,1.41,0,.881,0,1.148.414.8,1.229" transform="translate(-347.334 -339.248)" fill="#f14f4c"/>
      <path id="Path_12310" data-name="Path 12310" d="M278.45,119.468c-.081-.795-.115-.82-1.181-.871.019-.438.31-.583.681-.6.533-.017,1.067-.009,1.6,0,.483.007.793.264.816.656a.8.8,0,0,1-.8.8c-.371.02-.744.008-1.116.009" transform="translate(-250.292 -106.478)" fill="#f14f4c"/>
      <path id="Path_12311" data-name="Path 12311" d="M289.137,142.421a7.933,7.933,0,0,1-.009-1.361c.256,0,.512.008.768,0,.427-.008.835.005,1.073.455s-.095.713-.289,1.027a4.286,4.286,0,0,0-1.544-.125" transform="translate(-260.97 -127.293)" fill="#f14f4c"/>
      <path id="Path_12312" data-name="Path 12312" d="M306.495,285.206q0-.526,0-1.052c.38.35.286.7,0,1.052" transform="translate(-276.661 -256.41)" fill="#f14f4c"/>
      <path id="Path_12313" data-name="Path 12313" d="M306.483,355.226l0-1.051c.281.352.378.7,0,1.051" transform="translate(-276.652 -319.591)" fill="#f14f4c"/>
      <path id="Path_12314" data-name="Path 12314" d="M306.49,332.189l0-1.051c.382.349.286.7,0,1.051" transform="translate(-276.655 -298.804)" fill="#f14f4c"/>
      <path id="Path_12315" data-name="Path 12315" d="M306.491,402.2q0-.526,0-1.052c.283.351.378.7,0,1.052" transform="translate(-276.659 -361.98)" fill="#f14f4c"/>
      <path id="Path_12316" data-name="Path 12316" d="M306.494,191.251q0-.526,0-1.052c.284.351.378.7,0,1.052" transform="translate(-276.662 -171.632)" fill="#f14f4c"/>
      <path id="Path_12317" data-name="Path 12317" d="M306.5,449.185q0-.526,0-1.052c.288.351.376.7,0,1.052" transform="translate(-276.667 -404.371)" fill="#f14f4c"/>
      <path id="Path_12318" data-name="Path 12318" d="M306.441,309.07q0-.481,0-.962c.394.319.313.64,0,.962" transform="translate(-276.611 -278.024)" fill="#f14f4c"/>
      <path id="Path_12319" data-name="Path 12319" d="M306.444,426.058V425.1c.312.321.391.642,0,.962" transform="translate(-276.617 -383.585)" fill="#f14f4c"/>
      <path id="Path_12320" data-name="Path 12320" d="M306.435,379.083q0-.481,0-.962c.309.322.39.643,0,.962" transform="translate(-276.609 -341.198)" fill="#f14f4c"/>
      <path id="Path_12321" data-name="Path 12321" d="M306.437,168.124q0-.481,0-.962c.31.322.391.643,0,.962" transform="translate(-276.611 -150.845)" fill="#f14f4c"/>
      <path id="Path_12322" data-name="Path 12322" d="M306.5,238.232v-1.051a.692.692,0,0,1,0,1.051" transform="translate(-276.669 -214.025)" fill="#f14f4c"/>
      <path id="Path_12323" data-name="Path 12323" d="M306.447,215.106q0-.481,0-.962a.589.589,0,0,1,0,.962" transform="translate(-276.62 -193.238)" fill="#f14f4c"/>
      <path id="Path_12324" data-name="Path 12324" d="M306.448,262.088q0-.481,0-.962a.589.589,0,0,1,0,.962" transform="translate(-276.62 -235.631)" fill="#f14f4c"/>
      <path id="Path_12325" data-name="Path 12325" d="M174.891,123.838a12.012,12.012,0,0,0-.2,3l-2.612.025-.5-.024q0-.135.007-.27v-.7q0-.725,0-1.449a.733.733,0,0,1,.822-.584c.224,0,.448-.024.672-.038l.007.008,1.8.027" transform="translate(-154.929 -111.721)" fill="#c4cbd2"/>
      <path id="Path_12326" data-name="Path 12326" d="M169.3,307.079c.6.118.777.317.786.9q.006.364,0,.729c-.009.588-.182.786-.784.9-.755-.24-.675-.861-.687-1.461a.97.97,0,0,1,.685-1.076" transform="translate(-152.255 -277.095)" fill="#9fa8b0"/>
      <path id="Path_12327" data-name="Path 12327" d="M169.306,171.043c.6.119.773.318.783.9,0,.21,0,.42,0,.63,0,.691-.106.822-.786,1-.808-.264-.677-.939-.68-1.557a.9.9,0,0,1,.682-.979" transform="translate(-152.253 -154.347)" fill="#9fa8b0"/>
      <path id="Path_12328" data-name="Path 12328" d="M169.23,409.123c.789.228.828.33.789,1.736-.015.529-.312.742-.785.8a.79.79,0,0,1-.67-.776,4.824,4.824,0,0,1,0-1.014c.034-.4.339-.592.668-.745" transform="translate(-152.18 -369.172)" fill="#9fa8b0"/>
      <path id="Path_12329" data-name="Path 12329" d="M169.3,205.056c.718.218.783.3.785,1.053,0,.194,0,.388,0,.582-.01.583-.184.782-.786.9a1,1,0,0,1-.686-1.124c.01-.591-.037-1.183.688-1.413" transform="translate(-152.246 -185.038)" fill="#9fa8b0"/>
      <path id="Path_12330" data-name="Path 12330" d="M169.333,375.115c.687.2.783.321.786,1.009,0,.21,0,.42,0,.631-.007.6-.162.772-.782.9a.9.9,0,0,1-.682-.978c0-.194.009-.388,0-.581a.91.91,0,0,1,.681-.976" transform="translate(-152.282 -338.486)" fill="#9fa8b0"/>
      <path id="Path_12331" data-name="Path 12331" d="M169.287,239.059c.769.279.785.3.785,1.151,0,.178,0,.357,0,.535-.016.537-.222.759-.785.852-.608-.194-.69-.663-.688-1.221,0-.576.024-1.105.689-1.317" transform="translate(-152.236 -215.719)" fill="#9fa8b0"/>
      <path id="Path_12332" data-name="Path 12332" d="M169.291,341.1c.776.207.829.321.785,1.681-.017.539-.2.738-.784.854-.756-.241-.671-.864-.689-1.465a.976.976,0,0,1,.687-1.071" transform="translate(-152.24 -307.796)" fill="#9fa8b0"/>
      <path id="Path_12333" data-name="Path 12333" d="M169.288,273.064c.762.27.785.3.786,1.148,0,.178,0,.356,0,.534-.015.538-.2.743-.784.855-.7-.22-.68-.783-.688-1.365-.008-.55.111-.985.688-1.173" transform="translate(-152.238 -246.403)" fill="#9fa8b0"/>
      <path id="Path_12334" data-name="Path 12334" d="M193.593,386.975q0-4.6,0-9.206c0-.582.17-.751.752-.753.7,0,1.393.005,2.089.008q0,4.973-.005,9.946l-2.832,0" transform="translate(-174.786 -340.201)" fill="#7bdde9"/>
      <path id="Path_12335" data-name="Path 12335" d="M238.338,377.026c.713,0,1.425-.012,2.138-.008.52,0,.7.183.7.7q0,4.627,0,9.255l-2.832,0q0-4.973-.006-9.946" transform="translate(-215.163 -340.202)" fill="#7bdde9"/>
      <path id="Path_12336" data-name="Path 12336" d="M224.156,377.106q0,4.973.006,9.946h-1.541q0-4.973.006-9.946h1.53" transform="translate(-200.982 -340.282)" fill="#9fa8b0"/>
      <path id="Path_12337" data-name="Path 12337" d="M256.767,342.688a4.621,4.621,0,0,1,0,.536.7.7,0,0,1-.693.686.67.67,0,0,1-.74-.628,5.212,5.212,0,0,1,0-1.216.722.722,0,0,1,1.438.037c.013.194,0,.39,0,.585" transform="translate(-230.463 -308.086)" fill="#9fa8b0"/>
      <path id="Path_12338" data-name="Path 12338" d="M191.991,172.386a4.161,4.161,0,0,1,0,.584.757.757,0,0,1-.721.677.739.739,0,0,1-.724-.712c-.019-.34-.017-.683,0-1.024a.747.747,0,0,1,.719-.77.756.756,0,0,1,.735.757c.011.162,0,.325,0,.488h0" transform="translate(-172.023 -154.435)" fill="#9fa8b0"/>
      <path id="Path_12339" data-name="Path 12339" d="M190.577,342.553a1.964,1.964,0,0,1,.06-.716.687.687,0,0,1,.74-.439.715.715,0,0,1,.651.685,8.745,8.745,0,0,1,0,1.072.725.725,0,1,1-1.451-.012c-.012-.178,0-.358,0-.591" transform="translate(-172.064 -308.056)" fill="#9fa8b0"/>
      <path id="Path_12340" data-name="Path 12340" d="M256.853,172.377a3.874,3.874,0,0,1-.069.771.66.66,0,0,1-.752.484.712.712,0,0,1-.65-.685,8.646,8.646,0,0,1,0-1.072.726.726,0,1,1,1.451.013c.012.162,0,.325,0,.487h.02" transform="translate(-230.527 -154.437)" fill="#9fa8b0"/>
      <path id="Path_12341" data-name="Path 12341" d="M256.824,308.567c0,.162.011.326,0,.487a.734.734,0,0,1-.7.732.723.723,0,0,1-.743-.69,7.992,7.992,0,0,1,0-1.12.762.762,0,0,1,.756-.685.709.709,0,0,1,.689.691c.015.194,0,.39,0,.584" transform="translate(-230.519 -277.284)" fill="#9fa8b0"/>
      <path id="Path_12342" data-name="Path 12342" d="M190.584,308.487c0-.162-.009-.325,0-.487a.733.733,0,0,1,.7-.739.788.788,0,0,1,.755.745,9.2,9.2,0,0,1,0,1.023.726.726,0,1,1-1.452-.006c-.012-.178,0-.357,0-.536" transform="translate(-172.07 -277.258)" fill="#9fa8b0"/>
      <path id="Path_12343" data-name="Path 12343" d="M256.805,240.5c0,.178.013.358,0,.535a.708.708,0,0,1-.728.7.74.74,0,0,1-.715-.677,7.041,7.041,0,0,1,0-1.118.775.775,0,0,1,.74-.7.735.735,0,0,1,.708.728c.013.177,0,.357,0,.535" transform="translate(-230.5 -215.877)" fill="#9fa8b0"/>
      <path id="Path_12344" data-name="Path 12344" d="M190.59,240.487c0-.178-.014-.358,0-.535a.71.71,0,0,1,.7-.678.741.741,0,0,1,.744.69,8.219,8.219,0,0,1,0,1.118.764.764,0,0,1-.758.681.711.711,0,0,1-.687-.693c-.014-.194,0-.389,0-.584" transform="translate(-172.075 -215.91)" fill="#9fa8b0"/>
      <path id="Path_12345" data-name="Path 12345" d="M256.815,274.526a4.645,4.645,0,0,1,0,.583.667.667,0,0,1-.688.629.685.685,0,0,1-.744-.625,7.154,7.154,0,0,1-.008-1.166.788.788,0,0,1,.752-.695.733.733,0,0,1,.7.74c.012.178,0,.357,0,.535h-.006" transform="translate(-230.515 -246.571)" fill="#9fa8b0"/>
      <path id="Path_12346" data-name="Path 12346" d="M190.582,274.464c0-.162-.01-.325,0-.487a.735.735,0,0,1,.7-.734.791.791,0,0,1,.75.751,9.684,9.684,0,0,1,0,1.022.771.771,0,0,1-.714.731.738.738,0,0,1-.738-.748c-.011-.178,0-.357,0-.535" transform="translate(-172.069 -246.565)" fill="#9fa8b0"/>
      <path id="Path_12347" data-name="Path 12347" d="M191.993,206.514c0,.162.013.326,0,.486a.806.806,0,0,1-.734.72.768.768,0,0,1-.716-.727c-.018-.34-.017-.682,0-1.022a.735.735,0,0,1,.729-.758.747.747,0,0,1,.726.765c.011.178,0,.357,0,.535Z" transform="translate(-172.023 -185.18)" fill="#9fa8b0"/>
      <path id="Path_12348" data-name="Path 12348" d="M256.806,206.684a1.967,1.967,0,0,1-.053.693.722.722,0,0,1-1.385-.172,6.273,6.273,0,0,1,0-1.214.667.667,0,0,1,.732-.634.683.683,0,0,1,.706.666c.019.193,0,.389,0,.661" transform="translate(-230.502 -185.309)" fill="#9fa8b0"/>
      <path id="Path_12349" data-name="Path 12349" d="M278.785,206.477a2.573,2.573,0,0,1-.078.806.689.689,0,0,1-.749.486.673.673,0,0,1-.636-.68c-.017-.34,0-.681-.008-1.021a.683.683,0,0,1,.645-.769.7.7,0,0,1,.775.59,3.291,3.291,0,0,1,.052.588" transform="translate(-250.331 -185.252)" fill="#9fa8b0"/>
      <path id="Path_12350" data-name="Path 12350" d="M277.331,376.746c0-.178-.009-.357,0-.535a.71.71,0,0,1,1.4-.165,2.863,2.863,0,0,1,0,1.391.658.658,0,0,1-.744.556.69.69,0,0,1-.657-.762c0-.162,0-.324,0-.486Z" transform="translate(-250.344 -338.853)" fill="#9fa8b0"/>
      <path id="Path_12351" data-name="Path 12351" d="M277.32,172.4c0-.146.005-.292,0-.437a.7.7,0,0,1,.639-.779.765.765,0,0,1,.8.684,5.292,5.292,0,0,1,0,1.114.744.744,0,0,1-.8.68.705.705,0,0,1-.643-.776q0-.243,0-.486" transform="translate(-250.336 -154.47)" fill="#9fa8b0"/>
      <path id="Path_12352" data-name="Path 12352" d="M277.329,410.654c0-.162,0-.324,0-.486a.721.721,0,0,1,.653-.775.764.764,0,0,1,.795.7,6.251,6.251,0,0,1,.011.921c-.019.515-.323.869-.726.872-.441,0-.726-.343-.732-.89,0-.113,0-.227,0-.34" transform="translate(-250.345 -369.407)" fill="#9fa8b0"/>
      <path id="Path_12353" data-name="Path 12353" d="M278.724,308.547a1.883,1.883,0,0,1-.06.718.713.713,0,0,1-.75.5.676.676,0,0,1-.634-.684c-.022-.338-.016-.68,0-1.019a.734.734,0,0,1,.691-.788.8.8,0,0,1,.753.695,3.993,3.993,0,0,1,0,.581" transform="translate(-250.288 -277.268)" fill="#9fa8b0"/>
      <path id="Path_12354" data-name="Path 12354" d="M278.709,342.726c.023.425.046.858-.406,1.1a.684.684,0,0,1-1.03-.549,10.247,10.247,0,0,1-.006-1.068c.014-.447.274-.765.652-.764a.736.736,0,0,1,.783.648,3.561,3.561,0,0,1,.006.629" transform="translate(-250.28 -308.108)" fill="#9fa8b0"/>
      <path id="Path_12355" data-name="Path 12355" d="M277.338,240.614a5.606,5.606,0,0,1,0-.582.671.671,0,0,1,.626-.636.647.647,0,0,1,.744.48,2.664,2.664,0,0,1,.008,1.478.65.65,0,0,1-.729.507.687.687,0,0,1-.655-.713c-.007-.178,0-.356,0-.534h0" transform="translate(-250.348 -216.018)" fill="#9fa8b0"/>
      <path id="Path_12356" data-name="Path 12356" d="M234.815,240.531c0,.178,0,.356,0,.534a.654.654,0,0,1-.618.687.638.638,0,0,1-.745-.475,2.407,2.407,0,0,1,0-1.525.643.643,0,0,1,.758-.461.654.654,0,0,1,.6.658c0,.194,0,.388,0,.583" transform="translate(-210.645 -215.918)" fill="#9fa8b0"/>
      <path id="Path_12357" data-name="Path 12357" d="M212.488,240.472c0-.194-.01-.389,0-.583a.653.653,0,0,1,.588-.617.634.634,0,0,1,.743.41,2.305,2.305,0,0,1,.01,1.615.623.623,0,0,1-.724.44.66.66,0,0,1-.624-.682c0-.194,0-.388,0-.583h0" transform="translate(-191.835 -215.9)" fill="#9fa8b0"/>
      <path id="Path_12358" data-name="Path 12358" d="M277.317,274.492c0-.146-.005-.291,0-.437a.741.741,0,0,1,.687-.793.784.784,0,0,1,.754.688,5.515,5.515,0,0,1,0,1.113.782.782,0,0,1-.746.7.739.739,0,0,1-.7-.784c-.007-.161,0-.323,0-.485" transform="translate(-250.333 -246.581)" fill="#9fa8b0"/>
      <path id="Path_12359" data-name="Path 12359" d="M234.769,274.64c0,.194.006.389,0,.583a.654.654,0,0,1-.573.631.63.63,0,0,1-.753-.39,2.279,2.279,0,0,1-.025-1.614.628.628,0,0,1,.759-.449.657.657,0,0,1,.6.7c0,.178,0,.356,0,.534h0" transform="translate(-210.602 -246.691)" fill="#9fa8b0"/>
      <path id="Path_12360" data-name="Path 12360" d="M212.458,274.631c0-.162,0-.324,0-.486a.7.7,0,0,1,1.383-.192,2.56,2.56,0,0,1-.009,1.434.7.7,0,0,1-1.37-.173c0-.194,0-.388,0-.583Z" transform="translate(-191.81 -246.717)" fill="#9fa8b0"/>
      <path id="Path_12361" data-name="Path 12361" d="M234.832,308.654c0,.194.009.389,0,.583a.655.655,0,0,1-.623.634.641.641,0,0,1-.725-.446,2.449,2.449,0,0,1-.016-1.525.641.641,0,0,1,.732-.5.662.662,0,0,1,.639.718c-.005.178,0,.356,0,.534h0" transform="translate(-210.665 -277.378)" fill="#9fa8b0"/>
      <path id="Path_12362" data-name="Path 12362" d="M212.456,308.577c0-.13,0-.259,0-.388.009-.5.263-.83.685-.827a.73.73,0,0,1,.743.694,2.888,2.888,0,0,1-.04,1.249.7.7,0,0,1-1.387-.194c0-.178,0-.356,0-.534" transform="translate(-191.809 -277.35)" fill="#9fa8b0"/>
      <path id="Path_12363" data-name="Path 12363" d="M234.779,342.773c0,.194.01.389,0,.582a.654.654,0,0,1-.586.617.633.633,0,0,1-.744-.407,2.322,2.322,0,0,1-.015-1.613.641.641,0,0,1,.774-.427.632.632,0,0,1,.576.666c0,.194,0,.388,0,.582h0" transform="translate(-210.612 -308.162)" fill="#9fa8b0"/>
      <path id="Path_12364" data-name="Path 12364" d="M212.48,342.7c0-.162,0-.323,0-.485a.639.639,0,0,1,.606-.691.646.646,0,0,1,.757.46,2.392,2.392,0,0,1-.017,1.569.636.636,0,0,1-.734.426.656.656,0,0,1-.607-.649c-.008-.21,0-.42,0-.63h0" transform="translate(-191.831 -308.164)" fill="#9fa8b0"/>
      <path id="Path_12365" data-name="Path 12365" d="M234.854,206.523c0,.178,0,.356,0,.533a.636.636,0,0,1-.609.688.657.657,0,0,1-.77-.508,2.516,2.516,0,0,1,.016-1.478.7.7,0,0,1,1.359.183c.006.194,0,.388,0,.582h0" transform="translate(-210.684 -185.241)" fill="#9fa8b0"/>
      <path id="Path_12366" data-name="Path 12366" d="M212.455,206.525c0-.194,0-.388,0-.582a.7.7,0,0,1,1.358-.195,2.589,2.589,0,0,1,.034,1.431.668.668,0,0,1-.78.561.646.646,0,0,1-.616-.731c.007-.161,0-.323,0-.485h0" transform="translate(-191.804 -185.236)" fill="#9fa8b0"/>
      <path id="Path_12367" data-name="Path 12367" d="M212.457,172.507c0-.194-.005-.388,0-.582a.654.654,0,0,1,.6-.652.647.647,0,0,1,.755.465,2.6,2.6,0,0,1,.031,1.432.666.666,0,0,1-.782.557.647.647,0,0,1-.612-.734c.007-.161,0-.323,0-.485Z" transform="translate(-191.806 -154.545)" fill="#9fa8b0"/>
      <path id="Path_12368" data-name="Path 12368" d="M234.839,172.538c0,.162,0,.323,0,.485a.637.637,0,0,1-.6.694.653.653,0,0,1-.774-.5,2.446,2.446,0,0,1,.028-1.523.638.638,0,0,1,.731-.431.657.657,0,0,1,.612.645c.009.21,0,.42,0,.63h0" transform="translate(-210.668 -154.536)" fill="#9fa8b0"/>
      <path id="Path_12369" data-name="Path 12369" d="M374.285,449.043l-.1-.1c.067,0,.089.047.1.1" transform="translate(-337.742 -405.099)" fill="#fc8072"/>
    </g>
    <g id="Group_31906" data-name="Group 31906" transform="translate(29 31.028)">
      <circle id="Ellipse_71" data-name="Ellipse 71" cx="9.5" cy="9.5" r="9.5" fill="#3b86fe"/>
      <g id="Group_25422" data-name="Group 25422" transform="translate(3.5 3.5)">
        <path id="Path_420" data-name="Path 420" d="M-1.594-13.965H3.6v1.314h-5.2V-7h-1.42v-5.655H-8.1v-1.314h5.092v-5.467h1.42Z" transform="translate(8.105 19.433)" fill="#f4f4f4" stroke="#f4f4f4" stroke-width="1"/>
      </g>
    </g>
  </g>
</svg>
