<svg xmlns="http://www.w3.org/2000/svg" width="54.057" height="58.061" viewBox="0 0 54.057 58.061">
  <g id="add_enterprise" data-name="add enterprise" transform="translate(0 -11.49)">
    <g id="Group_57775" data-name="Group 57775" transform="translate(0 11.49)">
      <path id="Path_263635" data-name="Path 263635" d="M282.417,32.409V46.234l-2.344.427L278.194,47l-4.222-.77L272.8,35.258l.988-10.017.184-1.861a1.6,1.6,0,0,1,.683.4l6.958,6.725a2.643,2.643,0,0,1,.8,1.9Z" transform="translate(-243.129 -22.087)" fill="#60b7ff"/>
      <path id="Path_263636" data-name="Path 263636" d="M290.509,32.409V46.234l-2.344.427V32.409a2.643,2.643,0,0,0-.8-1.9l-5.481-5.269.184-1.861a1.594,1.594,0,0,1,.683.4L289.7,30.51A2.643,2.643,0,0,1,290.509,32.409Z" transform="translate(-251.222 -22.087)" fill="#26a6fe"/>
      <path id="Path_263637" data-name="Path 263637" d="M290.863,235.309v20.526l-5.308.831-3.517.551-8.066-1.382-1.171-9.887,1.171-12.448h15.082a1.808,1.808,0,0,1,1.809,1.809Z" transform="translate(-243.129 -209.353)" fill="#f5fcff"/>
      <path id="Path_263638" data-name="Path 263638" d="M395.378,235.309v20.526l-5.308.831v-2.5a4.541,4.541,0,0,1,2.555-4.084.724.724,0,0,0,.409-.65v-14.12a1.809,1.809,0,0,0-1.81-1.809h2.345a1.809,1.809,0,0,1,1.809,1.809Z" transform="translate(-347.644 -209.353)" fill="#ddf4fe"/>
      <path id="Path_263639" data-name="Path 263639" d="M413.792,381.725h.461a4.542,4.542,0,0,1,4.542,4.542v1.671l-4.772.831-4.772-.831v-1.671A4.542,4.542,0,0,1,413.792,381.725Z" transform="translate(-364.738 -341.457)" fill="#bbec6c"/>
      <path id="Path_263640" data-name="Path 263640" d="M443.75,381.725h-.46a4.557,4.557,0,0,0-.942.1,4.543,4.543,0,0,1,3.6,4.443v2.08l2.344-.408v-1.672A4.542,4.542,0,0,0,443.75,381.725Z" transform="translate(-394.236 -341.457)" fill="#a2e62e"/>
      <path id="Path_263641" data-name="Path 263641" d="M327.328,270.093h-8a.56.56,0,0,1-.56-.56v-1.964a.56.56,0,0,1,.56-.56h8a.56.56,0,0,1,.56.56v1.964A.56.56,0,0,1,327.328,270.093Z" transform="translate(-284.097 -239.218)" fill="#c8effe"/>
      <path id="Path_263642" data-name="Path 263642" d="M378.258,267.01h-2.344a.56.56,0,0,1,.56.56v1.963a.56.56,0,0,1-.56.56h2.344a.56.56,0,0,0,.56-.56V267.57A.56.56,0,0,0,378.258,267.01Z" transform="translate(-335.028 -239.219)" fill="#99e6fc"/>
      <path id="Path_263643" data-name="Path 263643" d="M327.328,327.123h-8a.56.56,0,0,1-.56-.56V324.6a.56.56,0,0,1,.56-.56h8a.56.56,0,0,1,.56.56v1.964A.56.56,0,0,1,327.328,327.123Z" transform="translate(-284.097 -290.045)" fill="#c8effe"/>
      <path id="Path_263644" data-name="Path 263644" d="M378.258,324.04h-2.344a.56.56,0,0,1,.56.56v1.963a.56.56,0,0,1-.56.56h2.344a.56.56,0,0,0,.56-.56V324.6A.56.56,0,0,0,378.258,324.04Z" transform="translate(-335.028 -290.046)" fill="#99e6fc"/>
      <path id="Path_263645" data-name="Path 263645" d="M321.974,384.736h-2.646a.56.56,0,0,1-.56-.56v-1.964a.56.56,0,0,1,.56-.56h2.646a.56.56,0,0,1,.56.56v1.964A.56.56,0,0,1,321.974,384.736Z" transform="translate(-284.097 -341.392)" fill="#c8effe"/>
      <path id="Path_263646" data-name="Path 263646" d="M329.035,381.653h-2.344a.56.56,0,0,1,.56.56v1.964a.56.56,0,0,1-.56.56h2.344a.56.56,0,0,0,.56-.56v-1.964A.56.56,0,0,0,329.035,381.653Z" transform="translate(-291.159 -341.392)" fill="#99e6fc"/>
      <path id="Path_263647" data-name="Path 263647" d="M276.225,443.926h21.987a1.227,1.227,0,0,0,1.227-1.226v-3.848H276.225l-.9,2.537Z" transform="translate(-245.382 -392.369)" fill="#b6c4cf"/>
      <path id="Path_263648" data-name="Path 263648" d="M465.4,438.852V442.7a1.227,1.227,0,0,1-1.227,1.227h2.344a1.227,1.227,0,0,0,1.226-1.227v-3.848Z" transform="translate(-413.684 -392.37)" fill="#9facba"/>
      <path id="Path_263649" data-name="Path 263649" d="M1.227,436.521H6.555l.852-2.537-.852-2.537-3.277-.9-3.278.9v3.848a1.227,1.227,0,0,0,1.227,1.226Z" transform="translate(0 -384.964)" fill="#b6c4cf"/>
      <path id="Path_263650" data-name="Path 263650" d="M38.713,435.728V440.8h2.344l.852-2.537-.852-2.537-1.382-.381Z" transform="translate(-34.502 -389.246)" fill="#9facba"/>
      <path id="Path_263651" data-name="Path 263651" d="M5.914,381.725h.641l.852,3.107-.852,3.107H0v-.3A5.914,5.914,0,0,1,5.914,381.725Z" transform="translate(0 -341.457)" fill="#bbec6c"/>
      <path id="Path_263652" data-name="Path 263652" d="M40.417,381.725a5.913,5.913,0,0,0-1.7.25v5.963h2.344l.852-3.107-.852-3.107Z" transform="translate(-34.503 -341.457)" fill="#a2e62e"/>
      <path id="Path_263653" data-name="Path 263653" d="M118.456,20.385h-3.564v-7.2a1.7,1.7,0,0,1,1.7-1.7h.172a1.7,1.7,0,0,1,1.7,1.7v7.2Z" transform="translate(-102.396 -11.49)" fill="#aca6d6"/>
      <path id="Path_263654" data-name="Path 263654" d="M123.169,11.49H123a1.686,1.686,0,0,0-.914.269,1.693,1.693,0,0,1,.782,1.427v7.2h2v-7.2A1.7,1.7,0,0,0,123.169,11.49Z" transform="translate(-108.805 -11.49)" fill="#978ecb"/>
      <path id="Path_263655" data-name="Path 263655" d="M84.557,28.163l-.365.918.365.8v4.148l-.365.885.365.837v4.148l-.365.864.365.859v4.148l-.365.852.365.871v4.148l-.365.911.365.811V73.186H75.906l-4.515-1.63-5.18,1.63H60.27V32.729a2.64,2.64,0,0,1,1.8-2.5l20.144-6.772,1.623-.545h0l.012,0a1.353,1.353,0,0,1,.708.017Z" transform="translate(-53.715 -21.63)" fill="#c8effe"/>
      <path id="Path_263656" data-name="Path 263656" d="M264.364,28.163l-.365.918.365.8v4.148L264,34.92l.365.837v4.148l-.365.864.365.859v4.148l-.365.852.365.871v4.148l-.365.911.365.811V73.186H262.02V23.455l1.623-.545h0l.012,0a1.353,1.353,0,0,1,.708.017Z" transform="translate(-233.522 -21.63)" fill="#99e6fc"/>
      <path id="Path_263657" data-name="Path 263657" d="M124.558,392.324v9.292H114.89v-6.93a1.2,1.2,0,0,1,.876-1.153l3.142-.878,1.631-.455,2.819-.787A.946.946,0,0,1,124.558,392.324Z" transform="translate(-102.394 -350.059)" fill="#60b7ff"/>
      <path id="Path_263658" data-name="Path 263658" d="M181.956,391.413l-1.317.368a.937.937,0,0,1,.172.543v9.292h2.344v-9.292A.946.946,0,0,0,181.956,391.413Z" transform="translate(-160.992 -350.06)" fill="#26a6fe"/>
      <g id="Group_57773" data-name="Group 57773" transform="translate(11.68 6.533)">
        <g id="Group_57768" data-name="Group 57768">
          <path id="Path_263659" data-name="Path 263659" d="M126.549,71.56v1.723l-2.344.8-15.743,5.341a.8.8,0,0,1-.26.042.816.816,0,0,1-.26-1.589l16.262-5.518Z" transform="translate(-107.387 -71.56)" fill="#ddf4fe"/>
        </g>
        <g id="Group_57769" data-name="Group 57769" transform="translate(0 5.871)">
          <path id="Path_263660" data-name="Path 263660" d="M126.549,125.54v1.723l-2.344.8L108.463,133.4a.8.8,0,0,1-.26.042.816.816,0,0,1-.26-1.589l16.262-5.518Z" transform="translate(-107.387 -125.54)" fill="#ddf4fe"/>
        </g>
        <g id="Group_57770" data-name="Group 57770" transform="translate(0 11.742)">
          <path id="Path_263661" data-name="Path 263661" d="M126.549,179.52v1.723l-2.344.8-15.743,5.341a.8.8,0,0,1-.26.042.816.816,0,0,1-.26-1.589l16.262-5.518Z" transform="translate(-107.387 -179.52)" fill="#ddf4fe"/>
        </g>
        <g id="Group_57771" data-name="Group 57771" transform="translate(0 17.613)">
          <path id="Path_263662" data-name="Path 263662" d="M126.549,233.5v1.723l-2.344.8-15.743,5.341a.8.8,0,0,1-.26.042.816.816,0,0,1-.26-1.589l16.262-5.518Z" transform="translate(-107.387 -233.5)" fill="#ddf4fe"/>
        </g>
        <path id="Path_263663" data-name="Path 263663" d="M126.549,287.48V289.2l-2.344.8-15.743,5.341a.8.8,0,0,1-.26.042.816.816,0,0,1-.26-1.589l16.262-5.518Z" transform="translate(-107.387 -263.996)" fill="#ddf4fe"/>
        <g id="Group_57772" data-name="Group 57772" transform="translate(16.819)">
          <path id="Path_263664" data-name="Path 263664" d="M264.364,71.56v1.723l-2.344.8V72.355Z" transform="translate(-262.02 -71.56)" fill="#c8effe"/>
          <path id="Path_263665" data-name="Path 263665" d="M262.02,126.335l2.344-.8v1.723l-2.344.8Z" transform="translate(-262.02 -119.669)" fill="#c8effe"/>
          <path id="Path_263666" data-name="Path 263666" d="M262.02,180.315l2.344-.8v1.723l-2.344.8Z" transform="translate(-262.02 -167.778)" fill="#c8effe"/>
          <path id="Path_263667" data-name="Path 263667" d="M262.02,234.3l2.344-.8v1.723l-2.344.8Z" transform="translate(-262.02 -215.887)" fill="#c8effe"/>
          <path id="Path_263668" data-name="Path 263668" d="M262.02,288.275l2.344-.8V289.2l-2.344.8Z" transform="translate(-262.02 -263.996)" fill="#c8effe"/>
        </g>
      </g>
      <g id="Group_57774" data-name="Group 57774" transform="translate(16.514 42.141)">
        <path id="Path_263669" data-name="Path 263669" d="M153.461,398.94v9.416H151.83v-8.961Z" transform="translate(-151.83 -398.94)" fill="#26a6fe"/>
      </g>
    </g>
    <g id="Group_58533" data-name="Group 58533" transform="translate(36.057 51.551)">
      <circle id="Ellipse_71" data-name="Ellipse 71" cx="9" cy="9" r="9" fill="#3b86fe"/>
      <g id="Group_25422" data-name="Group 25422" transform="translate(3.316 3.316)">
        <path id="Path_420" data-name="Path 420" d="M-1.936-14.253H2.987v1.245H-1.936v5.357H-3.281v-5.357H-8.1v-1.245h4.824v-5.179h1.345Z" transform="translate(8.105 19.433)" fill="#f4f4f4" stroke="#f4f4f4" stroke-width="1"/>
      </g>
    </g>
  </g>
</svg>
