<svg xmlns="http://www.w3.org/2000/svg" width="55.575" height="63.703" viewBox="0 0 55.575 63.703">
  <g id="add_employees" data-name="add employees" transform="translate(-11.04 -1)">
    <path id="Path_264038" data-name="Path 264038" d="M61.843,89.313V68.964l-3.3-1.546-.9-4.758H45.972l-.9,4.758-3.194,1.5v20.4Z" transform="translate(-16.999 -33.985)" fill="#e2b48a"/>
    <path id="Path_264039" data-name="Path 264039" d="M58.58,98.1l-.853-10.9a10.079,10.079,0,0,0-5.772-8.342l-9.161-4.292v2.651H41.751v1.391H26.383V74.774l-8.719,4.084A10.079,10.079,0,0,0,11.891,87.2L11.04,98.1Z" transform="translate(0 -40.547)" fill="#bac2d3"/>
    <path id="Path_264040" data-name="Path 264040" d="M60.622,83.64H56.235L55.4,85.588l2.518,3.205-1.464,7.028,2.8,6.075L62.4,95.362l-1.316-6.7,1.994-3.279Z" transform="translate(-24.449 -45.548)" fill="#da2a47"/>
    <path id="Path_264041" data-name="Path 264041" d="M57.728,87.666a10.079,10.079,0,0,0-5.772-8.342l-8.348-3.912a39.941,39.941,0,0,1-4.054,10.929c-.815,1.623-1.578,3.24-2.3,4.9-.4.922-2.446,6.311-2.446,6.311s-3.316-8.254-3.92-9.819A53.665,53.665,0,0,0,28.358,81.4c-.186-.344-.382-.683-.583-1.019a4.345,4.345,0,0,1-2.758-4.5l-7.352,3.445a10.079,10.079,0,0,0-5.773,8.342l-.851,10.9H58.58Z" transform="translate(0 -41.013)" fill="#707583"/>
    <path id="Path_264042" data-name="Path 264042" d="M57.728,87.666a10.079,10.079,0,0,0-5.772-8.342l-8.348-3.912a39.941,39.941,0,0,1-4.054,10.929c-.815,1.623-1.578,3.24-2.3,4.9-.4.922-2.446,6.311-2.446,6.311s-3.316-8.254-3.92-9.819A53.665,53.665,0,0,0,28.358,81.4c-.186-.344-.382-.683-.583-1.019a4.345,4.345,0,0,1-2.758-4.5l-7.352,3.445a10.079,10.079,0,0,0-5.773,8.342l-.851,10.9H58.58Z" transform="translate(0 -41.013)" fill="#384868"/>
    <path id="Path_264043" data-name="Path 264043" d="M97.79,98.565H91.354l-.853-10.9a10.085,10.085,0,0,0-5.776-8.339L82.18,78.13a26.03,26.03,0,0,0,.633-2.72l8.353,3.914a10.08,10.08,0,0,1,5.772,8.339Z" transform="translate(-39.21 -41.012)" fill="#2f3a5a"/>
    <ellipse id="Ellipse_283" data-name="Ellipse 283" cx="3.784" cy="2.117" rx="3.784" ry="2.117" transform="translate(42.547 25.25) rotate(-76.825)" fill="#e2b48a"/>
    <ellipse id="Ellipse_284" data-name="Ellipse 284" cx="2.117" cy="3.784" rx="2.117" ry="3.784" transform="translate(21.154 18.861) rotate(-13.175)" fill="#e2b48a"/>
    <ellipse id="Ellipse_285" data-name="Ellipse 285" cx="10.695" cy="14.741" rx="10.695" ry="14.741" transform="translate(24.071 3.269)" fill="#f0c191"/>
    <path id="Path_264044" data-name="Path 264044" d="M58.442,23.1S62.219,16.347,61.4,11s-4.424-7.041-6.566-7.041c0,0-2.891-4.281-10.036-2.535s-10.018,9.592-8.666,14.542,2.253,7.223,2.253,7.223-.9-6.329.113-9.823,4.056-6.253,5.239-5.3,8.732.64,9.971-1.481A7.638,7.638,0,0,1,56.74,11.56c.4,3.211,2.208,5.183,2.039,7.492S58.442,23.1,58.442,23.1Z" transform="translate(-13.652 0)" fill="#2f3a5a"/>
    <path id="Path_264045" data-name="Path 264045" d="M70.425,69.583,64,75.861,69.735,79.8l2.684-7.788Z" transform="translate(-29.19 -37.801)" fill="#d9e2e9"/>
    <path id="Path_264046" data-name="Path 264046" d="M45.242,72.015l2.908,7.606,5.512-3.759-6.425-6.278Z" transform="translate(-18.851 -37.801)" fill="#d9e2e9"/>
    <path id="Path_264047" data-name="Path 264047" d="M60.9,72.8l-3.667-3.224-.008-.008s-.067,9.632-6.418,24.573C44.459,79.2,44.394,69.566,44.394,69.566l-.008.008L40.72,72.8l-.646,5.45,3.04-.486-2.28,3.456c1.322,3.22,9.978,13.274,9.978,13.274,1.362-1.5,8.861-10.185,10.028-13.031l-2.332-3.7,3.4.1Z" transform="translate(-16.003 -37.791)" fill="#43567c"/>
    <g id="Group_58660" data-name="Group 58660" transform="translate(47.865 45.953)">
      <circle id="Ellipse_71" data-name="Ellipse 71" cx="9.375" cy="9.375" r="9.375" fill="#3b86fe"/>
      <g id="Group_25422" data-name="Group 25422" transform="translate(3.454 3.454)">
        <path id="Path_420" data-name="Path 420" d="M-1.679-14.037H3.45v1.3H-1.679v5.58h-1.4v-5.58H-8.1v-1.3H-3.08v-5.4h1.4Z" transform="translate(8.105 19.433)" fill="#f4f4f4" stroke="#f4f4f4" stroke-width="1"/>
      </g>
    </g>
  </g>
</svg>
