<svg xmlns="http://www.w3.org/2000/svg" width="58.037" height="41.28" viewBox="0 0 58.037 41.28">
  <g id="add_identity" data-name="add identity" transform="translate(-1210 598)">
    <g id="Group_31801" data-name="Group 31801" transform="translate(1210 -598)">
      <g id="Group_31797" data-name="Group 31797" transform="translate(0 0)">
        <g id="Group_31795" data-name="Group 31795" transform="translate(0 0)">
          <path id="Path_12201" data-name="Path 12201" d="M255.486.069h23.951c.045.029.088.079.136.084a5.375,5.375,0,0,1,4.583,5.536c-.056,8.464-.019,16.928-.019,25.392,0,1.719.018,3.438-.006,5.157a5.223,5.223,0,0,1-4.564,5.009c-.912,0-1.824-.01-2.735-.01L255.5,41.225c-.005-1.944-.015-3.888-.015-5.831q0-12.337.009-24.673c.223-.005.447-.014.67-.014h16.889c.168,0,.337.01.5-.006a1.763,1.763,0,0,0,1.607-1.536A1.739,1.739,0,0,0,274.1,7.427a2.751,2.751,0,0,0-1.042-.152q-5.117,0-10.234,0-3.663,0-7.325-.016-.006-3.6-.011-7.19m11.7,26.823c2.03,0,4.06,0,6.091,0a1.691,1.691,0,1,0,0-3.363q-6.091,0-12.181,0a1.733,1.733,0,0,0-1.9,1.687,1.714,1.714,0,0,0,1.9,1.677c2.03,0,4.06,0,6.091,0m0-10.567c-2.049,0-4.1,0-6.147,0a1.688,1.688,0,1,0,0,3.362q6.119.005,12.238,0a1.691,1.691,0,1,0,0-3.363c-2.03,0-4.061,0-6.091,0M265.332,30.74c-1.453,0-2.907-.012-4.36,0a1.7,1.7,0,0,0-1.778,1.693,1.679,1.679,0,0,0,1.75,1.661c2.962.018,5.925.007,8.887,0a1.667,1.667,0,0,0,1.043-.339,1.7,1.7,0,0,0,.593-1.852,1.672,1.672,0,0,0-1.665-1.166c-1.49-.014-2.981,0-4.472,0" transform="translate(-227.633 -0.069)" fill="#fec84f"/>
          <path id="Path_12202" data-name="Path 12202" d="M28.717.068q.006,3.6.011,7.19l0,.05q-8.776,0-17.552,0a4.414,4.414,0,0,0-.669.032A1.592,1.592,0,0,0,9.126,8.553a1.684,1.684,0,0,0,1.828,2.123q8.887.006,17.775,0l0,.043q0,12.336-.009,24.673c0,1.944.009,3.888.015,5.831l-.015.124H4.99a1.984,1.984,0,0,0-.313-.1A5.2,5.2,0,0,1,.362,37.757c-.128-.324-.2-.672-.3-1.009V4.667c.039-.121.086-.241.117-.365A5.283,5.283,0,0,1,4.238.221c.213-.055.453,0,.641-.153ZM17.232,23.523c-.293.05-.587.093-.879.15A8.886,8.886,0,0,0,9.07,31.929,1.762,1.762,0,0,0,11.032,34.1q6.883.007,13.765,0c1.429,0,2.115-.709,1.992-2.138A8.812,8.812,0,0,0,21.3,24.2a11.072,11.072,0,0,0-2.7-.679l.588-.174a4.505,4.505,0,1,0-3.158-.256c.384.181.8.29,1.2.432" transform="translate(-0.066 -0.068)" fill="#fec84f"/>
          <path id="Path_12206" data-name="Path 12206" d="M279.566,366.813a.282.282,0,0,0-.017.1H255.486l.015-.123,21.329.012c.912,0,1.824.007,2.735.01" transform="translate(-227.633 -325.635)" fill="#fed177"/>
          <path id="Path_12207" data-name="Path 12207" d="M255.574,64.138q3.663.008,7.325.016,5.117,0,10.234,0a2.747,2.747,0,0,1,1.042.152,1.738,1.738,0,0,1,1.066,1.736,1.763,1.763,0,0,1-1.607,1.535c-.166.017-.335.006-.5.006H256.242c-.224,0-.447.009-.67.014l0-.043q0-1.683,0-3.366l0-.05" transform="translate(-227.716 -56.947)" fill="#0d0601"/>
          <path id="Path_12208" data-name="Path 12208" d="M296.551,212.445c-2.03,0-4.061,0-6.091,0a1.714,1.714,0,0,1-1.9-1.676,1.733,1.733,0,0,1,1.9-1.686q6.091,0,12.182,0a1.691,1.691,0,1,1,0,3.361c-2.03.006-4.06,0-6.091,0" transform="translate(-257.001 -185.622)" fill="#0c0601"/>
          <path id="Path_12209" data-name="Path 12209" d="M296.551,144.91c2.03,0,4.061,0,6.091,0a1.691,1.691,0,1,1,0,3.361q-6.119,0-12.238,0a1.688,1.688,0,1,1,0-3.361c2.049-.006,4.1,0,6.147,0" transform="translate(-257.003 -128.653)" fill="#0c0501"/>
          <path id="Path_12210" data-name="Path 12210" d="M294.686,273.331c1.49,0,2.981-.01,4.471,0a1.671,1.671,0,0,1,1.665,1.166,1.7,1.7,0,0,1-.593,1.851,1.669,1.669,0,0,1-1.043.339c-2.962,0-5.925.015-8.887,0a1.679,1.679,0,0,1-1.75-1.66,1.7,1.7,0,0,1,1.778-1.693c1.453-.015,2.906,0,4.36,0" transform="translate(-256.994 -242.658)" fill="#0e0701"/>
          <path id="Path_12211" data-name="Path 12211" d="M89.742,209.043a11.079,11.079,0,0,1,2.7.679,8.808,8.808,0,0,1,5.489,7.756c.123,1.428-.563,2.136-1.992,2.137q-6.883.005-13.765,0a1.761,1.761,0,0,1-1.961-2.166A8.883,8.883,0,0,1,87.5,209.2c.292-.057.586-.1.879-.15l1.367,0" transform="translate(-71.203 -185.586)" fill="#42b653"/>
          <path id="Path_12212" data-name="Path 12212" d="M100.743,64.577q0,1.683,0,3.366-9.276,0-18.552,0c-1.376,0-2.247-.975-1.908-2.122a1.64,1.64,0,0,1,1.444-1.212,4.827,4.827,0,0,1,.7-.032q9.159,0,18.319,0" transform="translate(-72.038 -57.337)" fill="#0d0601"/>
          <path id="Path_12213" data-name="Path 12213" d="M124.435,137.959l-1.367,0c-.4-.142-.819-.252-1.2-.432a4.472,4.472,0,1,1,3.158.256l-.588.174" transform="translate(-105.895 -114.509)" fill="#fe934d"/>
        </g>
      </g>
      <g id="Group_25423" data-name="Group 25423" transform="translate(42.368 25.179)">
        <circle id="Ellipse_71" data-name="Ellipse 71" cx="7.834" cy="7.834" r="7.834" transform="translate(0 0)" fill="#3b86fe"/>
        <g id="Group_25422" data-name="Group 25422" transform="translate(2.886 2.886)">
          <path id="Path_420" data-name="Path 420" d="M-2.735-14.924H1.551v1.084H-2.735v4.663H-3.906V-13.84H-8.1v-1.084h4.2v-4.509h1.171Z" transform="translate(8.105 19.433)" fill="#f4f4f4" stroke="#f4f4f4" stroke-width="1"/>
        </g>
      </g>
    </g>
  </g>
</svg>
