<svg xmlns="http://www.w3.org/2000/svg" width="51.016" height="54.223" viewBox="0 0 51.016 54.223">
  <g id="add_permission" data-name="add permission" transform="translate(0 0)">
    <g id="User_Lock_Privacy" data-name="User Lock Privacy" transform="translate(0 0)">
      <g id="Flat" transform="translate(0)">
        <path id="Path_263958" data-name="Path 263958" d="M166.686,262.418a6.844,6.844,0,0,1-6.859-6.59l-.024-.6,1.39-.253V248h10.985v6.979l1.39.253-.024.6A6.844,6.844,0,0,1,166.686,262.418Z" transform="translate(-146.09 -226.717)" fill="#fac7b7"/>
        <path id="Path_263959" data-name="Path 263959" d="M114.544,11.732a10.77,10.77,0,1,1,21.455,0Z" transform="translate(-104.675 0)" fill="#525252"/>
        <path id="Path_263960" data-name="Path 263960" d="M229.7,23.715a10.918,10.918,0,0,0-1.835-1.609,11.682,11.682,0,0,1-7.83,9.835h12.441A10.777,10.777,0,0,0,229.7,23.715Z" transform="translate(-201.15 -20.209)" fill="#3f3f3f"/>
        <path id="Path_263961" data-name="Path 263961" d="M41.193,345.052H0v-7.2A6.862,6.862,0,0,1,5.637,331.1l9.441-1.716.031.79a5.491,5.491,0,0,0,10.973,0l.031-.79,9.441,1.716a6.862,6.862,0,0,1,5.637,6.755Z" transform="translate(0 -301.113)" fill="#5fc4b8"/>
        <path id="Path_263962" data-name="Path 263962" d="M35.556,347.526l-.957-.174A29.549,29.549,0,0,1,0,358.261v3.221H41.193v-7.2A6.862,6.862,0,0,0,35.556,347.526Z" transform="translate(0 -317.542)" fill="#50b5a6"/>
        <path id="Path_263963" data-name="Path 263963" d="M113.323,119.892a9.456,9.456,0,0,1-8.883-6.218,3.143,3.143,0,0,1-2.547-2.345l-.391-1.565a2.35,2.35,0,0,1,1.464-2.772l-.193-.944a11.044,11.044,0,0,1-.177-1.2l-.015-.164.061-.153a4.184,4.184,0,0,1,.574-1,4.39,4.39,0,0,1,5.7-1.05l1.012.6a6.116,6.116,0,0,0,6.785,0l1.013-.6a4.39,4.39,0,0,1,5.7,1.05,4.182,4.182,0,0,1,.574,1l.061.153-.016.164a11,11,0,0,1-.177,1.2l-.193.944a2.334,2.334,0,0,1,1.024.741,2.409,2.409,0,0,1,.427,2.085l-.378,1.511a3.143,3.143,0,0,1-2.547,2.344A9.456,9.456,0,0,1,113.323,119.892Z" transform="translate(-92.727 -93.116)" fill="#ffdecf"/>
        <path id="Path_263964" data-name="Path 263964" d="M164,162.582a2.336,2.336,0,0,0-.984-.726,13.4,13.4,0,0,1-18.6,8.134,9.456,9.456,0,0,0,17.087-1.469,3.143,3.143,0,0,0,2.547-2.344l.378-1.511A2.41,2.41,0,0,0,164,162.582Z" transform="translate(-132.024 -147.966)" fill="#ffd3c2"/>
        <path id="Path_263965" data-name="Path 263965" d="M64.687,446.179a.687.687,0,0,1-.687-.687v-4.806a.687.687,0,0,1,1.373,0v4.806A.687.687,0,0,1,64.687,446.179Z" transform="translate(-58.508 -402.239)" fill="#3fa896"/>
        <path id="Path_263966" data-name="Path 263966" d="M335.1,259.671h-4.119v-4.119a3.433,3.433,0,1,0-6.866,0v4.119H320v-4.119a7.552,7.552,0,0,1,15.1,0Z" transform="translate(-292.538 -226.717)" fill="#ededed"/>
        <path id="Path_263967" data-name="Path 263967" d="M446.456,292.669a3.424,3.424,0,0,1,.133.942v4.119h4.119v-4.119a7.507,7.507,0,0,0-1.136-3.979A13.119,13.119,0,0,1,446.456,292.669Z" transform="translate(-408.141 -264.776)" fill="#e2e2e2"/>
        <rect id="Rectangle_32274" data-name="Rectangle 32274" width="17.85" height="12.358" rx="2" transform="translate(26.089 31.582)" fill="#ffd740"/>
        <path id="Path_263968" data-name="Path 263968" d="M321.819,372.411a15.809,15.809,0,0,1-16.9,10.483,2.063,2.063,0,0,0,1.981,1.5h13.731a2.062,2.062,0,0,0,2.06-2.06v-8.239A2.058,2.058,0,0,0,321.819,372.411Z" transform="translate(-278.751 -340.451)" fill="#ffc400"/>
        <path id="Path_263969" data-name="Path 263969" d="M384.8,402.4a2.4,2.4,0,1,0-3.089,2.3v1.474a.687.687,0,0,0,1.373,0V404.7a2.407,2.407,0,0,0,1.716-2.3Z" transform="translate(-347.385 -365.667)" fill="#c0694e"/>
        <path id="Path_263970" data-name="Path 263970" d="M381.016,403.753a2.4,2.4,0,0,1,3.684-2.032,2.4,2.4,0,1,0-3.591,2.69A2.4,2.4,0,0,1,381.016,403.753Z" transform="translate(-347.375 -365.649)" fill="#c97e67"/>
      </g>
    </g>
    <g id="Group_58612" data-name="Group 58612" transform="translate(30.45 33.657)">
      <circle id="Ellipse_71" data-name="Ellipse 71" cx="10.283" cy="10.283" r="10.283" fill="#3b86fe"/>
      <g id="Group_25422" data-name="Group 25422" transform="translate(3.789 3.789)">
        <path id="Path_420" data-name="Path 420" d="M-1.057-13.515H4.569v1.422H-1.057v6.121H-2.594v-6.121H-8.1v-1.422h5.511v-5.918h1.537Z" transform="translate(8.105 19.433)" fill="#f4f4f4" stroke="#f4f4f4" stroke-width="1"/>
      </g>
    </g>
  </g>
</svg>
