<svg xmlns="http://www.w3.org/2000/svg" width="60.559" height="66.5" viewBox="0 0 60.559 66.5">
  <g id="addpermissiontoemployees" transform="translate(0 0)">
    <path id="Path_263895" data-name="Path 263895" d="M308.882,120H290.088A2.1,2.1,0,0,0,288,122.088v10.441a2.1,2.1,0,0,0,2.088,2.088h4.177v4.176l4.176-4.176h10.441a2.1,2.1,0,0,0,2.088-2.088V122.088A2.1,2.1,0,0,0,308.882,120Zm0,0" transform="translate(-250.412 -104.338)" fill="#ffd422"/>
    <path id="Path_263896" data-name="Path 263896" d="M84.882,34.088v8.353a2.1,2.1,0,0,1-2.088,2.088H77.573v4.176l-3.561-3.561a2.092,2.092,0,0,0-1.483-.616H66.088A2.1,2.1,0,0,1,64,42.441V34.088A2.1,2.1,0,0,1,66.088,32H82.794a2.1,2.1,0,0,1,2.088,2.088Zm0,0" transform="translate(-55.647 -27.824)" fill="#78b9eb"/>
    <path id="Path_263897" data-name="Path 263897" d="M290.794,0H274.088A2.1,2.1,0,0,0,272,2.088v8.353a2.1,2.1,0,0,0,2.088,2.088h5.221v4.176l3.561-3.561a2.093,2.093,0,0,1,1.483-.616h6.442a2.1,2.1,0,0,0,2.088-2.088V2.088A2.1,2.1,0,0,0,290.794,0Zm0,0" transform="translate(-236.5 0)" fill="#ff9811"/>
    <path id="Path_263898" data-name="Path 263898" d="M22.971,186.088v10.441a2.1,2.1,0,0,1-2.088,2.088H16.706v4.176l-4.176-4.176H2.088A2.1,2.1,0,0,1,0,196.529V186.088A2.1,2.1,0,0,1,2.088,184H20.882A2.1,2.1,0,0,1,22.971,186.088Zm0,0" transform="translate(0 -159.985)" fill="#00ccb3"/>
    <path id="Path_263899" data-name="Path 263899" d="M160.015,397.016H136v-2.527a6.279,6.279,0,0,1,4.615-6.045l5.45-1.483,4.552,3.79,4.552-3.79,5.451,1.483a6.279,6.279,0,0,1,4.615,6.045v2.527Zm0,0" transform="translate(-118.25 -336.457)" fill="#3d9ae2"/>
    <path id="Path_263900" data-name="Path 263900" d="M212.529,276.176v2.088a6.265,6.265,0,0,1-9.4,5.419,6.019,6.019,0,0,1-1.295-.992A6.209,6.209,0,0,1,200,278.265v-2.088h1.044a8.362,8.362,0,0,0,6.682-3.341l.627-.835.449,1.806a3.146,3.146,0,0,0,3.038,2.37Zm0,0" transform="translate(-173.897 -236.5)" fill="#ffdaaa"/>
    <path id="Path_263901" data-name="Path 263901" d="M222.226,364.84l-4.552,3.79-4.552-3.79,1.42-.386V361.52a6.223,6.223,0,0,0,6.265,0v2.934Zm0,0" transform="translate(-185.306 -314.336)" fill="#ffdaaa"/>
    <path id="Path_263902" data-name="Path 263902" d="M206.618,231.309v3.132h-1.733a3.146,3.146,0,0,1-3.038-2.37l-.449-1.806-.627.835a8.362,8.362,0,0,1-6.682,3.341H192v-3.132a7.309,7.309,0,0,1,14.618,0Zm0,0" transform="translate(-166.941 -194.765)" fill="#57565c"/>
    <path id="Path_263903" data-name="Path 263903" d="M230.265,361.52v1.044a6.223,6.223,0,0,1-6.265,0V361.52A6.223,6.223,0,0,0,230.265,361.52Zm0,0" transform="translate(-194.765 -314.336)" fill="#f2cfa2"/>
    <path id="Path_263904" data-name="Path 263904" d="M168,432h2.088v4.177H168Zm0,0" transform="translate(-146.074 -375.618)" fill="#1e81ce"/>
    <path id="Path_263905" data-name="Path 263905" d="M312,432h2.088v4.177H312Zm0,0" transform="translate(-271.279 -375.618)" fill="#1e81ce"/>
    <g id="Group_58537" data-name="Group 58537" transform="translate(6.265 30.279)">
      <path id="Path_263906" data-name="Path 263906" d="M80,232h2.088v2.088H80Zm0,0" transform="translate(-75.824 -232)" fill="#009986"/>
      <path id="Path_263907" data-name="Path 263907" d="M112,232h2.088v2.088H112Zm0,0" transform="translate(-103.647 -232)" fill="#009986"/>
      <path id="Path_263908" data-name="Path 263908" d="M48,232h2.088v2.088H48Zm0,0" transform="translate(-48 -232)" fill="#009986"/>
    </g>
    <path id="Path_263909" data-name="Path 263909" d="M136,72h2.088v2.088H136Zm0,0" transform="translate(-118.25 -62.603)" fill="#1a6fb0"/>
    <path id="Path_263910" data-name="Path 263910" d="M168,72h2.088v2.088H168Zm0,0" transform="translate(-146.074 -62.603)" fill="#1a6fb0"/>
    <path id="Path_263911" data-name="Path 263911" d="M104,72h2.088v2.088H104Zm0,0" transform="translate(-90.426 -62.603)" fill="#1a6fb0"/>
    <path id="Path_263912" data-name="Path 263912" d="M344,40h2.088v2.088H344Zm0,0" transform="translate(-299.103 -34.779)" fill="#cc7400"/>
    <path id="Path_263913" data-name="Path 263913" d="M376,40h2.088v2.088H376Zm0,0" transform="translate(-326.926 -34.779)" fill="#cc7400"/>
    <path id="Path_263914" data-name="Path 263914" d="M312,40h2.088v2.088H312Zm0,0" transform="translate(-271.279 -34.779)" fill="#cc7400"/>
    <path id="Path_263915" data-name="Path 263915" d="M368,168h2.088v2.088H368Zm0,0" transform="translate(-319.971 -146.074)" fill="#ddb200"/>
    <path id="Path_263916" data-name="Path 263916" d="M400,168h2.088v2.088H400Zm0,0" transform="translate(-347.794 -146.074)" fill="#ddb200"/>
    <path id="Path_263917" data-name="Path 263917" d="M336,168h2.088v2.088H336Zm0,0" transform="translate(-292.147 -146.074)" fill="#ddb200"/>
    <g id="Group_58598" data-name="Group 58598" transform="translate(38.634 46.265)">
      <circle id="Ellipse_71" data-name="Ellipse 71" cx="10.117" cy="10.117" r="10.117" fill="#3b86fe"/>
      <g id="Group_25422" data-name="Group 25422" transform="translate(3.728 3.728)">
        <path id="Path_420" data-name="Path 420" d="M-1.171-13.61H4.364v1.4H-1.171v6.022H-2.682v-6.022H-8.1v-1.4h5.423v-5.822h1.512Z" transform="translate(8.105 19.433)" fill="#f4f4f4" stroke="#f4f4f4" stroke-width="1"/>
      </g>
    </g>
  </g>
</svg>
