<svg xmlns="http://www.w3.org/2000/svg" width="59.174" height="57.997" viewBox="0 0 59.174 57.997">
  <g id="addvacationEmployees" transform="translate(-16.567)">
    <g id="Group_58553" data-name="Group 58553" transform="translate(16.567 0)">
      <g id="Group_58543" data-name="Group 58543" transform="translate(0 0)">
        <path id="Path_263918" data-name="Path 263918" d="M16.567,397.6v7.409a3.7,3.7,0,0,0,3.7,3.7H64.724a3.7,3.7,0,0,0,3.7-3.7V397.6Z" transform="translate(-16.567 -353.148)" fill="#b5dbff"/>
        <path id="Path_263919" data-name="Path 263919" d="M428.005,397.6v7.409a3.7,3.7,0,0,1-3.7,3.7h2.572a3.7,3.7,0,0,0,3.7-3.7V397.6Z" transform="translate(-378.716 -353.148)" fill="#97d0ff"/>
        <path id="Path_263920" data-name="Path 263920" d="M16.567,132.533v33.339a3.7,3.7,0,0,0,3.7,3.7H64.724a3.7,3.7,0,0,0,3.7-3.7V132.533Z" transform="translate(-16.567 -117.716)" fill="#edf5ff"/>
        <path id="Path_263921" data-name="Path 263921" d="M428,132.533v33.339a3.7,3.7,0,0,1-3.7,3.7h2.571a3.7,3.7,0,0,0,3.7-3.7V132.533Z" transform="translate(-378.715 -117.716)" fill="#d5e8fe"/>
        <path id="Path_263922" data-name="Path 263922" d="M68.429,46.1V36.838a3.7,3.7,0,0,0-3.7-3.7H20.272a3.7,3.7,0,0,0-3.7,3.7V46.1Z" transform="translate(-16.568 -29.43)" fill="#ff435b"/>
        <g id="Group_58538" data-name="Group 58538" transform="translate(8.422 6.57)">
          <path id="Path_263923" data-name="Path 263923" d="M94.591,60.444H92.739a.839.839,0,1,1,0-1.677h1.852a.839.839,0,0,1,0,1.677Z" transform="translate(-91.9 -58.767)" fill="#e3374e"/>
        </g>
        <g id="Group_58539" data-name="Group 58539" transform="translate(13.979 6.57)">
          <path id="Path_263924" data-name="Path 263924" d="M144.291,60.444h-1.852a.839.839,0,0,1,0-1.677h1.852a.839.839,0,0,1,0,1.677Z" transform="translate(-141.6 -58.767)" fill="#e3374e"/>
        </g>
        <g id="Group_58540" data-name="Group 58540" transform="translate(34.353 6.57)">
          <path id="Path_263925" data-name="Path 263925" d="M326.525,60.444h-1.852a.839.839,0,0,1,0-1.677h1.852a.839.839,0,0,1,0,1.677Z" transform="translate(-323.834 -58.767)" fill="#e3374e"/>
        </g>
        <g id="Group_58541" data-name="Group 58541" transform="translate(39.91 6.57)">
          <path id="Path_263926" data-name="Path 263926" d="M376.224,60.444h-1.852a.839.839,0,0,1,0-1.677h1.852a.839.839,0,0,1,0,1.677Z" transform="translate(-373.533 -58.767)" fill="#e3374e"/>
        </g>
        <path id="Path_263927" data-name="Path 263927" d="M115.966,7.409a1.852,1.852,0,1,0,3.7,0V1.852a1.852,1.852,0,0,0-3.7,0V7.409Z" transform="translate(-104.853 0)" fill="#596c76"/>
        <path id="Path_263928" data-name="Path 263928" d="M347.9,7.409a1.852,1.852,0,1,0,3.7,0V1.852a1.852,1.852,0,1,0-3.7,0Z" transform="translate(-310.856 0)" fill="#596c76"/>
        <g id="Group_58542" data-name="Group 58542" transform="translate(0 3.704)">
          <path id="Path_263929" data-name="Path 263929" d="M426.871,33.133H424.3a3.7,3.7,0,0,1,3.7,3.7V46.1h2.571V36.837a3.7,3.7,0,0,0-3.7-3.7Z" transform="translate(-378.715 -33.133)" fill="#e3374e"/>
          <path id="Path_263930" data-name="Path 263930" d="M16.567,108.467H68.428v1.677H16.567Z" transform="translate(-16.567 -100.044)" fill="#e3374e"/>
        </g>
      </g>
      <g id="Group_58544" data-name="Group 58544" transform="translate(18.526 26.84)">
        <circle id="Ellipse_279" data-name="Ellipse 279" cx="6.483" cy="6.483" r="6.483" transform="matrix(0.157, -0.988, 0.988, 0.157, 0, 12.81)" fill="#fdbf00"/>
      </g>
      <g id="Group_58545" data-name="Group 58545" transform="translate(25.092 19.536)">
        <path id="Path_263931" data-name="Path 263931" d="M241.838,180.115a.839.839,0,0,1-.838-.839v-3.7a.839.839,0,0,1,1.677,0v3.7A.838.838,0,0,1,241.838,180.115Z" transform="translate(-241 -174.734)" fill="#fdbf00"/>
      </g>
      <g id="Group_58546" data-name="Group 58546" transform="translate(25.092 43.614)">
        <path id="Path_263932" data-name="Path 263932" d="M241.838,395.481a.839.839,0,0,1-.838-.839v-3.7a.839.839,0,1,1,1.677,0v3.7A.838.838,0,0,1,241.838,395.481Z" transform="translate(-241 -390.1)" fill="#fdbf00"/>
      </g>
      <g id="Group_58547" data-name="Group 58547" transform="translate(32.295 40.63)">
        <path id="Path_263933" data-name="Path 263933" d="M308.886,367.709a.836.836,0,0,1-.593-.246l-2.619-2.619a.839.839,0,0,1,1.186-1.186l2.619,2.619a.839.839,0,0,1-.593,1.431Z" transform="translate(-305.428 -363.412)" fill="#fdbf00"/>
      </g>
      <g id="Group_58548" data-name="Group 58548" transform="translate(11.201 33.427)">
        <path id="Path_263934" data-name="Path 263934" d="M121.293,300.66h-3.7a.839.839,0,1,1,0-1.677h3.7a.839.839,0,1,1,0,1.677Z" transform="translate(-116.75 -298.983)" fill="#fdbf00"/>
      </g>
      <g id="Group_58549" data-name="Group 58549" transform="translate(35.279 33.427)">
        <path id="Path_263935" data-name="Path 263935" d="M336.659,300.66h-3.7a.839.839,0,1,1,0-1.677h3.7a.839.839,0,1,1,0,1.677Z" transform="translate(-332.116 -298.983)" fill="#fdbf00"/>
      </g>
      <g id="Group_58550" data-name="Group 58550" transform="translate(15.269 23.604)">
        <path id="Path_263936" data-name="Path 263936" d="M156.6,215.422a.836.836,0,0,1-.593-.246l-2.619-2.619a.838.838,0,1,1,1.186-1.186l2.619,2.619a.839.839,0,0,1-.593,1.431Z" transform="translate(-153.142 -211.125)" fill="#fdbf00"/>
      </g>
      <g id="Group_58551" data-name="Group 58551" transform="translate(15.269 40.63)">
        <path id="Path_263937" data-name="Path 263937" d="M153.981,367.709a.839.839,0,0,1-.593-1.431l2.619-2.619a.838.838,0,0,1,1.186,1.186l-2.619,2.619A.836.836,0,0,1,153.981,367.709Z" transform="translate(-153.142 -363.412)" fill="#fdbf00"/>
      </g>
      <g id="Group_58552" data-name="Group 58552" transform="translate(32.295 23.604)">
        <path id="Path_263938" data-name="Path 263938" d="M306.268,215.422a.839.839,0,0,1-.593-1.431l2.619-2.619a.839.839,0,1,1,1.186,1.186l-2.619,2.619A.835.835,0,0,1,306.268,215.422Z" transform="translate(-305.429 -211.125)" fill="#fdbf00"/>
      </g>
      <circle id="Ellipse_280" data-name="Ellipse 280" cx="6.483" cy="6.483" r="6.483" transform="matrix(0.157, -0.988, 0.988, 0.157, 18.526, 39.649)" fill="#fdbf00"/>
      <path id="Path_263939" data-name="Path 263939" d="M238.286,248.5a6.51,6.51,0,0,0-1.286.128,6.484,6.484,0,0,1,0,12.709,6.483,6.483,0,1,0,1.286-12.837Z" transform="translate(-212.355 -220.717)" fill="#ff9100"/>
    </g>
    <g id="Group_58597" data-name="Group 58597" transform="translate(53.857 36.113)">
      <circle id="Ellipse_71" data-name="Ellipse 71" cx="10.942" cy="10.942" r="10.942" fill="#3b86fe"/>
      <g id="Group_25422" data-name="Group 25422" transform="translate(4.031 4.031)">
        <path id="Path_420" data-name="Path 420" d="M-.605-13.136H5.381v1.513H-.605v6.513H-2.24v-6.513H-8.1v-1.513H-2.24v-6.3H-.605Z" transform="translate(8.105 19.433)" fill="#f4f4f4" stroke="#f4f4f4" stroke-width="1"/>
      </g>
    </g>
  </g>
</svg>
