<svg xmlns="http://www.w3.org/2000/svg" width="58.254" height="45.547" viewBox="0 0 58.254 45.547">
  <g id="Attendens" transform="translate(-2.452 -7.698)">
    <g id="_x33_5" transform="translate(2.451 7.698)">
      <path id="Path_263971" data-name="Path 263971" d="M60.706,11.66V49.281a3.958,3.958,0,0,1-3.963,3.963H6.414a3.958,3.958,0,0,1-3.963-3.963V11.66A3.958,3.958,0,0,1,6.414,7.7H56.743a3.958,3.958,0,0,1,3.963,3.963Z" transform="translate(-2.452 -7.698)" fill="#474646"/>
      <path id="Path_263972" data-name="Path 263972" d="M34.15,13.611V24.8a2.641,2.641,0,0,1-2.642,2.642H8.365A2.641,2.641,0,0,1,5.723,24.8V13.611a2.641,2.641,0,0,1,2.642-2.642H31.509a2.641,2.641,0,0,1,2.642,2.642Z" transform="translate(-1.761 -7.007)" fill="#7979f7"/>
      <path id="Path_263973" data-name="Path 263973" d="M33.833,12.356a2.677,2.677,0,0,0-1.255-.317H9.435a2.641,2.641,0,0,0-2.642,2.642V25.87a2.539,2.539,0,0,0,.33,1.255,2.613,2.613,0,0,1-1.4-2.325V13.611a2.641,2.641,0,0,1,2.642-2.642H31.509a2.632,2.632,0,0,1,2.325,1.387Z" transform="translate(-1.761 -7.007)" fill="#5e5eef"/>
      <g id="Group_58603" data-name="Group 58603" transform="translate(11.627 23.456)">
        <g id="Group_58599" data-name="Group 58599">
          <path id="Path_263974" data-name="Path 263974" d="M16.735,28.161v2.49a1.1,1.1,0,0,1-1.1,1.1h-2.49a1.1,1.1,0,0,1-1.1-1.1v-2.49a1.1,1.1,0,0,1,1.1-1.1h2.49A1.1,1.1,0,0,1,16.735,28.161Z" transform="translate(-12.051 -27.064)" fill="#e4e3ff"/>
          <path id="Path_263975" data-name="Path 263975" d="M16.735,33.991v2.49a1.1,1.1,0,0,1-1.1,1.1h-2.49a1.1,1.1,0,0,1-1.1-1.1v-2.49a1.1,1.1,0,0,1,1.1-1.1h2.49A1.1,1.1,0,0,1,16.735,33.991Z" transform="translate(-12.051 -25.833)" fill="#e4e3ff"/>
          <path id="Path_263976" data-name="Path 263976" d="M16.735,39.82v2.49a1.1,1.1,0,0,1-1.1,1.1h-2.49a1.1,1.1,0,0,1-1.1-1.1V39.82a1.1,1.1,0,0,1,1.1-1.1h2.49A1.1,1.1,0,0,1,16.735,39.82Z" transform="translate(-12.051 -24.602)" fill="#e4e3ff"/>
        </g>
        <g id="Group_58600" data-name="Group 58600" transform="translate(8.04)">
          <path id="Path_263977" data-name="Path 263977" d="M23.373,28.161v2.49a1.1,1.1,0,0,1-1.1,1.1h-2.49a1.1,1.1,0,0,1-1.1-1.1v-2.49a1.1,1.1,0,0,1,1.1-1.1h2.49A1.1,1.1,0,0,1,23.373,28.161Z" transform="translate(-18.689 -27.064)" fill="#e4e3ff"/>
          <path id="Path_263978" data-name="Path 263978" d="M23.373,33.991v2.49a1.1,1.1,0,0,1-1.1,1.1h-2.49a1.1,1.1,0,0,1-1.1-1.1v-2.49a1.1,1.1,0,0,1,1.1-1.1h2.49A1.1,1.1,0,0,1,23.373,33.991Z" transform="translate(-18.689 -25.833)" fill="#e4e3ff"/>
          <path id="Path_263979" data-name="Path 263979" d="M23.373,39.82v2.49a1.1,1.1,0,0,1-1.1,1.1h-2.49a1.1,1.1,0,0,1-1.1-1.1V39.82a1.1,1.1,0,0,1,1.1-1.1h2.49A1.1,1.1,0,0,1,23.373,39.82Z" transform="translate(-18.689 -24.602)" fill="#e4e3ff"/>
        </g>
        <g id="Group_58602" data-name="Group 58602" transform="translate(16.08)">
          <path id="Path_263980" data-name="Path 263980" d="M30.01,28.161v2.49a1.1,1.1,0,0,1-1.1,1.1h-2.49a1.1,1.1,0,0,1-1.1-1.1v-2.49a1.1,1.1,0,0,1,1.1-1.1h2.49A1.1,1.1,0,0,1,30.01,28.161Z" transform="translate(-25.327 -27.064)" fill="#e4e3ff"/>
          <path id="Path_263981" data-name="Path 263981" d="M30.009,28.161v2.483a1.094,1.094,0,0,1-1.1,1.1h-2.5a1.107,1.107,0,0,1-1.083-.938.754.754,0,0,0,.172.013h2.483a1.094,1.094,0,0,0,1.1-1.1V27.236a.641.641,0,0,0-.013-.158,1.1,1.1,0,0,1,.938,1.083Z" transform="translate(-25.326 -27.061)" fill="#d0d0f7"/>
          <g id="Group_58601" data-name="Group 58601" transform="translate(0 7.061)">
            <path id="Path_263982" data-name="Path 263982" d="M30.01,33.991v2.49a1.1,1.1,0,0,1-1.1,1.1h-2.49a1.1,1.1,0,0,1-1.1-1.1v-2.49a1.1,1.1,0,0,1,1.1-1.1h2.49A1.1,1.1,0,0,1,30.01,33.991Z" transform="translate(-25.327 -32.894)" fill="#e4e3ff"/>
            <path id="Path_263983" data-name="Path 263983" d="M30.01,39.82v2.49a1.1,1.1,0,0,1-1.1,1.1h-2.49a1.1,1.1,0,0,1-1.1-1.1V39.82a1.1,1.1,0,0,1,1.1-1.1h2.49A1.1,1.1,0,0,1,30.01,39.82Z" transform="translate(-25.327 -31.663)" fill="#e4e3ff"/>
          </g>
        </g>
      </g>
      <path id="Path_263984" data-name="Path 263984" d="M9.923,29.321A1.816,1.816,0,1,1,8.113,27.5,1.813,1.813,0,0,1,9.923,29.321Z" transform="translate(-1.641 -3.516)" fill="#f9b938"/>
      <path id="Path_263985" data-name="Path 263985" d="M9.87,29.265a1.813,1.813,0,0,1-3.329.991,1.811,1.811,0,0,0,2.774-1.532,1.723,1.723,0,0,0-.3-.991,1.8,1.8,0,0,1,.858,1.532Z" transform="translate(-1.588 -3.466)" fill="#ecb021"/>
      <path id="Path_263986" data-name="Path 263986" d="M9.923,35.248a1.816,1.816,0,1,1-1.81-1.823A1.813,1.813,0,0,1,9.923,35.248Z" transform="translate(-1.641 -2.264)" fill="#00d67f"/>
      <path id="Path_263987" data-name="Path 263987" d="M9.873,35.2a1.816,1.816,0,0,1-3.342.977,1.876,1.876,0,0,0,.977.277,1.813,1.813,0,0,0,1.81-1.81,1.771,1.771,0,0,0-.291-.978A1.786,1.786,0,0,1,9.873,35.2Z" transform="translate(-1.59 -2.213)" fill="#00c179"/>
      <path id="Path_263988" data-name="Path 263988" d="M9.923,41.176a1.816,1.816,0,1,1-1.81-1.823A1.813,1.813,0,0,1,9.923,41.176Z" transform="translate(-1.641 -1.012)" fill="#fc6559"/>
      <path id="Path_263989" data-name="Path 263989" d="M9.87,41.12a1.813,1.813,0,0,1-3.329.991,1.811,1.811,0,0,0,2.774-1.532,1.723,1.723,0,0,0-.3-.991A1.8,1.8,0,0,1,9.87,41.12Z" transform="translate(-1.588 -0.963)" fill="#f05543"/>
      <g id="Group_58604" data-name="Group 58604" transform="translate(7.255 8.259)">
        <path id="Path_263990" data-name="Path 263990" d="M13.01,17.543a2.682,2.682,0,0,0-1.336-.326,3.1,3.1,0,0,0-1.387.28,2.9,2.9,0,0,0-.577.379,3.808,3.808,0,0,1,.475-1.367,1.62,1.62,0,0,1,1.543-.756,3.148,3.148,0,0,1,1.351.3.609.609,0,0,0,.654-.141.58.58,0,0,0,.162-.406.569.569,0,0,0-.084-.3.58.58,0,0,0-.221-.218,4.688,4.688,0,0,0-.86-.337,3.9,3.9,0,0,0-1.076-.134,2.824,2.824,0,0,0-1.872.612A3.38,3.38,0,0,0,8.75,16.634a5.61,5.61,0,0,0-.308,1.833c0,2.607,1.023,3.93,3.043,3.93a3.039,3.039,0,0,0,1.455-.335,2.409,2.409,0,0,0,.968-.923,2.548,2.548,0,0,0,.337-1.289,2.835,2.835,0,0,0-.325-1.382,2.339,2.339,0,0,0-.909-.924Zm-.033,2.286a1.324,1.324,0,0,1-.7,1.178,1.62,1.62,0,0,1-.786.186c-1,0-1.582-.576-1.772-1.758A1.943,1.943,0,0,1,11.558,18.4a1.361,1.361,0,0,1,1.058.385,1.464,1.464,0,0,1,.361,1.044Z" transform="translate(-8.442 -14.516)" fill="#e4e3ff"/>
        <path id="Path_263991" data-name="Path 263991" d="M14.846,19.681h-.105a.747.747,0,0,0-.744.744v.063a.747.747,0,0,0,.744.744h.105a.749.749,0,0,0,.744-.744v-.063a.747.747,0,0,0-.744-.744Z" transform="translate(-7.268 -13.425)" fill="#e4e3ff"/>
        <path id="Path_263992" data-name="Path 263992" d="M14.846,16.215h-.105a.747.747,0,0,0-.744.744v.063a.749.749,0,0,0,.744.744h.105a.749.749,0,0,0,.744-.744v-.063a.749.749,0,0,0-.744-.744Z" transform="translate(-7.268 -14.158)" fill="#e4e3ff"/>
        <path id="Path_263993" data-name="Path 263993" d="M19.046,14.516A2.612,2.612,0,0,0,16.8,15.6a4.824,4.824,0,0,0-.762,2.854A4.824,4.824,0,0,0,16.8,21.31a2.61,2.61,0,0,0,2.25,1.086,2.609,2.609,0,0,0,2.245-1.086,4.8,4.8,0,0,0,.766-2.854,4.8,4.8,0,0,0-.766-2.854A2.613,2.613,0,0,0,19.046,14.516Zm1.746,3.94a3.834,3.834,0,0,1-.466,2.048,1.521,1.521,0,0,1-2.559,0,3.834,3.834,0,0,1-.466-2.048,3.806,3.806,0,0,1,.466-2.036,1.519,1.519,0,0,1,2.559,0A3.806,3.806,0,0,1,20.792,18.456Z" transform="translate(-6.838 -14.516)" fill="#e4e3ff"/>
        <path id="Path_263994" data-name="Path 263994" d="M26.759,15.6a2.61,2.61,0,0,0-2.244-1.086A2.613,2.613,0,0,0,22.264,15.6a4.824,4.824,0,0,0-.762,2.854,4.824,4.824,0,0,0,.762,2.854A2.613,2.613,0,0,0,24.515,22.4a2.608,2.608,0,0,0,2.244-1.086,4.8,4.8,0,0,0,.768-2.854A4.8,4.8,0,0,0,26.759,15.6Zm-.5,2.854a3.834,3.834,0,0,1-.466,2.048,1.52,1.52,0,0,1-2.558,0,3.823,3.823,0,0,1-.466-2.048,3.8,3.8,0,0,1,.466-2.036,1.518,1.518,0,0,1,2.558,0,3.806,3.806,0,0,1,.466,2.036Z" transform="translate(-5.683 -14.516)" fill="#e4e3ff"/>
      </g>
      <g id="Group_58605" data-name="Group 58605" transform="translate(11.651 23.487)">
        <path id="Path_263995" data-name="Path 263995" d="M16.734,28.159v2.483a1.094,1.094,0,0,1-1.1,1.1h-2.5a1.083,1.083,0,0,1-1.07-.951.68.68,0,0,0,.145.026h2.5a1.094,1.094,0,0,0,1.1-1.1V27.234c0-.053-.026-.092-.026-.145a1.094,1.094,0,0,1,.951,1.07Z" transform="translate(-12.071 -27.089)" fill="#d0d0f7"/>
        <path id="Path_263996" data-name="Path 263996" d="M16.734,33.983v2.5a1.094,1.094,0,0,1-1.1,1.1h-2.5a1.094,1.094,0,0,1-1.07-.951c.053,0,.105.026.145.026h2.5a1.094,1.094,0,0,0,1.1-1.1v-2.5c0-.04-.026-.093-.026-.145a1.094,1.094,0,0,1,.951,1.07Z" transform="translate(-12.071 -25.859)" fill="#d0d0f7"/>
        <path id="Path_263997" data-name="Path 263997" d="M16.734,39.818V42.3a1.094,1.094,0,0,1-1.1,1.1h-2.5a1.083,1.083,0,0,1-1.07-.951.811.811,0,0,0,.145.04h2.5a1.1,1.1,0,0,0,1.1-1.1v-2.5c0-.053-.026-.092-.026-.145a1.094,1.094,0,0,1,.951,1.07Z" transform="translate(-12.071 -24.627)" fill="#d0d0f7"/>
        <path id="Path_263998" data-name="Path 263998" d="M23.362,28.159v2.483a1.094,1.094,0,0,1-1.1,1.1H19.783a1.083,1.083,0,0,1-1.07-.951.558.558,0,0,0,.145.026h2.5a1.1,1.1,0,0,0,1.1-1.1V27.234a.594.594,0,0,0-.04-.145,1.083,1.083,0,0,1,.951,1.07Z" transform="translate(-10.668 -27.089)" fill="#d0d0f7"/>
        <path id="Path_263999" data-name="Path 263999" d="M23.362,33.983v2.5a1.093,1.093,0,0,1-1.1,1.1H19.783a1.094,1.094,0,0,1-1.07-.951c.053,0,.092.026.145.026h2.5a1.1,1.1,0,0,0,1.1-1.1v-2.5a.808.808,0,0,0-.04-.145,1.083,1.083,0,0,1,.951,1.07Z" transform="translate(-10.668 -25.859)" fill="#d0d0f7"/>
        <path id="Path_264000" data-name="Path 264000" d="M23.362,39.818V42.3a1.094,1.094,0,0,1-1.1,1.1H19.783a1.083,1.083,0,0,1-1.07-.951.59.59,0,0,0,.145.04h2.5a1.111,1.111,0,0,0,1.1-1.1v-2.5a.6.6,0,0,0-.04-.145,1.083,1.083,0,0,1,.951,1.07Z" transform="translate(-10.668 -24.627)" fill="#d0d0f7"/>
        <path id="Path_264001" data-name="Path 264001" d="M30,33.983v2.5a1.094,1.094,0,0,1-1.1,1.1h-2.5a1.081,1.081,0,0,1-1.057-.951c.04,0,.093.026.145.026h2.483a1.094,1.094,0,0,0,1.1-1.1v-2.5a.679.679,0,0,0-.026-.145A1.094,1.094,0,0,1,30,33.983Z" transform="translate(-9.266 -25.859)" fill="#d0d0f7"/>
        <path id="Path_264002" data-name="Path 264002" d="M30,39.818V42.3a1.094,1.094,0,0,1-1.1,1.1h-2.5a1.07,1.07,0,0,1-1.057-.951.469.469,0,0,0,.145.04h2.483a1.1,1.1,0,0,0,1.1-1.1v-2.5a.562.562,0,0,0-.026-.145A1.094,1.094,0,0,1,30,39.818Z" transform="translate(-9.266 -24.627)" fill="#d0d0f7"/>
      </g>
      <g id="Group_58606" data-name="Group 58606" transform="translate(36.734 6.473)">
        <path id="Path_264003" data-name="Path 264003" d="M50.1,13.848a.8.8,0,0,1-.807.806H33.587a.806.806,0,1,1,0-1.613H49.292a.8.8,0,0,1,.807.807Z" transform="translate(-32.781 -13.042)" fill="#e4e3ff"/>
        <path id="Path_264004" data-name="Path 264004" d="M48.673,16.66a.8.8,0,0,1-.807.806H34.59a.806.806,0,1,1,0-1.613H47.866A.8.8,0,0,1,48.673,16.66Z" transform="translate(-32.569 -12.448)" fill="#e4e3ff"/>
        <path id="Path_264005" data-name="Path 264005" d="M48.673,22.283a.8.8,0,0,1-.807.806H34.59a.806.806,0,1,1,0-1.613H47.866A.8.8,0,0,1,48.673,22.283Z" transform="translate(-32.569 -11.26)" fill="#e4e3ff"/>
        <path id="Path_264006" data-name="Path 264006" d="M50.1,19.471a.8.8,0,0,1-.807.806H33.587a.806.806,0,1,1,0-1.613H49.292A.8.8,0,0,1,50.1,19.471Z" transform="translate(-32.781 -11.854)" fill="#e4e3ff"/>
      </g>
      <path id="Path_264007" data-name="Path 264007" d="M48.347,29.446V43.039a1.325,1.325,0,0,1-1.321,1.321H35.335a1.325,1.325,0,0,1-1.321-1.321V29.446a1.325,1.325,0,0,1,1.321-1.321H47.026A1.325,1.325,0,0,1,48.347,29.446Z" transform="translate(4.214 -3.383)" fill="#2d2c2c"/>
      <path id="Path_264008" data-name="Path 264008" d="M45.71,30.772V40.93a.8.8,0,0,1-.793.793H36.661a.8.8,0,0,1-.792-.793V30.772a.8.8,0,0,1,.792-.793h8.256a.8.8,0,0,1,.793.793Z" transform="translate(4.606 -2.992)" fill="#7979f7"/>
      <path id="Path_264009" data-name="Path 264009" d="M45.706,30.777v10.15a.8.8,0,0,1-.787.8h-8.26a.8.8,0,0,1-.787-.8v-.17H43.95a.8.8,0,0,0,.8-.787V29.978h.17a.8.8,0,0,1,.787.8Z" transform="translate(4.606 -2.992)" fill="#5e5eef"/>
      <g id="Group_58607" data-name="Group 58607" transform="translate(1.454 15.517)" opacity="0.3">
        <path id="Path_264010" data-name="Path 264010" d="M4.258,41.455a.605.605,0,0,1-.606-.606V21.114a.606.606,0,0,1,1.211,0V40.849A.605.605,0,0,1,4.258,41.455Z" transform="translate(-3.652 -20.509)" fill="#fff"/>
      </g>
      <g id="Group_58608" data-name="Group 58608" transform="translate(1.454 1.453)" opacity="0.3">
        <path id="Path_264011" data-name="Path 264011" d="M4.258,15.088a.605.605,0,0,1-.606-.606V11.407A2.512,2.512,0,0,1,6.161,8.9H9.453a.606.606,0,0,1,0,1.211H6.161a1.3,1.3,0,0,0-1.3,1.3v3.075a.605.605,0,0,1-.606.606Z" transform="translate(-3.652 -8.897)" fill="#fff"/>
      </g>
      <g id="Group_58611" data-name="Group 58611" transform="translate(25.838 1.453)" opacity="0.3">
        <g id="Group_58609" data-name="Group 58609">
          <path id="Path_264012" data-name="Path 264012" d="M31.329,10.108H24.39a.606.606,0,1,1,0-1.211h6.939a.606.606,0,1,1,0,1.211Z" transform="translate(-23.784 -8.897)" fill="#fff"/>
        </g>
        <g id="Group_58610" data-name="Group 58610" transform="translate(9.21)">
          <path id="Path_264013" data-name="Path 264013" d="M33.659,10.108H31.994a.606.606,0,0,1,0-1.211h1.665a.606.606,0,0,1,0,1.211Z" transform="translate(-31.389 -8.897)" fill="#fff"/>
        </g>
      </g>
    </g>
  </g>
</svg>
