<svg xmlns="http://www.w3.org/2000/svg" width="56.023" height="50" viewBox="0 0 56.023 50">
  <g id="Banks" transform="translate(-1142 -561)">
    <path id="Path_2719" data-name="Path 2719" d="M75.035,175.3h39.831v28.977H75.035Zm0,0" transform="translate(1075.175 400.922)" fill="#fff"/>
    <path id="Path_2720" data-name="Path 2720" d="M406.07,190.754h6.761v25.275H406.07Zm0,0" transform="translate(780.362 387.164)" fill="#d1d4d1"/>
    <path id="Path_2721" data-name="Path 2721" d="M50.9,222.78H44.137V198.84H50.9Zm0,0" transform="translate(1102.693 379.963)" fill="#d1d4d1"/>
    <g id="Group_25457" data-name="Group 25457" transform="translate(1144.898 575.744)">
      <path id="Path_2722" data-name="Path 2722" d="M388.414,170.891h10.625v2.415a1.931,1.931,0,0,1-1.932,1.932h-6.761a1.931,1.931,0,0,1-1.932-1.932Zm0,0" transform="translate(-348.812 -170.891)" fill="#bdc3c7"/>
      <path id="Path_2723" data-name="Path 2723" d="M390.346,404.82h6.761a1.932,1.932,0,0,1,1.932,1.932v2.415H388.414v-2.415A1.932,1.932,0,0,1,390.346,404.82Zm0,0" transform="translate(-348.812 -379.224)" fill="#bdc3c7"/>
      <path id="Path_2724" data-name="Path 2724" d="M35.177,175.237H28.416a1.931,1.931,0,0,1-1.932-1.932v-2.415H37.109v2.415A1.931,1.931,0,0,1,35.177,175.237Zm0,0" transform="translate(-26.484 -170.891)" fill="#bdc3c7"/>
      <path id="Path_2725" data-name="Path 2725" d="M37.109,409.167H26.484v-2.415a1.932,1.932,0,0,1,1.932-1.932h6.761a1.932,1.932,0,0,1,1.932,1.932Zm0,0" transform="translate(-26.484 -379.224)" fill="#bdc3c7"/>
    </g>
    <path id="Path_2727" data-name="Path 2727" d="M18.622,440.133H69.815a.966.966,0,0,1,.966.966v4.829H17.656V441.1A.966.966,0,0,1,18.622,440.133Zm0,0" transform="translate(1126.276 165.072)" fill="#285680"/>
    <path id="Path_2728" data-name="Path 2728" d="M55.057,15.317H.966A.966.966,0,0,1,0,14.351V9.268a.966.966,0,0,1,.676-.922L27.153.129a2.891,2.891,0,0,1,1.717,0L55.346,8.345a.966.966,0,0,1,.676.922v5.084A.966.966,0,0,1,55.057,15.317Zm0,0" transform="translate(1142 561.517)" fill="#285680"/>
    <path id="Path_2729" data-name="Path 2729" d="M35.309,43.64v-.051l23.858-7.405a.966.966,0,0,1,.572,0L83.6,43.588v.051Zm0,0" transform="translate(1110.555 524.86)" fill="#285680"/>
    <path id="Path_2731" data-name="Path 2731" d="M224.555,253.653a3.864,3.864,0,1,1,3.863-3.864.966.966,0,1,1-1.931,0,1.932,1.932,0,1,0-1.932,1.932.966.966,0,0,1,0,1.932Zm0,0" transform="translate(945.457 338.029)" fill="#24ae5f"/>
    <path id="Path_2732" data-name="Path 2732" d="M224.555,306.618a3.863,3.863,0,0,1-3.863-3.863.966.966,0,1,1,1.932,0,1.932,1.932,0,1,0,1.932-1.932.966.966,0,1,1,0-1.932,3.864,3.864,0,0,1,0,7.727Zm0,0" transform="translate(945.457 290.859)" fill="#24ae5f"/>
    <path id="Path_2733" data-name="Path 2733" d="M248.138,252.552a.966.966,0,0,1-.966-.966V238.064a.966.966,0,0,1,1.932,0v13.523A.966.966,0,0,1,248.138,252.552Zm0,0" transform="translate(921.874 345.891)" fill="#24ae5f"/>
  </g>
</svg>
