<svg id="branch" xmlns="http://www.w3.org/2000/svg" width="45.961" height="45.961" viewBox="0 0 45.961 45.961">
  <g id="Group_58656" data-name="Group 58656">
    <g id="Group_58653" data-name="Group 58653" transform="translate(0.741 30.394)">
      <path id="Path_264015" data-name="Path 264015" d="M9.9,44.707h4.448a2.227,2.227,0,0,0,2.224-2.224V41H2.177a1.177,1.177,0,0,0-1.029,1.749l.064.116a25.19,25.19,0,0,0,18.32,12.679v-1.2a2.227,2.227,0,0,0-2.224-2.224.741.741,0,0,1,0-1.483h1.483a2.224,2.224,0,1,0,0-4.448H9.9a.741.741,0,1,1,0-1.483Z" transform="translate(-1 -41)" fill="#f0bc5e"/>
    </g>
    <g id="Group_58654" data-name="Group 58654" transform="translate(23.722 30.394)">
      <path id="Path_264016" data-name="Path 264016" d="M52.321,41H34.965v1.483a2.227,2.227,0,0,0,2.224,2.224H44.6a.741.741,0,1,1,0,1.483H40.154a2.227,2.227,0,0,0-2.224,2.224.743.743,0,0,1-.741.741H34.224a2.224,2.224,0,0,0,0,4.448.743.743,0,0,1,.741.741v1.2a25.193,25.193,0,0,0,18.32-12.678l.064-.116A1.177,1.177,0,0,0,52.321,41Z" transform="translate(-32 -41)" fill="#f0bc5e"/>
    </g>
    <g id="Group_58655" data-name="Group 58655">
      <path id="Path_264017" data-name="Path 264017" d="M29.707,11.413A3.707,3.707,0,1,0,26,7.707,3.711,3.711,0,0,0,29.707,11.413Zm0-5.93a2.224,2.224,0,1,1-2.224,2.224A2.227,2.227,0,0,1,29.707,5.483Z" transform="translate(-6.726 -1.035)" fill="#f0bc5e"/>
      <path id="Path_264018" data-name="Path 264018" d="M28.672,17.5l5.21-6.512a6.693,6.693,0,0,0,1.462-4.168V6.672A6.672,6.672,0,1,0,22,6.672v.144a6.693,6.693,0,0,0,1.462,4.168ZM23.483,6.672a5.189,5.189,0,0,1,10.378,0v.144a5.209,5.209,0,0,1-1.137,3.242l-4.052,5.065L24.62,10.057a5.205,5.205,0,0,1-1.137-3.241Z" transform="translate(-5.691 0)" fill="#f0bc5e"/>
      <path id="Path_264019" data-name="Path 264019" d="M51.707,4a3.707,3.707,0,1,0,3.707,3.707A3.711,3.711,0,0,0,51.707,4Zm0,5.93A2.224,2.224,0,1,1,53.93,7.707,2.227,2.227,0,0,1,51.707,9.93Z" transform="translate(-12.417 -1.035)" fill="#f0bc5e"/>
      <path id="Path_264020" data-name="Path 264020" d="M50.672,0A6.68,6.68,0,0,0,44,6.672v.144a6.693,6.693,0,0,0,1.462,4.168l5.21,6.512,5.21-6.512a6.693,6.693,0,0,0,1.462-4.168V6.672A6.68,6.68,0,0,0,50.672,0Zm5.189,6.816a5.209,5.209,0,0,1-1.137,3.242l-4.052,5.065L46.62,10.057a5.205,5.205,0,0,1-1.137-3.241V6.672a5.189,5.189,0,0,1,10.378,0Z" transform="translate(-11.383 0)" fill="#f0bc5e"/>
      <path id="Path_264021" data-name="Path 264021" d="M7.707,11.413A3.707,3.707,0,1,0,4,7.707,3.711,3.711,0,0,0,7.707,11.413Zm0-5.93A2.224,2.224,0,1,1,5.483,7.707,2.227,2.227,0,0,1,7.707,5.483Z" transform="translate(-1.035 -1.035)" fill="#f0bc5e"/>
      <path id="Path_264022" data-name="Path 264022" d="M6.672,17.5l5.21-6.512a6.693,6.693,0,0,0,1.462-4.168V6.672A6.672,6.672,0,0,0,0,6.672v.144a6.693,6.693,0,0,0,1.462,4.168ZM1.483,6.672a5.189,5.189,0,1,1,10.378,0v.144a5.209,5.209,0,0,1-1.137,3.242L6.672,15.122,2.62,10.057A5.205,5.205,0,0,1,1.483,6.816Z" fill="#f0bc5e"/>
      <path id="Path_264023" data-name="Path 264023" d="M44.478,35.4V27A2.031,2.031,0,0,0,43,25.05V22H41.513v3.155L40.03,25.6V24.224H38.548v1.821l-3,.9A2.022,2.022,0,0,0,34.1,28.893v.52H29.652V27.93a1.484,1.484,0,0,0-1.483-1.483H26.687V24.965H25.2v1.483H23.722V23.483H22.239v2.965H20.757V24.965H19.274v1.483H17.791a1.484,1.484,0,0,0-1.483,1.483v1.483H11.861v-.52a2.023,2.023,0,0,0-1.45-1.949l-3-.9V24.224H5.93V25.6l-1.483-.445V22H2.965v3.051A2.031,2.031,0,0,0,1.483,27v8.4a1.914,1.914,0,0,0-1.241,2.8l.064.116a25.939,25.939,0,0,0,45.349,0l.065-.117a1.915,1.915,0,0,0-1.242-2.8Zm-8.9-6.506a.548.548,0,0,1,.393-.529l6.311-1.893A.562.562,0,0,1,43,27v8.344H38.548V30.9a1.484,1.484,0,0,0-1.483-1.483H35.583Zm1.483,2v4.448H29.652V30.9ZM17.791,27.93H28.17v7.413H17.791V27.93Zm-1.483,7.413H8.9V30.9h7.413ZM3.675,26.472l6.309,1.893a.548.548,0,0,1,.394.529v.52H8.9A1.484,1.484,0,0,0,7.413,30.9v4.448H2.965V27A.56.56,0,0,1,3.675,26.472Zm40.748,11-.064.116a24.456,24.456,0,0,1-42.757,0l-.064-.116a.436.436,0,0,1,.381-.648H44.042a.436.436,0,0,1,.382.648Z" transform="translate(0 -5.691)"/>
      <path id="Path_264024" data-name="Path 264024" d="M14,36h1.483v1.483H14Z" transform="translate(-3.622 -9.313)"/>
      <path id="Path_264025" data-name="Path 264025" d="M18,36h1.483v1.483H18Z" transform="translate(-4.657 -9.313)"/>
      <path id="Path_264026" data-name="Path 264026" d="M26,32h1.483v1.483H26Z" transform="translate(-6.726 -8.278)"/>
      <path id="Path_264027" data-name="Path 264027" d="M30,32h1.483v1.483H30Z" transform="translate(-7.761 -8.278)"/>
      <path id="Path_264028" data-name="Path 264028" d="M26,36h1.483v1.483H26Z" transform="translate(-6.726 -9.313)"/>
      <path id="Path_264029" data-name="Path 264029" d="M30,36h1.483v1.483H30Z" transform="translate(-7.761 -9.313)"/>
      <path id="Path_264030" data-name="Path 264030" d="M34,32h1.483v1.483H34Z" transform="translate(-8.796 -8.278)"/>
      <path id="Path_264031" data-name="Path 264031" d="M34,36h1.483v1.483H34Z" transform="translate(-8.796 -9.313)"/>
      <path id="Path_264032" data-name="Path 264032" d="M6,36H7.483v1.483H6Z" transform="translate(-1.552 -9.313)"/>
      <path id="Path_264033" data-name="Path 264033" d="M6,32H7.483v1.483H6Z" transform="translate(-1.552 -8.278)"/>
      <path id="Path_264034" data-name="Path 264034" d="M46,36h1.483v1.483H46Z" transform="translate(-11.9 -9.313)"/>
      <path id="Path_264035" data-name="Path 264035" d="M42,36h1.483v1.483H42Z" transform="translate(-10.865 -9.313)"/>
      <path id="Path_264036" data-name="Path 264036" d="M54,36h1.483v1.483H54Z" transform="translate(-13.97 -9.313)"/>
      <path id="Path_264037" data-name="Path 264037" d="M54,32h1.483v1.483H54Z" transform="translate(-13.97 -8.278)"/>
    </g>
  </g>
</svg>
