<svg xmlns="http://www.w3.org/2000/svg" width="51.616" height="51.557" viewBox="0 0 51.616 51.557">
  <g id="company" transform="translate(0 -0.296)">
    <path id="Path_263592" data-name="Path 263592" d="M10.872,382.108c-.5,0-1.027,0-1.594,0a3.548,3.548,0,0,0-3.616,2.434,3.6,3.6,0,1,0,0,7.2h5.21v-9.634Z" transform="translate(-1.851 -343.317)" fill="#89c627"/>
    <path id="Path_263593" data-name="Path 263593" d="M422.526,382.108c.5,0,1.027,0,1.594,0a3.548,3.548,0,0,1,3.616,2.434,3.6,3.6,0,1,1,0,7.2h-5.21v-9.634Z" transform="translate(-379.93 -343.317)" fill="#89c627"/>
    <path id="Path_263594" data-name="Path 263594" d="M227.806,168.554H203.828V135.438a1.352,1.352,0,0,1,1.352-1.352h21.274a1.352,1.352,0,0,1,1.352,1.352v33.116Z" transform="translate(-183.279 -120.302)" fill="#688b96"/>
    <path id="Path_263595" data-name="Path 263595" d="M323.578,186.08h-8.342v-5.141h8.342a.693.693,0,0,1,.693.693v3.754A.693.693,0,0,1,323.578,186.08Z" transform="translate(-283.456 -162.432)" fill="#97e4f9"/>
    <path id="Path_263596" data-name="Path 263596" d="M323.578,280.664h-8.342v-5.141h8.342a.693.693,0,0,1,.693.693v3.754A.693.693,0,0,1,323.578,280.664Z" transform="translate(-283.456 -247.481)" fill="#97e4f9"/>
    <path id="Path_263597" data-name="Path 263597" d="M323.578,375.248h-8.342v-5.141h8.342a.693.693,0,0,1,.693.693v3.755A.693.693,0,0,1,323.578,375.248Z" transform="translate(-283.456 -332.529)" fill="#97e4f9"/>
    <path id="Path_263598" data-name="Path 263598" d="M395.163,134.086h-3.711a1.352,1.352,0,0,1,1.352,1.352v33.116h3.711V135.438A1.352,1.352,0,0,0,395.163,134.086Z" transform="translate(-351.989 -120.302)" fill="#557981"/>
    <path id="Path_263599" data-name="Path 263599" d="M108.1,48.252H83.93V1.648A1.352,1.352,0,0,1,85.282.3h21.471A1.352,1.352,0,0,1,108.1,1.648Z" transform="translate(-75.469 0)" fill="#daeaef"/>
    <path id="Path_263600" data-name="Path 263600" d="M277.264.3h-3.706a1.352,1.352,0,0,1,1.352,1.352v46.6h3.706V1.648A1.352,1.352,0,0,0,277.264.3Z" transform="translate(-245.98 0)" fill="#c9e2e7"/>
    <path id="Path_263601" data-name="Path 263601" d="M50.539,464.909H1.077A1.077,1.077,0,0,0,0,465.986v2.563a1.077,1.077,0,0,0,1.077,1.077H50.539a1.077,1.077,0,0,0,1.077-1.077v-2.563A1.077,1.077,0,0,0,50.539,464.909Z" transform="translate(0 -417.774)" fill="#0e80ac"/>
    <path id="Path_263602" data-name="Path 263602" d="M175.157,364.7h-6.113a.452.452,0,0,0-.452.452v9.65h7.017v-9.65A.452.452,0,0,0,175.157,364.7Z" transform="translate(-151.596 -327.669)" fill="#557981"/>
    <g id="Group_57766" data-name="Group 57766" transform="translate(12.077 4.244)">
      <path id="Path_263603" data-name="Path 263603" d="M189.051,42.964h-2.6a.452.452,0,0,1-.452-.452v-2.6a.452.452,0,0,1,.452-.452h2.6a.452.452,0,0,1,.452.452v2.6A.452.452,0,0,1,189.051,42.964Z" transform="translate(-179.32 -39.455)" fill="#97e4f9"/>
      <path id="Path_263604" data-name="Path 263604" d="M255.25,42.964h-2.6a.452.452,0,0,1-.452-.452v-2.6a.452.452,0,0,1,.452-.452h2.6a.452.452,0,0,1,.452.452v2.6A.452.452,0,0,1,255.25,42.964Z" transform="translate(-238.845 -39.455)" fill="#97e4f9"/>
      <path id="Path_263605" data-name="Path 263605" d="M189.051,124.275h-2.6a.452.452,0,0,1-.452-.452v-2.6a.452.452,0,0,1,.452-.452h2.6a.452.452,0,0,1,.452.452v2.6A.452.452,0,0,1,189.051,124.275Z" transform="translate(-179.32 -112.569)" fill="#97e4f9"/>
      <path id="Path_263606" data-name="Path 263606" d="M255.25,124.275h-2.6a.452.452,0,0,1-.452-.452v-2.6a.452.452,0,0,1,.452-.452h2.6a.452.452,0,0,1,.452.452v2.6A.452.452,0,0,1,255.25,124.275Z" transform="translate(-238.845 -112.569)" fill="#97e4f9"/>
      <path id="Path_263607" data-name="Path 263607" d="M189.051,205.587h-2.6a.452.452,0,0,1-.452-.452v-2.6a.452.452,0,0,1,.452-.452h2.6a.452.452,0,0,1,.452.452v2.6A.452.452,0,0,1,189.051,205.587Z" transform="translate(-179.32 -185.683)" fill="#97e4f9"/>
      <path id="Path_263608" data-name="Path 263608" d="M255.25,205.587h-2.6a.452.452,0,0,1-.452-.452v-2.6a.452.452,0,0,1,.452-.452h2.6a.452.452,0,0,1,.452.452v2.6A.452.452,0,0,1,255.25,205.587Z" transform="translate(-238.845 -185.683)" fill="#97e4f9"/>
      <path id="Path_263609" data-name="Path 263609" d="M189.051,286.9h-2.6a.452.452,0,0,1-.452-.452v-2.6a.452.452,0,0,1,.452-.452h2.6a.452.452,0,0,1,.452.452v2.6A.452.452,0,0,1,189.051,286.9Z" transform="translate(-179.32 -258.797)" fill="#97e4f9"/>
      <path id="Path_263610" data-name="Path 263610" d="M255.25,286.9h-2.6a.452.452,0,0,1-.452-.452v-2.6a.452.452,0,0,1,.452-.452h2.6a.452.452,0,0,1,.452.452v2.6A.452.452,0,0,1,255.25,286.9Z" transform="translate(-238.845 -258.797)" fill="#97e4f9"/>
      <path id="Path_263611" data-name="Path 263611" d="M122.851,42.964h-2.6a.452.452,0,0,1-.452-.452v-2.6a.452.452,0,0,1,.452-.452h2.6a.452.452,0,0,1,.452.452v2.6A.452.452,0,0,1,122.851,42.964Z" transform="translate(-119.794 -39.455)" fill="#97e4f9"/>
      <path id="Path_263612" data-name="Path 263612" d="M122.851,124.275h-2.6a.452.452,0,0,1-.452-.452v-2.6a.452.452,0,0,1,.452-.452h2.6a.452.452,0,0,1,.452.452v2.6A.452.452,0,0,1,122.851,124.275Z" transform="translate(-119.794 -112.569)" fill="#97e4f9"/>
      <path id="Path_263613" data-name="Path 263613" d="M122.851,205.587h-2.6a.452.452,0,0,1-.452-.452v-2.6a.452.452,0,0,1,.452-.452h2.6a.452.452,0,0,1,.452.452v2.6A.452.452,0,0,1,122.851,205.587Z" transform="translate(-119.794 -185.683)" fill="#97e4f9"/>
      <path id="Path_263614" data-name="Path 263614" d="M122.851,286.9h-2.6a.452.452,0,0,1-.452-.452v-2.6a.452.452,0,0,1,.452-.452h2.6a.452.452,0,0,1,.452.452v2.6A.452.452,0,0,1,122.851,286.9Z" transform="translate(-119.794 -258.797)" fill="#97e4f9"/>
    </g>
  </g>
</svg>
