<svg xmlns="http://www.w3.org/2000/svg" width="50" height="50" viewBox="0 0 50 50">
  <g id="Controller" transform="translate(-1016 -432)">
    <path id="Path_2803" data-name="Path 2803" d="M43.221,0H6.783A6.781,6.781,0,0,0,0,6.784V43.222A6.781,6.781,0,0,0,6.783,50H43.221A6.781,6.781,0,0,0,50,43.222V6.784A6.781,6.781,0,0,0,43.221,0Z" transform="translate(1015.998 431.997)" fill="#b194df"/>
    <path id="Path_2804" data-name="Path 2804" d="M11.234,50H6.783A6.781,6.781,0,0,1,0,43.219V6.781A6.781,6.781,0,0,1,6.783,0h4.452A6.781,6.781,0,0,0,4.454,6.781V43.219A6.781,6.781,0,0,0,11.234,50Z" transform="translate(1015.999 432)" fill="#b194df"/>
    <path id="Path_2808" data-name="Path 2808" d="M230.453,107.708a2.765,2.765,0,0,1-2.765-2.765V74.479a2.765,2.765,0,1,1,5.53,0v30.464A2.765,2.765,0,0,1,230.453,107.708Z" transform="translate(802.547 367.289)" fill="#4e5959"/>
    <path id="Path_2809" data-name="Path 2809" d="M198.251,303.685H190.89a2.968,2.968,0,1,1,0-5.935h7.361a2.968,2.968,0,1,1,0,5.935Z" transform="translate(838.43 163.327)" fill="#e1e9ee"/>
    <path id="Path_2811" data-name="Path 2811" d="M387.766,107.708A2.765,2.765,0,0,1,385,104.943V74.479a2.765,2.765,0,1,1,5.53,0v30.464A2.765,2.765,0,0,1,387.766,107.708Z" transform="translate(660.597 367.289)" fill="#4e5959"/>
    <path id="Path_2812" data-name="Path 2812" d="M355.563,206.921H348.2a2.968,2.968,0,1,1,0-5.935h7.361a2.968,2.968,0,0,1,0,5.935Z" transform="translate(696.48 250.642)" fill="#e1e9ee"/>
  </g>
</svg>
