<svg xmlns="http://www.w3.org/2000/svg" width="47.772" height="50" viewBox="0 0 47.772 50">
  <g id="Countries" transform="translate(-1688 -3772)">
    <g id="Group_31799" data-name="Group 31799" transform="translate(1688 3772)">
      <g id="Group_31795" data-name="Group 31795" transform="translate(0)">
        <path id="Path_12201" data-name="Path 12201" d="M114.9,69.718h-.682a2.433,2.433,0,0,0-.371-1.241,2.275,2.275,0,0,1,.709-3.037,2.3,2.3,0,0,0,.821-1.291,3.209,3.209,0,0,0-.92-3.211c-.169-.152-.316-.326-.474-.491a2.342,2.342,0,0,1-.311-3.475,2.252,2.252,0,0,0-1.191-3.567c-.966-.333-1.938-.652-2.915-.95a2.069,2.069,0,0,1-1.28-1.037c-.66-1.194-1.359-2.367-2.05-3.544a1.343,1.343,0,0,0-2.454-.069c-.151.232-.285.474-.439.7a1.4,1.4,0,0,1-1.056.7,1.335,1.335,0,0,1-1.376-1.825c.365-1.467.757-2.926,1.139-4.388a1.483,1.483,0,0,1,.807-.984c.781-.4,1.562-.8,2.333-1.212a1.318,1.318,0,0,0,.657-1.655,2.44,2.44,0,0,0-2.18-1.829,10.091,10.091,0,0,1-4.958-2.08,20.2,20.2,0,0,1,1.521-2.531c.644-.972,1.442-1.822,2.133-2.756a20.537,20.537,0,0,0,2.142,2.826,1.938,1.938,0,0,0,2.557.361,4.552,4.552,0,0,0,1.312-1.475,11.681,11.681,0,0,0,1.967-3.174c.927-2.163,1.274-4.335-.029-6.493a23.828,23.828,0,0,1,10.547,1.158,23.386,23.386,0,0,1,10.5,7.286,15.432,15.432,0,0,0-.937,1.594A2.446,2.446,0,0,1,128.51,33.3a2.332,2.332,0,0,0-1.911,1.333c-.259.507-.525,1.01-.806,1.5a2.31,2.31,0,0,1-2.2,1.261q-.536-.014-1.071-.018a4.1,4.1,0,0,0-2.932,1.227,4.955,4.955,0,0,0-1.37,3,6.447,6.447,0,0,1-1.42,3.213c-.539.65-1.027,1.343-1.523,2.027a1.43,1.43,0,0,0,.3,2.075c.555.423,1.13.822,1.7,1.227a1.407,1.407,0,0,0,1.246.231c.422-.116.85-.211,1.276-.315a9.392,9.392,0,0,0,.02,1.7,13.174,13.174,0,0,0,3.731,7.01,1.9,1.9,0,0,0,2.681.095,5.3,5.3,0,0,0,1.055-1.261c.134-.162.274-.319.4-.488a13.733,13.733,0,0,0,2.23-4.513l4.632,3.566a1.542,1.542,0,0,1-.068.182,23.746,23.746,0,0,1-17.148,12.972c-.805.163-1.634.164-2.428.384" transform="translate(-89.171 -19.718)" fill="#6dd5b3"/>
        <path id="Path_12202" data-name="Path 12202" d="M69.1,158.914a10.092,10.092,0,0,0,4.958,2.08,2.44,2.44,0,0,1,2.18,1.829,1.317,1.317,0,0,1-.657,1.655c-.771.416-1.552.815-2.333,1.212a1.483,1.483,0,0,0-.807.984c-.382,1.462-.774,2.922-1.139,4.388a1.335,1.335,0,0,0,1.376,1.825,1.4,1.4,0,0,0,1.056-.7c.154-.229.288-.471.439-.7a1.343,1.343,0,0,1,2.454.069c.691,1.177,1.39,2.35,2.05,3.544a2.07,2.07,0,0,0,1.28,1.038c.977.3,1.949.618,2.915.95a2.252,2.252,0,0,1,1.191,3.567,2.342,2.342,0,0,0,.311,3.475c.157.164.305.339.474.491a3.208,3.208,0,0,1,.92,3.211,2.3,2.3,0,0,1-.821,1.291,2.275,2.275,0,0,0-.709,3.037,2.433,2.433,0,0,1,.371,1.241H81.492c-.083-.145-.229-.091-.349-.1a24.7,24.7,0,0,1-6.068-1.407.847.847,0,0,0-.376-.549,20.387,20.387,0,0,1-2.062-2.061,26.433,26.433,0,0,1-6.66-19.7,26.371,26.371,0,0,1,1.864-8.028c.362-.885.777-1.748,1.168-2.621l.092-.013" transform="translate(-59.565 -143.399)" fill="#5675d3"/>
        <path id="Path_12204" data-name="Path 12204" d="M9.637,113.576c-.391.873-.806,1.737-1.168,2.621a26.936,26.936,0,0,0-.592,18.444,26.066,26.066,0,0,0,5.388,9.286,20.4,20.4,0,0,0,2.062,2.061.846.846,0,0,1,.376.549A23.971,23.971,0,0,1,.271,126.367a5.659,5.659,0,0,0-.175-1.66v-1.074c.145-.062.093-.192.1-.3a23.27,23.27,0,0,1,2.256-9.44,21.157,21.157,0,0,1,3.406-5.245c.159.508.327,1.013.476,1.523A4.216,4.216,0,0,0,8.241,112.7c.47.283.931.582,1.4.873" transform="translate(-0.096 -98.047)" fill="#5675d3"/>
        <path id="Path_12207" data-name="Path 12207" d="M120.266,5.586A5.428,5.428,0,0,1,122.288,1.2a4.926,4.926,0,0,1,1.795-.927c.144-.04.328-.02.426-.181h1.754c.026.1.118.086.187.11-.156.205-.319.405-.467.616A6.553,6.553,0,0,0,124.7,3.5c-1.468.994-1.541,2.32-.191,3.439a4.9,4.9,0,0,0,.382,1.455,7.212,7.212,0,0,0,2.937,3.642,4.551,4.551,0,0,1-1.312,1.475,1.938,1.938,0,0,1-2.557-.361,20.558,20.558,0,0,1-2.142-2.826,11.016,11.016,0,0,1-1.548-4.739" transform="translate(-108.624 -0.097)" fill="#e4596e"/>
        <path id="Path_12208" data-name="Path 12208" d="M281.466,109.811a22.945,22.945,0,0,1,4.932,9.834,23.742,23.742,0,0,1-1.564,15.567c-.054.118-.122.228-.184.342l-4.632-3.566c.05-.369.1-.738.15-1.107a5.176,5.176,0,0,0-4.052-5.742,4.7,4.7,0,0,0-4.113.871,5.487,5.487,0,0,0-2.1,3.434c-.425.1-.853.2-1.276.315a1.407,1.407,0,0,1-1.246-.231c-.569-.4-1.144-.8-1.7-1.227a1.43,1.43,0,0,1-.3-2.075c.5-.685.984-1.378,1.523-2.027a6.446,6.446,0,0,0,1.42-3.213,4.956,4.956,0,0,1,1.37-3,4.1,4.1,0,0,1,2.932-1.227q.536,0,1.071.018a2.31,2.31,0,0,0,2.2-1.261c.281-.495.548-1,.807-1.5a2.332,2.332,0,0,1,1.911-1.333,2.446,2.446,0,0,0,1.911-1.268,15.462,15.462,0,0,1,.937-1.594" transform="translate(-239.279 -99.093)" fill="#5675d3"/>
        <path id="Path_12209" data-name="Path 12209" d="M314.28,269.527a5.488,5.488,0,0,1,2.1-3.434,4.7,4.7,0,0,1,4.113-.871,6.5,6.5,0,0,0-1.842,3.269,1.951,1.951,0,0,0-.164,3.446,7.513,7.513,0,0,0,3.278,5.135,5.3,5.3,0,0,1-1.056,1.261,1.9,1.9,0,0,1-2.681-.095,13.174,13.174,0,0,1-3.731-7.01,9.4,9.4,0,0,1-.02-1.7" transform="translate(-283.657 -239.175)" fill="#e45a6e"/>
        <path id="Path_12210" data-name="Path 12210" d="M360.923,278.559a7.514,7.514,0,0,1-3.278-5.135c.169.054.336.12.508.16a1.872,1.872,0,0,0,2.218-1.269,1.9,1.9,0,0,0-1.133-2.343,2.29,2.29,0,0,0-1.429.005,6.5,6.5,0,0,1,1.842-3.269,5.176,5.176,0,0,1,4.051,5.742c-.049.369-.1.738-.15,1.107a13.736,13.736,0,0,1-2.23,4.513c-.125.168-.266.325-.4.488" transform="translate(-322.813 -240.663)" fill="#e45a6e"/>
        <path id="Path_12211" data-name="Path 12211" d="M166.972,13.059a7.212,7.212,0,0,1-2.937-3.642,4.9,4.9,0,0,1-.382-1.455c.137.048.273.1.412.143a1.891,1.891,0,0,0,1.927-3.09,2.007,2.007,0,0,0-2.149-.493,6.554,6.554,0,0,1,1.288-2.677c.147-.211.311-.411.467-.616a5.315,5.315,0,0,1,3.311,2.164c1.3,2.158.956,4.33.029,6.493a11.681,11.681,0,0,1-1.967,3.174" transform="translate(-147.772 -1.118)" fill="#e4596e"/>
        <path id="Path_12212" data-name="Path 12212" d="M65.01,56.279a11.017,11.017,0,0,0,1.548,4.739c-.69.935-1.489,1.784-2.133,2.756A20.219,20.219,0,0,0,62.9,66.306l-.092.013c-.465-.292-.926-.59-1.4-.873A4.216,4.216,0,0,1,59.5,62.919c-.15-.51-.317-1.016-.476-1.523a20.922,20.922,0,0,1,4.085-3.854c.611-.451,1.264-.843,1.9-1.263" transform="translate(-53.27 -50.79)" fill="#6dd5b3"/>
        <path id="Path_12213" data-name="Path 12213" d="M154.944,33.944a2.007,2.007,0,0,1,2.148.493,1.891,1.891,0,0,1-1.927,3.09c-.14-.04-.275-.1-.412-.143-1.35-1.12-1.277-2.445.191-3.439" transform="translate(-138.872 -30.54)" fill="#e7e5f8"/>
        <path id="Path_12214" data-name="Path 12214" d="M348.952,299.08a2.29,2.29,0,0,1,1.429-.005,1.9,1.9,0,0,1,1.133,2.343,1.872,1.872,0,0,1-2.218,1.268c-.172-.041-.339-.106-.508-.16a1.951,1.951,0,0,1,.164-3.446" transform="translate(-313.956 -269.764)" fill="#e7e5f8"/>
      </g>
    </g>
  </g>
</svg>
