<svg xmlns="http://www.w3.org/2000/svg" width="55.357" height="50" viewBox="0 0 55.357 50">
  <g id="crm_1_" data-name="crm (1)" transform="translate(0 -24.774)">
    <rect id="Rectangle_615" data-name="Rectangle 615" width="12.5" height="8.928" transform="translate(21.428 63.167)" fill="#5b5d6e"/>
    <rect id="Rectangle_616" data-name="Rectangle 616" width="12.5" height="2.679" transform="translate(21.428 63.167)" fill="#464655"/>
    <path id="Path_2370" data-name="Path 2370" d="M170.966,457.765H149.538a.893.893,0,0,1-.893-.893v-1.786a.893.893,0,0,1,.893-.893h21.429a.893.893,0,0,1,.893.893v1.786A.893.893,0,0,1,170.966,457.765Z" transform="translate(-132.574 -382.991)" fill="#707487"/>
    <path id="Path_2371" data-name="Path 2371" d="M170.966,472.5H149.538a.893.893,0,0,1-.893-.893h0a.893.893,0,0,1,.893-.893h21.429a.893.893,0,0,1,.893.893h0A.893.893,0,0,1,170.966,472.5Z" transform="translate(-132.574 -397.722)" fill="#5b5d6e"/>
    <path id="Path_2372" data-name="Path 2372" d="M53.571,64.06H1.786A1.786,1.786,0,0,1,0,62.274V26.56a1.786,1.786,0,0,1,1.786-1.786H53.571a1.786,1.786,0,0,1,1.786,1.786V62.274A1.786,1.786,0,0,1,53.571,64.06Z" fill="#707487"/>
    <path id="Path_2373" data-name="Path 2373" d="M80.353,89.95H33.925a.893.893,0,0,1-.893-.893V58.7a.893.893,0,0,1,.893-.893H80.353a.893.893,0,0,1,.893.893V89.057A.893.893,0,0,1,80.353,89.95Z" transform="translate(-29.461 -29.461)" fill="#fff"/>
    <rect id="Rectangle_617" data-name="Rectangle 617" width="33.929" height="3.571" transform="translate(17.857 31.917)" fill="#e4eaf8"/>
    <path id="Path_2374" data-name="Path 2374" d="M80.353,57.806H33.925a.893.893,0,0,0-.893.893V89.056a.893.893,0,0,0,.893.893H47.318V61.378H58.032v3.571h1.786V61.378h8.929v3.571h1.786V61.378H81.246V58.7A.893.893,0,0,0,80.353,57.806Z" transform="translate(-29.461 -29.461)" fill="#c7cfe2"/>
    <path id="Path_2376" data-name="Path 2376" d="M102.668,117.4H99.99a.893.893,0,0,1,0-1.786h2.679a.893.893,0,0,1,0,1.786Z" transform="translate(-91.383 -81.018)" fill="#959cb5"/>
    <path id="Path_2378" data-name="Path 2378" d="M102.668,150.431H99.99a.893.893,0,0,1,0-1.786h2.679a.893.893,0,0,1,0,1.786Z" transform="translate(-91.383 -110.478)" fill="#959cb5"/>
    <path id="Path_2380" data-name="Path 2380" d="M102.668,183.464H99.99a.893.893,0,0,1,0-1.786h2.679a.893.893,0,0,1,0,1.786Z" transform="translate(-91.383 -139.94)" fill="#959cb5"/>
    <path id="Path_2382" data-name="Path 2382" d="M102.668,216.5H99.99a.893.893,0,0,1,0-1.786h2.679a.893.893,0,0,1,0,1.786Z" transform="translate(-91.383 -169.4)" fill="#959cb5"/>
    <path id="Path_2384" data-name="Path 2384" d="M102.668,249.528H99.99a.893.893,0,0,1,0-1.786h2.679a.893.893,0,0,1,0,1.786Z" transform="translate(-91.383 -198.861)" fill="#959cb5"/>
    <g id="Group_25418" data-name="Group 25418" transform="translate(3.571 28.345)">
      <path id="Path_2388" data-name="Path 2388" d="M33.925,57.806H47.318v3.571H33.032V58.7A.893.893,0,0,1,33.925,57.806Z" transform="translate(-33.032 -57.806)" fill="#00c3ff"/>
    </g>
  </g>
</svg>
