<svg id="delivery-man" xmlns="http://www.w3.org/2000/svg" width="52.985" height="49.402" viewBox="0 0 52.985 49.402">
  <g id="Group_25581" data-name="Group 25581" transform="translate(0 22.13)">
    <path id="Path_3374" data-name="Path 3374" d="M395.472,228.265H382.021v4.673a2.1,2.1,0,0,0,2.1,2.1h4.838l2.886,1.458,3.63-1.458v-6.772Z" transform="translate(-382.021 -228.265)" fill="#ffe07d" fill-rule="evenodd"/>
  </g>
  <g id="Group_25582" data-name="Group 25582" transform="translate(0 15.349)">
    <path id="Path_3375" data-name="Path 3375" d="M393.376,162.742h-9.256a2.1,2.1,0,0,0-2.1,2.1v3.472h13.451v-3.472A2.1,2.1,0,0,0,393.376,162.742Z" transform="translate(-382.022 -162.742)" fill="#ffe07d" fill-rule="evenodd"/>
  </g>
  <g id="Group_25583" data-name="Group 25583" transform="translate(0 19.874)">
    <path id="Path_3376" data-name="Path 3376" d="M395.473,206.463H382.022v3.3h13.451Z" transform="translate(-382.022 -206.463)" fill="#fd646f" fill-rule="evenodd"/>
  </g>
  <g id="Group_25587" data-name="Group 25587" transform="translate(6.935 28.901)">
    <path id="Path_3380" data-name="Path 3380" d="M233.893,293.7h-6.516v3A1.31,1.31,0,0,0,228.682,298H249.9c0-1.884,0-2.843-1.441-2.843l-2.871,0c-1.807,0-2.992-.466-3.654-1.458h-8.038Z" transform="translate(-227.377 -293.7)" fill="#6f6571" fill-rule="evenodd"/>
  </g>
  <g id="Group_25588" data-name="Group 25588" transform="translate(6.742 33.205)">
    <path id="Path_3381" data-name="Path 3381" d="M162.777,335.289H144.122c-1.094,1.905-1.973,4.195-1.215,8.574,1.269-4.319,14.161-2.595,15.485,2.389h14.225c.538-1.219,1.046-2.423,1.49-3.638H170.1C161.986,339.553,164.594,340.917,162.777,335.289Z" transform="translate(-142.623 -335.289)" fill="#ffe07d" fill-rule="evenodd"/>
  </g>
  <g id="Group_25589" data-name="Group 25589" transform="translate(18.295 10.448)">
    <path id="Path_3382" data-name="Path 3382" d="M246.078,126.431A30.452,30.452,0,0,1,245,130.565l-4.1,1.607-4.572-1.607c.16-8.653,3.394-12.8,6.144-14.145a6.676,6.676,0,0,1,2.007-1.039s1.336,2.137,1.405,2.137a11.478,11.478,0,0,1,.674,4.537Z" transform="translate(-236.326 -115.381)" fill="#fff" fill-rule="evenodd"/>
  </g>
  <g id="Group_25590" data-name="Group 25590" transform="translate(18.281 25.632)">
    <path id="Path_3383" data-name="Path 3383" d="M208.372,262.108h8.673c2,.218,4.454,1.739,4.454,6.451V273.5l-1.968,1.172-2.559-1.172v-3.817c0-1.884,0-2.843-1.441-2.843l-2.871,0c-1.807,0-2.992-.466-3.654-1.458A5.352,5.352,0,0,1,208.372,262.108Z" transform="translate(-208.357 -262.108)" fill="#fd646f" fill-rule="evenodd"/>
  </g>
  <g id="Group_25593" data-name="Group 25593" transform="translate(6.678 36.133)">
    <path id="Path_3386" data-name="Path 3386" d="M310.307,371.615a7.908,7.908,0,0,0-15.485-2.389,8.111,8.111,0,0,0-.348,2.135c-.009.29.19.254.462.254Q302.62,371.615,310.307,371.615Z" transform="translate(-294.474 -363.579)" fill="#6f6571" fill-rule="evenodd"/>
  </g>
  <g id="Group_25594" data-name="Group 25594" transform="translate(8.468 44.169)">
    <path id="Path_3387" data-name="Path 3387" d="M325.77,441.231H313.718a6.029,6.029,0,0,0,12.052,0Z" transform="translate(-313.718 -442.231)" fill="#6f6571" fill-rule="evenodd"/>
  </g>
  <g id="Group_25595" data-name="Group 25595" transform="translate(40.755 42.883)">
    <path id="Path_3388" data-name="Path 3388" d="M27.036,428.81,16.667,431.2a5.32,5.32,0,1,0,10.369-2.386Z" transform="translate(-16.667 -428.81)" fill="#6f6571" fill-rule="evenodd"/>
  </g>
  <g id="Group_25596" data-name="Group 25596" transform="translate(38.709 36.838)">
    <path id="Path_3389" data-name="Path 3389" d="M13.191,373.532a7.237,7.237,0,0,0-6.67-3.1c-4.69.992-6.216,3.8-6.522,7.292a7.226,7.226,0,0,0,.16,1.431c.03.133.118.079.263.045l1.623-.372,10.369-2.386.777-.178,1.085-.251A7.179,7.179,0,0,0,13.191,373.532Z" transform="translate(0 -370.393)" fill="#fff" fill-rule="evenodd"/>
  </g>
  <g id="Group_25597" data-name="Group 25597" transform="translate(35.693 21.525)">
    <path id="Path_3390" data-name="Path 3390" d="M84.392,237.757,80.2,223.264l-1.886-.844-2.109.844c2.771,7.682,2,13.044.127,18.162-.447,1.216-.955,2.42-1.49,3.638h3.013Z" transform="translate(-74.845 -222.42)" fill="#fd646f" fill-rule="evenodd"/>
  </g>
  <g id="Group_25598" data-name="Group 25598" transform="translate(25.43 5.072)">
    <path id="Path_3391" data-name="Path 3391" d="M203.924,64.48l-4.914-1.046c-.5.045-1.925,1.243-1.925,1.993l1.046,5.317a4.8,4.8,0,0,0,1.375.2,4.751,4.751,0,0,0,4.418-6.466Z" transform="translate(-197.085 -63.434)" fill="#ffece4" fill-rule="evenodd"/>
  </g>
  <g id="Group_25599" data-name="Group 25599" transform="translate(21.889 0)">
    <path id="Path_3392" data-name="Path 3392" d="M196.816,20.541a5.985,5.985,0,1,0-11.967,0A6.4,6.4,0,0,0,187.4,25.91a5.708,5.708,0,0,0,2.037.9V21.488c0-.75.381-.9.879-.947h6.5Z" transform="translate(-184.849 -14.423)" fill="#fd646f" fill-rule="evenodd"/>
  </g>
  <g id="Group_25601" data-name="Group 25601" transform="translate(26.896 37.022)">
    <path id="Path_3394" data-name="Path 3394" d="M185.835,372.171h-4.527v2.852c0,.611.332.656.822.656h6.5C188.757,372.818,187.026,372.171,185.835,372.171Z" transform="translate(-181.308 -372.171)" fill="#6f6571" fill-rule="evenodd"/>
  </g>
  <g id="Group_25610" data-name="Group 25610" transform="translate(36.16 17.606)">
    <path id="Path_3403" data-name="Path 3403" d="M101.605,184.747l-5.654,1.869a5.024,5.024,0,0,0,.224,2.695h6.573V185.15C102.748,184.33,102.321,184.511,101.605,184.747Z" transform="translate(-95.841 -184.548)" fill="#ffe07d" fill-rule="evenodd"/>
  </g>
  <g id="Group_25611" data-name="Group 25611" transform="translate(32.928 19.462)">
    <path id="Path_3404" data-name="Path 3404" d="M149.034,205.395h2.859c1.535,0,1.581-2.547-.224-2.695l-2.635-.212-.707,1.5Z" transform="translate(-148.327 -202.488)" fill="#ffece4" fill-rule="evenodd"/>
  </g>
  <g id="Group_25612" data-name="Group 25612" transform="translate(24.011 15.683)">
    <path id="Path_3405" data-name="Path 3405" d="M191.495,167.412l-.946-.814c-2.369-2.041-5.364,1.4-2.2,3.46l2.665,1.73,1.342.871h4.246v-2.907l-2.638-.215Z" transform="translate(-186.981 -165.974)" fill="#fd646f" fill-rule="evenodd"/>
  </g>
  <g id="Group_25613" data-name="Group 25613" transform="translate(33.635 20.935)">
    <path id="Path_3406" data-name="Path 3406" d="M148.319,218.155v-1.409h3.732a1.171,1.171,0,0,0,.257-.024,1.182,1.182,0,0,1-1.13,1.434h-2.859Z" transform="translate(-148.319 -216.721)" fill="#ffddce" fill-rule="evenodd"/>
  </g>
  <g id="Group_25615" data-name="Group 25615" transform="translate(36.27 18.924)">
    <path id="Path_3408" data-name="Path 3408" d="M131.194,198.036l2.276-.75a3.459,3.459,0,0,1,.641,3.445h-2.693a1.182,1.182,0,0,0,1.13-1.434A1.418,1.418,0,0,0,131.194,198.036Z" transform="translate(-131.194 -197.286)" fill="#ffc269" fill-rule="evenodd"/>
  </g>
</svg>
