<svg xmlns="http://www.w3.org/2000/svg" width="48.152" height="49.442" viewBox="0 0 48.152 49.442">
  <g id="department" transform="translate(-0.5 0.001)">
    <path id="Path_263615" data-name="Path 263615" d="M136.576,7.652a1.664,1.664,0,0,0-.86-1.462L125.4.257a1.562,1.562,0,0,0-1.72,0L113.36,6.19a1.773,1.773,0,0,0-.86,1.462V21.238l12.038,6.879,12.038-6.879Zm0,0" transform="translate(-99.962)" fill="#b4b4b5"/>
    <path id="Path_263616" data-name="Path 263616" d="M160.239,75.958l7.739-4.385V66.929a1.758,1.758,0,0,0-1.2-1.634l-3.955-1.375,1.2-1.2a1.7,1.7,0,0,0,.516-1.2V55.321a1.725,1.725,0,0,0-1.72-1.72h-5.159a1.725,1.725,0,0,0-1.72,1.72v6.191a1.7,1.7,0,0,0,.516,1.2l1.2,1.2L153.7,65.21a1.758,1.758,0,0,0-1.2,1.634v4.643Zm0,0" transform="translate(-135.663 -47.841)" fill="#efccbf"/>
    <path id="Path_263617" data-name="Path 263617" d="M184.5,60.332a1.946,1.946,0,0,1,1.978-1.978,2.287,2.287,0,0,1,1.032.258l1.29.86,1.376-.774a1.945,1.945,0,0,1,2.666.688,2.291,2.291,0,0,1,.258,1.032v-4.3a1.725,1.725,0,0,0-1.72-1.72H186.22a1.725,1.725,0,0,0-1.72,1.72Zm0,0" transform="translate(-164.223 -48.552)" fill="#704d4d"/>
    <path id="Path_263618" data-name="Path 263618" d="M231.035,150.891l-3.955-1.29-2.58,2.58,1.806,1.805a1.8,1.8,0,0,1,.43,1.806L224.5,161.64l7.739-4.385v-4.643A1.87,1.87,0,0,0,231.035,150.891Zm0,0" transform="translate(-199.924 -133.523)" fill="#3a6289"/>
    <path id="Path_263619" data-name="Path 263619" d="M158.089,155.792a1.6,1.6,0,0,1,.43-1.806l1.72-1.805-2.58-2.58-3.955,1.29a1.758,1.758,0,0,0-1.2,1.634v4.643l7.739,4.385Zm0,0" transform="translate(-135.663 -133.523)" fill="#3a6289"/>
    <path id="Path_263620" data-name="Path 263620" d="M205.267,173.6l-1.806,1.805a1.8,1.8,0,0,0-.43,1.806l2.236,5.847,2.15-5.847a1.6,1.6,0,0,0-.43-1.806Zm0,0" transform="translate(-180.691 -154.943)" fill="#edd9be"/>
    <path id="Path_263621" data-name="Path 263621" d="M24.576,219.1V204.48L12.538,197.6,1.36,203.964a1.773,1.773,0,0,0-.86,1.462V219.1l11.178,6.363a1.562,1.562,0,0,0,1.72,0Zm0,0" transform="translate(0 -176.364)" fill="#d6d7d8"/>
    <path id="Path_263622" data-name="Path 263622" d="M61.656,252.813a6.285,6.285,0,0,0-6.793-5.761,6.2,6.2,0,0,0-5.761,5.761l-.6,8.685H62.258Zm0,0" transform="translate(-42.841 -220.483)" fill="#704d4d"/>
    <path id="Path_263623" data-name="Path 263623" d="M54.688,287.92l-3.526-1.032a1.657,1.657,0,0,1-1.29-1.634v-1.29l.688-1.376a2.52,2.52,0,0,0,.172-.774v-1.634a2.58,2.58,0,0,0-5.159,0v1.634a2.508,2.508,0,0,0,.172.774l.688,1.376v1.29a1.657,1.657,0,0,1-1.29,1.634L41.79,287.92a1.657,1.657,0,0,0-1.29,1.634v3.44l6.879,3.955a1.562,1.562,0,0,0,1.72,0l6.879-3.955v-3.44A1.657,1.657,0,0,0,54.688,287.92Zm0,0" transform="translate(-35.701 -247.765)" fill="#efccbf"/>
    <path id="Path_263624" data-name="Path 263624" d="M45.917,360l-.258.258a.656.656,0,0,1-.43.172l-3.439,1.032A1.657,1.657,0,0,0,40.5,363.1v3.44l6.879,3.955a1.454,1.454,0,0,0,.86.258v-8.426Zm0,0" transform="translate(-35.701 -321.307)" fill="#d3756e"/>
    <path id="Path_263625" data-name="Path 263625" d="M88.5,368.744l1.72.946a1.563,1.563,0,0,0,1.72,0l6.879-3.955v-3.439a1.657,1.657,0,0,0-1.29-1.634L94,359.629a1.871,1.871,0,0,1-.688-.43l-2.236,2.408-2.58,2.58Zm0,0" transform="translate(-78.541 -320.592)" fill="#e57e73"/>
    <path id="Path_263626" data-name="Path 263626" d="M248.576,205.512a1.664,1.664,0,0,0-.86-1.462L236.538,197.6,224.5,204.48V219.1l11.178,6.363a1.562,1.562,0,0,0,1.72,0l11.178-6.363Zm0,0" transform="translate(-199.924 -176.364)" fill="#e9e9e9"/>
    <path id="Path_263627" data-name="Path 263627" d="M279.978,295.49a1.758,1.758,0,0,0-1.2-1.634l-3.956-1.375,1.462-2.15a1.737,1.737,0,0,0,.258-.946v-2.923l-4.3-.86-4.3.86v2.923a1.737,1.737,0,0,0,.258.946l1.462,2.15-3.955,1.29a1.758,1.758,0,0,0-1.2,1.634v4.643L271.379,304a1.563,1.563,0,0,0,1.72,0l6.879-3.956Zm0,0" transform="translate(-235.624 -254.905)" fill="#efccbf"/>
    <path id="Path_263628" data-name="Path 263628" d="M274.818,349.6a3.182,3.182,0,0,1-4.471.688,5.2,5.2,0,0,1-.688-.688l-3.955,1.29a1.758,1.758,0,0,0-1.2,1.634v4.643l6.879,3.955a1.563,1.563,0,0,0,1.72,0l6.879-3.955v-4.643a1.758,1.758,0,0,0-1.2-1.634Zm0,0" transform="translate(-235.624 -312.026)" fill="#5da364"/>
    <path id="Path_263629" data-name="Path 263629" d="M298.22,253.6a1.725,1.725,0,0,0-1.72,1.72v2.58l4.3-.86,4.3.86v-4.3Zm0,0" transform="translate(-264.185 -226.345)" fill="#704d4d"/>
    <g id="Group_57767" data-name="Group 57767" transform="translate(35.754 41.015)">
      <path id="Path_263630" data-name="Path 263630" d="M328.5,381.6h1.72v1.72H328.5Zm0,0" transform="translate(-328.5 -381.602)" fill="#538457"/>
      <path id="Path_263631" data-name="Path 263631" d="M328.5,413.6h1.72v1.72H328.5Zm0,0" transform="translate(-328.5 -410.162)" fill="#538457"/>
      <path id="Path_263632" data-name="Path 263632" d="M360.5,381.6h2.58v1.72H360.5Zm0,0" transform="translate(-357.06 -381.602)" fill="#538457"/>
    </g>
    <path id="Path_263633" data-name="Path 263633" d="M264.5,181.6h1.72v1.72H264.5Zm0,0" transform="translate(-235.624 -162.083)" fill="#4282b7"/>
    <path id="Path_263634" data-name="Path 263634" d="M136.5,389.6h2.58v1.72H136.5Zm0,0" transform="translate(-121.382 -347.727)" fill="#f78b7c"/>
  </g>
</svg>
