<svg xmlns="http://www.w3.org/2000/svg" width="54.258" height="50" viewBox="0 0 54.258 50">
  <g id="E-Commerce" transform="translate(-1530 -42)">
    <path id="Path_2260" data-name="Path 2260" d="M84.869,109.5v35.808a4.336,4.336,0,0,1-4.3,4.367H44.3a4.336,4.336,0,0,1-4.3-4.367V109.5Z" transform="translate(1494.258 -57.675)" fill="#f5f5f5"/>
    <path id="Path_2263" data-name="Path 2263" d="M12.421,100.592l-1.067,7.321a13.845,13.845,0,0,0-.11,1.74c0,.092,0,.182-.007.273A5.241,5.241,0,0,1,6,114.893H5.24a5.242,5.242,0,0,1-5.234-4.967c0-.091-.007-.181-.007-.273a3.9,3.9,0,0,1,.372-1.664l3.995-7.4L8.038,99.5Z" transform="translate(1530 -48.766)" fill="#fd646f"/>
    <path id="Path_2264" data-name="Path 2264" d="M113.7,100.592v9.061c0,.092,0,.182-.007.273a5.241,5.241,0,0,1-5.234,4.967h-.218a5.242,5.242,0,0,1-5.234-4.967c0-.091-.007-.181-.007-.273a13.845,13.845,0,0,1,.11-1.74l1.067-7.321,4.61-1.092Z" transform="translate(1438.245 -48.766)" fill="#ffc682"/>
    <path id="Path_2265" data-name="Path 2265" d="M211.59,100.592v9.061c0,.092,0,.182-.007.273a5.241,5.241,0,0,1-5.234,4.967h-.109a5.241,5.241,0,0,1-5.234-4.967c0-.091-.007-.181-.007-.273v-9.061l5.4-1.092Z" transform="translate(1350.943 -48.766)" fill="#fd646f"/>
    <path id="Path_2266" data-name="Path 2266" d="M308.48,109.653c0,.092,0,.182-.007.273a5.241,5.241,0,0,1-10.467,0c0-.091-.007-.181-.007-.273v-9.061l4.858-1.092,4.555,1.092.968,7.32A15.476,15.476,0,0,1,308.48,109.653Z" transform="translate(1264.533 -48.766)" fill="#ffc682"/>
    <path id="Path_2267" data-name="Path 2267" d="M396.532,109.653c0,.092,0,.182-.007.273a5.241,5.241,0,0,1-5.234,4.967h-.764a5.242,5.242,0,0,1-5.234-4.967c0-.091-.007-.181-.007-.273a15.476,15.476,0,0,0-.1-1.741l-.968-7.32,3.963-1.092,3.982,1.092,3.995,7.4a3.852,3.852,0,0,1,.278.811A3.917,3.917,0,0,1,396.532,109.653Z" transform="translate(1187.725 -48.766)" fill="#fd646f"/>
    <path id="Path_2268" data-name="Path 2268" d="M146.938,271.492a.819.819,0,0,0-.8-.981H127.68l-.028-.13A3.016,3.016,0,0,0,124.715,268h-1.4a.819.819,0,1,0,0,1.638h1.4a1.371,1.371,0,0,1,1.335,1.082l2.433,11.494a3.017,3.017,0,0,0,2.069,2.248,2.456,2.456,0,1,0,4.58.133H138.8a2.456,2.456,0,1,0,4.631,0h.2a.819.819,0,1,0,0-1.638h-12.2a1.371,1.371,0,0,1-1.335-1.082l-.21-.992h14.5a.819.819,0,0,0,.8-.657l.86-4.264a.812.812,0,0,0,.041-.206Zm-13.3,13.921a.819.819,0,1,1-.819-.819A.82.82,0,0,1,133.635,285.413Zm8.3,0a.819.819,0,1,1-.819-.819A.82.82,0,0,1,141.932,285.413Zm2.652-10.535h-3.853l.341-2.729h4.063Zm-9.844,4.367-.341-2.729h4.477l-.341,2.729Zm-.546-4.367-.341-2.729h5.569l-.341,2.729Zm-1.991-2.729.341,2.729H128.6l-.578-2.729Zm-3.252,4.367h3.8l.341,2.729h-3.561Zm11.234,2.729.341-2.729h3.728l-.551,2.729Z" transform="translate(1422.02 -199.69)" fill="#50758d"/>
    <path id="Path_2274" data-name="Path 2274" d="M40,29.325V23.867A4.367,4.367,0,0,1,44.367,19.5h36.79a4.367,4.367,0,0,1,4.367,4.367v5.459Z" transform="translate(1494.258 22.5)" fill="#61729b"/>
  </g>
</svg>
