<svg xmlns="http://www.w3.org/2000/svg" width="62.01" height="50" viewBox="0 0 62.01 50">
  <g id="Education" transform="translate(-11.99)">
    <g id="Group_25423" data-name="Group 25423" transform="translate(11.99 32.507)">
      <g id="Group_25419" data-name="Group 25419">
        <path id="Path_2400" data-name="Path 2400" d="M108.533,229.325H57.763c-2.147,0-3.887-2.137-3.887-4.772s1.74-4.772,3.887-4.772h50.771A12.627,12.627,0,0,0,108.533,229.325Z" transform="translate(-51.205 -215.806)" fill="#f7f7f7"/>
        <path id="Path_2401" data-name="Path 2401" d="M133.393,219.78h-4.179a12.627,12.627,0,0,0,0,9.544h4.179A12.627,12.627,0,0,1,133.393,219.78Z" transform="translate(-76.064 -215.806)" fill="#f7f7f7"/>
        <path id="Path_2402" data-name="Path 2402" d="M41.243,213.329a6.494,6.494,0,0,1-5.06-2.595,9.8,9.8,0,0,1-2.064-6.238c.038-4.776,3.269-8.661,7.2-8.661H92.013a2.639,2.639,0,0,1,0,5.169H41.243c-1.607,0-2.914,1.605-2.914,3.578s1.307,3.578,2.914,3.578H92.014a2.639,2.639,0,0,1,0,5.169H41.243Z" transform="translate(-34.118 -195.836)" fill="#ff815c"/>
      </g>
    </g>
    <g id="Group_25424" data-name="Group 25424" transform="translate(14)">
      <path id="Path_2409" data-name="Path 2409" d="M147.847,109.051H111.775l3.865-17.273h28.342Z" transform="translate(-99.811 -76.544)" fill="#47484b"/>
      <path id="Path_2410" data-name="Path 2410" d="M42.774.571,17.136,9.509c-1.374.479-1.374,3.069,0,3.548L42.774,22a10,10,0,0,0,6.662,0l25.638-8.939c1.374-.479,1.374-3.069,0-3.548L49.437.571a10,10,0,0,0-6.662,0Z" transform="translate(-16.106 0)"/>
      <path id="Path_2412" data-name="Path 2412" d="M257.986,75.811c-.534,0-.966-.574-.966-1.282V62.511l-8.429-10.144a1.592,1.592,0,0,1-.067-1.812.811.811,0,0,1,1.365-.089l8.746,10.526a1.5,1.5,0,0,1,.317.95V74.528c0,.708-.433,1.282-.966,1.282Z" transform="translate(-219.24 -41.813)" fill="#f7f7f7"/>
      <path id="Path_2413" data-name="Path 2413" d="M309.262,184.582H303.7s0-11.139,2.78-11.139S309.262,184.582,309.262,184.582Z" transform="translate(-267.736 -144.653)" fill="#ffe66b"/>
    </g>
    <path id="Path_2415" data-name="Path 2415" d="M245.8,241.354a4.752,4.752,0,0,1-5.071,0v-3.646a2.535,2.535,0,0,1,5.071,0v3.646Z" transform="translate(-198.439 -230.131)" fill="#ffe66b"/>
  </g>
</svg>
