<svg xmlns="http://www.w3.org/2000/svg" width="50" height="50" viewBox="0 0 50 50">
  <g id="GPS" transform="translate(-1015 -302)">
    <path id="Path_2814" data-name="Path 2814" d="M80.667,64A16.667,16.667,0,1,1,64,80.667,16.662,16.662,0,0,1,80.667,64Zm5.208,16.667a5.208,5.208,0,1,0-5.208,5.208A5.21,5.21,0,0,0,85.875,80.667Z" transform="translate(959.333 246.333)" fill="#8ae3b3"/>
    <circle id="Ellipse_85" data-name="Ellipse 85" cx="5.208" cy="5.208" r="5.208" transform="translate(1034.792 321.792)" fill="#5cf7e5"/>
    <path id="Path_2815" data-name="Path 2815" d="M143.292,136a7.292,7.292,0,1,0,7.292,7.292A7.3,7.3,0,0,0,143.292,136Zm0,10.417a3.125,3.125,0,1,1,3.125-3.125A3.129,3.129,0,0,1,143.292,146.417Z" transform="translate(896.708 183.708)" fill="#012e52"/>
    <path id="Path_2816" data-name="Path 2816" d="M47.917,22.917h-4.29A18.776,18.776,0,0,0,27.083,6.373V2.083a2.083,2.083,0,1,0-4.167,0v4.29A18.776,18.776,0,0,0,6.373,22.917H2.083a2.083,2.083,0,1,0,0,4.167h4.29A18.776,18.776,0,0,0,22.917,43.627v4.29a2.083,2.083,0,1,0,4.167,0v-4.29A18.776,18.776,0,0,0,43.627,27.083h4.29a2.083,2.083,0,1,0,0-4.167ZM25,39.583A14.583,14.583,0,1,1,39.583,25,14.6,14.6,0,0,1,25,39.583Z" transform="translate(1015 302)" fill="#1b904c"/>
  </g>
</svg>
