<svg xmlns="http://www.w3.org/2000/svg" width="58.036" height="42.385" viewBox="0 0 58.036 42.385">
  <g id="identity" transform="translate(-1213.167 593.667)">
    <g id="Group_31797" data-name="Group 31797" transform="translate(1213.167 -593.667)">
      <g id="Group_31795" data-name="Group 31795" transform="translate(0 0)">
        <path id="Path_12201" data-name="Path 12201" d="M255.486.069h24.592c.046.03.091.081.14.086a5.519,5.519,0,0,1,4.706,5.684c-.057,8.69-.02,17.381-.02,26.072,0,1.765.018,3.53-.007,5.295a5.362,5.362,0,0,1-4.687,5.144c-.936,0-1.872-.01-2.809-.011l-21.9-.012c-.005-2-.015-3.992-.015-5.988q0-12.667.009-25.334c.229-.005.459-.015.688-.015h17.341c.172,0,.346.011.517-.006a1.81,1.81,0,0,0,1.65-1.577A1.785,1.785,0,0,0,274.6,7.623a2.825,2.825,0,0,0-1.07-.156q-5.254,0-10.508,0-3.761,0-7.521-.016-.006-3.691-.012-7.383M267.5,27.61c2.085,0,4.169,0,6.254,0a1.737,1.737,0,1,0,0-3.453q-6.254,0-12.508,0a1.779,1.779,0,0,0-1.95,1.732,1.76,1.76,0,0,0,1.953,1.722c2.085,0,4.169,0,6.254,0m0-10.85c-2.1,0-4.208,0-6.311,0a1.734,1.734,0,1,0,0,3.452q6.282.005,12.565,0a1.737,1.737,0,1,0,0-3.453c-2.085,0-4.169,0-6.254,0m-1.9,14.8c-1.492,0-2.984-.012-4.476,0a1.747,1.747,0,0,0-1.825,1.739,1.724,1.724,0,0,0,1.8,1.705c3.042.019,6.083.007,9.125,0a1.712,1.712,0,0,0,1.071-.348,1.742,1.742,0,0,0,.609-1.9,1.716,1.716,0,0,0-1.71-1.2c-1.53-.014-3.061,0-4.591,0" transform="translate(-226.887 -0.069)" fill="#fec84f"/>
        <path id="Path_12202" data-name="Path 12202" d="M29.484.068q.006,3.691.012,7.383l0,.051q-9.011,0-18.021,0a4.532,4.532,0,0,0-.687.033A1.634,1.634,0,0,0,9.369,8.78a1.729,1.729,0,0,0,1.877,2.18q9.125.006,18.251,0l0,.045q-.005,12.667-.009,25.334c0,2,.01,3.992.015,5.988l-.016.127H5.122a2.037,2.037,0,0,0-.321-.1A5.339,5.339,0,0,1,.37,38.766c-.131-.333-.2-.69-.3-1.036V4.79c.041-.125.088-.248.121-.374A5.424,5.424,0,0,1,4.35.225c.219-.056.465.005.658-.157ZM17.692,24.151c-.3.051-.6.1-.9.154a9.124,9.124,0,0,0-7.478,8.477,1.809,1.809,0,0,0,2.014,2.225q7.067.007,14.134,0c1.467,0,2.172-.728,2.045-2.2a9.048,9.048,0,0,0-5.636-7.967,11.368,11.368,0,0,0-2.773-.7l.6-.179a4.626,4.626,0,1,0-3.243-.263c.394.185.823.3,1.236.444" transform="translate(-0.066 -0.068)" fill="#fec84f"/>
        <path id="Path_12206" data-name="Path 12206" d="M280.211,366.814a.289.289,0,0,0-.018.1H255.486l.016-.127,21.9.012c.936,0,1.872.007,2.809.011" transform="translate(-226.887 -324.533)" fill="#fed177"/>
        <path id="Path_12207" data-name="Path 12207" d="M255.574,64.138q3.76.009,7.521.016,5.254,0,10.508,0a2.822,2.822,0,0,1,1.07.156,1.784,1.784,0,0,1,1.095,1.783,1.81,1.81,0,0,1-1.65,1.576c-.171.017-.344.006-.517.006H256.26c-.23,0-.459.01-.688.015l0-.044q0-1.728,0-3.457l0-.051" transform="translate(-226.97 -56.755)" fill="#0d0601"/>
        <path id="Path_12208" data-name="Path 12208" d="M296.764,212.535c-2.085,0-4.169,0-6.254,0a1.76,1.76,0,0,1-1.953-1.721,1.779,1.779,0,0,1,1.95-1.731q6.254,0,12.508,0a1.736,1.736,0,1,1,0,3.451c-2.085.006-4.169,0-6.254,0" transform="translate(-256.156 -184.995)" fill="#0c0601"/>
        <path id="Path_12209" data-name="Path 12209" d="M296.765,144.91c2.085,0,4.169,0,6.254,0a1.736,1.736,0,1,1,0,3.451q-6.283,0-12.565,0a1.733,1.733,0,1,1,0-3.451c2.1-.006,4.208,0,6.311,0" transform="translate(-256.158 -128.218)" fill="#0c0501"/>
        <path id="Path_12210" data-name="Path 12210" d="M294.85,273.331c1.53,0,3.061-.01,4.591,0a1.716,1.716,0,0,1,1.71,1.2,1.74,1.74,0,0,1-.609,1.9,1.713,1.713,0,0,1-1.071.348c-3.042,0-6.083.015-9.125,0a1.724,1.724,0,0,1-1.8-1.7,1.747,1.747,0,0,1,1.825-1.738c1.492-.016,2.984,0,4.476,0" transform="translate(-256.149 -241.837)" fill="#0e0701"/>
        <path id="Path_12211" data-name="Path 12211" d="M90,209.043a11.377,11.377,0,0,1,2.773.7,9.044,9.044,0,0,1,5.636,7.963c.127,1.467-.578,2.193-2.045,2.194q-7.067.005-14.134,0a1.808,1.808,0,0,1-2.014-2.224,9.121,9.121,0,0,1,7.478-8.473c.3-.058.6-.1.9-.154l1.4,0" transform="translate(-70.962 -184.959)" fill="#42b653"/>
        <path id="Path_12212" data-name="Path 12212" d="M101.293,64.577q0,1.728,0,3.457-9.524,0-19.049,0c-1.413,0-2.308-1-1.959-2.179a1.684,1.684,0,0,1,1.483-1.244,4.958,4.958,0,0,1,.717-.033q9.4,0,18.809,0" transform="translate(-71.819 -57.143)" fill="#0d0601"/>
        <path id="Path_12213" data-name="Path 12213" d="M124.573,138.2l-1.4,0c-.412-.146-.841-.258-1.235-.444a4.591,4.591,0,1,1,3.243.263l-.6.179" transform="translate(-105.537 -114.122)" fill="#fe934d"/>
      </g>
    </g>
  </g>
</svg>
