<svg xmlns="http://www.w3.org/2000/svg" width="41.049" height="50" viewBox="0 0 41.049 50">
  <g id="Inventory" transform="translate(-1409 -692)">
    <rect id="Rectangle_618" data-name="Rectangle 618" width="30.554" height="42.236" transform="translate(1419.496 695.595)" fill="#285680"/>
    <path id="Path_2486" data-name="Path 2486" d="M176,88h23.365v35.047H176Z" transform="translate(1247.091 611.189)" fill="#ebebeb"/>
    <path id="Path_2487" data-name="Path 2487" d="M236.581,31.189H224V27.595h3.595L226.7,24h7.189l-.9,3.595h3.595Z" transform="translate(1204.482 668)" fill="#57c3c1"/>
    <g id="Group_25435" data-name="Group 25435" transform="translate(1432.976 701.885)">
      <path id="Path_2491" data-name="Path 2491" d="M264,144h10.784v1.8H264Z" transform="translate(-264 -140.405)" fill="#b2b1b4"/>
      <path id="Path_2492" data-name="Path 2492" d="M296,112h7.189v1.8H296Z" transform="translate(-292.405 -112)" fill="#b2b1b4"/>
    </g>
    <g id="Group_25512" data-name="Group 25512" transform="translate(1409 722)">
      <path id="Path_3004" data-name="Path 3004" d="M32,20H58.667V35.556H32Z" transform="translate(-32 -15.556)" fill="#feb655"/>
      <path id="Path_3006" data-name="Path 3006" d="M32,16H58.667v4.444H32Z" transform="translate(-32 -16)" fill="#ee8722"/>
    </g>
  </g>
</svg>
