<svg xmlns="http://www.w3.org/2000/svg" width="43.554" height="50" viewBox="0 0 43.554 50">
  <g id="Invoice" transform="translate(-1277.742 -172)">
    <path id="Path_2600" data-name="Path 2600" d="M76.395,2.731,71.62.074a.688.688,0,0,0-.619,0L66.226,2.731a.8.8,0,0,1-.721,0L60.731.074a.688.688,0,0,0-.619,0L55.338,2.731a.8.8,0,0,1-.721,0L49.843.074a.689.689,0,0,0-.619,0L44.45,2.731a.8.8,0,0,1-.721,0L39.419.332c-.3-.166-.774-.035-.774.214V49.454c0,.249.475.381.774.214l4.309-2.4a.8.8,0,0,1,.721,0l4.773,2.657a.689.689,0,0,0,.619,0l4.774-2.657a.8.8,0,0,1,.721,0l4.774,2.657a.688.688,0,0,0,.619,0l4.774-2.657a.8.8,0,0,1,.721,0L71,49.926a.688.688,0,0,0,.619,0l4.775-2.657a.8.8,0,0,1,.721,0l4.311,2.4c.3.166.773.035.773-.214V.546c0-.249-.475-.381-.773-.214l-4.311,2.4a.8.8,0,0,1-.721,0Z" transform="translate(1239.096 172)" fill="#ecf4ff"/>
    <g id="Group_25438" data-name="Group 25438" transform="translate(1318.998 172.258)">
      <path id="Path_2601" data-name="Path 2601" d="M294.623,4.109V50.65l1.56,1.4a.288.288,0,0,0,.48-.214V2.926a.288.288,0,0,0-.48-.214Z" transform="translate(-294.623 -2.637)" fill="#ecf4ff"/>
    </g>
    <g id="Group_25441" data-name="Group 25441" transform="translate(1288.771 177.629)">
      <g id="Group_25439" data-name="Group 25439" transform="translate(0 1.069)">
        <path id="Path_2602" data-name="Path 2602" d="M69.8,78.159a3.778,3.778,0,0,1-2.441-.694.758.758,0,0,1,.829-1.268,2.364,2.364,0,0,0,1.7.446,1.459,1.459,0,0,0,1.448-1.231,1.128,1.128,0,0,0-.815-1.324A8.66,8.66,0,0,1,68.033,72.9a2.223,2.223,0,0,1-.736-2.189,2.5,2.5,0,0,1,1.715-1.96,5.044,5.044,0,0,1,3.372.337.757.757,0,0,1-.677,1.355,3.527,3.527,0,0,0-2.258-.242,1,1,0,0,0-.663.79.741.741,0,0,0,.182.717,8.06,8.06,0,0,0,2.056.957,2.654,2.654,0,0,1,1.8,3A2.99,2.99,0,0,1,69.9,78.159Z" transform="translate(-67.016 -68.582)" fill="#2b4d66"/>
      </g>
      <g id="Group_25440" data-name="Group 25440" transform="translate(2.118)">
        <path id="Path_2603" data-name="Path 2603" d="M89.46,69.453A.757.757,0,0,1,88.7,68.7v-10.3a.758.758,0,1,1,1.515,0V68.7A.757.757,0,0,1,89.46,69.453Z" transform="translate(-88.702 -57.637)" fill="#2b4d66"/>
      </g>
    </g>
    <g id="Group_25442" data-name="Group 25442" transform="translate(1299.695 181.098)">
      <path id="Path_2604" data-name="Path 2604" d="M183.2,94.677h-3.555a.758.758,0,1,1,0-1.515H183.2a.758.758,0,1,1,0,1.515Z" transform="translate(-178.884 -93.162)" fill="#2b4d66"/>
    </g>
    <g id="Group_25443" data-name="Group 25443" transform="translate(1299.695 184.764)">
      <path id="Path_2605" data-name="Path 2605" d="M187.236,132.216h-7.595a.758.758,0,1,1,0-1.515h7.595a.758.758,0,0,1,0,1.515Z" transform="translate(-178.884 -130.701)" fill="#2b4d66"/>
    </g>
    <g id="Group_25444" data-name="Group 25444" transform="translate(1292.059 194.388)">
      <path id="Path_2606" data-name="Path 2606" d="M114.854,230.768h-13.4a.758.758,0,1,1,0-1.515h13.4a.758.758,0,0,1,0,1.515Z" transform="translate(-100.692 -229.253)" fill="#2b4d66"/>
    </g>
    <circle id="Ellipse_67" data-name="Ellipse 67" cx="7.635" cy="7.635" r="7.635" transform="translate(1300.453 201.98)" fill="#eab14d"/>
  </g>
</svg>
