<svg xmlns="http://www.w3.org/2000/svg" width="52.032" height="50" viewBox="0 0 52.032 50">
  <g id="IOT" transform="translate(-1014 -41)">
    <path id="Path_2825" data-name="Path 2825" d="M65.677,54.86a1.52,1.52,0,0,1-1.078-.446L60.184,50a1.524,1.524,0,0,1,2.156-2.156l3.374,3.374A21.172,21.172,0,0,1,79.683,46a1.524,1.524,0,0,1,0,3.049,18.168,18.168,0,0,0-12.928,5.364A1.519,1.519,0,0,1,65.677,54.86Z" transform="translate(960.333 -0.325)" fill="#47568c"/>
    <path id="Path_2827" data-name="Path 2827" d="M242.524,387.682a1.524,1.524,0,0,1,0-3.049,18.169,18.169,0,0,0,12.928-5.364,1.525,1.525,0,0,1,2.156,0l4.415,4.414a1.524,1.524,0,1,1-2.156,2.156l-3.374-3.374A21.173,21.173,0,0,1,242.524,387.682Z" transform="translate(797.492 -301.357)" fill="#47568c"/>
    <circle id="Ellipse_86" data-name="Ellipse 86" cx="5.081" cy="5.081" r="5.081" transform="translate(1014 41)" fill="#7eedfc"/>
    <circle id="Ellipse_89" data-name="Ellipse 89" cx="5.081" cy="5.081" r="5.081" transform="translate(1055.87 80.837)" fill="#7eedfc"/>
    <path id="Path_2829" data-name="Path 2829" d="M121.912,106a9.733,9.733,0,0,0-2.985,1.27s-1.863-.477-1.939-.454a15.284,15.284,0,0,0-10.244,12.9s.864,1.01.864,1.524-.864,1.524-.864,1.524a15.284,15.284,0,0,0,10.244,12.9l1.958-.217a9.41,9.41,0,0,0,2.967,1.033,8.974,8.974,0,0,0,2.856-1.012l2.068.2a15.284,15.284,0,0,0,10.244-12.9s-1.093-1.01-1.093-1.524,1.093-1.524,1.093-1.524a15.283,15.283,0,0,0-10.244-12.9l-1.876.276A9.272,9.272,0,0,0,121.912,106Z" transform="translate(918.104 -55.244)" fill="#bfedd6"/>
    <path id="Path_2831" data-name="Path 2831" d="M106,242.524q0,.772.076,1.524h30.336q.075-.752.076-1.524T136.412,241H106.076Q106,241.752,106,242.524Z" transform="translate(918.772 -176.524)" fill="#717171"/>
    <path id="Path_2832" data-name="Path 2832" d="M271.168,241H256v3.049h15.168q.075-.752.076-1.524T271.168,241Z" transform="translate(784.017 -176.524)" fill="#717171"/>
    <path id="Path_2833" data-name="Path 2833" d="M258.878,109.8a35.051,35.051,0,0,1,1.7,11.441,35.051,35.051,0,0,1-1.7,11.441c-.983,2.726-2.153,3.8-2.878,3.8a15.179,15.179,0,0,0,4.924-.817c1.782-3.555,2.7-9.011,2.7-14.427s-.915-10.872-2.7-14.427A15.179,15.179,0,0,0,256,106C256.724,106,257.895,107.077,258.878,109.8Z" transform="translate(784.017 -55.244)" fill="#717171"/>
    <path id="Path_2834" data-name="Path 2834" d="M185.744,132.685a35.052,35.052,0,0,1-1.7-11.441,35.051,35.051,0,0,1,1.7-11.441c.983-2.726,2.153-3.8,2.878-3.8a15.182,15.182,0,0,0-4.924.816c-1.782,3.555-2.7,9.011-2.7,14.427s.915,10.872,2.7,14.427a15.182,15.182,0,0,0,4.924.816C187.9,136.488,186.727,135.411,185.744,132.685Z" transform="translate(851.395 -55.244)" fill="#717171"/>
  </g>
</svg>
