<svg id="IT" xmlns="http://www.w3.org/2000/svg" width="50.004" height="50" viewBox="0 0 50.004 50">
  <path id="Path" d="M51,1.879v35.19H1V1.879A1.81,1.81,0,0,1,2.724,0H49.276A1.81,1.81,0,0,1,51,1.879Z" transform="translate(-0.998 0)" fill="#d8ecfe" fill-rule="evenodd"/>
  <path id="Path-2" data-name="Path" d="M51,1.879V13.155C42.508,23.534,26.87,34.991,1,29.466V1.879A1.81,1.81,0,0,1,2.724,0H49.276A1.81,1.81,0,0,1,51,1.879Z" transform="translate(-0.998 0)" fill="#d8ecfe" fill-rule="evenodd"/>
  <path id="Path-3" data-name="Path" d="M51,43v3.293a1.81,1.81,0,0,1-1.724,1.879H2.724A1.81,1.81,0,0,1,1,46.293V43Z" transform="translate(-0.998 -5.931)" fill="#547580" fill-rule="evenodd"/>
  <path id="Path-4" data-name="Path" d="M35.379,49l2.586,4.31H19L21.586,49Z" transform="translate(-3.481 -6.759)" fill="#3f5c6c" fill-rule="evenodd"/>
  <rect id="Rectangle" width="29.31" height="3.448" rx="1.724" transform="translate(10.346 46.552)" fill="#547580"/>
  <path id="Path-5" data-name="Path" d="M32.725,22.94l8.767,8.767a1.724,1.724,0,0,1,0,2.44l-1.224,1.216a1.717,1.717,0,0,1-2.431,0L29.07,26.6Z" transform="translate(-4.87 -3.164)" fill="#cb8252" fill-rule="evenodd"/>
  <path id="Rectangle-2" data-name="Rectangle" d="M0,0H5.169V7.364H0Z" transform="translate(15.326 14.56) rotate(-45)" fill="#cb8252" fill-rule="evenodd"/>
  <g id="Group_25622" data-name="Group 25622" transform="translate(6.898 3.444)">
    <path id="Path-6" data-name="Path" d="M24.135,8.411,15.6,16.945a1.724,1.724,0,0,1-2.44,0L9.506,13.282a1.724,1.724,0,0,1,0-2.44l6.336-6.336a1.724,1.724,0,0,1,1.638-.457l5.853,1.466a1.724,1.724,0,0,1,.8,2.9Z" transform="translate(-9 -3.995)" fill="#95a5a5" fill-rule="evenodd"/>
    <path id="Path-7" data-name="Path" d="M40.828,13.5a5.143,5.143,0,0,1-4.156.664l-13.5,13.505a5.166,5.166,0,0,1-5.716,6.448.857.857,0,0,1-.509-1.448l.621-.621a1.762,1.762,0,0,0-.112-2.543,1.8,1.8,0,0,0-2.4.172l-.552.552a.847.847,0,0,1-1.44-.441A5.149,5.149,0,0,1,19.5,24.021L33.017,10.5A5.154,5.154,0,0,1,38.8,4.059a.862.862,0,0,1,.431,1.448l-.552.543a1.789,1.789,0,0,0-.172,2.388,1.741,1.741,0,0,0,2.542.121l.621-.621a.853.853,0,0,1,1.448.5,5.147,5.147,0,0,1-2.291,5.06Z" transform="translate(-9.552 -3.995)" fill="#95a5a5" fill-rule="evenodd"/>
  </g>
</svg>
