<svg xmlns="http://www.w3.org/2000/svg" width="52.252" height="45.703" viewBox="0 0 52.252 45.703">
  <g id="JOB" transform="translate(0 -32.088)">
    <g id="Group_57778" data-name="Group 57778" transform="translate(0 32.088)">
      <g id="Group_57777" data-name="Group 57777" transform="translate(0 0)">
        <path id="Path_263670" data-name="Path 263670" d="M185.708,34.406a10.282,10.282,0,0,0-2.269-1.211,16.705,16.705,0,0,0-11.962,0,10.28,10.28,0,0,0-2.269,1.211,1.718,1.718,0,0,0-.676,1.366v2.694l1.717.919,1.717-.919V36.745a12.948,12.948,0,0,1,10.983,0v1.722l1.717.918,1.717-.918V35.772A1.717,1.717,0,0,0,185.708,34.406Z" transform="translate(-151.332 -32.088)" fill="#e8834d"/>
        <g id="Group_57776" data-name="Group 57776" transform="translate(17.2 6.379)">
          <path id="Path_263671" data-name="Path 263671" d="M168.533,94.589v1.9l1.717.918,1.717-.918v-1.9Z" transform="translate(-168.533 -94.589)" fill="#d66e41"/>
          <path id="Path_263672" data-name="Path 263672" d="M313.24,94.589H309.8v1.9l1.717.918,1.717-.918Z" transform="translate(-295.387 -94.589)" fill="#d66e41"/>
        </g>
        <path id="Path_263673" data-name="Path 263673" d="M13.247,298.286v15.256a3.279,3.279,0,0,0,3.279,3.279h42.99a3.279,3.279,0,0,0,3.279-3.279V298.286Z" transform="translate(-11.895 -271.119)" fill="#365e7d"/>
        <path id="Path_263674" data-name="Path 263674" d="M13.247,279.705v1.9c2.724,2.163,9.925,6.362,24.774,6.362s22.05-4.2,24.774-6.362v-1.9H13.247Z" transform="translate(-11.895 -254.434)" fill="#2b4d66"/>
        <path id="Path_263675" data-name="Path 263675" d="M1.21,129.073c2.611,2.126,9.8,6.477,24.917,6.477s22.305-4.351,24.917-6.477a5.478,5.478,0,0,0,1.21-3.462v-9.162a3.279,3.279,0,0,0-3.279-3.279H3.279A3.279,3.279,0,0,0,0,116.448v9.162a5.478,5.478,0,0,0,1.21,3.462Z" transform="translate(0 -104.894)" fill="#407093"/>
        <path id="Path_263676" data-name="Path 263676" d="M51.043,237.622c-2.611,2.126-9.8,6.477-24.917,6.477S3.821,239.748,1.21,237.622A3.28,3.28,0,0,1,0,235.078v1.9a3.28,3.28,0,0,0,1.21,2.544c2.611,2.126,9.8,6.477,24.917,6.477s22.305-4.351,24.917-6.477a3.28,3.28,0,0,0,1.21-2.544v-1.9A3.28,3.28,0,0,1,51.043,237.622Z" transform="translate(0 -214.362)" fill="#365e7d"/>
        <path id="Path_263677" data-name="Path 263677" d="M228.969,311.859c1.7,0,3.072-1.26,3.072-3.99v-1.862a1.093,1.093,0,0,0-1.093-1.093H226.99a1.093,1.093,0,0,0-1.093,1.093v1.863C225.9,310.6,227.272,311.859,228.969,311.859Z" transform="translate(-202.843 -277.07)" fill="#ffe27a"/>
        <path id="Path_263678" data-name="Path 263678" d="M228.969,336.946a3.072,3.072,0,0,1-3.072-3.072v1.9a3.072,3.072,0,0,0,6.144,0v-1.9A3.072,3.072,0,0,1,228.969,336.946Z" transform="translate(-202.843 -303.075)" fill="#f9cf58"/>
      </g>
    </g>
  </g>
</svg>
