<svg xmlns="http://www.w3.org/2000/svg" width="53.002" height="50" viewBox="0 0 53.002 50">
  <g id="Kitchen" transform="translate(-1403 -562)">
    <path id="Path_3341" data-name="Path 3341" d="M140.329,291.8c-.749-3.184-3.242-4.676-6.369-5.227a17.694,17.694,0,0,0-2.237-.241,3.584,3.584,0,0,1-1.441-.325c-2.246,4.258-12.516,3.957-14.23,0v-.03a3.553,3.553,0,0,1-1.5.355,17.833,17.833,0,0,0-2.174.228c-3.04.521-5.488,1.923-6.342,4.887,1.32,1.267,12.038,10.929,12.122,11.459h22.5V297.49a1.9,1.9,0,0,1,.674-1.448Zm0,0" transform="translate(1307.945 305.628)" fill="#47568c" fill-rule="evenodd"/>
    <path id="Path_3344" data-name="Path 3344" d="M466.064,261.278a.806.806,0,0,1-.806-.806V247.313a.806.806,0,0,1,1.612,0v13.158A.806.806,0,0,1,466.064,261.278Zm0,0" transform="translate(985.906 341.01)" fill="#5d656e"/>
    <path id="Path_3345" data-name="Path 3345" d="M169.471,286.332a17.834,17.834,0,0,0-2.174.228v4.887l1.633,1.465,2.045-1.465v-5.47A3.553,3.553,0,0,1,169.471,286.332Zm0,0" transform="translate(1253.021 305.628)" fill="#e6e6e6" fill-rule="evenodd"/>
    <path id="Path_3346" data-name="Path 3346" d="M165.785,301.832h4.379a1.582,1.582,0,0,1,1.558,1.333h18.726l-1.435-8.3a1.6,1.6,0,0,0-1.486-1.489v-6.542a17.686,17.686,0,0,0-2.237-.241,3.582,3.582,0,0,1-1.44-.325v7.108H172.606C172.63,293.554,167.1,301.293,165.785,301.832Zm0,0" transform="translate(1254.377 305.368)" fill="#e6e6e6" fill-rule="evenodd"/>
    <path id="Path_3347" data-name="Path 3347" d="M215.3,253.96l-5.121-1.616-5.639,1.586-.015.027a3.8,3.8,0,0,1-1.7,1.869v.03c1.714,3.957,11.984,4.258,14.23,0A3.953,3.953,0,0,1,215.3,253.96Zm0,0" transform="translate(1221.172 335.779)" fill="#fcc368" fill-rule="evenodd"/>
    <path id="Path_3348" data-name="Path 3348" d="M193.2,115.1a41.561,41.561,0,0,0-12.305,0q-1.786.266-3.575.692v7.845c0,2.778,2.023,5.23,4.351,6.846a9.846,9.846,0,0,0,5.362,2.013,11.105,11.105,0,0,0,5.4-1.983c2.442-1.667,4.379-4.255,4.379-7.294v-7.43Q195.01,115.366,193.2,115.1Zm0,0" transform="translate(1244.036 459.229)" fill="#ffdda6" fill-rule="evenodd"/>
    <path id="Path_3349" data-name="Path 3349" d="M171.84,0A5.432,5.432,0,0,0,167,2.886h-2.641c-3.816,0-6.089,4.195-2.517,6.418v5.835q1.791-.424,3.576-.692a41.533,41.533,0,0,1,12.305,0q1.809.271,3.609.692V9.3c3.573-2.224,1.4-6.418-2.418-6.418h-2.839A4.16,4.16,0,0,0,171.876,0Zm0,0" transform="translate(1259.515 562)" fill="#e6e6e6" fill-rule="evenodd"/>
    <path id="Path_3355" data-name="Path 3355" d="M447.244,382.249a3.379,3.379,0,0,0-3.368-3.37H442.4a1.9,1.9,0,0,0-1.895,1.9v6.094a1.9,1.9,0,0,0,1.895,1.9h1.474a3.379,3.379,0,0,0,3.368-3.37Zm0,0" transform="translate(1008.093 222.343)" fill="#ffdda6" fill-rule="evenodd"/>
    <path id="Path_3356" data-name="Path 3356" d="M439.834,141.621h-3.422a2.33,2.33,0,0,0-2.322,2.323v7.017a2.327,2.327,0,0,0,2.322,2.323h3.422a2.331,2.331,0,0,0,2.322-2.323v-7.018a2.336,2.336,0,0,0-2.322-2.323Zm0,0" transform="translate(1013.847 435.04)" fill="#e6e6e6" fill-rule="evenodd"/>
    <path id="Path_3359" data-name="Path 3359" d="M230.957,340.488a1.927,1.927,0,0,0-1.9-1.667h-3.23c-1.134,0-1.326,1.068-1.57,2.167-.123.548,2.352,1.165,2.156,1.676h2.643a1.925,1.925,0,0,0,1.922-1.92A1.781,1.781,0,0,0,230.957,340.488Zm0,0" transform="translate(1201.964 258.254)" fill="#fcc368" fill-rule="evenodd"/>
    <path id="Path_3360" data-name="Path 3360" d="M5.148,338.82H1.919a1.921,1.921,0,0,0,0,3.843H4.556l2.5-2.377Zm0,0" transform="translate(1403 258.254)" fill="#fcc368" fill-rule="evenodd"/>
    <path id="Path_3361" data-name="Path 3361" d="M55.532,338.82H39.684c-1.134,0-1.308,1.15-1.065,2.251a12.035,12.035,0,0,0,.472,1.592,10.726,10.726,0,0,0,6.182,6.283l3.66,2.287,4.887-2.287a11.144,11.144,0,0,0,6.567-7.875c.244-1.1.072-2.251-1.064-2.251Zm0,0" transform="translate(1368.464 258.254)" fill="#f78411" fill-rule="evenodd"/>
    <path id="Path_3362" data-name="Path 3362" d="M65.17,436.637H52.759a1.58,1.58,0,0,0-1.576,1.577v1.646a1.58,1.58,0,0,0,1.576,1.577H69.549a1.582,1.582,0,0,0,1.576-1.577v-1.646a1.321,1.321,0,0,0-.021-.244,1.581,1.581,0,0,0-1.555-1.333Zm0,0" transform="translate(1357.115 170.564)" fill="#5d656e" fill-rule="evenodd"/>
    <path id="Path_3366" data-name="Path 3366" d="M334.053,140.25q-1.8-.424-3.609-.692c-.424,3.821,3.368,4.552,3.609,4.595Zm0,0" transform="translate(1106.793 436.889)" fill="#5d656e" fill-rule="evenodd"/>
    <path id="Path_3367" data-name="Path 3367" d="M180.9,139.559q-1.786.271-3.575.692v3.9C177.84,144.045,181.3,143.208,180.9,139.559Zm0,0" transform="translate(1244.036 436.889)" fill="#5d656e" fill-rule="evenodd"/>
    <path id="Path_3371" data-name="Path 3371" d="M263.326,47.294a.806.806,0,0,1-.806-.806v-3.7a.806.806,0,0,1,1.612,0v3.7A.806.806,0,0,1,263.326,47.294Zm0,0" transform="translate(1167.656 524.365)" fill="#c2c7cc"/>
    <path id="Path_3372" data-name="Path 3372" d="M210.455,63.454a.806.806,0,0,1-.806-.806v-3.7a.806.806,0,0,1,1.612,0v3.7A.806.806,0,0,1,210.455,63.454Zm0,0" transform="translate(1215.054 509.875)" fill="#c2c7cc"/>
    <path id="Path_3373" data-name="Path 3373" d="M316.2,63.454a.806.806,0,0,1-.806-.806v-3.7a.806.806,0,0,1,1.612,0v3.7A.806.806,0,0,1,316.2,63.454Zm0,0" transform="translate(1120.259 509.875)" fill="#c2c7cc"/>
  </g>
</svg>
