<svg id="Logo" xmlns="http://www.w3.org/2000/svg" width="101.149" height="37.813" viewBox="0 0 101.149 37.813">
  <path id="Path_10" data-name="Path 10" d="M437,225.83h18v-2.94H438.286Z" transform="translate(-407.966 -188.017)" fill="#ff4577"/>
  <path id="Path_11" data-name="Path 11" d="M465.169,174.871l-.638-1.734.635,1.734Z" transform="translate(-426.859 -153.848)" fill="none"/>
  <path id="Path_12" data-name="Path 12" d="M379.831,136.889V134.5H366.079v23.521h14.445v-2.387H369.266v-8.855h9.18v-2.387h-9.18v-7.506Z" transform="translate(-359.29 -127.315)" fill="#5088ff"/>
  <path id="Path_13" data-name="Path 13" d="M344.434,111.556v37.811h23.59l5.2-12.208-.026,0,2.438-6.149h0l3.269-8.88,2.986,8.119h0l.217.593.638,1.734h0l1,2.73,2.573,6.954h3.258l-9.182-23.829h-2.943l-11.408,27.995h-18.66V114.495H442.64v31.934H391.466v2.939h54.117V111.556Z" transform="translate(-344.434 -111.556)" fill="#0a345a"/>
  <path id="Path_14" data-name="Path 14" d="M522.182,158.023h3.152V134.5h-2.841l-8.487,12.591L505.52,134.5h-2.84v23.521h3.152v-8.2l-.208-10.273,7.309,10.9h2.182l7.24-10.792-.173,10.169Z" transform="translate(-453.042 -127.315)" fill="#60c094"/>
  <path id="Path_15" data-name="Path 15" d="M605.254,153.959a6.448,6.448,0,0,1-3.914,1.142,11.733,11.733,0,0,1-7-2.075l-1.108,2.352a12.279,12.279,0,0,0,3.568,1.66,16.641,16.641,0,0,0,4.538.553,11.5,11.5,0,0,0,4.52-.83,6.8,6.8,0,0,0,3.031-2.387,6.3,6.3,0,0,0,1.074-3.667,5.181,5.181,0,0,0-1-3.269,6.991,6.991,0,0,0-2.425-2.006,35.154,35.154,0,0,0-3.741-1.539q-1.906-.692-2.979-1.193a5.625,5.625,0,0,1-1.8-1.3,2.811,2.811,0,0,1-.727-1.971,3.4,3.4,0,0,1,1.351-2.906,5.66,5.66,0,0,1,3.464-1,10.119,10.119,0,0,1,6.062,2.006l1.109-2.283a12.222,12.222,0,0,0-7.24-2.179,9.091,9.091,0,0,0-5.681,1.695,5.7,5.7,0,0,0-2.217,4.808,5.1,5.1,0,0,0,.987,3.234,6.841,6.841,0,0,0,2.39,1.955,36.514,36.514,0,0,0,3.724,1.522q1.939.692,3.031,1.193a5.35,5.35,0,0,1,1.819,1.332,2.986,2.986,0,0,1,.727,2.04A3.652,3.652,0,0,1,605.254,153.959Z" transform="translate(-515.192 -126.329)" fill="#f7bc51"/>
</svg>
