<svg xmlns="http://www.w3.org/2000/svg" width="49.999" height="50" viewBox="0 0 49.999 50">
  <g id="Maintenance" transform="translate(-1275.5 -692)">
    <g id="Group_31792" data-name="Group 31792">
      <g id="Group_25448" data-name="Group 25448" transform="translate(1309.191 730.867)">
        <path id="Path_2637" data-name="Path 2637" d="M352.817,409.142h-4.883a2.93,2.93,0,0,1-2.93-2.93v-6.738a1.465,1.465,0,0,1,1.465-1.465h7.812a1.465,1.465,0,0,1,1.465,1.465v6.738A2.93,2.93,0,0,1,352.817,409.142Z" transform="translate(-345.005 -398.009)" fill="#344e66"/>
      </g>
      <g id="Group_25449" data-name="Group 25449" transform="translate(1286.535 730.867)">
        <path id="Path_2638" data-name="Path 2638" d="M120.817,409.142h-4.883a2.93,2.93,0,0,1-2.93-2.93v-6.738a1.465,1.465,0,0,1,1.465-1.465h7.812a1.465,1.465,0,0,1,1.465,1.465v6.738A2.93,2.93,0,0,1,120.817,409.142Z" transform="translate(-113.005 -398.009)" fill="#344e66"/>
      </g>
      <path id="Path_2639" data-name="Path 2639" d="M157.692,183.071H128.005l1.273-11.456a2.93,2.93,0,0,1,2.912-2.606h21.318a2.93,2.93,0,0,1,2.912,2.606Z" transform="translate(1159.995 539.496)" fill="#e2dff4"/>
      <g id="Group_25451" data-name="Group 25451" transform="translate(1282.629 707.04)">
        <g id="Group_25450" data-name="Group 25450">
          <path id="Path_2640" data-name="Path 2640" d="M114.41,161.821h-5.731l-.434-3.9a4.389,4.389,0,0,0-4.367-3.909H82.56a4.389,4.389,0,0,0-4.367,3.909l-1.129,10.153H74.47A1.465,1.465,0,0,0,73,169.536v7.129a1.467,1.467,0,0,0,.429,1.036l3.906,3.906a1.467,1.467,0,0,0,1.036.429h29.687a1.467,1.467,0,0,0,1.036-.429l3.906-3.906a1.467,1.467,0,0,0,.429-1.036v-7.129a1.465,1.465,0,0,0-1.465-1.465h2.441a1.465,1.465,0,0,0,1.465-1.465v-3.32A1.465,1.465,0,0,0,114.41,161.821ZM81.1,158.241a1.464,1.464,0,0,1,1.456-1.3h21.318a1.464,1.464,0,0,1,1.456,1.3l.4,3.58.694,6.25H80.013Z" transform="translate(-73.005 -154.009)" fill="#ba2acc"/>
        </g>
      </g>
      <g id="Group_25453" data-name="Group 25453" transform="translate(1275.5 692)">
        <path id="Path_2642" data-name="Path 2642" d="M18.462.122a1.465,1.465,0,0,0-2.051,1.343V10.37l-3.223,1.074L9.966,10.37V1.464A1.465,1.465,0,0,0,7.915.122a13.187,13.187,0,0,0-.879,23.748V48.535A1.465,1.465,0,0,0,8.5,50h9.375a1.465,1.465,0,0,0,1.465-1.465V23.869A13.187,13.187,0,0,0,18.462.122Z" transform="translate(-0.005 0)" fill="#ffb454"/>
      </g>
      <g id="Group_25454" data-name="Group 25454" transform="translate(1288.684 692)">
        <path id="Path_2643" data-name="Path 2643" d="M148.188,12.207a13.188,13.188,0,0,1-7.031,11.662V48.535A1.465,1.465,0,0,1,139.692,50h-4.687V11.445l3.223-1.074V1.464A1.465,1.465,0,0,1,140.278.122a13.186,13.186,0,0,1,7.91,12.086Z" transform="translate(-135.005 0)" fill="#feb454"/>
      </g>
    </g>
  </g>
</svg>
