<svg xmlns="http://www.w3.org/2000/svg" width="42.833" height="50" viewBox="0 0 42.833 50">
  <g id="Map" transform="translate(-1279 -432)">
    <g id="Group_25515" data-name="Group 25515" transform="translate(1295.417 472.229)">
      <path id="Path_3018" data-name="Path 3018" d="M218.786,363.216H213.97l-3.107,9.772h7.923l1.721-4.765Z" transform="translate(-210.863 -363.216)" fill="#f0e6e6"/>
      <path id="Path_3019" data-name="Path 3019" d="M290.321,372.988l-3.107-9.772H282.4v9.772Z" transform="translate(-274.475 -363.216)" fill="#f0e6e6"/>
    </g>
    <g id="Group_25516" data-name="Group 25516" transform="translate(1279 432)">
      <path id="Path_3020" data-name="Path 3020" d="M65.957,18.482a20.812,20.812,0,0,1,5.15-13.759l3.5,3.5,2.349-2.348L71.08,0,69.905,1.156A24.312,24.312,0,0,0,86.974,42.808l.744-1.63-.744-1.691A21.035,21.035,0,0,1,65.957,18.482Z" transform="translate(-62.634 0)" fill="#4d4d8c"/>
      <path id="Path_3021" data-name="Path 3021" d="M295.017,257.29l-2.349,2.348,3.5,3.5a20.835,20.835,0,0,1-13.767,5.147V271.6a24.168,24.168,0,0,0,17.336-7.267l1.157-1.174Z" transform="translate(-258.058 -228.794)" fill="#4d4d8c"/>
    </g>
    <g id="Group_25517" data-name="Group 25517" transform="translate(1285.669 432.821)">
      <path id="Path_3022" data-name="Path 3022" d="M122.847,25.074a17.686,17.686,0,0,0,17.671,17.661l3.962-16.318-3.962-19a17.686,17.686,0,0,0-17.671,17.661Z" transform="translate(-122.847 -7.413)" fill="#5e9ff6"/>
      <path id="Path_3023" data-name="Path 3023" d="M282.4,7.413V42.735a17.661,17.661,0,1,0,0-35.322Z" transform="translate(-264.727 -7.413)" fill="#5e9ff6"/>
    </g>
    <g id="Group_25518" data-name="Group 25518" transform="translate(1285.669 432.821)">
      <path id="Path_3024" data-name="Path 3024" d="M253.195,7.53a10.946,10.946,0,0,0-1.1,7.507,8.272,8.272,0,0,0,3.129,4.74l2.356-7.042-2.356-5.323a17.788,17.788,0,0,0-2.032.117Z" transform="translate(-237.555 -7.413)" fill="#b9e68b"/>
      <path id="Path_3025" data-name="Path 3025" d="M282.4,7.413V19.778a11.444,11.444,0,0,0,3.983,1.876c1.52.405,2.143,1.331,3.112,2.933a9.988,9.988,0,0,0,3.665,3.988,10.528,10.528,0,0,0,5.26,1.179c.332,0,.675-.01,1.027-.029A17.662,17.662,0,0,0,282.4,7.413Z" transform="translate(-264.727 -7.413)" fill="#b9e68b"/>
      <path id="Path_3026" data-name="Path 3026" d="M137.131,143.447c-1.006-3.771-3.342-6.275-6.58-7.052a11.09,11.09,0,0,0-7.585,1.1A17.658,17.658,0,0,0,140.518,157.2l1.721-4.512-1.721-5.853c-.153-.094-.305-.187-.455-.277-1.6-.97-2.527-1.592-2.933-3.112Z" transform="translate(-122.847 -121.88)" fill="#b9e68b"/>
      <path id="Path_3027" data-name="Path 3027" d="M287.077,242.48a11.4,11.4,0,0,0-1.147-6.347,9.275,9.275,0,0,0-3.533-3.388V243.11A17.646,17.646,0,0,0,287.077,242.48Z" transform="translate(-264.726 -207.788)" fill="#b9e68b"/>
    </g>
  </g>
</svg>
