<svg xmlns="http://www.w3.org/2000/svg" width="50.941" height="50" viewBox="0 0 50.941 50">
  <g id="Marketing" transform="translate(-1534.529 -431.234)">
    <path id="Path_3071" data-name="Path 3071" d="M129.551,103.325a1.887,1.887,0,0,0,1.887-1.887V96.721a1.887,1.887,0,0,0-1.887-1.887h-.943a1.887,1.887,0,0,1-1.887-1.887v-2.83a1.887,1.887,0,1,0-3.774,0v2.83a1.887,1.887,0,0,1-1.887,1.887h-.943v8.491Zm0,0" transform="translate(1428.562 348.664)" fill="#fff5e0"/>
    <path id="Path_3072" data-name="Path 3072" d="M265.061,281.664a2.83,2.83,0,0,0,2.83-2.83v-3.774a2.83,2.83,0,0,0-2.83-2.83h-.943v9.434Zm0,0" transform="translate(1301.543 186.362)" fill="#e3584b"/>
    <path id="Path_3073" data-name="Path 3073" d="M303.664,55.325a7.547,7.547,0,1,0-7.547-7.547A7.547,7.547,0,0,0,303.664,55.325Zm0,0" transform="translate(1273.317 391.004)" fill="#fff5e0"/>
    <path id="Path_3074" data-name="Path 3074" d="M344.117,72.23v7.547L349.778,76Zm0,0" transform="translate(1230.977 362.778)" fill="#376e98"/>
    <path id="Path_3075" data-name="Path 3075" d="M91.891,145.664V136.23H88.117v10.377h3.774Zm0,0" transform="translate(1456.789 306.325)" fill="#376e98"/>
    <path id="Path_3076" data-name="Path 3076" d="M355.793,280.547l-1.544,1.028-1.542-1.028a1.887,1.887,0,0,0-2.381.236l-.4.4a1.887,1.887,0,0,0,0,2.669l4.325,4.325,4.326-4.325a1.886,1.886,0,0,0,0-2.669l-.4-.4A1.887,1.887,0,0,0,355.793,280.547Zm0,0" transform="translate(1226.343 179.306)" fill="#e32210"/>
    <path id="Path_3077" data-name="Path 3077" d="M48.117,360.23l1.1,11.321a.943.943,0,0,0,.943.943h5.505a.944.944,0,0,0,.932-1.087L53.778,360.23Zm0,0" transform="translate(1492.072 108.74)" fill="#8c8c8c"/>
    <path id="Path_3078" data-name="Path 3078" d="M5.778,275.551V264.23a5.66,5.66,0,1,0,0,11.321Zm0,0" transform="translate(1534.411 193.419)" fill="#8c8c8c"/>
    <path id="Path_3079" data-name="Path 3079" d="M51.891,275.551V264.23H48.117v11.321Zm0,0" transform="translate(1492.072 193.419)" fill="#d69513"/>
    <path id="Path_3080" data-name="Path 3080" d="M91.438,227.689a24.551,24.551,0,0,1-7.754,1.258H80.117v11.321h3.567a25.03,25.03,0,0,1,7.754,1.258l10.377,3.459V224.23Zm0,0" transform="translate(1463.845 228.702)" fill="#fcaa4a"/>
    <path id="Path_3081" data-name="Path 3081" d="M54.729,364l-.952-3.774h-5.66Zm0,0" transform="translate(1492.072 108.74)" fill="#8c8c8c"/>
    <path id="Path_3085" data-name="Path 3085" d="M390.738,288.212l4.326-4.325a1.886,1.886,0,0,0,0-2.668l-.4-.4a1.887,1.887,0,0,0-2.115-.377,1.88,1.88,0,0,1,.552.377l.4.4c.963.963.37,2.264-.278,3.214-.4.585-.784,1.184-1.176,1.777A12.835,12.835,0,0,1,390.738,288.212Zm0,0" transform="translate(1189.854 179.273)" fill="#e32218"/>
    <g id="Group_25550" data-name="Group 25550" transform="translate(1569.662 451.018)">
      <path id="Path_3086" data-name="Path 3086" d="M298.084,210.654l.486-1.943a.943.943,0,1,1,1.83.457l-.486,1.943a.943.943,0,1,1-1.829-.458Zm0,0" transform="translate(-298.054 -207.996)" fill="#ffb41f"/>
      <path id="Path_3087" data-name="Path 3087" d="M319.8,236.948l2.086-1.043a.943.943,0,0,1,.843,1.688l-2.086,1.043a.943.943,0,0,1-.843-1.688Zm0,0" transform="translate(-316.771 -232.526)" fill="#ffb41f"/>
      <path id="Path_3088" data-name="Path 3088" d="M298.764,392.023a.943.943,0,0,1,1.143.686l.486,1.943a.943.943,0,1,1-1.83.457l-.486-1.943A.943.943,0,0,1,298.764,392.023Zm0,0" transform="translate(-298.049 -370.296)" fill="#ffb41f"/>
      <path id="Path_3089" data-name="Path 3089" d="M319.372,372.326a.944.944,0,0,1,1.266-.422l2.086,1.043a.944.944,0,0,1-.844,1.688l-2.086-1.043A.944.944,0,0,1,319.372,372.326Zm0,0" transform="translate(-316.77 -352.487)" fill="#ffb41f"/>
    </g>
    <path id="Path_3091" data-name="Path 3091" d="M105.061,320.23h1.887a.943.943,0,1,1,0,1.887h-1.887a.943.943,0,1,1,0-1.887Zm0,0" transform="translate(1442.675 144.023)" fill="#8c8c8c"/>
    <path id="Path_3092" data-name="Path 3092" d="M105.061,288.23h1.887a.943.943,0,1,1,0,1.887h-1.887a.943.943,0,1,1,0-1.887Zm0,0" transform="translate(1442.675 172.249)" fill="#8c8c8c"/>
    <path id="Path_3093" data-name="Path 3093" d="M264.117,272.23h.943v9.434h-.943Zm0,0" transform="translate(1301.543 186.362)" fill="#de9a10"/>
  </g>
</svg>
