<svg xmlns="http://www.w3.org/2000/svg" width="50" height="50" viewBox="0 0 50 50">
  <g id="Payment" transform="translate(-1146 -821)">
    <path id="Path_2781" data-name="Path 2781" d="M458.124,70.578l-9.018-9.035V97.75h12.069V77.914A10.346,10.346,0,0,0,458.124,70.578Zm0,0" transform="translate(734.826 764.629)" fill="#ffb782"/>
    <path id="Path_2784" data-name="Path 2784" d="M0,22.715V3.749A3.449,3.449,0,0,1,3.452.3H37.935a3.449,3.449,0,0,1,3.448,3.448V22.715a3.449,3.449,0,0,1-3.448,3.448H3.452A3.449,3.449,0,0,1,0,22.715Zm0,0" transform="translate(1145.997 820.699)" fill="#4398d1"/>
    <path id="Path_2786" data-name="Path 2786" d="M40.832,163.609H44.28v1.724H40.832Zm0,0" transform="translate(1108.617 671.184)" fill="#5eb3d1"/>
    <path id="Path_2789" data-name="Path 2789" d="M102.074,163.609h3.448v1.724h-3.448Zm0,0" transform="translate(1052.547 671.184)" fill="#5eb3d1"/>
    <path id="Path_2790" data-name="Path 2790" d="M163.313,163.609h3.448v1.724h-3.448Zm0,0" transform="translate(996.481 671.184)" fill="#5eb3d1"/>
    <path id="Path_2796" data-name="Path 2796" d="M408.277,490.23h15.517v8.621H408.277Zm0,0" transform="translate(772.206 372.149)" fill="#88b337"/>
    <path id="Path_2797" data-name="Path 2797" d="M309.216,172.873a3.737,3.737,0,0,0-5.4,5.168l7.065,7.707a11.626,11.626,0,0,0,.235,11.928l.627,1h11.207V186.61Zm0,0" transform="translate(868.737 663.7)" fill="#ffb782"/>
    <path id="Path_2798" data-name="Path 2798" d="M438.9,520.852h1.724v1.724H438.9Zm0,0" transform="translate(744.171 344.114)" fill="#6b962a"/>
    <path id="Path_2799" data-name="Path 2799" d="M40.832,46.646V42.508a1.379,1.379,0,0,1,1.379-1.379h4.138a1.379,1.379,0,0,1,1.379,1.379v4.138a1.379,1.379,0,0,1-1.379,1.379H42.211A1.379,1.379,0,0,1,40.832,46.646Zm0,0" transform="translate(1108.617 783.319)" fill="#fdb62f"/>
    <path id="Path_2802" data-name="Path 2802" d="M484.149,291.382a.861.861,0,0,1-.609-.253l-3.448-3.448a.862.862,0,0,1,1.219-1.219l3.448,3.448a.862.862,0,0,1-.61,1.472Zm0,0" transform="translate(706.679 558.929)" fill="#f2a46f"/>
  </g>
</svg>
