<svg xmlns="http://www.w3.org/2000/svg" width="51.93" height="51.93" viewBox="0 0 51.93 51.93">
  <g id="svgexport-6_3_" data-name="svgexport-6 (3)" transform="translate(0 0)">
    <g id="User_Lock_Privacy" data-name="User Lock Privacy" transform="translate(0 0)">
      <g id="Flat" transform="translate(0)">
        <path id="Path_263958" data-name="Path 263958" d="M167.938,265.039a8.088,8.088,0,0,1-8.106-7.788l-.028-.7,1.643-.3V248h12.982v8.248l1.643.3-.028.7A8.088,8.088,0,0,1,167.938,265.039Z" transform="translate(-143.596 -222.847)" fill="#fac7b7"/>
        <path id="Path_263959" data-name="Path 263959" d="M114.552,13.866a12.729,12.729,0,1,1,25.356,0Z" transform="translate(-102.888 0)" fill="#525252"/>
        <path id="Path_263960" data-name="Path 263960" d="M231.456,24.008a12.9,12.9,0,0,0-2.168-1.9,13.806,13.806,0,0,1-9.254,11.623h14.7A12.736,12.736,0,0,0,231.456,24.008Z" transform="translate(-197.716 -19.864)" fill="#3f3f3f"/>
        <path id="Path_263961" data-name="Path 263961" d="M48.684,347.9H0v-8.511a8.11,8.11,0,0,1,6.663-7.983l11.158-2.029.037.933a6.49,6.49,0,0,0,12.969,0l.037-.933,11.158,2.029a8.11,8.11,0,0,1,6.663,7.983Z" transform="translate(0 -295.973)" fill="#5fc4b8"/>
        <path id="Path_263962" data-name="Path 263962" d="M42.022,347.558l-1.131-.206A34.923,34.923,0,0,1,0,360.245v3.806H48.684v-8.511A8.11,8.11,0,0,0,42.022,347.558Z" transform="translate(0 -312.122)" fill="#50b5a6"/>
        <path id="Path_263963" data-name="Path 263963" d="M115.486,123.171a11.175,11.175,0,0,1-10.5-7.349,3.715,3.715,0,0,1-3.01-2.772l-.462-1.85a2.777,2.777,0,0,1,1.731-3.276l-.228-1.116a13.053,13.053,0,0,1-.209-1.416l-.018-.194.072-.181a4.945,4.945,0,0,1,.678-1.187,5.188,5.188,0,0,1,6.74-1.241l1.2.705a7.228,7.228,0,0,0,8.019,0l1.2-.705a5.188,5.188,0,0,1,6.74,1.241,4.943,4.943,0,0,1,.678,1.187l.072.181-.019.194a13,13,0,0,1-.209,1.417l-.228,1.116a2.759,2.759,0,0,1,1.21.876,2.848,2.848,0,0,1,.5,2.464l-.446,1.786a3.715,3.715,0,0,1-3.01,2.77A11.176,11.176,0,0,1,115.486,123.171Z" transform="translate(-91.144 -91.527)" fill="#ffdecf"/>
        <path id="Path_263964" data-name="Path 263964" d="M167.563,162.713a2.76,2.76,0,0,0-1.163-.857,15.835,15.835,0,0,1-21.982,9.614,11.175,11.175,0,0,0,20.194-1.736,3.715,3.715,0,0,0,3.01-2.77l.446-1.786A2.848,2.848,0,0,0,167.563,162.713Z" transform="translate(-129.77 -145.44)" fill="#ffd3c2"/>
        <path id="Path_263965" data-name="Path 263965" d="M64.811,447.3a.811.811,0,0,1-.811-.811v-5.68a.811.811,0,0,1,1.623,0v5.68A.811.811,0,0,1,64.811,447.3Z" transform="translate(-57.509 -395.373)" fill="#3fa896"/>
        <path id="Path_263966" data-name="Path 263966" d="M337.851,261.794h-4.868v-4.868a4.057,4.057,0,1,0-8.114,0v4.868H320v-4.868a8.925,8.925,0,1,1,17.851,0Z" transform="translate(-287.544 -222.847)" fill="#ededed"/>
        <path id="Path_263967" data-name="Path 263967" d="M446.456,293.221a4.046,4.046,0,0,1,.157,1.114V299.2h4.868v-4.868a8.872,8.872,0,0,0-1.343-4.7A15.5,15.5,0,0,1,446.456,293.221Z" transform="translate(-401.174 -260.256)" fill="#e2e2e2"/>
        <rect id="Rectangle_32274" data-name="Rectangle 32274" width="21.096" height="14.605" rx="2" transform="translate(30.833 37.324)" fill="#ffd740"/>
        <path id="Path_263968" data-name="Path 263968" d="M324.892,372.411A18.683,18.683,0,0,1,304.919,384.8a2.438,2.438,0,0,0,2.341,1.769h16.228a2.437,2.437,0,0,0,2.434-2.434V374.4A2.432,2.432,0,0,0,324.892,372.411Z" transform="translate(-273.992 -334.639)" fill="#ffc400"/>
        <path id="Path_263969" data-name="Path 263969" d="M385.676,402.835a2.84,2.84,0,1,0-3.651,2.721V407.3a.811.811,0,0,0,1.623,0v-1.742A2.844,2.844,0,0,0,385.676,402.835Z" transform="translate(-341.455 -359.425)" fill="#c0694e"/>
        <path id="Path_263970" data-name="Path 263970" d="M381.2,404.44a2.838,2.838,0,0,1,4.353-2.4,2.84,2.84,0,1,0-4.244,3.18A2.834,2.834,0,0,1,381.2,404.44Z" transform="translate(-341.445 -359.407)" fill="#c97e67"/>
      </g>
    </g>
  </g>
</svg>
