<svg id="permissiontogroup" xmlns="http://www.w3.org/2000/svg" width="51.666" height="49.514" viewBox="0 0 51.666 49.514">
  <path id="Path_264061" data-name="Path 264061" d="M29.062,268.379a7.008,7.008,0,0,1,4.306-6.458v-.538a8.511,8.511,0,0,1,.842-3.649A10.175,10.175,0,0,0,28.524,256h-18.3A10.238,10.238,0,0,0,0,266.225v7.535a1.615,1.615,0,0,0,1.615,1.615H29.062Zm0,0" transform="translate(0 -230.167)" fill="#607d8b"/>
  <path id="Path_264062" data-name="Path 264062" d="M106.86,10.764A10.764,10.764,0,1,1,96.1,0,10.764,10.764,0,0,1,106.86,10.764Zm0,0" transform="translate(-76.721)" fill="#607d8b"/>
  <path id="Path_264063" data-name="Path 264063" d="M335.608,341.332h-11.84A3.771,3.771,0,0,0,320,345.1v7.534a3.771,3.771,0,0,0,3.767,3.768h11.84a3.771,3.771,0,0,0,3.767-3.768V345.1A3.771,3.771,0,0,0,335.608,341.332Zm0,0" transform="translate(-287.709 -306.888)" fill="#ffc107"/>
  <path id="Path_264064" data-name="Path 264064" d="M368.05,256a5.388,5.388,0,0,0-5.382,5.382v3.229H365.9v-3.229a2.153,2.153,0,1,1,4.305,0v3.229h3.229v-3.229A5.388,5.388,0,0,0,368.05,256Zm0,0" transform="translate(-326.071 -230.167)" fill="#607d8b"/>
</svg>
