<svg xmlns="http://www.w3.org/2000/svg" width="60.252" height="60.252" viewBox="0 0 60.252 60.252">
  <g id="permissiontoemployees" transform="translate(0 0)">
    <path id="Path_263895" data-name="Path 263895" d="M308.777,120h-18.7A2.084,2.084,0,0,0,288,122.078v10.388a2.084,2.084,0,0,0,2.078,2.078h4.155V138.7l4.155-4.155h10.388a2.084,2.084,0,0,0,2.078-2.078V122.078A2.084,2.084,0,0,0,308.777,120Zm0,0" transform="translate(-250.602 -104.418)" fill="#ffd422"/>
    <path id="Path_263896" data-name="Path 263896" d="M84.776,34.078v8.311A2.084,2.084,0,0,1,82.7,44.466H77.5v4.155l-3.543-3.543a2.082,2.082,0,0,0-1.475-.613H66.078A2.084,2.084,0,0,1,64,42.388V34.078A2.084,2.084,0,0,1,66.078,32H82.7a2.084,2.084,0,0,1,2.078,2.078Zm0,0" transform="translate(-55.689 -27.845)" fill="#78b9eb"/>
    <path id="Path_263897" data-name="Path 263897" d="M290.7,0H274.078A2.084,2.084,0,0,0,272,2.078v8.311a2.084,2.084,0,0,0,2.078,2.078h5.194v4.155l3.543-3.543a2.082,2.082,0,0,1,1.475-.613h6.41a2.084,2.084,0,0,0,2.078-2.078V2.078A2.084,2.084,0,0,0,290.7,0Zm0,0" transform="translate(-236.68 0)" fill="#ff9811"/>
    <path id="Path_263898" data-name="Path 263898" d="M22.854,186.078v10.388a2.084,2.084,0,0,1-2.078,2.078H16.621V202.7l-4.155-4.155H2.078A2.084,2.084,0,0,1,0,196.466V186.078A2.084,2.084,0,0,1,2.078,184h18.7A2.084,2.084,0,0,1,22.854,186.078Zm0,0" transform="translate(0 -160.107)" fill="#00ccb3"/>
    <path id="Path_263899" data-name="Path 263899" d="M159.893,396.965H136v-2.514a6.247,6.247,0,0,1,4.592-6.015l5.423-1.475,4.529,3.771,4.529-3.771,5.423,1.475a6.247,6.247,0,0,1,4.592,6.015v2.514Zm0,0" transform="translate(-118.34 -336.713)" fill="#3d9ae2"/>
    <path id="Path_263900" data-name="Path 263900" d="M212.466,276.155v2.078a6.233,6.233,0,0,1-9.349,5.391,5.985,5.985,0,0,1-1.288-.987,6.177,6.177,0,0,1-1.828-4.4v-2.078h1.039a8.319,8.319,0,0,0,6.648-3.324l.623-.831.447,1.8a3.13,3.13,0,0,0,3.023,2.358Zm0,0" transform="translate(-174.029 -236.68)" fill="#ffdaaa"/>
    <path id="Path_263901" data-name="Path 263901" d="M222.179,364.823l-4.529,3.771-4.529-3.771,1.413-.384V361.52a6.191,6.191,0,0,0,6.233,0v2.919Zm0,0" transform="translate(-185.447 -314.575)" fill="#ffdaaa"/>
    <path id="Path_263902" data-name="Path 263902" d="M206.544,231.272v3.116h-1.725a3.13,3.13,0,0,1-3.023-2.358l-.447-1.8-.623.831a8.319,8.319,0,0,1-6.648,3.324H192v-3.116a7.272,7.272,0,0,1,14.544,0Zm0,0" transform="translate(-167.068 -194.913)" fill="#57565c"/>
    <path id="Path_263903" data-name="Path 263903" d="M230.233,361.52v1.039a6.191,6.191,0,0,1-6.233,0V361.52A6.192,6.192,0,0,0,230.233,361.52Zm0,0" transform="translate(-194.913 -314.575)" fill="#f2cfa2"/>
    <path id="Path_263904" data-name="Path 263904" d="M168,432h2.078v4.155H168Zm0,0" transform="translate(-146.185 -375.903)" fill="#1e81ce"/>
    <path id="Path_263905" data-name="Path 263905" d="M312,432h2.078v4.155H312Zm0,0" transform="translate(-271.486 -375.903)" fill="#1e81ce"/>
    <g id="Group_58537" data-name="Group 58537" transform="translate(6.233 30.126)">
      <path id="Path_263906" data-name="Path 263906" d="M80,232h2.078v2.078H80Zm0,0" transform="translate(-75.845 -232)" fill="#009986"/>
      <path id="Path_263907" data-name="Path 263907" d="M112,232h2.078v2.078H112Zm0,0" transform="translate(-103.689 -232)" fill="#009986"/>
      <path id="Path_263908" data-name="Path 263908" d="M48,232h2.078v2.078H48Zm0,0" transform="translate(-48 -232)" fill="#009986"/>
    </g>
    <path id="Path_263909" data-name="Path 263909" d="M136,72h2.078v2.078H136Zm0,0" transform="translate(-118.34 -62.651)" fill="#1a6fb0"/>
    <path id="Path_263910" data-name="Path 263910" d="M168,72h2.078v2.078H168Zm0,0" transform="translate(-146.185 -62.651)" fill="#1a6fb0"/>
    <path id="Path_263911" data-name="Path 263911" d="M104,72h2.078v2.078H104Zm0,0" transform="translate(-90.495 -62.651)" fill="#1a6fb0"/>
    <path id="Path_263912" data-name="Path 263912" d="M344,40h2.078v2.078H344Zm0,0" transform="translate(-299.33 -34.806)" fill="#cc7400"/>
    <path id="Path_263913" data-name="Path 263913" d="M376,40h2.078v2.078H376Zm0,0" transform="translate(-327.175 -34.806)" fill="#cc7400"/>
    <path id="Path_263914" data-name="Path 263914" d="M312,40h2.078v2.078H312Zm0,0" transform="translate(-271.486 -34.806)" fill="#cc7400"/>
    <path id="Path_263915" data-name="Path 263915" d="M368,168h2.078v2.078H368Zm0,0" transform="translate(-320.214 -146.185)" fill="#ddb200"/>
    <path id="Path_263916" data-name="Path 263916" d="M400,168h2.078v2.078H400Zm0,0" transform="translate(-348.059 -146.185)" fill="#ddb200"/>
    <path id="Path_263917" data-name="Path 263917" d="M336,168h2.078v2.078H336Zm0,0" transform="translate(-292.369 -146.185)" fill="#ddb200"/>
  </g>
</svg>
