<svg xmlns="http://www.w3.org/2000/svg" width="67.775" height="50" viewBox="0 0 67.775 50">
  <g id="PM" transform="translate(-1396 -172)">
    <path id="Path_2427" data-name="Path 2427" d="M168,168h8.828v22.069H168Zm0,0" transform="translate(1257.522 31.925)" fill="#8ae3b3"/>
    <path id="Path_2428" data-name="Path 2428" d="M248,104h8.828v33.839H248Zm0,0" transform="translate(1192.235 84.155)" fill="#8ae3b3"/>
    <path id="Path_2429" data-name="Path 2429" d="M328,64h8.828v41.2H328Zm0,0" transform="translate(1126.948 116.798)" fill="#8ae3b3"/>
    <path id="Path_2433" data-name="Path 2433" d="M119.659,17.631,112.3,16.16l-.589,2.884,3.567.715L75.953,42.816l1.489,2.539L117.278,22l-.827,4.132,2.884.577,1.471-7.356A1.471,1.471,0,0,0,119.659,17.631Zm0,0" transform="translate(1332.641 155.84)" fill="#3e7ce0"/>
    <path id="Path_2441" data-name="Path 2441" d="M194.105,397.029a2.358,2.358,0,0,0,2.358,2.358h3.145a2.359,2.359,0,0,0,2.358-2.358v-4.717h-7.861Zm0,0" transform="translate(1220.969 -177.388)" fill="gray"/>
    <path id="Path_2442" data-name="Path 2442" d="M15.37,196.228a14.193,14.193,0,0,1-1.937-1.5,3.924,3.924,0,1,1-3.792-4.913c.12,0,.236.025.35.035a14.141,14.141,0,0,1-1.129-5.538h-1L7.318,186.9a.786.786,0,0,1-1.215.486l-2.172-1.5-2.358,2.358,1.494,2.172a.786.786,0,0,1-.486,1.215L0,192.174v3.145l2.583.543a.786.786,0,0,1,.486,1.215l-1.5,2.172,2.358,2.358L6.1,200.114a.786.786,0,0,1,1.216.486l.542,2.58h3.145l.542-2.584a.786.786,0,0,1,1.216-.486l2.172,1.5L17.4,199.14A4.578,4.578,0,0,0,15.37,196.228Zm0,0" transform="translate(1396 10.173)" fill="#ecf4ff"/>
    <path id="Path_2443" data-name="Path 2443" d="M118.391,54.462A14.151,14.151,0,1,0,96.605,66.378a4.508,4.508,0,0,1,2.132,3.775V73.33a2.358,2.358,0,0,0,2.358,2.358h6.289a2.359,2.359,0,0,0,2.358-2.358V70.218a4.631,4.631,0,0,1,2.178-3.87A14.139,14.139,0,0,0,118.391,54.462Zm0,0" transform="translate(1314.765 140.023)" fill="#ffb41f"/>
    <path id="Path_2445" data-name="Path 2445" d="M194.105,416.313h7.861v1.572h-7.861Zm0,0" transform="translate(1220.969 -199.029)" fill="#c9c9c9"/>
  </g>
</svg>
