<svg xmlns="http://www.w3.org/2000/svg" width="50.844" height="50" viewBox="0 0 50.844 50">
  <g id="POS" transform="translate(-1535 -171)">
    <path id="Path_3028" data-name="Path 3028" d="M174.7,286.27h14.984V293.6H174.7Z" transform="translate(1378.168 -86.406)" fill="#5d656e"/>
    <path id="Path_3030" data-name="Path 3030" d="M49.677,363.01H1.167A1.167,1.167,0,0,1,0,361.843V349.378a1.167,1.167,0,0,1,1.167-1.167h48.51a1.167,1.167,0,0,1,1.167,1.167v12.465A1.167,1.167,0,0,1,49.677,363.01Z" transform="translate(1535 -142.01)" fill="#7f8a96"/>
    <path id="Path_3031" data-name="Path 3031" d="M89.643,33.983H51.028a.932.932,0,0,1-.932-.932V5.057a.932.932,0,0,1,.932-.932H89.643a.932.932,0,0,1,.932.932V33.051A.932.932,0,0,1,89.643,33.983Z" transform="translate(1490.029 166.875)" fill="#7f8a96"/>
    <path id="Path_3032" data-name="Path 3032" d="M84.486,60.248V39.6a1.089,1.089,0,0,1,1.089-1.089H116.84a1.089,1.089,0,0,1,1.089,1.089V60.248a1.089,1.089,0,0,1-1.089,1.089H85.575A1.089,1.089,0,0,1,84.486,60.248Z" transform="translate(1459.157 136.003)" fill="#f2f5fb"/>
    <path id="Path_3033" data-name="Path 3033" d="M373.815,38.515h-3.069a1.089,1.089,0,0,1,1.089,1.089V60.248a1.089,1.089,0,0,1-1.089,1.089h3.069a1.089,1.089,0,0,0,1.089-1.089V39.6A1.089,1.089,0,0,0,373.815,38.515Z" transform="translate(1202.182 136.003)" fill="#e6e8f0"/>
    <path id="Path_3034" data-name="Path 3034" d="M458.6,348.211h-3.011a1.167,1.167,0,0,1,1.167,1.167v12.465a1.167,1.167,0,0,1-1.167,1.167H458.6a1.167,1.167,0,0,0,1.167-1.167V349.378A1.167,1.167,0,0,0,458.6,348.211Z" transform="translate(1126.017 -142.01)" fill="#747e8a"/>
    <path id="Path_3035" data-name="Path 3035" d="M409.738,4.125h-3.069a.932.932,0,0,1,.932.932V33.051a.932.932,0,0,1-.932.932h3.069a.932.932,0,0,0,.932-.932V5.057a.932.932,0,0,0-.932-.932Z" transform="translate(1169.934 166.875)" fill="#747e8a"/>
    <circle id="Ellipse_102" data-name="Ellipse 102" cx="2.24" cy="2.24" r="2.24" transform="translate(1576.388 211.36)" fill="#e7e7e7"/>
    <path id="Path_3036" data-name="Path 3036" d="M308.8,182.729h-5.7a.816.816,0,0,1-.816-.816v-3.27a.816.816,0,0,1,.816-.816h5.7a.816.816,0,0,1,.816.816v3.27A.816.816,0,0,1,308.8,182.729Z" transform="translate(1263.646 10.944)" fill="#ffa05b"/>
    <path id="Path_3037" data-name="Path 3037" d="M132.713,88.575H118.976a1,1,0,0,1-1.005-1.005V73.833a1,1,0,0,1,1.005-1.005h13.737a1,1,0,0,1,1.005,1.005V87.57A1,1,0,0,1,132.713,88.575Z" transform="translate(1429.098 105.2)" fill="#90d7a7"/>
    <path id="Path_3038" data-name="Path 3038" d="M101.487,414.578h-27.6a.767.767,0,1,1,0-1.535h27.6a.767.767,0,0,1,0,1.535Z" transform="translate(1469.357 -200.21)" fill="#5d656e"/>
    <path id="Path_3039" data-name="Path 3039" d="M312.775,133.611h-4.69a.767.767,0,1,1,0-1.535h4.69a.767.767,0,1,1,0,1.535Z" transform="translate(1259.121 52.014)" fill="#c9c9c9"/>
    <path id="Path_3040" data-name="Path 3040" d="M312.775,101.623h-4.69a.767.767,0,1,1,0-1.535h4.69a.767.767,0,1,1,0,1.535Z" transform="translate(1259.121 80.729)" fill="#c9c9c9"/>
    <path id="Path_3041" data-name="Path 3041" d="M133.719,83.893H129.3V81.469h4.419V79.934H129.3V77.51h4.419V75.975H129.3V72.828h-1.535v3.147h-3.839V72.828h-1.535v3.147h-4.419V77.51h4.419v2.424h-4.419v1.535h4.419v2.424h-4.419v1.535h4.419v3.148h1.535V85.427h3.839v3.148H129.3V85.427h4.419Zm-5.954,0h-3.839V81.469h3.839Zm0-3.959h-3.839V77.51h3.839Z" transform="translate(1429.097 105.2)" fill="#72c888"/>
  </g>
</svg>
