<svg xmlns="http://www.w3.org/2000/svg" width="50.375" height="50" viewBox="0 0 50.375 50">
  <g id="Price" transform="translate(-1275 -302)">
    <path id="Path_2611" data-name="Path 2611" d="M92.58,283.476l8.548-4.038a3.953,3.953,0,0,1,5.223,1.584l-17.376,11.24a11.939,11.939,0,0,1-7.455.844l-11.984-3.363a4.435,4.435,0,0,0-3.293.361l-2.506,1.34.338-12.222.1,0a11.725,11.725,0,0,1,12.185-.852l.717.371a8.363,8.363,0,0,0,3.623.935l7.044.2A5.24,5.24,0,0,1,92.58,283.476Zm0,0" transform="translate(1219.023 58.64)" fill="#f7caa5"/>
    <path id="Path_2612" data-name="Path 2612" d="M146.82,13.9a4.558,4.558,0,0,1,0,5.177,4.57,4.57,0,0,0-.807,2.593c0,.084,0,.169.008.254l0,.034a4.681,4.681,0,0,1-2.677,4.456l-.019.009a4.793,4.793,0,0,0-2.159,2.077l-.009.017a4.924,4.924,0,0,1-4.633,2.574h-.034a5.022,5.022,0,0,0-2.959.77,5.047,5.047,0,0,1-5.381,0,5.019,5.019,0,0,0-2.684-.777c-.091,0-.184,0-.275.007h-.034a4.923,4.923,0,0,1-4.632-2.574l-.009-.017a4.8,4.8,0,0,0-2.159-2.077l-.019-.009a4.678,4.678,0,0,1-2.677-4.456l0-.034a4.575,4.575,0,0,0-.8-2.847,4.553,4.553,0,0,1,0-5.177,4.571,4.571,0,0,0,.807-2.594c0-.084,0-.169-.007-.253l0-.033a4.676,4.676,0,0,1,2.677-4.456l.019-.009a4.8,4.8,0,0,0,2.159-2.078l.009-.017a4.925,4.925,0,0,1,4.632-2.576l.034,0a5.037,5.037,0,0,0,2.959-.77,5.049,5.049,0,0,1,5.381,0,5.038,5.038,0,0,0,2.959.77l.034,0a4.926,4.926,0,0,1,4.633,2.576l.009.017a4.8,4.8,0,0,0,2.159,2.078l.019.009a4.678,4.678,0,0,1,2.677,4.456l0,.033A4.572,4.572,0,0,0,146.82,13.9Zm0,0" transform="translate(1174.828 301.659)" fill="#1b904c"/>
    <path id="Path_2613" data-name="Path 2613" d="M88.966,279.139h-.027l-11.579-.318a.975.975,0,0,1,.053-1.948l10.494.288a4.212,4.212,0,0,0-.125-.469,4.274,4.274,0,0,0-3.937-2.934l-7.045-.2a9.4,9.4,0,0,1-4.044-1.044l-.717-.371a10.71,10.71,0,0,0-11.172.782.974.974,0,1,1-1.129-1.588,12.651,12.651,0,0,1,13.2-.923l.717.371a7.438,7.438,0,0,0,3.2.826l7.045.2a6.209,6.209,0,0,1,6.041,6.382.974.974,0,0,1-.974.948Zm0,0" transform="translate(1222.896 65.729)" fill="#edb288"/>
    <path id="Path_2617" data-name="Path 2617" d="M7.762,281.338l-.038,1.378L0,282.5l.466-16.952,7.725.212L8.1,269.116Zm0,0" transform="translate(1275 68.745)" fill="#00acea"/>
    <path id="Path_2619" data-name="Path 2619" d="M153.095,307.275a2.245,2.245,0,0,1,2.242,2.243,1.185,1.185,0,1,0,2.369,0,4.62,4.62,0,0,0-3.427-4.457v-.853a1.185,1.185,0,1,0-2.369,0v.853a4.612,4.612,0,0,0,1.185,9.069,2.242,2.242,0,1,1,.025,4.484h-.049a2.244,2.244,0,0,1-2.218-2.241,1.185,1.185,0,0,0-2.369,0,4.62,4.62,0,0,0,3.427,4.457v1.009a1.185,1.185,0,0,0,2.369,0v-1.009a4.612,4.612,0,0,0-1.185-9.069,2.242,2.242,0,0,1,0-4.485Z" transform="translate(1152.92 4.75)" fill="#fbe9d8"/>
  </g>
</svg>
