<svg xmlns="http://www.w3.org/2000/svg" width="37.811" height="50" viewBox="0 0 37.811 50">
  <g id="Purchase" transform="translate(-1151 -41.654)">
    <rect id="Rectangle_781" data-name="Rectangle 781" width="12.116" height="3.134" transform="translate(1176.695 70.31)"/>
    <path id="Path_3094" data-name="Path 3094" d="M-1678.209,199.856a2.085,2.085,0,0,1,2.071-2.145,2.122,2.122,0,0,1,1.985,2.19,2.155,2.155,0,0,1-2.057,2.189A2.136,2.136,0,0,1-1678.209,199.856Z" transform="translate(2839.753 -127.535)" fill="#285680"/>
    <path id="Path_3095" data-name="Path 3095" d="M-1616.685,199.869a2.087,2.087,0,0,1,2.054-2.16,2.127,2.127,0,0,1,2,2.176,2.163,2.163,0,0,1-2.045,2.2A2.128,2.128,0,0,1-1616.685,199.869Z" transform="translate(2784.656 -127.533)" fill="#285680"/>
    <path id="Path_3096" data-name="Path 3096" d="M-1741.835,258.146a2.145,2.145,0,0,1,2.049-2.19,2.154,2.154,0,0,1,2.007,2.233,2.1,2.1,0,0,1-2.024,2.144A2.1,2.1,0,0,1-1741.835,258.146Z" transform="translate(2896.733 -179.695)" fill="#285680"/>
    <path id="Path_3097" data-name="Path 3097" d="M-1678.206,258.138a2.131,2.131,0,0,1,2.048-2.184,2.16,2.16,0,0,1,2.008,2.185,2.116,2.116,0,0,1-2.034,2.192A2.092,2.092,0,0,1-1678.206,258.138Z" transform="translate(2839.751 -179.695)" fill="#285680"/>
    <path id="Path_3098" data-name="Path 3098" d="M-1737.782,315.065a2.1,2.1,0,0,1-2,2.166,2.094,2.094,0,0,1-2.054-2.165,2.143,2.143,0,0,1,2.027-2.212A2.15,2.15,0,0,1-1737.782,315.065Z" transform="translate(2896.736 -230.651)" fill="#285680"/>
    <path id="Path_3099" data-name="Path 3099" d="M-1737.782,199.883a2.144,2.144,0,0,1-2.035,2.206,2.143,2.143,0,0,1-2.021-2.218,2.108,2.108,0,0,1,2.008-2.163A2.1,2.1,0,0,1-1737.782,199.883Z" transform="translate(2896.736 -127.532)" fill="#285680"/>
    <path id="Path_3100" data-name="Path 3100" d="M-1678.2,315.036a2.134,2.134,0,0,1,2.048-2.186,2.161,2.161,0,0,1,2.007,2.186,2.112,2.112,0,0,1-2.033,2.192A2.092,2.092,0,0,1-1678.2,315.036Z" transform="translate(2839.749 -230.648)" fill="#285680"/>
    <path id="Path_3101" data-name="Path 3101" d="M-1614.666,317.233a2.09,2.09,0,0,1-2.008-2.2,2.129,2.129,0,0,1,2.005-2.173,2.163,2.163,0,0,1,2.05,2.2A2.118,2.118,0,0,1-1614.666,317.233Z" transform="translate(2784.646 -230.653)" fill="#285680"/>
    <path id="Path_3102" data-name="Path 3102" d="M-1616.686,258.169a2.126,2.126,0,0,1,2.021-2.209,2.17,2.17,0,0,1,2.036,2.211,2.126,2.126,0,0,1-2.013,2.165A2.086,2.086,0,0,1-1616.686,258.169Z" transform="translate(2784.656 -179.7)" fill="#285680"/>
    <path id="Path_3103" data-name="Path 3103" d="M-1758.736-17.278v-5.963a4.172,4.172,0,0,1,2.676,1.062,5.3,5.3,0,0,1,1.828,4.257q0,5.084,0,10.167c0,7.89.012,15.781-.021,23.671a6.445,6.445,0,0,1-.464,2.427,4.527,4.527,0,0,1-4.435,2.957q-7.558.024-15.117,0a4.856,4.856,0,0,1-4.865-4.887c-.037-3.806-.015-7.612-.016-11.418q0-11.418-.007-22.837a5.332,5.332,0,0,1,2.041-4.517,4.2,4.2,0,0,1,2.653-.887v5.967Zm-7.953,4.193v0c-1.632,0-3.267-.05-4.9.024a5.311,5.311,0,0,0-2.039.515,4.813,4.813,0,0,0-2.446,5.235,4.51,4.51,0,0,0,4.258,3.838c3.418.087,6.839.024,10.26.015a3.235,3.235,0,0,0,.769-.116,4.815,4.815,0,0,0,3.516-5.277,4.693,4.693,0,0,0-4.63-4.235C-1763.494-13.1-1765.092-13.086-1766.689-13.086Zm-1.93,15.064a2.139,2.139,0,0,0,2.005,2.235,2.159,2.159,0,0,0,2.064-2.189,2.125,2.125,0,0,0-1.992-2.19A2.088,2.088,0,0,0-1768.619,1.979Zm6.448.015a2.13,2.13,0,0,0,2.018,2.22,2.167,2.167,0,0,0,2.052-2.2,2.13,2.13,0,0,0-2.01-2.176A2.09,2.09,0,0,0-1762.172,1.994Zm-13.115,6.114a2.1,2.1,0,0,0,2.038,2.187,2.1,2.1,0,0,0,2.031-2.144,2.157,2.157,0,0,0-2.013-2.233A2.148,2.148,0,0,0-1775.287,8.108Zm6.668-.006a2.1,2.1,0,0,0,2.028,2.193A2.119,2.119,0,0,0-1764.55,8.1a2.163,2.163,0,0,0-2.014-2.185A2.134,2.134,0,0,0-1768.619,8.1Zm-2.6,5.97a2.153,2.153,0,0,0-2.036-2.211,2.145,2.145,0,0,0-2.033,2.212,2.1,2.1,0,0,0,2.06,2.165A2.106,2.106,0,0,0-1771.218,14.072Zm0-12.063a2.108,2.108,0,0,0-2.055-2.175A2.111,2.111,0,0,0-1775.287,2a2.146,2.146,0,0,0,2.028,2.218A2.147,2.147,0,0,0-1771.218,2.009Zm2.6,12.037a2.1,2.1,0,0,0,2.029,2.192,2.115,2.115,0,0,0,2.04-2.192,2.164,2.164,0,0,0-2.014-2.186A2.138,2.138,0,0,0-1768.619,14.046Zm8.463,2.191a2.122,2.122,0,0,0,2.055-2.18,2.166,2.166,0,0,0-2.057-2.2,2.132,2.132,0,0,0-2.012,2.173A2.093,2.093,0,0,0-1760.156,16.237Zm-2.016-8.11a2.089,2.089,0,0,0,2.051,2.168,2.129,2.129,0,0,0,2.02-2.165,2.173,2.173,0,0,0-2.043-2.211A2.129,2.129,0,0,0-1762.172,8.127Z" transform="translate(2930.157 70.342)" fill="#fd815c"/>
    <path id="Path_3104" data-name="Path 3104" d="M-1718-73.825l1.916-1.529,1.8,1.593,1.751-1.553v10.422h-14.2V-75.321l1.789,1.4,1.913-1.43,1.709,1.5,1.694-1.494Z" transform="translate(2883.21 117.009)" fill="#fff"/>
    <path id="Path_3105" data-name="Path 3105" d="M-1533.011,121.137v-9.11c.165-.012.315-.033.465-.033q4.481,0,8.962,0a2.511,2.511,0,0,1,2.637,2.558c.029,2.185.007,4.37.007,6.587Zm7.124-4.125c.955.874,1.914.939,2.651.208a2.018,2.018,0,0,0,.089-2.7c-.717-.819-1.647-.793-2.734.077-1.043-.86-1.98-.9-2.7-.113a1.994,1.994,0,0,0,.1,2.774A1.75,1.75,0,0,0-1525.887,117.012Z" transform="translate(2709.722 -50.768)" fill="#edb740"/>
    <path id="Path_3106" data-name="Path 3106" d="M-1532.906,229.241h11.982a2.455,2.455,0,0,1-1.808,2.765,3.089,3.089,0,0,1-.67.078q-4.582.009-9.164,0c-.1,0-.2-.017-.339-.03Z" transform="translate(2709.627 -155.772)" fill="#edb740"/>
    <path id="Path_3107" data-name="Path 3107" d="M-1741.046,73.906c1.6,0,3.195-.012,4.792,0,2.4.021,4.325,2.1,4.63,4.967.3,2.827-1.222,5.514-3.516,6.19a2.8,2.8,0,0,1-.769.136c-3.42.01-6.842.084-10.26-.018-2.171-.065-3.807-1.928-4.258-4.5-.427-2.434.581-5.07,2.446-6.14a4.7,4.7,0,0,1,2.039-.6c1.629-.086,3.263-.028,4.9-.028Z" transform="translate(2904.514 -18.321)" fill="#fff"/>
    <path id="Path_3108" data-name="Path 3108" d="M-1492.28,133.552a1.749,1.749,0,0,1-2.592.244,1.994,1.994,0,0,1-.1-2.774c.717-.787,1.654-.747,2.7.113,1.087-.869,2.017-.9,2.734-.077a2.018,2.018,0,0,1-.089,2.7C-1490.366,134.491-1491.325,134.426-1492.28,133.552Z" transform="translate(2676.114 -67.308)"/>
    <path id="Path_3109" data-name="Path 3109" d="M-1703.322-43.769h-3.812a.366.366,0,0,1-.366-.366.366.366,0,0,1,.366-.366h3.813a.366.366,0,0,1,.366.366A.366.366,0,0,1-1703.322-43.769Z" transform="translate(2865.985 89.377)"/>
    <path id="Path_3110" data-name="Path 3110" d="M-1697.3-24.269h-9.9a.337.337,0,0,1-.3-.366.337.337,0,0,1,.3-.366h9.9a.337.337,0,0,1,.3.366A.337.337,0,0,1-1697.3-24.269Z" transform="translate(2865.985 71.913)"/>
    <path id="Path_3111" data-name="Path 3111" d="M-1697.3-11.269h-9.9a.337.337,0,0,1-.3-.366.337.337,0,0,1,.3-.366h9.9a.337.337,0,0,1,.3.366A.337.337,0,0,1-1697.3-11.269Z" transform="translate(2865.985 60.376)"/>
  </g>
</svg>
