<svg xmlns="http://www.w3.org/2000/svg" width="56.451" height="50" viewBox="0 0 56.451 50">
  <g id="registry" transform="translate(-0.674 -1.883)">
    <g id="Group_31818" data-name="Group 31818" transform="translate(0.674 1.883)">
      <path id="Path_12371" data-name="Path 12371" d="M.674,8.02c.25-.248.262-.683.65-.821A12.635,12.635,0,0,0,2.94,8.893c.864.858,1.671,1.777,2.618,2.55-.011.219-.031.439-.031.658q0,15.258,0,30.516c0,.514.012,1.027.018,1.541L5.525,46.49q-2.091,2.2-4.291,4.287c-.31-.168-.332-.544-.56-.772Z" transform="translate(-0.674 -6.611)" fill="#f0c42c"/>
      <path id="Path_12372" data-name="Path 12372" d="M10.788,6.715c-.947-.773-1.754-1.692-2.618-2.55A12.628,12.628,0,0,1,6.555,2.471,1.749,1.749,0,0,1,7.867,1.9a2.919,2.919,0,0,1,.44-.007q25.818,0,51.636,0a2.011,2.011,0,0,1,1.752.581c-.062.227-.26.346-.41.5-1.254,1.3-2.589,2.515-3.8,3.858a12.514,12.514,0,0,0-2.533-.067c-.238-.011-.475-.031-.713-.031l-42.8,0c-.22,0-.44-.01-.66-.015" transform="translate(-5.904 -1.883)" fill="#f0c42c"/>
      <path id="Path_12373" data-name="Path 12373" d="M466.673,11.556c1.207-1.343,2.542-2.561,3.8-3.858.15-.155.347-.274.41-.5a1.45,1.45,0,0,1,.649,1.144,2.264,2.264,0,0,1,.005.385q0,19.846,0,39.691a2.682,2.682,0,0,1-.8,2.028c-.338-.062-.488-.363-.707-.57-1.149-1.088-2.194-2.282-3.4-3.317.014-.145.04-.291.04-.436q0-17.283,0-34.566" transform="translate(-415.087 -6.609)" fill="#f0c400"/>
      <path id="Path_12374" data-name="Path 12374" d="M5.737,366.656q2.2-2.085,4.291-4.287c.146.013.291.037.437.037q14.385,0,28.77,0,0,2.448,0,4.9-15.882,0-31.764,0a2.02,2.02,0,0,1-1.731-.639" transform="translate(-5.177 -322.49)" fill="#f0c42c"/>
      <path id="Path_12375" data-name="Path 12375" d="M308.51,339.312q0-2.448,0-4.9,0-1.73,0-3.459a5.719,5.719,0,0,0,.825-.008,1.683,1.683,0,0,1,1.733.909,6.764,6.764,0,0,0,1.083,1.238,1.042,1.042,0,0,0,1.559,0,6.057,6.057,0,0,0,.794-.977c.482-.654.951-1.327,1.926-1.2.27.036.545.029.818.042q.007,1.719.014,3.438,0,2.462.009,4.924c0,1.337,0,2.675-.012,4.012-.008,1.053-.651,1.442-1.608.974q-1.06-.519-2.107-1.065a1.3,1.3,0,0,0-1.305.007c-.71.38-1.433.735-2.158,1.087a.991.991,0,0,1-1.56-.956c-.009-1.356-.008-2.712-.012-4.067" transform="translate(-274.455 -294.503)" fill="#fe5161"/>
      <path id="Path_12376" data-name="Path 12376" d="M387.641,367.424q0-2.462-.01-4.924c.255.014.511.041.766.042q3.987.01,7.973.013c1.2,1.034,2.247,2.229,3.4,3.317.219.207.369.508.707.57a2.871,2.871,0,0,1-2.344.967q-4.916,0-9.831,0c-.22,0-.439.009-.659.013" transform="translate(-344.823 -322.606)" fill="#f0c42c"/>
      <path id="Path_12377" data-name="Path 12377" d="M91.224,80.7q-3.987-.006-7.973-.013c-.256,0-.511-.028-.766-.042q-.007-1.719-.014-3.438c.346.03.692.066,1.039.089,1.008.067,1.524-.44,1.454-1.449a11.206,11.206,0,0,0-.157-1.142,2.1,2.1,0,0,1,.912-2.393,7.151,7.151,0,0,0,1.192-.97,1.122,1.122,0,0,0-.008-1.781,6.9,6.9,0,0,0-1.192-.973,2.075,2.075,0,0,1-.917-2.291c.065-.379.118-.76.165-1.141.125-1.027-.322-1.533-1.35-1.515a5.9,5.9,0,0,0-.984.089,2.4,2.4,0,0,1-2.836-1.115,4.915,4.915,0,0,0-.812-.966,1.07,1.07,0,0,0-1.726,0,10.429,10.429,0,0,0-1.082,1.315,1.847,1.847,0,0,1-1.794.83,13.966,13.966,0,0,0-2.027-.155.977.977,0,0,0-1.04,1.033,5.16,5.16,0,0,0,.079,1.26A2.4,2.4,0,0,1,70.252,68.8a4.489,4.489,0,0,0-.781.606c-.794.732-.8,1.31-.017,2.037a15.651,15.651,0,0,0,1.24,1,1.751,1.751,0,0,1,.759,1.716c-.07.6-.132,1.2-.148,1.806-.026.975.459,1.4,1.442,1.319.328-.027.656-.059.984-.088q0,1.729,0,3.459-14.385,0-28.77,0c-.146,0-.291-.024-.437-.037l.019-2.331a1.007,1.007,0,0,0,.087-.25,31.256,31.256,0,0,1,.845-5.5,29.107,29.107,0,0,1,2.636-6.83,28.741,28.741,0,0,1,4.257-5.887A28.447,28.447,0,0,1,55.59,56.85a5.441,5.441,0,0,1,1.841-1.245c-.093.345-.332.66-.188,1.053.165.449.612.7,1.312.7H75.137c.771,0,1.543.009,2.314,0a1.064,1.064,0,0,0,1.141-.9c.069-.653-.4-1.076-1.207-1.077q-9.282,0-18.565,0a2.968,2.968,0,0,0-1.389.232c-.01-.156.108-.214.212-.289,1.035-.743,2.129-1.39,3.216-2.051.438-.266.985-.375,1.3-.835.2-.007.4-.02.6-.02q5.975,0,11.951,0a.939.939,0,1,0,.058-1.876c-.183-.014-.367,0-.551,0L67.01,50.5c.023-.125.113-.165.224-.206.96-.352,1.9-.753,2.878-1.062a72.658,72.658,0,0,1,8.953-2.262,71.14,71.14,0,0,1,9.3-1.178c.142-.007.305.033.359-.165a12.506,12.506,0,0,1,2.533.067q0,17.283,0,34.566c0,.145-.026.291-.04.436M59.955,66.9a4.839,4.839,0,0,0,1.6-2.368,2.25,2.25,0,0,0-1.455-3,5.5,5.5,0,0,0-3.93.019,2.225,2.225,0,0,0-1.421,2.841,4.519,4.519,0,0,0,1.325,2.238c.244.233.261.32-.085.467a12.943,12.943,0,0,1-4.491.945c-.691.034-1.114.376-1.119.945-.005.589.437.951,1.159.956A12.629,12.629,0,0,0,57.515,68.5a1.253,1.253,0,0,1,1.277-.012,13,13,0,0,0,6.145,1.446.949.949,0,1,0,.019-1.9c-.42-.027-.842-.049-1.26-.1A11.176,11.176,0,0,1,59.955,66.9m-1.808,6.983c2.183,0,4.367,0,6.55,0,.785,0,1.213-.344,1.228-.955.016-.674-.356-1.012-1.136-1.013q-6.606,0-13.211,0a2.046,2.046,0,0,0-.33.009.961.961,0,0,0-.855.814.9.9,0,0,0,.562,1.024,1.621,1.621,0,0,0,.751.125q3.22,0,6.44,0" transform="translate(-39.677 -40.747)" fill="#fefefe"/>
      <path id="Path_12378" data-name="Path 12378" d="M90.5,45.609c-.056.212-.225.17-.373.177a71.912,71.912,0,0,0-9.678,1.262,73.8,73.8,0,0,0-9.312,2.423c-1.013.332-2,.761-2.994,1.138-.116.044-.209.087-.233.221-.152.008-.3.023-.455.023-1.844,0-3.688,0-5.532,0-.718,0-1.242.443-1.2,1.033a1.035,1.035,0,0,0,1.172,1,7.278,7.278,0,0,1,.968.01c-.327.492-.9.609-1.352.894-1.131.708-2.269,1.4-3.345,2.2-.109.08-.231.143-.221.31h0a5.651,5.651,0,0,0-1.916,1.334,29.946,29.946,0,0,0-3.348,3.193,30.767,30.767,0,0,0-4.428,6.306,31.752,31.752,0,0,0-2.742,7.317,34.414,34.414,0,0,0-.879,5.888,1.1,1.1,0,0,1-.09.268c-.007-.55-.019-1.1-.019-1.651q0-16.346,0-32.691c0-.235.021-.47.032-.705.229.006.458.016.686.016l44.514,0c.247,0,.494.021.742.033" transform="translate(-39.677 -40.726)" fill="#fefefe"/>
      <path id="Path_12379" data-name="Path 12379" d="M269.428,202.8c-.328.03-.656.061-.984.088-.983.082-1.468-.344-1.442-1.319.016-.6.078-1.206.147-1.806a1.751,1.751,0,0,0-.759-1.716,15.651,15.651,0,0,1-1.24-1c-.787-.727-.777-1.3.017-2.037a4.487,4.487,0,0,1,.781-.606,2.4,2.4,0,0,0,1.134-2.878,5.16,5.16,0,0,1-.079-1.26.976.976,0,0,1,1.04-1.033,13.95,13.95,0,0,1,2.027.155,1.847,1.847,0,0,0,1.794-.83,10.428,10.428,0,0,1,1.082-1.315,1.07,1.07,0,0,1,1.726,0,4.918,4.918,0,0,1,.812.966,2.4,2.4,0,0,0,2.836,1.115,5.9,5.9,0,0,1,.984-.089c1.028-.017,1.475.488,1.35,1.515-.046.382-.1.763-.165,1.141a2.075,2.075,0,0,0,.917,2.291,6.9,6.9,0,0,1,1.192.973,1.121,1.121,0,0,1,.008,1.781,7.146,7.146,0,0,1-1.192.97,2.1,2.1,0,0,0-.912,2.393,11.23,11.23,0,0,1,.157,1.142c.07,1.009-.446,1.516-1.454,1.45-.347-.023-.693-.059-1.039-.089-.273-.013-.548-.006-.818-.042-.975-.129-1.445.544-1.926,1.2a6.058,6.058,0,0,1-.794.977,1.042,1.042,0,0,1-1.559,0,6.762,6.762,0,0,1-1.083-1.238,1.683,1.683,0,0,0-1.733-.909,5.719,5.719,0,0,1-.825.008m7.732-6.7a3.324,3.324,0,0,0-3.284-3.452,3.4,3.4,0,1,0-.049,6.807,3.29,3.29,0,0,0,3.333-3.355" transform="translate(-235.373 -166.345)" fill="#fc7a73"/>
      <path id="Path_12380" data-name="Path 12380" d="M106.981,192.232a11.174,11.174,0,0,0,3.742,1.046c.418.047.84.07,1.26.1a.949.949,0,1,1-.019,1.9,13,13,0,0,1-6.145-1.446,1.253,1.253,0,0,0-1.277.012,12.631,12.631,0,0,1-5.979,1.436c-.722-.006-1.164-.367-1.159-.956.005-.569.428-.912,1.119-.945a12.941,12.941,0,0,0,4.491-.945c.346-.147.33-.234.085-.467a4.519,4.519,0,0,1-1.325-2.238,2.225,2.225,0,0,1,1.421-2.841,5.5,5.5,0,0,1,3.93-.019,2.25,2.25,0,0,1,1.455,3,4.839,4.839,0,0,1-1.6,2.368m-1.8-3.713a4.24,4.24,0,0,0-1.129.112c-.433.16-.566.4-.355.838a4.7,4.7,0,0,0,1.248,1.5.337.337,0,0,0,.488.005,3.968,3.968,0,0,0,1.274-1.547c.168-.4.046-.656-.377-.8a4.527,4.527,0,0,0-1.148-.111" transform="translate(-86.703 -166.084)" fill="#95a5a5"/>
      <path id="Path_12381" data-name="Path 12381" d="M159.294,134.333a2.967,2.967,0,0,1,1.389-.231q9.282.009,18.565,0c.806,0,1.276.424,1.207,1.077a1.064,1.064,0,0,1-1.141.9c-.771.013-1.542,0-2.314,0H160.419c-.7,0-1.147-.249-1.312-.7-.144-.394.095-.708.188-1.053h0" transform="translate(-141.54 -119.475)" fill="#bdc3c7"/>
      <path id="Path_12382" data-name="Path 12382" d="M105.152,285.507q-3.22,0-6.44,0a1.621,1.621,0,0,1-.751-.125.9.9,0,0,1-.562-1.024.962.962,0,0,1,.855-.814,2.046,2.046,0,0,1,.33-.009q6.605,0,13.211,0c.781,0,1.152.338,1.136,1.013-.015.611-.443.953-1.228.955-2.183,0-4.367,0-6.55,0" transform="translate(-86.682 -252.376)" fill="#96a6a6"/>
      <path id="Path_12383" data-name="Path 12383" d="M187.346,91.984a7.207,7.207,0,0,0-.931-.01.985.985,0,0,1-1.127-.931c-.042-.551.461-.963,1.151-.964,1.773,0,3.546,0,5.319,0,.146,0,.292-.014.438-.021l7.213.026c.184,0,.368-.009.551,0a.939.939,0,1,1-.059,1.876q-5.975.005-11.951,0c-.2,0-.4.013-.6.02" transform="translate(-164.864 -80.3)" fill="#bcc2c6"/>
      <path id="Path_12384" data-name="Path 12384" d="M324.231,243.092a3.29,3.29,0,0,1-3.333,3.355,3.4,3.4,0,1,1,.049-6.807,3.324,3.324,0,0,1,3.284,3.452" transform="translate(-282.443 -213.337)" fill="#e04b5e"/>
      <path id="Path_12385" data-name="Path 12385" d="M154.961,204.681a4.527,4.527,0,0,1,1.148.111c.423.143.545.4.377.8a3.968,3.968,0,0,1-1.274,1.547.337.337,0,0,1-.488-.005,4.7,4.7,0,0,1-1.248-1.5c-.21-.438-.077-.678.355-.838a4.239,4.239,0,0,1,1.129-.112" transform="translate(-136.485 -182.246)" fill="#e9eeef"/>
    </g>
  </g>
</svg>
