<svg xmlns="http://www.w3.org/2000/svg" width="41.379" height="50" viewBox="0 0 41.379 50">
  <g id="Quotation" transform="translate(-1149 -172)">
    <path id="Path_2664" data-name="Path 2664" d="M105.379,74H64V24h37.931a3.448,3.448,0,0,1,3.448,3.448Z" transform="translate(1085 148)" fill="#fbe9d8"/>
    <path id="Path_2665" data-name="Path 2665" d="M96.621,65.241a8.621,8.621,0,1,1,8.621-8.621,8.621,8.621,0,0,1-8.621,8.621Zm0-15.517a6.9,6.9,0,1,0,6.9,6.9A6.9,6.9,0,0,0,96.621,49.724Z" transform="translate(1063.586 126.586)" fill="#e3d3c2"/>
    <g id="Group_25455" data-name="Group 25455" transform="translate(1153.31 178.034)">
      <path id="Path_2668" data-name="Path 2668" d="M149.172,86.9a2.589,2.589,0,0,0-2.586-2.586.862.862,0,1,1,.862-.862.862.862,0,1,0,1.724,0,2.59,2.59,0,0,0-1.724-2.438v-.148a.862.862,0,1,0-1.724,0v.148a2.586,2.586,0,0,0,.862,5.024.862.862,0,1,1-.862.862.862.862,0,1,0-1.724,0,2.59,2.59,0,0,0,1.724,2.438v.148a.862.862,0,1,0,1.724,0v-.148A2.59,2.59,0,0,0,149.172,86.9Z" transform="translate(-139.69 -80)" fill="#bfb1a3"/>
      <path id="Path_2670" data-name="Path 2670" d="M215.409,240H185.848c-1.02,0-1.848.386-1.848.862s.827.862,1.848.862h29.561c1.02,0,1.848-.386,1.848-.862S216.429,240,215.409,240Z" transform="translate(-184.498 -222.759)" fill="#bfb1a3"/>
      <path id="Path_2684" data-name="Path 2684" d="M312.862,129.724h8.621a.862.862,0,0,0,0-1.724h-8.621a.862.862,0,0,0,0,1.724Z" transform="translate(-289.586 -122.828)" fill="#bfb1a3"/>
    </g>
  </g>
</svg>
