<svg xmlns="http://www.w3.org/2000/svg" width="72.991" height="50" viewBox="0 0 72.991 50">
  <g id="sales" transform="translate(0 -163.615)">
    <path id="Path_3441" data-name="Path 3441" d="M140.4,329.462v19.352h15.947V321.469Zm0,0" transform="translate(-120.252 -135.198)" fill="#fd815c"/>
    <path id="Path_3442" data-name="Path 3442" d="M251.516,273.77v27.345h15.946V265.777Zm0,0" transform="translate(-215.418 -87.5)" fill="#fed15c"/>
    <path id="Path_3443" data-name="Path 3443" d="M362.625,253.416h15.947V210.086l-15.947,7.993Zm0,0" transform="translate(-310.581 -39.801)" fill="#e32218"/>
    <path id="Path_3444" data-name="Path 3444" d="M163.338,169.655c.008-.039.016-.078.021-.117s.011-.1.016-.144.008-.083.01-.124,0-.092,0-.138c0-.031,0-.063,0-.1,0-.011,0-.022,0-.034,0-.045-.007-.09-.012-.135s-.008-.087-.015-.13-.016-.087-.025-.131-.017-.088-.028-.131-.024-.082-.036-.123-.028-.09-.044-.135-.03-.076-.045-.113c-.006-.014-.011-.028-.017-.041s-.012-.033-.02-.049l-.007-.015c-.005-.011-.012-.022-.017-.033s-.012-.029-.019-.044-.025-.043-.036-.064c-.024-.044-.047-.086-.072-.128s-.047-.073-.071-.109-.05-.073-.077-.109-.057-.073-.086-.108-.055-.064-.083-.1-.063-.067-.1-.1-.063-.06-.1-.089-.066-.058-.1-.085-.072-.057-.11-.085-.066-.048-.1-.07-.082-.053-.124-.078-.068-.04-.1-.058-.086-.044-.131-.065-.076-.035-.115-.05-.085-.034-.128-.049-.089-.03-.133-.043l-.075-.024h0l-10.456-2.8a2.728,2.728,0,0,0-1.412,5.271l3.522.944-45.969,23.039a2.728,2.728,0,1,0,2.445,4.879l46.957-23.536-1.229,4.589a2.729,2.729,0,1,0,5.271,1.413l2.8-10.457c0-.015.006-.03.01-.045C163.319,169.755,163.329,169.706,163.338,169.655Zm0,0" transform="translate(-90.397)" fill="#1b904c"/>
    <path id="Path_3445" data-name="Path 3445" d="M32.13,402.755l-6.006-1.973H9.991L3.97,402.756A5.766,5.766,0,0,0,0,408.236v8.507H36.1v-8.51A5.767,5.767,0,0,0,32.13,402.755Zm0,0" transform="translate(0 -203.128)" fill="#7f8a96"/>
    <path id="Path_3446" data-name="Path 3446" d="M85.523,382.82H97.072v4.886H85.523Zm0,0" transform="translate(-73.249 -187.745)" fill="#474f58"/>
    <path id="Path_3447" data-name="Path 3447" d="M110.527,421.753h-4l-.888-4.886h5.774Zm0,0" transform="translate(-90.479 -216.905)" fill="#7eedfc"/>
    <path id="Path_3448" data-name="Path 3448" d="M57.664,385.93l5.775,6.219,4-4.442-5.774-4.886Zm0,0" transform="translate(-49.388 -187.745)" fill="#6a7480"/>
    <path id="Path_3449" data-name="Path 3449" d="M110.5,459.678l-1.072-8.768h-4l-1.072,8.768Zm0,0" transform="translate(-89.378 -246.062)" fill="#7eedfc"/>
    <path id="Path_3450" data-name="Path 3450" d="M67.71,196.964c-.279-1.078-1.468-2.6-5.972-2.6-6.96,0-7.95,1.03-9.8-.75-1.563-1.5-2.48,5.726-.4,8.021a15.5,15.5,0,0,0-.176,6.507h19.58S72.586,200.532,67.71,196.964Zm0,0" transform="translate(-43.104 -25.516)" fill="#384949"/>
    <path id="Path_3451" data-name="Path 3451" d="M51.934,195.4c1.852,1.78,2.843.749,9.8.749,4.5,0,5.693,1.527,5.972,2.6,2.587,1.893,3.339,4.923,3.475,7.351.136-2.51-.2-6.737-3.475-9.137-.279-1.077-1.468-2.6-5.972-2.6-6.96,0-7.95,1.03-9.8-.749-1.029-.989-1.779,1.809-1.575,4.489C50.508,196.14,51.137,194.634,51.934,195.4Zm0,0" transform="translate(-43.103 -25.519)" fill="#384949"/>
    <g id="Group_25618" data-name="Group 25618" transform="translate(6.281 181.418)">
      <path id="Path_3452" data-name="Path 3452" d="M103.712,348.785H94.836V354.8l4.438,3.756,4.442-3.758Zm0,0" transform="translate(-87.506 -340.012)" fill="#d9a171"/>
      <path id="Path_3453" data-name="Path 3453" d="M47.72,289.2a3.106,3.106,0,0,0-2.532-1.547c-1.688,0-2.884,7.423,2.532,6.185Zm0,0" transform="translate(-43.765 -287.656)" fill="#d9a171"/>
      <path id="Path_3454" data-name="Path 3454" d="M180.2,289.2a3.1,3.1,0,0,1,2.532-1.547c1.688,0,2.884,7.423-2.532,6.185Zm0,0" transform="translate(-160.615 -287.656)" fill="#d9a171"/>
    </g>
    <path id="Path_3455" data-name="Path 3455" d="M73.256,229.129c-12.934,0-10.461,21.213,0,21.213S86.19,229.129,73.256,229.129Zm0,0" transform="translate(-55.208 -56.111)" fill="#ecbd83"/>
    <path id="Path_3456" data-name="Path 3456" d="M72.854,220.714s-8.756-1.235-8.756,10c0,0,1.1-4.644,3.632-5.91,1.178-.59,1.61.9,5.125.9s3.946-1.494,5.125-.9c2.53,1.266,3.632,5.91,3.632,5.91C81.61,219.479,72.854,220.714,72.854,220.714Zm0,0" transform="translate(-54.898 -48.869)" fill="#384949"/>
    <path id="Path_3457" data-name="Path 3457" d="M73.258,220.845s-8.8-1.241-8.8,10.047c0,0,1.108-4.666,3.649-5.938,1.183-.593,1.617.909,5.149.909s3.965-1.5,5.148-.909c2.542,1.272,3.649,5.938,3.649,5.938C82.056,219.6,73.258,220.845,73.258,220.845Zm0,0" transform="translate(-55.21 -49.125)" fill="#384949"/>
    <path id="Path_3458" data-name="Path 3458" d="M135.531,385.93l-5.775,6.219-4-4.442,5.774-4.886Zm0,0" transform="translate(-107.709 -187.745)" fill="#6a7480"/>
    <path id="Path_3465" data-name="Path 3465" d="M104.6,498l-.246,2.009H110.5L110.253,498Zm0,0" transform="translate(-89.378 -286.394)" fill="#7eedfc"/>
  </g>
</svg>
