<svg xmlns="http://www.w3.org/2000/svg" width="53.765" height="54" viewBox="0 0 53.765 54">
  <g id="section" transform="translate(0 0.235)">
    <g id="Page-1">
      <g id="_016---Team-Organisation" data-name="016---Team-Organisation">
        <path id="Shape" d="M45.006,27.611H28.32V22.667H26.467v4.944H9.781A2.781,2.781,0,0,0,7,30.391v2.549H8.854V30.391a.927.927,0,0,1,.927-.927H26.467v4.944H28.32V29.465H45.006a.927.927,0,0,1,.927.927v2.549h1.854V30.391A2.781,2.781,0,0,0,45.006,27.611Z" transform="translate(-0.511 -1.655)" fill="#285680"/>
        <circle id="Oval" cx="5.5" cy="5.5" r="5.5" transform="translate(1.765 30.765)" fill="#fdd7ad"/>
        <path id="Shape-2" data-name="Shape" d="M14.832,50.562V55.2a1.868,1.868,0,0,1-1.854,1.854H1.854A1.86,1.86,0,0,1,0,55.2V50.562A5.562,5.562,0,0,1,5.562,45H9.27A5.562,5.562,0,0,1,14.832,50.562Z" transform="translate(0 -3.286)" fill="#3b97d3"/>
        <path id="Shape-3" data-name="Shape" d="M4.781,51.927v4.635a2.781,2.781,0,0,1-.158.927H2a.86.86,0,0,0,.64-.269.88.88,0,0,0,.287-.658V51.927a.927.927,0,1,1,1.854,0Z" transform="translate(-0.146 -3.724)" fill="#2980ba"/>
        <path id="Shape-4" data-name="Shape" d="M13.781,57.489H11.167A2.57,2.57,0,0,1,11,56.562V51.927a.927.927,0,1,1,1.854,0v4.635A.927.927,0,0,0,13.781,57.489Z" transform="translate(-0.803 -3.724)" fill="#2980ba"/>
        <circle id="Oval-2" data-name="Oval" cx="5.5" cy="5.5" r="5.5" transform="translate(21.765 30.765)" fill="#fdd7ad"/>
        <path id="Shape-5" data-name="Shape" d="M35.832,50.562V55.2a1.868,1.868,0,0,1-1.854,1.854H22.854A1.86,1.86,0,0,1,21,55.2V50.562A5.562,5.562,0,0,1,26.562,45H30.27A5.562,5.562,0,0,1,35.832,50.562Z" transform="translate(-1.533 -3.286)" fill="#f29c1f"/>
        <path id="Shape-6" data-name="Shape" d="M25.781,51.927v4.635a2.781,2.781,0,0,1-.158.927H23a.86.86,0,0,0,.64-.269.88.88,0,0,0,.287-.658V51.927a.927.927,0,1,1,1.854,0Z" transform="translate(-1.68 -3.724)" fill="#e57e25"/>
        <path id="Shape-7" data-name="Shape" d="M34.781,57.489H32.167A2.57,2.57,0,0,1,32,56.562V51.927a.927.927,0,1,1,1.854,0v4.635A.927.927,0,0,0,34.781,57.489Z" transform="translate(-2.337 -3.724)" fill="#e57e25"/>
        <circle id="Oval-3" data-name="Oval" cx="5.5" cy="5.5" r="5.5" transform="translate(40.765 30.765)" fill="#fdd7ad"/>
        <path id="Shape-8" data-name="Shape" d="M56.832,50.562V55.2a1.868,1.868,0,0,1-1.854,1.854H43.854A1.86,1.86,0,0,1,42,55.2V50.562A5.562,5.562,0,0,1,47.562,45H51.27A5.562,5.562,0,0,1,56.832,50.562Z" transform="translate(-3.067 -3.286)" fill="#ff5364"/>
        <path id="Shape-9" data-name="Shape" d="M46.781,51.927v4.635a2.781,2.781,0,0,1-.158.927H44a.86.86,0,0,0,.64-.269.88.88,0,0,0,.287-.658V51.927a.927.927,0,1,1,1.854,0Z" transform="translate(-3.213 -3.724)" fill="#df4d60"/>
        <path id="Shape-10" data-name="Shape" d="M55.781,57.489H53.167A2.57,2.57,0,0,1,53,56.562V51.927a.927.927,0,1,1,1.854,0v4.635A.927.927,0,0,0,55.781,57.489Z" transform="translate(-3.87 -3.724)" fill="#df4d60"/>
        <circle id="Oval-4" data-name="Oval" cx="5.5" cy="5.5" r="5.5" transform="translate(21.765 -0.235)" fill="#fdd7ad"/>
        <path id="Shape-11" data-name="Shape" d="M35.832,17.562V22.2a1.868,1.868,0,0,1-1.854,1.854H22.854A1.86,1.86,0,0,1,21,22.2V17.562A5.562,5.562,0,0,1,26.562,12H30.27A5.562,5.562,0,0,1,35.832,17.562Z" transform="translate(-1.533 -0.876)" fill="#e64c3c"/>
        <g id="Group_58658" data-name="Group 58658" transform="translate(21.32 16.686)">
          <path id="Shape-12" data-name="Shape" d="M25.781,18.927v4.635a2.781,2.781,0,0,1-.158.927H23a.86.86,0,0,0,.64-.269.88.88,0,0,0,.287-.658V18.927a.927.927,0,0,1,1.854,0Z" transform="translate(-23 -18)" fill="#c03a2b"/>
          <path id="Shape-13" data-name="Shape" d="M34.781,24.489H32.167A2.57,2.57,0,0,1,32,23.562V18.927a.927.927,0,0,1,1.854,0v4.635A.927.927,0,0,0,34.781,24.489Z" transform="translate(-23.657 -18)" fill="#c03a2b"/>
        </g>
      </g>
    </g>
  </g>
</svg>
