<svg id="_x31_4_security" xmlns="http://www.w3.org/2000/svg" width="42.187" height="50" viewBox="0 0 42.187 50">
  <path id="Path_2334" data-name="Path 2334" d="M60.486.237C56.834,3.553,49.51,5.918,40.879,6.278a.912.912,0,0,0-.874.91V24.415A24.045,24.045,0,0,0,52.189,45.331l7.646,4.336a2.562,2.562,0,0,0,2.527,0l7.646-4.336A24.045,24.045,0,0,0,82.191,24.415V7.188a.912.912,0,0,0-.874-.91C72.687,5.918,65.363,3.553,61.71.237a.909.909,0,0,0-1.224,0Z" transform="translate(-40.005 0)" fill="#2e7db9"/>
  <path id="Path_2335" data-name="Path 2335" d="M90.2,86.722A20.3,20.3,0,0,1,79.93,69.1V55.47a.842.842,0,0,1,.746-.837c6.38-.732,11.946-2.459,16.01-4.953a.838.838,0,0,1,.877,0c4.064,2.494,9.63,4.221,16.01,4.953a.842.842,0,0,1,.746.837V69.1a20.3,20.3,0,0,1-10.268,17.627L97.54,90.414a.843.843,0,0,1-.832,0Z" transform="translate(-76.031 -44.717)" fill="#d8ecfe"/>
  <path id="Path_2336" data-name="Path 2336" d="M188.541,104.4a7.309,7.309,0,0,0-7.3,7.3v4.774h2.868V111.7a4.433,4.433,0,1,1,8.866,0v4.774h2.868V111.7A7.309,7.309,0,0,0,188.541,104.4Z" transform="translate(-167.448 -94.207)" fill="#8d9ca8"/>
  <path id="Path_2337" data-name="Path 2337" d="M170.676,218.738H154.057a1.824,1.824,0,0,1-1.824-1.824V205.007a1.824,1.824,0,0,1,1.824-1.824h16.619a1.824,1.824,0,0,1,1.824,1.824v11.907A1.824,1.824,0,0,1,170.676,218.738Z" transform="translate(-141.273 -183.341)" fill="#596c76"/>
  <path id="Path_2338" data-name="Path 2338" d="M234.311,238.841a2.632,2.632,0,1,0-3.952,2.277v3.035a1.32,1.32,0,1,0,2.64,0v-3.035A2.63,2.63,0,0,0,234.311,238.841Z" transform="translate(-210.586 -213.142)" fill="#384949"/>
  <path id="Path_2339" data-name="Path 2339" d="M314.74,203.183h-2.852a1.824,1.824,0,0,1,1.824,1.824v11.907a1.824,1.824,0,0,1-1.824,1.824h2.852a1.824,1.824,0,0,0,1.824-1.824V205.007A1.824,1.824,0,0,0,314.74,203.183Z" transform="translate(-285.337 -183.341)" fill="#596c76"/>
  <g id="Group_25416" data-name="Group 25416" transform="translate(18.667 6.046)">
    <path id="Path_2340" data-name="Path 2340" d="M253.8,62.14q-1.643-.068-3.218-.232a.906.906,0,0,1,.217.589V79.724a24.044,24.044,0,0,1-12.184,20.915l-7.46,4.23,1.162.659a2.562,2.562,0,0,0,2.527,0l7.646-4.336a24.045,24.045,0,0,0,12.184-20.916V63.05a.911.911,0,0,0-.874-.91Z" transform="translate(-231.157 -61.908)" fill="#2e7db9"/>
  </g>
</svg>
