<svg id="Smarthome" xmlns="http://www.w3.org/2000/svg" width="56.757" height="50" viewBox="0 0 56.757 50">
  <path id="Path_2817" data-name="Path 2817" d="M60.361,91.423,33.334,64.4a1.351,1.351,0,0,0-1.911,0l-6.7,6.7V68.955A1.351,1.351,0,0,0,23.37,67.6H12.559a1.351,1.351,0,0,0-1.351,1.351V84.612L4.4,91.423a1.351,1.351,0,0,0,.956,2.307h5.856v18.919A1.351,1.351,0,0,0,12.559,114H52.2a1.351,1.351,0,0,0,1.351-1.351V93.73h5.856a1.351,1.351,0,0,0,.956-2.307Z" transform="translate(-4 -64.001)" fill="#d1e3f7"/>
  <g id="Group_25472" data-name="Group 25472" transform="translate(18.541 21.622)">
    <path id="Path_2822" data-name="Path 2822" d="M346.757,108.108a1.351,1.351,0,0,1-1.351-1.351,4.059,4.059,0,0,0-4.054-4.054,1.351,1.351,0,0,1,0-2.7,6.764,6.764,0,0,1,6.757,6.757A1.351,1.351,0,0,1,346.757,108.108Z" transform="translate(-340 -89.189)" fill="#1a74d7"/>
    <path id="Path_2823" data-name="Path 2823" d="M352.162,65.514a1.351,1.351,0,0,1-1.351-1.351,9.471,9.471,0,0,0-9.459-9.459,1.351,1.351,0,0,1,0-2.7,12.176,12.176,0,0,1,12.162,12.162A1.351,1.351,0,0,1,352.162,65.514Z" transform="translate(-340 -46.595)" fill="#1a74d7"/>
    <path id="Path_2824" data-name="Path 2824" d="M357.568,22.919a1.351,1.351,0,0,1-1.351-1.351A14.882,14.882,0,0,0,341.351,6.7a1.351,1.351,0,0,1,0-2.7,17.587,17.587,0,0,1,17.568,17.568A1.351,1.351,0,0,1,357.568,22.919Z" transform="translate(-340 -4)" fill="#1a74d7"/>
  </g>
</svg>
