<svg xmlns="http://www.w3.org/2000/svg" width="61.824" height="50" viewBox="0 0 61.824 50">
  <g id="states" transform="translate(-0.106 -0.096)">
    <g id="Group_31823" data-name="Group 31823" transform="translate(0.106 0.096)">
      <path id="Path_12386" data-name="Path 12386" d="M30.048,127.121h-2q-1.378-2.762-2.759-5.522c-.1-.191-.134-.476-.433-.469-.9.019-1.85-.248-2.544.7a.908.908,0,0,1-1.53-.177c-.814-1.354-1.622-2.711-2.438-4.064-.1-.172-.166-.454-.394-.444-.869.04-1.852-.368-2.506.6a.635.635,0,0,1-.862.206q-4.993-1.844-10-3.647a1.135,1.135,0,0,1-.721-.7q-.675-1.61-1.394-3.2c-.8-1.758-1.489-3.562-2.364-5.284V96c.658-1.036,1.1-2.182,1.692-3.253a2.507,2.507,0,0,0,.311-1.309c-.023-1.068-.007-2.137-.007-3.3.556.275,1.017.464,1.437.721a.653.653,0,0,0,1-.176A1.155,1.155,0,0,1,5.829,88.2c1.121.205,2.264.287,3.4.427q4.418.547,8.834,1.1a20.44,20.44,0,0,0,1.435,6.24c2.248,5.471,5.922,9.887,10.2,13.862.331.308.513.171.771-.062a46.733,46.733,0,0,0,4.488-4.681,33.137,33.137,0,0,0,6.329-10.955,6.616,6.616,0,0,0,.872-.013,1.6,1.6,0,0,1,1.516.629c.607.683,1.269,1.32,1.937,1.945a1.263,1.263,0,0,1,.419,1.042c-.024,1.291.006,2.582-.017,3.873-.007.408.118.563.529.524a1.458,1.458,0,0,0,.765-.193c.786-.544,1.585-1.071,2.386-1.592a.642.642,0,0,0,.325-.616C50,99.019,50.03,98.31,50,97.6c-.016-.4.132-.5.5-.488.6.025,1.208-.027,1.807.016.526.038.756-.092.7-.673-.055-.6.009-1.208-.019-1.81-.019-.4.107-.546.522-.535,1,.027,2-.008,2.992.017a.667.667,0,0,0,.715-.447c.35-.754.736-1.493,1.107-2.237.687-1.378.687-1.368,2.218-1.332a.512.512,0,0,1,.579.414c.208.7.442,1.387.693,2.07a1.3,1.3,0,0,1,0,1.022,9.923,9.923,0,0,0-.834,4.985c.042.425-.147.571-.535.657-1.013.226-2.014.5-3.024.742a.477.477,0,0,0-.445.542c-.009,3.4-.645,6.748-.944,10.124a1.228,1.228,0,0,1-.4.809q-2.128,2.109-4.234,4.239c-.157.158-.4.285-.391.54a6.993,6.993,0,0,0,.182,2.406c.881,2.29,1.714,4.6,2.594,6.89.187.488.094.6-.409.579-.934-.034-1.871-.039-2.8,0-.471.021-.643-.169-.776-.586-.516-1.625-1.081-3.234-1.594-4.86a.681.681,0,0,0-.781-.578,44.193,44.193,0,0,1-4.611-.018c-1.34-.114-2.231.214-2.575,1.593-.089.356-.345.449-.708.445-1.662-.018-3.325-.007-4.988-.009a1.643,1.643,0,0,0-.786.136c-1.11.567-2.222,1.13-3.344,1.674a.592.592,0,0,0-.378.629c.018.853.006,1.707.006,2.561" transform="translate(-0.106 -77.121)" fill="#9fd561"/>
      <path id="Path_12388" data-name="Path 12388" d="M157.151.1a3.251,3.251,0,0,0,1.174.292,12.074,12.074,0,0,1,9.239,13.1,33.68,33.68,0,0,1-.677,3.612,33.139,33.139,0,0,1-6.329,10.955,46.749,46.749,0,0,1-4.488,4.681c-.258.233-.44.37-.771.062-4.277-3.975-7.951-8.391-10.2-13.862a20.44,20.44,0,0,1-1.435-6.24c.005-.145.015-.29.015-.436A12,12,0,0,1,151.557.816c.848-.324,1.758-.392,2.6-.72Z" transform="translate(-125.772 -0.096)" fill="#ea505f"/>
      <circle id="Ellipse_265" data-name="Ellipse 265" cx="6" cy="6" r="6" transform="translate(23.894 4.49)" fill="#95333c"/>
    </g>
  </g>
</svg>
