<svg xmlns="http://www.w3.org/2000/svg" width="52" height="50" viewBox="0 0 52 50">
  <g id="Stock" transform="translate(-1404 -822)">
    <path id="Path_2510" data-name="Path 2510" d="M55,52v5H3V52H55Z" transform="translate(1401 815)" fill="#ee8700"/>
    <path id="Path_2511" data-name="Path 2511" d="M32,38H62V55.5H32Z" transform="translate(1383.25 811.5)" fill="#ffb655"/>
    <path id="Path_2512" data-name="Path 2512" d="M47,34H58.25v5H47Z" transform="translate(1387 810.5)" fill="#ee8722"/>
    <path id="Path_2513" data-name="Path 2513" d="M32,20H62V37.5H32Z" transform="translate(1383.25 807)" fill="#feb655"/>
    <path id="Path_2514" data-name="Path 2514" d="M47,16H58.25v5H47Z" transform="translate(1387 806)" fill="#ee8700"/>
    <path id="Path_2515" data-name="Path 2515" d="M48.5,39v5l-3.75-2.5L41,44V34h7.5Z" transform="translate(1385.5 810.5)" fill="#e3584b"/>
    <path id="Path_2516" data-name="Path 2516" d="M48.5,21v5l-3.75-2.5L41,26V16h7.5Z" transform="translate(1385.5 806)" fill="#5a60af"/>
    <path id="Path_2517" data-name="Path 2517" d="M32,34H43.25v5H32Z" transform="translate(1383.25 810.5)" fill="#ee8722"/>
    <path id="Path_2518" data-name="Path 2518" d="M32,16H43.25v5H32Z" transform="translate(1383.25 806)" fill="#ee8722"/>
  </g>
</svg>
