<svg xmlns="http://www.w3.org/2000/svg" width="40.625" height="50" viewBox="0 0 40.625 50">
  <g id="Training" transform="translate(-17.045 -0.002)">
    <path id="Path_2162" data-name="Path 2162" d="M167.723,17.709V2.084A2.057,2.057,0,0,1,169.754,0h36.563a2.057,2.057,0,0,1,2.031,2.083V30.209a2.057,2.057,0,0,1-2.031,2.083L169.8,32.16a2.083,2.083,0,0,1-2.076-2.083Z" transform="translate(-150.678 0)" fill="#f2f2f2"/>
    <g id="Group_846" data-name="Group 846" transform="translate(17.045 0.001)">
      <path id="Path_2163" data-name="Path 2163" d="M208.349,4.168H167.724V2.084A2.083,2.083,0,0,1,169.807,0h36.458a2.083,2.083,0,0,1,2.083,2.083Z" transform="translate(-167.724 -0.001)" fill="#06aae9"/>
    </g>
    <g id="Group_847" data-name="Group 847" transform="translate(35.795 7.292)">
      <path id="Path_2168" data-name="Path 2168" d="M327.662,78.456a1.042,1.042,0,0,1-.625-1.875l3.97-2.977,4.056-8.114a1.042,1.042,0,0,1,1.562-.368l3.285,2.464,3.556-5.333a1.042,1.042,0,0,1,1.733,1.156l-4.167,6.25a1.042,1.042,0,0,1-1.444.293l-.053-.038-3.169-2.376-3.6,7.217a1.054,1.054,0,0,1-.313.368l-4.167,3.125a1.041,1.041,0,0,1-.625.208Z" transform="translate(-326.62 -61.789)" fill="#ed1c24"/>
    </g>
    <path id="Path_2169" data-name="Path 2169" d="M207.748,63.876h-12.5a1.042,1.042,0,1,1,0-2.083h12.5a1.042,1.042,0,0,1,0,2.083Z" transform="translate(-174.036 -54.5)"/>
    <path id="Path_2170" data-name="Path 2170" d="M338.573,63.876H336.49a1.042,1.042,0,1,1,0-2.083h2.083a1.042,1.042,0,1,1,0,2.083Z" transform="translate(-298.611 -54.5)"/>
    <path id="Path_2171" data-name="Path 2171" d="M19.77,194.393l-3.534,3.534a2.084,2.084,0,0,1-1.473.61H4.167A4.167,4.167,0,0,0,0,202.7v5.219H4.167v13.531h12.5v-16.89a2.084,2.084,0,0,1,.557-1.419l5.445-5.858Z" transform="translate(20.476 -171.453)" fill="#e6e6e6"/>
    <g id="Group_848" data-name="Group 848" transform="translate(20.476 14.326)">
      <path id="Path_2172" data-name="Path 2172" d="M0,309.055v9.365a2.083,2.083,0,0,0,4.167,0v-9.365Z" transform="translate(0 -286.911)" fill="#ecc19c"/>
      <path id="Path_2173" data-name="Path 2173" d="M178.238,124.52a1.842,1.842,0,0,0-2.6-2.6l-8.073,8.073-.022.022,2.9,2.895.044-.047Z" transform="translate(-147.769 -121.398)" fill="#ecc19c"/>
    </g>
    <path id="Path_2174" data-name="Path 2174" d="M393.652,321.454h-.077a4.96,4.96,0,0,1-5.044-4.646L388.4,314a4.942,4.942,0,0,1,4.831-5.05c.072,0,.145,0,.217,0h.321a4.942,4.942,0,0,1,5.048,4.833c0,.072,0,.145,0,.217l-.122,2.8A4.96,4.96,0,0,1,393.652,321.454Z" transform="translate(-345.318 -280.623)" fill="#333"/>
    <path id="Path_2175" data-name="Path 2175" d="M80.49,261.756a1.042,1.042,0,0,1-1.042-1.042v-12.5a1.042,1.042,0,0,1,2.083,0v12.5A1.042,1.042,0,0,1,80.49,261.756Z" transform="translate(-49.597 -218.005)" fill="#0378a3"/>
    <path id="Path_2178" data-name="Path 2178" d="M371.854,449.713v-4.341a3.993,3.993,0,0,0-3.993-3.993H357.1a3.993,3.993,0,0,0-3.993,3.993v4.341" transform="translate(-314.184 -400.374)" fill="#39b54a"/>
    <path id="Path_2179" data-name="Path 2179" d="M51.039,108.941a3.614,3.614,0,0,0,3.4,2.94H54.5l.043-.91a4.942,4.942,0,0,0-4.831-5.05c-.072,0-.145,0-.217,0h-.321a4.942,4.942,0,0,0-5.048,4.833c0,.072,0,.145,0,.217l.04.91h.065C49.338,111.88,51.039,108.941,51.039,108.941Z" transform="translate(-18.445 -91.097)" fill="#333"/>
    <path id="Path_2180" data-name="Path 2180" d="M54.777,134.472a3.614,3.614,0,0,1-3.4-2.94s-1.7,2.94-6.805,2.94h-.06l.082,1.894a4.96,4.96,0,0,0,5.044,4.646h.077a4.96,4.96,0,0,0,5.044-4.646l.082-1.894Z" transform="translate(-18.78 -113.688)" fill="#ecc19c"/>
  </g>
</svg>
