<svg xmlns="http://www.w3.org/2000/svg" width="45.693" height="45.703" viewBox="0 0 45.693 45.703">
  <g id="uniform" transform="translate(-4 -3.988)">
    <g id="Icons" transform="translate(4 3.988)">
      <g id="Group_58595" data-name="Group 58595">
        <g id="Group_58586" data-name="Group 58586" transform="translate(0 3.225)">
          <g id="Group_58555" data-name="Group 58555" transform="translate(14.687 0)">
            <g id="Group_58554" data-name="Group 58554">
              <path id="Path_263940" data-name="Path 263940" d="M38.311,7.964l-.318,1.412L30.159,43.842,22.326,9.376,22,7.94h5.793l2.366,2.334L32.526,7.94h5.712Z" transform="translate(-22 -7.94)" fill="#f0f0f0"/>
            </g>
          </g>
          <g id="Group_58557" data-name="Group 58557" transform="translate(14.687 0)">
            <g id="Group_58556" data-name="Group 58556">
              <path id="Path_263941" data-name="Path 263941" d="M30.159,10.7l-4.121,3.509a.828.828,0,0,1-1.257-.237L22.326,9.376,22,7.94h5.353Z" transform="translate(-22 -7.94)" fill="#d2d2d2"/>
            </g>
          </g>
          <g id="Group_58559" data-name="Group 58559" transform="translate(22.847 0)">
            <g id="Group_58558" data-name="Group 58558">
              <path id="Path_263942" data-name="Path 263942" d="M40.151,7.964l-.318,1.412L37.377,13.97a.828.828,0,0,1-1.257.237L32,10.7,34.807,7.94h5.271Z" transform="translate(-32 -7.94)" fill="#d2d2d2"/>
            </g>
          </g>
          <g id="Group_58561" data-name="Group 58561" transform="translate(0 0)">
            <g id="Group_58560" data-name="Group 58560">
              <path id="Path_263943" data-name="Path 263943" d="M49.693,18.727V48.785a1.632,1.632,0,0,1-1.634,1.632L5.63,50.371A1.632,1.632,0,0,1,4,48.739V18.686a8.174,8.174,0,0,1,5.606-7.751L18.687,7.94l8.159,35.9L35,7.964l.016.008,9.09,3.011a8.152,8.152,0,0,1,5.589,7.743Z" transform="translate(-4 -7.94)" fill="#0a5078"/>
            </g>
          </g>
          <g id="Group_58563" data-name="Group 58563" transform="translate(11.675 0.816)">
            <g id="Group_58562" data-name="Group 58562">
              <path id="Path_263944" data-name="Path 263944" d="M21.605,33.247l2.65-7.667a1.633,1.633,0,0,0-.372-1.671L18.77,18.648a1.632,1.632,0,0,1-.363-1.7L21.32,8.94l8.159,35.9L21.847,34.766A1.634,1.634,0,0,1,21.605,33.247Z" transform="translate(-18.308 -8.94)" fill="#00325a"/>
            </g>
          </g>
          <g id="Group_58565" data-name="Group 58565" transform="translate(22.847 0.816)">
            <g id="Group_58564" data-name="Group 58564">
              <path id="Path_263945" data-name="Path 263945" d="M37.225,25.58l2.65,7.667a1.632,1.632,0,0,1-.242,1.518L32,44.842,40.151,8.964l.008-.024.008.033,2.906,7.981a1.633,1.633,0,0,1-.363,1.7L37.6,23.909a1.631,1.631,0,0,0-.372,1.671Z" transform="translate(-32 -8.94)" fill="#00325a"/>
            </g>
          </g>
          <g id="Group_58567" data-name="Group 58567" transform="translate(22.439 32.687)">
            <g id="Group_58566" data-name="Group 58566">
              <path id="Path_263946" data-name="Path 263946" d="M31.5,48h.816v9.791H31.5Z" transform="translate(-31.5 -48)" fill="#00143d"/>
            </g>
          </g>
          <g id="Group_58569" data-name="Group 58569" transform="translate(19.583 1.938)">
            <g id="Group_58568" data-name="Group 58568">
              <path id="Path_263947" data-name="Path 263947" d="M32.9,16.116l1.632,15.107L31.264,44.279,28,31.224l1.632-15.107L28,12.853V10.315h6.528v2.538Z" transform="translate(-28 -10.315)" fill="#c80a50"/>
            </g>
          </g>
          <g id="Group_58571" data-name="Group 58571" transform="translate(19.583 1.938)">
            <g id="Group_58570" data-name="Group 58570">
              <path id="Path_263948" data-name="Path 263948" d="M34.528,10.315v2.538l-.367.743-2.9-2.464-2.9,2.464L28,12.853V10.315Z" transform="translate(-28 -10.315)" fill="#a00028"/>
            </g>
          </g>
          <g id="Group_58573" data-name="Group 58573" transform="translate(11.675 0)">
            <g id="Group_58572" data-name="Group 58572">
              <path id="Path_263949" data-name="Path 263949" d="M21.605,32.247l2.65-7.667a1.633,1.633,0,0,0-.372-1.671L18.77,17.648a1.632,1.632,0,0,1-.363-1.7L21.32,7.94l8.159,35.9L21.847,33.766A1.634,1.634,0,0,1,21.605,32.247Z" transform="translate(-18.308 -7.94)" fill="#00a0c8"/>
            </g>
          </g>
          <g id="Group_58575" data-name="Group 58575" transform="translate(22.847)">
            <g id="Group_58574" data-name="Group 58574">
              <path id="Path_263950" data-name="Path 263950" d="M37.225,24.58l2.65,7.667a1.632,1.632,0,0,1-.242,1.518L32,43.842,40.151,7.964l.008-.024.008.033,2.906,7.981a1.633,1.633,0,0,1-.363,1.7L37.6,22.909a1.631,1.631,0,0,0-.372,1.671Z" transform="translate(-32 -7.94)" fill="#00a0c8"/>
            </g>
          </g>
          <g id="Group_58577" data-name="Group 58577" transform="translate(40.797 12.635)">
            <g id="Group_58576" data-name="Group 58576">
              <path id="Path_263951" data-name="Path 263951" d="M54.816,53.219H54V23.833a.408.408,0,1,1,.816,0Z" transform="translate(-54 -23.425)" fill="#00143d"/>
            </g>
          </g>
          <g id="Group_58579" data-name="Group 58579" transform="translate(4.08 12.635)">
            <g id="Group_58578" data-name="Group 58578">
              <path id="Path_263952" data-name="Path 263952" d="M9.816,53.219H9V23.833a.408.408,0,0,1,.816,0Z" transform="translate(-9 -23.425)" fill="#00143d"/>
            </g>
          </g>
          <g id="Group_58581" data-name="Group 58581" transform="translate(21.125 7.739)">
            <g id="Group_58580" data-name="Group 58580">
              <path id="Path_263953" data-name="Path 263953" d="M33.333,18.241H29.89l.09-.816h3.264Z" transform="translate(-29.89 -17.425)" fill="#a00028"/>
            </g>
          </g>
          <g id="Group_58583" data-name="Group 58583" transform="translate(31.006 13.055)">
            <g id="Group_58582" data-name="Group 58582">
              <circle id="Ellipse_281" data-name="Ellipse 281" cx="4.08" cy="4.08" r="4.08" fill="#f0f0f0"/>
            </g>
          </g>
          <g id="Group_58585" data-name="Group 58585" transform="translate(31.822 13.871)">
            <g id="Group_58584" data-name="Group 58584">
              <path id="Path_263954" data-name="Path 263954" d="M49.528,28.223a3.278,3.278,0,0,1-2.8,3.245V29.038l.513.29a.458.458,0,0,0,.634-.169.464.464,0,0,0-.168-.638l-.513-.3.513-.3a.465.465,0,0,0,.168-.638.458.458,0,0,0-.634-.169l-.513.29v-.591a.466.466,0,1,0-.932,0V27.4l-.513-.289a.458.458,0,0,0-.634.169.464.464,0,0,0,.168.638l.513.3-.513.3a.465.465,0,0,0-.168.638.458.458,0,0,0,.634.169l.513-.29v2.429a3.28,3.28,0,1,1,3.73-3.247Z" transform="translate(-43 -24.94)" fill="#c80a50"/>
            </g>
          </g>
        </g>
        <g id="Group_58588" data-name="Group 58588" transform="translate(24.478 40.807)">
          <g id="Group_58587" data-name="Group 58587">
            <circle id="Ellipse_282" data-name="Ellipse 282" cx="1.632" cy="1.632" r="1.632" fill="#00143d"/>
          </g>
        </g>
        <g id="Group_58590" data-name="Group 58590" transform="translate(14.687)">
          <g id="Group_58589" data-name="Group 58589">
            <path id="Path_263955" data-name="Path 263955" d="M23.9,4.352,22,7.213l2.786,5.214a.815.815,0,0,0,1.248.237l4.125-3.512L25.153,4.222A.817.817,0,0,0,23.9,4.352Z" transform="translate(-22 -3.988)" fill="#f0f0f0"/>
          </g>
        </g>
        <g id="Group_58592" data-name="Group 58592" transform="translate(22.847)">
          <g id="Group_58591" data-name="Group 58591">
            <path id="Path_263956" data-name="Path 263956" d="M38.259,4.352l1.9,2.861-2.786,5.214a.815.815,0,0,1-1.248.237L32,9.151l5.007-4.929A.817.817,0,0,1,38.259,4.352Z" transform="translate(-32 -3.988)" fill="#f0f0f0"/>
          </g>
        </g>
        <g id="Group_58594" data-name="Group 58594" transform="translate(17.347 0.01)">
          <g id="Group_58593" data-name="Group 58593">
            <path id="Path_263957" data-name="Path 263957" d="M36.267,4a.725.725,0,0,0-.5.228l-5.01,4.928L25.75,4.228A.764.764,0,0,0,25.26,4Z" transform="translate(-25.26 -4)" fill="#d2d2d2"/>
          </g>
        </g>
      </g>
    </g>
  </g>
</svg>
