<svg xmlns="http://www.w3.org/2000/svg" width="68.465" height="50" viewBox="0 0 68.465 50">
  <g id="UsersID" transform="translate(-1213.166 593.666)">
    <g id="Group_31797" data-name="Group 31797" transform="translate(1213.167 -593.667)">
      <g id="Group_31795" data-name="Group 31795" transform="translate(0 0)">
        <path id="Path_12201" data-name="Path 12201" d="M255.486.069H284.5c.055.035.107.1.165.1a6.51,6.51,0,0,1,5.552,6.706c-.068,10.252-.023,20.5-.023,30.756,0,2.082.021,4.164-.008,6.246a6.326,6.326,0,0,1-5.529,6.068c-1.1,0-2.209-.012-3.313-.013L255.5,49.919c-.006-2.354-.018-4.709-.018-7.063q0-14.943.011-29.885c.27-.006.541-.017.812-.017h20.457c.2,0,.408.013.609-.008a2.136,2.136,0,0,0,1.947-1.86,2.106,2.106,0,0,0-1.291-2.1,3.332,3.332,0,0,0-1.263-.184q-6.2.006-12.4,0-4.436,0-8.872-.019-.007-4.355-.014-8.709m14.174,32.49c2.459,0,4.918.005,7.378,0a2.049,2.049,0,1,0,0-4.073q-7.378,0-14.755,0a2.1,2.1,0,0,0-2.3,2.043,2.076,2.076,0,0,0,2.3,2.031c2.459.006,4.918,0,7.377,0m0-12.8c-2.482,0-4.964-.005-7.445,0a2.045,2.045,0,1,0,0,4.073q7.411.006,14.823,0a2.049,2.049,0,1,0,0-4.074c-2.459-.006-4.918,0-7.378,0m-2.247,17.46c-1.76,0-3.521-.014-5.281,0a2.061,2.061,0,0,0-2.153,2.051,2.034,2.034,0,0,0,2.12,2.011c3.588.022,7.176.008,10.764,0a2.02,2.02,0,0,0,1.264-.41,2.055,2.055,0,0,0,.719-2.243,2.025,2.025,0,0,0-2.017-1.413c-1.805-.017-3.611,0-5.416-.005" transform="translate(-221.749 -0.069)" fill="#fec84f"/>
        <path id="Path_12202" data-name="Path 12202" d="M34.77.068q.007,4.355.014,8.709l0,.06q-10.63,0-21.259,0a5.347,5.347,0,0,0-.81.039,1.928,1.928,0,0,0-1.676,1.469,2.039,2.039,0,0,0,2.214,2.571q10.765.007,21.53,0l0,.053q-.006,14.943-.011,29.885c0,2.354.011,4.709.018,7.063l-.019.15H6.031a2.4,2.4,0,0,0-.379-.12A6.3,6.3,0,0,1,.424,45.719c-.155-.393-.24-.814-.358-1.222V5.639c.048-.147.1-.292.142-.442A6.4,6.4,0,0,1,5.119.253c.258-.066.549.006.776-.185ZM20.859,28.478c-.355.06-.711.113-1.065.182a10.763,10.763,0,0,0-8.822,10,2.134,2.134,0,0,0,2.376,2.625q8.337.008,16.673,0c1.73,0,2.562-.859,2.413-2.59a10.674,10.674,0,0,0-6.649-9.4,13.411,13.411,0,0,0-3.271-.822l.713-.211a5.457,5.457,0,1,0-3.826-.31c.465.219.971.351,1.458.523" transform="translate(-0.066 -0.068)" fill="#fec84f"/>
        <path id="Path_12206" data-name="Path 12206" d="M284.653,366.818a.34.34,0,0,0-.021.123H255.486l.019-.15,25.835.014c1.1,0,2.209.008,3.313.012" transform="translate(-221.749 -316.94)" fill="#fed177"/>
        <path id="Path_12207" data-name="Path 12207" d="M255.574,64.138q4.436.01,8.873.019,6.2.005,12.4,0a3.329,3.329,0,0,1,1.263.184,2.1,2.1,0,0,1,1.291,2.1A2.135,2.135,0,0,1,277.45,68.3c-.2.02-.406.007-.609.007H256.384c-.271,0-.541.011-.812.017l0-.052q0-2.039,0-4.078l0-.06" transform="translate(-221.831 -55.428)" fill="#0d0601"/>
        <path id="Path_12208" data-name="Path 12208" d="M298.239,213.156c-2.459,0-4.918,0-7.377,0a2.076,2.076,0,0,1-2.3-2.03,2.1,2.1,0,0,1,2.3-2.042q7.378,0,14.755,0a2.048,2.048,0,1,1,0,4.072c-2.459.007-4.918,0-7.378,0" transform="translate(-250.335 -180.667)" fill="#0c0601"/>
        <path id="Path_12209" data-name="Path 12209" d="M298.239,144.911c2.459,0,4.918,0,7.378,0a2.048,2.048,0,1,1,0,4.072q-7.411,0-14.823,0a2.044,2.044,0,1,1,0-4.071c2.482-.007,4.964,0,7.445,0" transform="translate(-250.336 -125.219)" fill="#0c0501"/>
        <path id="Path_12210" data-name="Path 12210" d="M295.982,273.332c1.805,0,3.611-.012,5.416,0a2.024,2.024,0,0,1,2.017,1.412,2.053,2.053,0,0,1-.719,2.242,2.021,2.021,0,0,1-1.264.41c-3.588,0-7.176.018-10.764,0a2.033,2.033,0,0,1-2.12-2.01,2.06,2.06,0,0,1,2.153-2.05c1.76-.019,3.52,0,5.281,0" transform="translate(-250.328 -236.18)" fill="#0e0701"/>
        <path id="Path_12211" data-name="Path 12211" d="M91.758,209.043a13.42,13.42,0,0,1,3.271.822,10.669,10.669,0,0,1,6.649,9.394c.15,1.73-.682,2.587-2.413,2.588q-8.337.006-16.673,0a2.133,2.133,0,0,1-2.376-2.624,10.759,10.759,0,0,1,8.822-10c.353-.068.71-.121,1.064-.182l1.656,0" transform="translate(-69.303 -180.631)" fill="#42b653"/>
        <path id="Path_12212" data-name="Path 12212" d="M105.081,64.577q0,2.039,0,4.078-11.236,0-22.471,0c-1.666,0-2.722-1.181-2.311-2.57a1.986,1.986,0,0,1,1.749-1.468,5.849,5.849,0,0,1,.846-.039q11.094,0,22.188,0" transform="translate(-70.312 -55.807)" fill="#0d0601"/>
        <path id="Path_12213" data-name="Path 12213" d="M125.525,139.857l-1.656,0c-.486-.172-.992-.3-1.457-.523a5.416,5.416,0,1,1,3.826.31l-.713.211" transform="translate(-103.068 -111.453)" fill="#fe934d"/>
      </g>
    </g>
  </g>
</svg>
