<svg xmlns="http://www.w3.org/2000/svg" width="59.382" height="55.673" viewBox="0 0 59.382 55.673">
  <g id="svgexport-6_19_" data-name="svgexport-6 (19)" transform="translate(0 -15.989)">
    <path id="Path_264078" data-name="Path 264078" d="M283.835,120.836h-25.98A1.856,1.856,0,0,1,256,118.98V81.867a1.856,1.856,0,0,1,1.856-1.856h25.98a1.856,1.856,0,0,1,1.856,1.856V118.98A1.856,1.856,0,0,1,283.835,120.836Z" transform="translate(-226.309 -56.596)" fill="#eceff1"/>
    <g id="Group_58674" data-name="Group 58674" transform="translate(29.691 30.837)">
      <path id="Path_264079" data-name="Path 264079" d="M265.278,147.722h-7.423a1.856,1.856,0,0,1,0-3.711h7.423a1.856,1.856,0,0,1,0,3.711Z" transform="translate(-256 -144.011)" fill="#388e3c"/>
      <path id="Path_264080" data-name="Path 264080" d="M265.278,211.722h-7.423a1.856,1.856,0,1,1,0-3.711h7.423a1.856,1.856,0,0,1,0,3.711Z" transform="translate(-256 -200.588)" fill="#388e3c"/>
      <path id="Path_264081" data-name="Path 264081" d="M265.278,275.722h-7.423a1.856,1.856,0,1,1,0-3.711h7.423a1.856,1.856,0,0,1,0,3.711Z" transform="translate(-256 -257.165)" fill="#388e3c"/>
      <path id="Path_264082" data-name="Path 264082" d="M265.278,339.722h-7.423a1.856,1.856,0,1,1,0-3.711h7.423a1.856,1.856,0,1,1,0,3.711Z" transform="translate(-256 -313.743)" fill="#388e3c"/>
      <path id="Path_264083" data-name="Path 264083" d="M389.567,147.722h-3.711a1.856,1.856,0,0,1,0-3.711h3.711a1.856,1.856,0,0,1,0,3.711Z" transform="translate(-369.154 -144.011)" fill="#388e3c"/>
      <path id="Path_264084" data-name="Path 264084" d="M389.567,211.722h-3.711a1.856,1.856,0,1,1,0-3.711h3.711a1.856,1.856,0,0,1,0,3.711Z" transform="translate(-369.154 -200.588)" fill="#388e3c"/>
      <path id="Path_264085" data-name="Path 264085" d="M389.567,275.722h-3.711a1.856,1.856,0,1,1,0-3.711h3.711a1.856,1.856,0,0,1,0,3.711Z" transform="translate(-369.154 -257.165)" fill="#388e3c"/>
      <path id="Path_264086" data-name="Path 264086" d="M389.567,339.722h-3.711a1.856,1.856,0,1,1,0-3.711h3.711a1.856,1.856,0,0,1,0,3.711Z" transform="translate(-369.154 -313.743)" fill="#388e3c"/>
    </g>
    <path id="Path_264087" data-name="Path 264087" d="M32.731,16.419a1.823,1.823,0,0,0-1.525-.393L1.514,21.592A1.85,1.85,0,0,0,0,23.415V64.24a1.853,1.853,0,0,0,1.514,1.822l29.691,5.567a1.746,1.746,0,0,0,.341.033A1.856,1.856,0,0,0,33.4,69.807V17.848A1.851,1.851,0,0,0,32.731,16.419Z" fill="#2e7d32"/>
    <path id="Path_264088" data-name="Path 264088" d="M96.226,177.361l-5.868-6.706,5.935-7.631a1.856,1.856,0,0,0-2.928-2.283l-5.5,7.066-4.632-5.292a1.854,1.854,0,1,0-2.791,2.442l5.1,5.834-5.174,6.651a1.857,1.857,0,0,0,2.932,2.279l4.732-6.087,5.4,6.165a1.853,1.853,0,1,0,2.791-2.438Z" transform="translate(-70.707 -127.332)" fill="#fafafa"/>
  </g>
</svg>
