<svg xmlns="http://www.w3.org/2000/svg" xmlns:xlink="http://www.w3.org/1999/xlink" width="50" height="50" viewBox="0 0 50 50">
  <defs>
    <clipPath id="clip-path">
      <rect id="Rectangle_808" data-name="Rectangle 808" width="50" height="50" fill="#bbd9fe"/>
    </clipPath>
  </defs>
  <g id="Component" transform="translate(-1120.083 728.833)">
    <g id="Group_31803" data-name="Group 31803" transform="translate(1120.083 -728.833)">
      <g id="Group_31793" data-name="Group 31793" clip-path="url(#clip-path)">
        <path id="Path_12201" data-name="Path 12201" d="M46.533,107.145H1.866a2.336,2.336,0,0,1-1.288-1.4V64.116H47.129c.232,0,.464.012.7.019q0,20.425.01,40.85a2.051,2.051,0,0,1-1.3,2.16M13.572,86.465c.088.009.177.025.265.025q8.191,0,16.382,0c.137,0,.289.046.4-.082.007-.089.019-.179.019-.268,0-5.467-.007-10.934.014-16.4,0-.537-.287-.459-.607-.459q-11.862,0-23.724-.012c-.521,0-.6.174-.6.636.017,3.6.007,7.206.01,10.809,0,1.9.013,3.8.019,5.7a.564.564,0,0,0,.189.076q3.816-.006,7.631-.021m-2.687,5.19c-1.573,0-3.146.011-4.719-.008-.353,0-.443.1-.441.445q.02,4.728,0,9.456c0,.353.1.444.444.442q4.719-.02,9.438,0c.353,0,.443-.1.441-.445q-.02-4.728,0-9.456c0-.353-.1-.447-.444-.442-1.573.019-3.146.008-4.719.008M25.46,101.981c1.574,0,3.148-.013,4.722.009.385.005.47-.112.468-.481q-.022-4.7,0-9.409c0-.338-.073-.457-.437-.455q-4.722.022-9.445,0c-.36,0-.441.11-.44.452.012,3.136.017,6.273,0,9.409,0,.437.153.486.522.482,1.538-.018,3.077-.008,4.615-.008m19.784-5.106c0-1.594-.01-3.188.008-4.781,0-.357-.108-.447-.453-.446q-4.719.018-9.438,0c-.314,0-.434.066-.432.412q.02,4.755,0,9.509c0,.336.1.42.425.419q4.719-.017,9.438,0c.4,0,.463-.143.459-.5-.017-1.54-.007-3.08-.007-4.62M40.09,71.861c-1.662,0-3.324.005-4.987,0a.9.9,0,0,0-.993.639c-.181.6.273,1.083,1.02,1.084q4.933,0,9.866,0c.719,0,1.113-.316,1.1-.874s-.395-.846-1.131-.847q-2.44,0-4.879,0m0,5.163c1.662,0,3.324,0,4.987,0a.934.934,0,0,0,.882-.4A.813.813,0,0,0,46,75.762a.907.907,0,0,0-.9-.461q-5.014.006-10.027,0c-.627,0-1,.345-.993.875s.384.841,1.027.843c1.662,0,3.324,0,4.987,0m-.061,3.442c1.68,0,3.36,0,5.04,0,.645,0,1.017-.315,1.028-.842.011-.544-.377-.876-1.046-.877q-4.96,0-9.92,0c-.678,0-1.06.322-1.054.869s.385.849,1.073.851q2.44,0,4.879,0m.057,1.721c-1.662,0-3.324.006-4.987,0a.9.9,0,0,0-.993.639c-.181.6.273,1.083,1.02,1.084q4.933,0,9.866,0c.719,0,1.113-.316,1.1-.874s-.395-.846-1.131-.846q-2.44,0-4.879,0m2.147-13.769c-.929,0-1.858,0-2.787,0-.689,0-1.067.3-1.075.847s.375.871,1.05.873q2.813.005,5.627,0c.671,0,1.058-.33,1.049-.874s-.39-.843-1.077-.846c-.929,0-1.858,0-2.787,0m-4.3,17.211c-.929,0-1.858,0-2.787,0-.688,0-1.067.305-1.074.848s.376.87,1.051.871q2.813.005,5.627,0c.67,0,1.057-.332,1.048-.875-.009-.528-.381-.84-1.025-.844-.947-.005-1.894,0-2.84,0M35.333,70.138v0c.125,0,.25,0,.374,0a.865.865,0,1,0-.015-1.72,7.746,7.746,0,0,0-.8.006.839.839,0,0,0-.811.835.848.848,0,0,0,.826.876c.141.012.285,0,.428,0m9.489,17.214c.125,0,.25.005.374,0a.861.861,0,1,0,.012-1.719c-.124-.007-.25,0-.374,0-.911,0-1.32.276-1.306.882.014.587.4.841,1.294.84" transform="translate(-0.516 -57.207)" fill="#bbd9fe"/>
        <path id="Path_12202" data-name="Path 12202" d="M47.825,7.131c-.232-.006-.464-.019-.7-.019H.578V1.41A2.766,2.766,0,0,1,1.866.227H46.855c.009.216.209.274.334.383a1.752,1.752,0,0,1,.634,1.448c-.014.441-.014.883-.02,1.324a1.891,1.891,0,0,0-2.141-.447.859.859,0,0,0,0,1.466A1.886,1.886,0,0,0,47.8,3.956q.006,1.567.012,3.134ZM32.36,4.53h9.932a2.583,2.583,0,0,0,.482-.013.816.816,0,0,0,.742-.848.815.815,0,0,0-.743-.847,2.63,2.63,0,0,0-.482-.012H22.427a2.61,2.61,0,0,0-.482.013.815.815,0,0,0-.741.848.816.816,0,0,0,.742.847,2.582,2.582,0,0,0,.482.013H32.36m-27.9,0c.86,0,1.273-.281,1.271-.865s-.408-.859-1.275-.86c-.887,0-1.279.253-1.3.837s.406.887,1.3.887m4.277,0c.873,0,1.277-.266,1.288-.847.011-.6-.408-.877-1.311-.877-.855,0-1.269.287-1.261.873s.413.851,1.284.851m4.29,0c.876,0,1.279-.262,1.294-.842.015-.6-.407-.882-1.306-.882-.859,0-1.271.283-1.266.868s.411.856,1.279.856" transform="translate(-0.516 -0.203)" fill="#0069f3"/>
        <path id="Path_12203" data-name="Path 12203" d="M427.039,106.963a2.051,2.051,0,0,0,1.3-2.16q-.029-20.425-.01-40.85l-.01-.041,2.572.01c0,.251.011.5.011.752q0,20.065.015,40.129a2.051,2.051,0,0,1-1.3,2.159Z" transform="translate(-381.13 -57.026)" fill="#bbd9fe"/>
        <path id="Path_12204" data-name="Path 12204" d="M433.56,7.1l-2.572-.01q-.006-1.567-.012-3.134,0-.287,0-.573c.006-.441.005-.883.02-1.324A1.752,1.752,0,0,0,430.362.61c-.126-.11-.325-.167-.334-.383h2.362c.615.379,1.177.805,1.178,1.622,0,1.75-.005,3.5-.009,5.251" transform="translate(-383.796 -0.203)" fill="#1169f3"/>
        <path id="Path_12208" data-name="Path 12208" d="M48.348,129.055c-.007-1.9-.018-3.8-.019-5.7,0-3.6.007-7.206-.01-10.809,0-.462.08-.637.6-.636q11.862.028,23.724.012c.32,0,.609-.077.607.459-.021,5.467-.013,10.934-.014,16.4,0,.089-.012.178-.019.268-.093-.13-.194-.255-.278-.39q-4-6.4-7.984-12.811c-.23-.37-.344-.454-.606-.016-.781,1.306-1.6,2.591-2.407,3.879q-1.486,2.361-2.985,4.713c-1.154-1.724-2.317-3.442-3.455-5.176-.237-.361-.343-.4-.6-.009-1.55,2.363-3.121,4.713-4.69,7.064-.615.921-1.243,1.833-1.865,2.749" transform="translate(-43.112 -99.852)" fill="#1885fe"/>
        <path id="Path_12209" data-name="Path 12209" d="M123.949,154.463q1.493-2.356,2.985-4.713c.811-1.288,1.626-2.574,2.407-3.879.262-.438.376-.354.606.016q3.981,6.412,7.984,12.811c.084.135.185.26.278.39-.113.128-.265.082-.4.082q-8.191,0-16.382,0c-.088,0-.177-.016-.265-.025.3-.67.756-1.25,1.12-1.882a31.8,31.8,0,0,0,1.669-2.8" transform="translate(-108.104 -129.888)" fill="#5aad10"/>
        <path id="Path_12210" data-name="Path 12210" d="M53.491,319.6c1.573,0,3.146.01,4.719-.008.349,0,.446.089.444.442q-.021,4.728,0,9.456c0,.349-.089.447-.441.445q-4.719-.021-9.438,0c-.348,0-.446-.089-.444-.442q.021-4.728,0-9.456c0-.349.088-.449.441-.445,1.573.019,3.146.008,4.719.008" transform="translate(-43.122 -285.153)" fill="#ef1616"/>
        <path id="Path_12211" data-name="Path 12211" d="M188.946,329.927c-1.538,0-3.077-.011-4.615.008-.369,0-.525-.045-.522-.482.022-3.136.017-6.273,0-9.409,0-.343.08-.454.44-.452q4.723.021,9.445,0c.364,0,.438.117.437.455q-.017,4.7,0,9.409c0,.369-.083.486-.468.481-1.574-.023-3.148-.01-4.722-.01" transform="translate(-164.002 -285.153)" fill="#fecd00"/>
        <path id="Path_12212" data-name="Path 12212" d="M329.671,324.833c0,1.54-.01,3.08.007,4.62,0,.352-.059.5-.459.5q-4.719-.025-9.438,0c-.324,0-.427-.082-.426-.418q.019-4.755,0-9.509c0-.346.118-.413.432-.412q4.719.015,9.438,0c.345,0,.457.089.453.446-.018,1.594-.008,3.188-.008,4.781" transform="translate(-284.943 -285.165)" fill="#0069f3"/>
        <path id="Path_12213" data-name="Path 12213" d="M59.2,182.832a31.8,31.8,0,0,1-1.669,2.8c-.364.633-.818,1.212-1.12,1.882q-3.816.012-7.631.021a.563.563,0,0,1-.188-.076c.622-.916,1.25-1.828,1.865-2.749,1.569-2.351,3.14-4.7,4.69-7.063.256-.39.361-.352.6.009,1.138,1.734,2.3,3.452,3.455,5.176" transform="translate(-43.357 -158.257)" fill="#4b900f"/>
        <path id="Path_12214" data-name="Path 12214" d="M317.409,135.962q2.44,0,4.879,0c.736,0,1.122.292,1.131.846s-.384.874-1.1.874q-4.933,0-9.866,0c-.748,0-1.2-.482-1.02-1.084a.9.9,0,0,1,.993-.639c1.662.009,3.325,0,4.987,0" transform="translate(-277.834 -121.308)" fill="#53a2fe"/>
        <path id="Path_12215" data-name="Path 12215" d="M317.493,169.638c-1.662,0-3.324,0-4.987,0-.643,0-1.016-.316-1.027-.842s.366-.875.993-.875q5.013-.006,10.027,0a.907.907,0,0,1,.9.461.814.814,0,0,1-.036.867.934.934,0,0,1-.882.4c-1.662-.006-3.324,0-4.987,0" transform="translate(-277.915 -149.82)" fill="#53a2fe"/>
        <path id="Path_12216" data-name="Path 12216" d="M317.434,201.594q-2.44,0-4.879,0c-.688,0-1.067-.307-1.073-.851s.376-.868,1.054-.869q4.96,0,9.92,0c.67,0,1.057.333,1.046.877-.011.527-.383.84-1.027.842-1.68,0-3.36,0-5.04,0" transform="translate(-277.917 -178.334)" fill="#53a2fe"/>
        <path id="Path_12217" data-name="Path 12217" d="M317.409,231.8q2.44,0,4.879,0c.736,0,1.122.292,1.131.846s-.384.874-1.1.874q-4.933,0-9.866,0c-.748,0-1.2-.482-1.02-1.084a.9.9,0,0,1,.993-.639c1.662.009,3.325,0,4.987,0" transform="translate(-277.834 -206.814)" fill="#53a2fe"/>
        <path id="Path_12218" data-name="Path 12218" d="M355.2,104.037c.929,0,1.858,0,2.787,0,.687,0,1.068.306,1.077.846s-.378.872-1.049.874q-2.813.005-5.627,0c-.675,0-1.058-.327-1.05-.873s.387-.845,1.075-.847c.929,0,1.858,0,2.787,0" transform="translate(-313.476 -92.825)" fill="#54a2fe"/>
        <path id="Path_12219" data-name="Path 12219" d="M315.341,263.756c.947,0,1.894,0,2.84,0,.644,0,1.015.316,1.025.844.01.544-.377.874-1.047.875q-2.814.005-5.627,0c-.675,0-1.058-.325-1.051-.871s.386-.846,1.074-.848c.929,0,1.858,0,2.787,0" transform="translate(-277.915 -235.332)" fill="#54a2fe"/>
        <path id="Path_12220" data-name="Path 12220" d="M312.725,105.708c-.143,0-.286.01-.428,0a.848.848,0,0,1-.826-.876.839.839,0,0,1,.811-.835,7.723,7.723,0,0,1,.8-.006.865.865,0,1,1,.015,1.72c-.125,0-.249,0-.374,0Z" transform="translate(-277.908 -92.777)" fill="#56a3fe"/>
        <path id="Path_12221" data-name="Path 12221" d="M400.449,265.468c-.889,0-1.28-.254-1.294-.841-.014-.606.394-.882,1.306-.882.125,0,.25,0,.374,0a.861.861,0,1,1-.012,1.719c-.124.006-.25,0-.374,0" transform="translate(-356.142 -235.323)" fill="#56a3fe"/>
        <path id="Path_12222" data-name="Path 12222" d="M203.142,25.868H193.21a2.581,2.581,0,0,1-.482-.013.855.855,0,0,1,0-1.695,2.609,2.609,0,0,1,.482-.013h19.863a2.631,2.631,0,0,1,.482.012.855.855,0,0,1,0,1.7,2.581,2.581,0,0,1-.482.013h-9.932" transform="translate(-171.298 -21.541)" fill="#eff1f1"/>
        <path id="Path_12223" data-name="Path 12223" d="M25.809,25.9c-.895,0-1.319-.289-1.3-.887s.41-.837,1.3-.837c.867,0,1.273.274,1.275.86s-.411.864-1.271.865" transform="translate(-21.866 -21.566)" fill="#e9edf1"/>
        <path id="Path_12224" data-name="Path 12224" d="M65.651,25.9c-.87,0-1.276-.269-1.284-.851s.406-.872,1.261-.873c.9,0,1.322.28,1.311.877-.011.581-.416.847-1.288.847" transform="translate(-57.431 -21.566)" fill="#e9edf1"/>
        <path id="Path_12225" data-name="Path 12225" d="M105.5,25.9c-.867,0-1.274-.273-1.279-.856s.407-.867,1.266-.868c.9,0,1.321.285,1.306.882-.015.58-.418.842-1.293.842" transform="translate(-92.994 -21.566)" fill="#e9edf1"/>
        <path id="Path_12226" data-name="Path 12226" d="M417.7,24.445q0,.286,0,.573a1.887,1.887,0,0,1-2.142.446.859.859,0,0,1,0-1.466,1.89,1.89,0,0,1,2.141.447" transform="translate(-370.731 -21.265)" fill="#e9edf1"/>
      </g>
    </g>
  </g>
</svg>
