<svg xmlns="http://www.w3.org/2000/svg" width="52.248" height="55.533" viewBox="0 0 52.248 55.533">
  <g id="add_permission" data-name="add permission" transform="translate(0 0)">
    <g id="User_Lock_Privacy" data-name="User Lock Privacy" transform="translate(0 0)">
      <g id="Flat" transform="translate(0)">
        <path id="Path_263958" data-name="Path 263958" d="M166.853,262.766a7.009,7.009,0,0,1-7.024-6.749l-.024-.61,1.424-.259V248h11.25v7.148l1.423.259-.024.61A7.009,7.009,0,0,1,166.853,262.766Z" transform="translate(-145.758 -226.203)" fill="#fac7b7"/>
        <path id="Path_263959" data-name="Path 263959" d="M114.545,12.016a11.031,11.031,0,1,1,21.973,0Z" transform="translate(-104.437 0)" fill="#525252"/>
        <path id="Path_263960" data-name="Path 263960" d="M229.932,23.754a11.181,11.181,0,0,0-1.879-1.648,11.964,11.964,0,0,1-8.019,10.072h12.742A11.037,11.037,0,0,0,229.932,23.754Z" transform="translate(-200.694 -20.163)" fill="#3f3f3f"/>
        <path id="Path_263961" data-name="Path 263961" d="M42.188,345.431H0v-7.375a7.028,7.028,0,0,1,5.774-6.918l9.669-1.758.032.809a5.624,5.624,0,0,0,11.238,0l.032-.809,9.669,1.758a7.028,7.028,0,0,1,5.774,6.918Z" transform="translate(0 -300.43)" fill="#5fc4b8"/>
        <path id="Path_263962" data-name="Path 263962" d="M36.415,347.53l-.98-.178A30.263,30.263,0,0,1,0,358.525v3.3H42.189v-7.375A7.028,7.028,0,0,0,36.415,347.53Z" transform="translate(0 -316.822)" fill="#50b5a6"/>
        <path id="Path_263963" data-name="Path 263963" d="M113.611,120.328a9.684,9.684,0,0,1-9.1-6.369,3.219,3.219,0,0,1-2.609-2.4l-.4-1.6a2.407,2.407,0,0,1,1.5-2.839l-.2-.967a11.31,11.31,0,0,1-.181-1.227l-.015-.168.063-.157a4.285,4.285,0,0,1,.588-1.028,4.5,4.5,0,0,1,5.841-1.075l1.037.611a6.264,6.264,0,0,0,6.949,0l1.037-.611a4.5,4.5,0,0,1,5.841,1.075,4.283,4.283,0,0,1,.588,1.028l.062.157-.016.168a11.267,11.267,0,0,1-.181,1.228l-.2.967a2.391,2.391,0,0,1,1.048.759,2.467,2.467,0,0,1,.438,2.135l-.387,1.548a3.219,3.219,0,0,1-2.608,2.4A9.685,9.685,0,0,1,113.611,120.328Z" transform="translate(-92.516 -92.905)" fill="#ffdecf"/>
        <path id="Path_263964" data-name="Path 263964" d="M164.475,162.6a2.392,2.392,0,0,0-1.008-.743,13.722,13.722,0,0,1-19.049,8.331,9.684,9.684,0,0,0,17.5-1.5,3.219,3.219,0,0,0,2.608-2.4l.387-1.548A2.468,2.468,0,0,0,164.475,162.6Z" transform="translate(-131.725 -147.63)" fill="#ffd3c2"/>
        <path id="Path_263965" data-name="Path 263965" d="M64.7,446.328a.7.7,0,0,1-.7-.7V440.7a.7.7,0,0,1,1.406,0v4.922A.7.7,0,0,1,64.7,446.328Z" transform="translate(-58.375 -401.327)" fill="#3fa896"/>
        <path id="Path_263966" data-name="Path 263966" d="M335.469,259.953H331.25v-4.219a3.516,3.516,0,1,0-7.031,0v4.219H320v-4.219a7.735,7.735,0,1,1,15.469,0Z" transform="translate(-291.874 -226.203)" fill="#ededed"/>
        <path id="Path_263967" data-name="Path 263967" d="M446.456,292.742a3.508,3.508,0,0,1,.136.965v4.219h4.219v-4.219a7.689,7.689,0,0,0-1.164-4.075A13.437,13.437,0,0,1,446.456,292.742Z" transform="translate(-407.216 -264.175)" fill="#e2e2e2"/>
        <rect id="Rectangle_32274" data-name="Rectangle 32274" width="18.282" height="12.657" rx="2" transform="translate(26.719 32.345)" fill="#ffd740"/>
        <path id="Path_263968" data-name="Path 263968" d="M322.227,372.411a16.191,16.191,0,0,1-17.308,10.736,2.113,2.113,0,0,0,2.029,1.533H321.01a2.112,2.112,0,0,0,2.109-2.109v-8.438A2.108,2.108,0,0,0,322.227,372.411Z" transform="translate(-278.119 -339.679)" fill="#ffc400"/>
        <path id="Path_263969" data-name="Path 263969" d="M384.918,402.456a2.461,2.461,0,1,0-3.164,2.358v1.509a.7.7,0,0,0,1.406,0v-1.509a2.465,2.465,0,0,0,1.758-2.358Z" transform="translate(-346.597 -364.838)" fill="#c0694e"/>
        <path id="Path_263970" data-name="Path 263970" d="M381.041,403.844a2.459,2.459,0,0,1,3.773-2.081,2.461,2.461,0,1,0-3.678,2.755A2.455,2.455,0,0,1,381.041,403.844Z" transform="translate(-346.587 -364.82)" fill="#c97e67"/>
      </g>
    </g>
    <g id="Group_58612" data-name="Group 58612" transform="translate(31.185 34.47)">
      <circle id="Ellipse_71" data-name="Ellipse 71" cx="10.531" cy="10.531" r="10.531" fill="#3b86fe"/>
      <g id="Group_25422" data-name="Group 25422" transform="translate(3.88 3.88)">
        <path id="Path_420" data-name="Path 420" d="M-.887-13.372H4.875v1.457H-.887v6.269H-2.46v-6.269H-8.1v-1.457H-2.46v-6.061H-.887Z" transform="translate(8.105 19.433)" fill="#f4f4f4" stroke="#f4f4f4" stroke-width="1"/>
      </g>
    </g>
  </g>
</svg>
