<svg xmlns="http://www.w3.org/2000/svg" width="58.306" height="45.328" viewBox="0 0 58.306 45.328">
  <g id="add_attendens" data-name="add attendens" transform="translate(-2.452 -7.698)">
    <g id="_x33_5" transform="translate(2.451 7.698)">
      <path id="Path_263971" data-name="Path 263971" d="M53.711,11.185v33.1a3.483,3.483,0,0,1-3.487,3.487H5.939a3.483,3.483,0,0,1-3.487-3.487v-33.1A3.482,3.482,0,0,1,5.939,7.7H50.224a3.482,3.482,0,0,1,3.487,3.487Z" transform="translate(-2.451 -7.698)" fill="#474646"/>
      <path id="Path_263972" data-name="Path 263972" d="M30.737,13.294v9.845a2.324,2.324,0,0,1-2.325,2.325H8.048a2.324,2.324,0,0,1-2.325-2.325V13.294a2.324,2.324,0,0,1,2.325-2.325H28.413a2.324,2.324,0,0,1,2.325,2.325Z" transform="translate(-2.236 -7.482)" fill="#7979f7"/>
      <path id="Path_263973" data-name="Path 263973" d="M30.458,12.19a2.356,2.356,0,0,0-1.1-.279H8.99a2.324,2.324,0,0,0-2.325,2.325v9.845a2.234,2.234,0,0,0,.291,1.1,2.3,2.3,0,0,1-1.232-2.046V13.294a2.324,2.324,0,0,1,2.325-2.325H28.413a2.316,2.316,0,0,1,2.046,1.221Z" transform="translate(-2.236 -7.482)" fill="#5e5eef"/>
      <g id="Group_58603" data-name="Group 58603" transform="translate(10.231 20.64)">
        <g id="Group_58599" data-name="Group 58599" transform="translate(0 0)">
          <path id="Path_263974" data-name="Path 263974" d="M16.172,28.029V30.22a.965.965,0,0,1-.965.965H13.016a.965.965,0,0,1-.965-.965V28.029a.965.965,0,0,1,.965-.965h2.191A.965.965,0,0,1,16.172,28.029Z" transform="translate(-12.051 -27.064)" fill="#e4e3ff"/>
          <path id="Path_263975" data-name="Path 263975" d="M16.172,33.859V36.05a.965.965,0,0,1-.965.965H13.016a.965.965,0,0,1-.965-.965V33.859a.965.965,0,0,1,.965-.965h2.191A.965.965,0,0,1,16.172,33.859Z" transform="translate(-12.051 -26.681)" fill="#e4e3ff"/>
          <path id="Path_263976" data-name="Path 263976" d="M16.172,39.689V41.88a.965.965,0,0,1-.965.965H13.016a.965.965,0,0,1-.965-.965V39.689a.965.965,0,0,1,.965-.965h2.191A.965.965,0,0,1,16.172,39.689Z" transform="translate(-12.051 -26.297)" fill="#e4e3ff"/>
        </g>
        <g id="Group_58600" data-name="Group 58600" transform="translate(7.075 0)">
          <path id="Path_263977" data-name="Path 263977" d="M22.81,28.029V30.22a.965.965,0,0,1-.965.965H19.654a.965.965,0,0,1-.965-.965V28.029a.965.965,0,0,1,.965-.965h2.191A.965.965,0,0,1,22.81,28.029Z" transform="translate(-18.689 -27.064)" fill="#e4e3ff"/>
          <path id="Path_263978" data-name="Path 263978" d="M22.81,33.859V36.05a.965.965,0,0,1-.965.965H19.654a.965.965,0,0,1-.965-.965V33.859a.965.965,0,0,1,.965-.965h2.191A.965.965,0,0,1,22.81,33.859Z" transform="translate(-18.689 -26.681)" fill="#e4e3ff"/>
          <path id="Path_263979" data-name="Path 263979" d="M22.81,39.689V41.88a.965.965,0,0,1-.965.965H19.654a.965.965,0,0,1-.965-.965V39.689a.965.965,0,0,1,.965-.965h2.191A.965.965,0,0,1,22.81,39.689Z" transform="translate(-18.689 -26.297)" fill="#e4e3ff"/>
        </g>
        <g id="Group_58602" data-name="Group 58602" transform="translate(14.149 0)">
          <path id="Path_263980" data-name="Path 263980" d="M29.448,28.029V30.22a.965.965,0,0,1-.965.965H26.292a.965.965,0,0,1-.965-.965V28.029a.965.965,0,0,1,.965-.965h2.191A.965.965,0,0,1,29.448,28.029Z" transform="translate(-25.327 -27.064)" fill="#e4e3ff"/>
          <path id="Path_263981" data-name="Path 263981" d="M29.448,28.031v2.185a.963.963,0,0,1-.965.965h-2.2a.974.974,0,0,1-.953-.825.663.663,0,0,0,.151.012h2.185a.962.962,0,0,0,.965-.965V27.217a.564.564,0,0,0-.012-.139.964.964,0,0,1,.825.953Z" transform="translate(-25.326 -27.063)" fill="#d0d0f7"/>
          <g id="Group_58601" data-name="Group 58601" transform="translate(0 6.213)">
            <path id="Path_263982" data-name="Path 263982" d="M29.448,33.859V36.05a.965.965,0,0,1-.965.965H26.292a.965.965,0,0,1-.965-.965V33.859a.965.965,0,0,1,.965-.965h2.191A.965.965,0,0,1,29.448,33.859Z" transform="translate(-25.327 -32.894)" fill="#e4e3ff"/>
            <path id="Path_263983" data-name="Path 263983" d="M29.448,39.689V41.88a.965.965,0,0,1-.965.965H26.292a.965.965,0,0,1-.965-.965V39.689a.965.965,0,0,1,.965-.965h2.191A.965.965,0,0,1,29.448,39.689Z" transform="translate(-25.327 -32.51)" fill="#e4e3ff"/>
          </g>
        </g>
      </g>
      <path id="Path_263984" data-name="Path 263984" d="M9.487,29.1a1.6,1.6,0,1,1-1.593-1.6A1.6,1.6,0,0,1,9.487,29.1Z" transform="translate(-2.199 -6.395)" fill="#f9b938"/>
      <path id="Path_263985" data-name="Path 263985" d="M9.471,29.081a1.6,1.6,0,0,1-2.929.872A1.594,1.594,0,0,0,8.982,28.6a1.517,1.517,0,0,0-.267-.872,1.582,1.582,0,0,1,.755,1.348Z" transform="translate(-2.183 -6.38)" fill="#ecb021"/>
      <path id="Path_263986" data-name="Path 263986" d="M9.487,35.029a1.6,1.6,0,1,1-1.593-1.6A1.6,1.6,0,0,1,9.487,35.029Z" transform="translate(-2.199 -6.006)" fill="#00d67f"/>
      <path id="Path_263987" data-name="Path 263987" d="M9.471,35.014a1.6,1.6,0,0,1-2.941.86,1.651,1.651,0,0,0,.86.244,1.6,1.6,0,0,0,1.593-1.592,1.558,1.558,0,0,0-.256-.86,1.572,1.572,0,0,1,.744,1.348Z" transform="translate(-2.183 -5.99)" fill="#00c179"/>
      <path id="Path_263988" data-name="Path 263988" d="M9.487,40.957a1.6,1.6,0,1,1-1.593-1.6A1.6,1.6,0,0,1,9.487,40.957Z" transform="translate(-2.199 -5.616)" fill="#fc6559"/>
      <path id="Path_263989" data-name="Path 263989" d="M9.471,40.936a1.6,1.6,0,0,1-2.929.872,1.593,1.593,0,0,0,2.441-1.348,1.516,1.516,0,0,0-.267-.872,1.582,1.582,0,0,1,.755,1.348Z" transform="translate(-2.183 -5.6)" fill="#f05543"/>
      <g id="Group_58604" data-name="Group 58604" transform="translate(6.384 7.267)">
        <path id="Path_263990" data-name="Path 263990" d="M12.461,17.179a2.36,2.36,0,0,0-1.176-.287,2.727,2.727,0,0,0-1.22.246,2.555,2.555,0,0,0-.508.333,3.35,3.35,0,0,1,.418-1.2,1.426,1.426,0,0,1,1.358-.665,2.77,2.77,0,0,1,1.189.263.536.536,0,0,0,.575-.124.511.511,0,0,0,.143-.357.5.5,0,0,0-.074-.263.51.51,0,0,0-.194-.192,4.125,4.125,0,0,0-.756-.3,3.431,3.431,0,0,0-.947-.118,2.485,2.485,0,0,0-1.648.538,2.975,2.975,0,0,0-.908,1.325,4.936,4.936,0,0,0-.271,1.613c0,2.294.9,3.458,2.678,3.458a2.674,2.674,0,0,0,1.28-.295,2.119,2.119,0,0,0,.852-.812,2.242,2.242,0,0,0,.3-1.135,2.5,2.5,0,0,0-.286-1.217,2.058,2.058,0,0,0-.8-.813Zm-.029,2.011a1.165,1.165,0,0,1-.612,1.037,1.426,1.426,0,0,1-.692.164c-.883,0-1.392-.506-1.559-1.547a1.709,1.709,0,0,1,1.615-.911,1.2,1.2,0,0,1,.931.339,1.288,1.288,0,0,1,.317.919Z" transform="translate(-8.442 -14.516)" fill="#e4e3ff"/>
        <path id="Path_263991" data-name="Path 263991" d="M14.744,19.681h-.093a.657.657,0,0,0-.655.655v.056a.657.657,0,0,0,.655.655h.093a.659.659,0,0,0,.655-.655v-.056a.657.657,0,0,0-.655-.655Z" transform="translate(-8.076 -14.177)" fill="#e4e3ff"/>
        <path id="Path_263992" data-name="Path 263992" d="M14.744,16.215h-.093a.657.657,0,0,0-.655.655v.056a.659.659,0,0,0,.655.655h.093a.659.659,0,0,0,.655-.655v-.056a.659.659,0,0,0-.655-.655Z" transform="translate(-8.076 -14.405)" fill="#e4e3ff"/>
        <path id="Path_263993" data-name="Path 263993" d="M18.684,14.516a2.3,2.3,0,0,0-1.979.956,4.245,4.245,0,0,0-.67,2.511,4.245,4.245,0,0,0,.67,2.511,2.3,2.3,0,0,0,1.979.956,2.3,2.3,0,0,0,1.975-.956,4.22,4.22,0,0,0,.674-2.511,4.22,4.22,0,0,0-.674-2.511A2.3,2.3,0,0,0,18.684,14.516Zm1.536,3.467a3.374,3.374,0,0,1-.41,1.8,1.338,1.338,0,0,1-2.252,0,3.374,3.374,0,0,1-.41-1.8,3.349,3.349,0,0,1,.41-1.792,1.337,1.337,0,0,1,2.252,0A3.349,3.349,0,0,1,20.221,17.983Z" transform="translate(-7.942 -14.516)" fill="#e4e3ff"/>
        <path id="Path_263994" data-name="Path 263994" d="M26.128,15.472a2.523,2.523,0,0,0-3.955,0,4.245,4.245,0,0,0-.67,2.511,4.245,4.245,0,0,0,.67,2.511,2.523,2.523,0,0,0,3.955,0,4.226,4.226,0,0,0,.676-2.511A4.226,4.226,0,0,0,26.128,15.472Zm-.439,2.511a3.374,3.374,0,0,1-.41,1.8,1.337,1.337,0,0,1-2.251,0,3.364,3.364,0,0,1-.41-1.8,3.343,3.343,0,0,1,.41-1.792,1.336,1.336,0,0,1,2.251,0,3.349,3.349,0,0,1,.41,1.792Z" transform="translate(-7.583 -14.516)" fill="#e4e3ff"/>
      </g>
      <g id="Group_58605" data-name="Group 58605" transform="translate(10.252 20.667)">
        <path id="Path_263995" data-name="Path 263995" d="M16.174,28.03v2.185a.963.963,0,0,1-.965.965h-2.2a.953.953,0,0,1-.941-.837.6.6,0,0,0,.128.023h2.2a.962.962,0,0,0,.965-.965V27.217c0-.046-.023-.081-.023-.128a.963.963,0,0,1,.837.941Z" transform="translate(-12.071 -27.089)" fill="#d0d0f7"/>
        <path id="Path_263996" data-name="Path 263996" d="M16.174,33.854v2.2a.962.962,0,0,1-.965.965h-2.2a.963.963,0,0,1-.941-.837c.047,0,.093.023.128.023h2.2a.962.962,0,0,0,.965-.965v-2.2c0-.035-.023-.081-.023-.128A.963.963,0,0,1,16.174,33.854Z" transform="translate(-12.071 -26.706)" fill="#d0d0f7"/>
        <path id="Path_263997" data-name="Path 263997" d="M16.174,39.689v2.185a.962.962,0,0,1-.965.965h-2.2A.953.953,0,0,1,12.071,42a.713.713,0,0,0,.128.035h2.2a.97.97,0,0,0,.965-.965v-2.2c0-.046-.023-.081-.023-.128A.963.963,0,0,1,16.174,39.689Z" transform="translate(-12.071 -26.322)" fill="#d0d0f7"/>
        <path id="Path_263998" data-name="Path 263998" d="M22.8,28.03v2.185a.962.962,0,0,1-.965.965H19.654a.953.953,0,0,1-.941-.837.491.491,0,0,0,.128.023h2.2A.97.97,0,0,0,22,29.4V27.217a.522.522,0,0,0-.035-.128.953.953,0,0,1,.837.941Z" transform="translate(-11.634 -27.089)" fill="#d0d0f7"/>
        <path id="Path_263999" data-name="Path 263999" d="M22.8,33.854v2.2a.962.962,0,0,1-.965.965H19.654a.963.963,0,0,1-.941-.837c.046,0,.081.023.128.023h2.2A.97.97,0,0,0,22,35.238v-2.2a.711.711,0,0,0-.035-.128.953.953,0,0,1,.837.941Z" transform="translate(-11.634 -26.706)" fill="#d0d0f7"/>
        <path id="Path_264000" data-name="Path 264000" d="M22.8,39.689v2.185a.962.962,0,0,1-.965.965H19.654A.953.953,0,0,1,18.713,42a.519.519,0,0,0,.128.035h2.2A.978.978,0,0,0,22,41.073v-2.2a.525.525,0,0,0-.035-.128.953.953,0,0,1,.837.942Z" transform="translate(-11.634 -26.322)" fill="#d0d0f7"/>
        <path id="Path_264001" data-name="Path 264001" d="M29.446,33.854v2.2a.962.962,0,0,1-.965.965h-2.2a.951.951,0,0,1-.93-.837c.035,0,.081.023.128.023h2.185a.962.962,0,0,0,.965-.965v-2.2a.6.6,0,0,0-.023-.128.963.963,0,0,1,.837.941Z" transform="translate(-11.197 -26.706)" fill="#d0d0f7"/>
        <path id="Path_264002" data-name="Path 264002" d="M29.446,39.689v2.185a.962.962,0,0,1-.965.965h-2.2a.942.942,0,0,1-.93-.837.412.412,0,0,0,.128.035h2.185a.97.97,0,0,0,.965-.965v-2.2a.5.5,0,0,0-.023-.128.963.963,0,0,1,.837.942Z" transform="translate(-11.197 -26.322)" fill="#d0d0f7"/>
      </g>
      <g id="Group_58606" data-name="Group 58606" transform="translate(32.324 5.695)">
        <path id="Path_264003" data-name="Path 264003" d="M48.02,13.751a.708.708,0,0,1-.71.71H33.49a.71.71,0,1,1,0-1.419H47.31a.708.708,0,0,1,.71.71Z" transform="translate(-32.781 -13.042)" fill="#e4e3ff"/>
        <path id="Path_264004" data-name="Path 264004" d="M46.885,16.563a.708.708,0,0,1-.71.71H34.493a.71.71,0,1,1,0-1.419H46.175A.708.708,0,0,1,46.885,16.563Z" transform="translate(-32.715 -12.857)" fill="#e4e3ff"/>
        <path id="Path_264005" data-name="Path 264005" d="M46.885,22.186a.708.708,0,0,1-.71.71H34.493a.71.71,0,1,1,0-1.419H46.175A.708.708,0,0,1,46.885,22.186Z" transform="translate(-32.715 -12.487)" fill="#e4e3ff"/>
        <path id="Path_264006" data-name="Path 264006" d="M48.02,19.374a.708.708,0,0,1-.71.71H33.49a.71.71,0,1,1,0-1.419H47.31A.708.708,0,0,1,48.02,19.374Z" transform="translate(-32.781 -12.672)" fill="#e4e3ff"/>
      </g>
      <path id="Path_264007" data-name="Path 264007" d="M46.626,29.287V41.248a1.166,1.166,0,0,1-1.162,1.162H35.177a1.166,1.166,0,0,1-1.162-1.162V29.287a1.166,1.166,0,0,1,1.162-1.162H45.464A1.166,1.166,0,0,1,46.626,29.287Z" transform="translate(-0.376 -6.354)" fill="#2d2c2c"/>
      <path id="Path_264008" data-name="Path 264008" d="M44.528,30.677v8.938a.7.7,0,0,1-.7.7H36.566a.7.7,0,0,1-.7-.7V30.677a.7.7,0,0,1,.7-.7h7.265a.7.7,0,0,1,.7.7Z" transform="translate(-0.254 -6.232)" fill="#7979f7"/>
      <path id="Path_264009" data-name="Path 264009" d="M44.525,30.681v8.931a.7.7,0,0,1-.693.7H36.564a.7.7,0,0,1-.693-.7v-.149H42.98a.7.7,0,0,0,.7-.693V29.978h.149a.7.7,0,0,1,.693.7Z" transform="translate(-0.254 -6.232)" fill="#5e5eef"/>
      <g id="Group_58607" data-name="Group 58607" transform="translate(1.28 13.654)" opacity="0.3">
        <path id="Path_264010" data-name="Path 264010" d="M4.185,38.94a.533.533,0,0,1-.533-.533V21.041a.533.533,0,1,1,1.066,0V38.407A.533.533,0,0,1,4.185,38.94Z" transform="translate(-3.652 -20.509)" fill="#fff"/>
      </g>
      <g id="Group_58608" data-name="Group 58608" transform="translate(1.28 1.279)" opacity="0.3">
        <path id="Path_264011" data-name="Path 264011" d="M4.185,14.345a.533.533,0,0,1-.533-.533V11.106A2.21,2.21,0,0,1,5.86,8.9h2.9a.533.533,0,0,1,0,1.066H5.86a1.144,1.144,0,0,0-1.142,1.143v2.706a.533.533,0,0,1-.533.533Z" transform="translate(-3.652 -8.897)" fill="#fff"/>
      </g>
      <g id="Group_58611" data-name="Group 58611" transform="translate(22.735 1.279)" opacity="0.3">
        <g id="Group_58609" data-name="Group 58609" transform="translate(0)">
          <path id="Path_264012" data-name="Path 264012" d="M30.423,9.963H24.317a.533.533,0,1,1,0-1.066h6.106a.533.533,0,1,1,0,1.066Z" transform="translate(-23.784 -8.897)" fill="#fff"/>
        </g>
        <g id="Group_58610" data-name="Group 58610" transform="translate(8.105)">
          <path id="Path_264013" data-name="Path 264013" d="M33.387,9.963H31.921a.533.533,0,1,1,0-1.066h1.465a.533.533,0,1,1,0,1.066Z" transform="translate(-31.388 -8.897)" fill="#fff"/>
        </g>
      </g>
    </g>
    <g id="Group_58613" data-name="Group 58613" transform="translate(41.574 33.842)">
      <circle id="Ellipse_71" data-name="Ellipse 71" cx="9.592" cy="9.592" r="9.592" fill="#3b86fe"/>
      <g id="Group_25422" data-name="Group 25422" transform="translate(3.534 3.534)">
        <path id="Path_420" data-name="Path 420" d="M-1.531-13.913H3.717v1.327H-1.531v5.71H-2.964v-5.71H-8.1v-1.327h5.141v-5.52h1.433Z" transform="translate(8.105 19.433)" fill="#f4f4f4" stroke="#f4f4f4" stroke-width="1"/>
      </g>
    </g>
  </g>
</svg>
