<svg xmlns="http://www.w3.org/2000/svg" width="51.213" height="58.703" viewBox="0 0 51.213 58.703">
  <g id="add_employees" data-name="add employees" transform="translate(-11.04 -1)">
    <path id="Path_264038" data-name="Path 264038" d="M60.276,87.221V68.469l-3.042-1.425-.826-4.385H45.651l-.826,4.385-2.944,1.379v18.8Z" transform="translate(-18.086 -36.157)" fill="#e2b48a"/>
    <path id="Path_264039" data-name="Path 264039" d="M54.849,96.253l-.786-10.045a9.288,9.288,0,0,0-5.319-7.687L40.3,74.566v2.443H39.34v1.282H25.179V74.757l-8.034,3.763a9.288,9.288,0,0,0-5.32,7.687L11.04,96.253Z" transform="translate(0 -43.139)" fill="#bac2d3"/>
    <path id="Path_264040" data-name="Path 264040" d="M60.213,83.64H56.169l-.77,1.8,2.321,2.954-1.349,6.476,2.584,5.6,2.895-6.021-1.213-6.174,1.838-3.021Z" transform="translate(-26.012 -48.46)" fill="#da2a47"/>
    <path id="Path_264041" data-name="Path 264041" d="M54.063,86.7a9.288,9.288,0,0,0-5.319-7.687l-7.693-3.6a36.806,36.806,0,0,1-3.736,10.071c-.751,1.5-1.454,2.986-2.116,4.519-.369.85-2.254,5.816-2.254,5.816s-3.056-7.606-3.612-9.048A49.454,49.454,0,0,0,27,80.93c-.171-.317-.352-.629-.538-.939a4,4,0,0,1-2.542-4.149l-6.775,3.174a9.288,9.288,0,0,0-5.32,7.687L11.04,96.749H54.849Z" transform="translate(0 -43.635)" fill="#707583"/>
    <path id="Path_264042" data-name="Path 264042" d="M54.063,86.7a9.288,9.288,0,0,0-5.319-7.687l-7.693-3.6a36.806,36.806,0,0,1-3.736,10.071c-.751,1.5-1.454,2.986-2.116,4.519-.369.85-2.254,5.816-2.254,5.816s-3.056-7.606-3.612-9.048A49.454,49.454,0,0,0,27,80.93c-.171-.317-.352-.629-.538-.939a4,4,0,0,1-2.542-4.149l-6.775,3.174a9.288,9.288,0,0,0-5.32,7.687L11.04,96.749H54.849Z" transform="translate(0 -43.635)" fill="#384868"/>
    <path id="Path_264043" data-name="Path 264043" d="M96.565,96.748H90.634L89.848,86.7a9.293,9.293,0,0,0-5.323-7.685l-2.345-1.1a23.985,23.985,0,0,0,.583-2.506l7.7,3.607A9.289,9.289,0,0,1,95.779,86.7Z" transform="translate(-41.716 -43.634)" fill="#2f3a5a"/>
    <ellipse id="Ellipse_283" data-name="Ellipse 283" cx="3.487" cy="1.951" rx="3.487" ry="1.951" transform="translate(40.074 23.346) rotate(-76.825)" fill="#e2b48a"/>
    <ellipse id="Ellipse_284" data-name="Ellipse 284" cx="1.951" cy="3.487" rx="1.951" ry="3.487" transform="translate(20.36 17.459) rotate(-13.175)" fill="#e2b48a"/>
    <ellipse id="Ellipse_285" data-name="Ellipse 285" cx="9.856" cy="13.584" rx="9.856" ry="13.584" transform="translate(23.049 3.091)" fill="#f0c191"/>
    <path id="Path_264044" data-name="Path 264044" d="M56.666,21.361s3.48-6.219,2.726-11.15-4.076-6.489-6.051-6.489c0,0-2.664-3.945-9.249-2.336s-9.232,8.84-7.986,13.4,2.076,6.657,2.076,6.657-.831-5.832.1-9.052,3.738-5.762,4.828-4.881S51.162,8.1,52.3,6.146A7.039,7.039,0,0,1,55.1,10.731c.372,2.959,2.035,4.776,1.879,6.9S56.666,21.361,56.666,21.361Z" transform="translate(-14.524 0)" fill="#2f3a5a"/>
    <path id="Path_264045" data-name="Path 264045" d="M69.921,69.583,64,75.368,69.285,79l2.473-7.176Z" transform="translate(-31.056 -40.217)" fill="#d9e2e9"/>
    <path id="Path_264046" data-name="Path 264046" d="M45.242,71.824l2.679,7.009L53,75.368,47.08,69.583Z" transform="translate(-20.056 -40.217)" fill="#d9e2e9"/>
    <path id="Path_264047" data-name="Path 264047" d="M59.269,72.544l-3.379-2.971-.007-.007s-.062,8.876-5.915,22.644c-5.854-13.768-5.915-22.644-5.915-22.644l-.007.007-3.378,2.971-.6,5.022,2.8-.448-2.1,3.185c1.218,2.967,9.2,12.232,9.2,12.232,1.255-1.386,8.165-9.386,9.241-12.008l-2.149-3.409,3.136.089Z" transform="translate(-17.025 -40.207)" fill="#43567c"/>
    <g id="Group_58660" data-name="Group 58660" transform="translate(44.975 42.425)">
      <circle id="Ellipse_71" data-name="Ellipse 71" cx="8.639" cy="8.639" r="8.639" fill="#3b86fe"/>
      <g id="Group_25422" data-name="Group 25422" transform="translate(3.183 3.183)">
        <path id="Path_420" data-name="Path 420" d="M-2.184-14.461H2.543v1.195H-2.184v5.142H-3.475v-5.142H-8.1v-1.195h4.63v-4.972h1.291Z" transform="translate(8.105 19.433)" fill="#f4f4f4" stroke="#f4f4f4" stroke-width="1"/>
      </g>
    </g>
  </g>
</svg>
