<svg xmlns="http://www.w3.org/2000/svg" width="58" height="62.275" viewBox="0 0 58 62.275">
  <g id="add_users" data-name="add users" transform="translate(-204 -56)">
    <g id="Users" transform="translate(-1552 162)">
      <rect id="Rectangle_651" data-name="Rectangle 651" width="58" height="58" transform="translate(1756 -106)" fill="none"/>
      <g id="Group_25471" data-name="Group 25471" transform="translate(1765.766 -101.117)">
        <g id="Group_31795" data-name="Group 31795" transform="translate(0 0)">
          <path id="Path_12202" data-name="Path 12202" d="M209.525,251.189a12,12,0,0,0,5.346-1.28,11.029,11.029,0,0,0,2.21-1.385c1.632-1.344,3.4-1.229,5.245-.666a9.109,9.109,0,0,1,5.435,4.671,20.451,20.451,0,0,1,2.1,6.961,33.058,33.058,0,0,1,.289,5.27,7.808,7.808,0,0,1-6.477,7.748,2,2,0,0,0-.85.183H209.5q0-10.441.005-20.882c0-.206.009-.413.014-.619" transform="translate(-190.503 -223.86)" fill="#3e83e2"/>
          <path id="Path_12203" data-name="Path 12203" d="M20.092,251.231c0,.206-.014.413-.014.619q0,10.441-.005,20.883H7.42a1.7,1.7,0,0,0-.762-.187A7.637,7.637,0,0,1,.453,267c-.157-.524-.241-1.071-.359-1.608V261.86a14.742,14.742,0,0,0,.28-2.143,19.7,19.7,0,0,1,2.575-7.889,8.833,8.833,0,0,1,7.148-4.309,3.508,3.508,0,0,1,2.325.6c.4.263.809.5,1.2.77a12.435,12.435,0,0,0,6.472,2.338" transform="translate(-0.094 -223.902)" fill="#3e83e2"/>
          <path id="Path_12204" data-name="Path 12204" d="M210.837.1a7.971,7.971,0,0,0,1.328.271c4.788,1.279,7.854,4.329,8.875,9.166a11.12,11.12,0,0,1-2.758,10.158,11.385,11.385,0,0,1-6.369,3.7,10.262,10.262,0,0,1-2.4.216c0-.206-.008-.412-.008-.619q0-11.449,0-22.9Z" transform="translate(-190.503 -0.096)" fill="#feba81"/>
          <path id="Path_12205" data-name="Path 12205" d="M98.8.1q0,11.449,0,22.9c0,.206.005.412.008.619A11.3,11.3,0,0,1,90.681,20.3a11.159,11.159,0,0,1-3.491-7.145c-.448-5,1.561-8.775,5.716-11.457A10.474,10.474,0,0,1,97.266.2c.107-.014.226.012.3-.1Z" transform="translate(-78.825 -0.096)" fill="#feba81"/>
        </g>
      </g>
    </g>
    <g id="Group_58625" data-name="Group 58625" transform="translate(241.172 99.525)">
      <circle id="Ellipse_71" data-name="Ellipse 71" cx="9.375" cy="9.375" r="9.375" fill="#3b86fe"/>
      <g id="Group_25422" data-name="Group 25422" transform="translate(3.454 3.454)">
        <path id="Path_420" data-name="Path 420" d="M-1.679-14.037H3.45v1.3H-1.679v5.58h-1.4v-5.58H-8.1v-1.3H-3.08v-5.4h1.4Z" transform="translate(8.105 19.433)" fill="#f4f4f4" stroke="#f4f4f4" stroke-width="1"/>
      </g>
    </g>
  </g>
</svg>
