<svg xmlns="http://www.w3.org/2000/svg" width="60" height="52" viewBox="0 0 60 52">
  <g id="Group_58863" data-name="Group 58863" transform="translate(-228 -79)">
    <g id="Rectangle_32290" data-name="Rectangle 32290" transform="translate(228 79)" fill="rgba(255,255,255,0.19)" stroke="#fff" stroke-width="1">
      <rect width="60" height="52" rx="2" stroke="none"/>
      <rect x="0.5" y="0.5" width="59" height="51" rx="1.5" fill="none"/>
    </g>
    <g id="DefultGroups" transform="translate(236.855 83.791)">
      <g id="Group_58774" data-name="Group 58774" transform="translate(1.002 1.209)">
        <g id="Group_58744" data-name="Group 58744">
          <g id="Group_58742" data-name="Group 58742">
            <g id="Group_58738" data-name="Group 58738" transform="translate(0.015)">
              <g id="Group_58737" data-name="Group 58737">
                <g id="Group_58736" data-name="Group 58736">
                  <g id="Group_58731" data-name="Group 58731">
                    <path id="Path_264120" data-name="Path 264120" d="M1.431,6.118,9.5,1.431,9.11,1.209,1.046,5.9Z" transform="translate(-1.046 -1.209)" fill="#fe91ab"/>
                  </g>
                  <g id="Group_58732" data-name="Group 58732" transform="translate(0.371 0.224)">
                    <path id="Path_264121" data-name="Path 264121" d="M10.864,8.884a1.418,1.418,0,0,1-.642-1.113l.012-5.891L7.491,3.474,2.172,6.564l-.015,5.892A1.419,1.419,0,0,0,2.8,13.57a.454.454,0,0,0,.458.045l8.065-4.687a.457.457,0,0,1-.459-.044Z" transform="translate(-2.157 -1.88)" fill="#ed5d71"/>
                  </g>
                  <g id="Group_58734" data-name="Group 58734" transform="translate(0.695 5.132)">
                    <g id="Group_58733" data-name="Group 58733">
                      <path id="Path_264122" data-name="Path 264122" d="M3.141,16.6l1.089.629.079.046v6.244a.789.789,0,0,1-.344-.113,1.85,1.85,0,0,1-.837-1.45Z" transform="translate(-3.129 -16.597)" fill="#e3e7f0"/>
                    </g>
                  </g>
                  <g id="Group_58735" data-name="Group 58735" transform="translate(1.744 1.189)">
                    <path id="Path_264123" data-name="Path 264123" d="M14.656,4.775l-.014,5.892a.72.72,0,0,1-.3.66L6.275,16.014a.722.722,0,0,0,.3-.66l.014-5.892Z" transform="translate(-6.275 -4.775)" fill="#ed5d71"/>
                  </g>
                </g>
              </g>
            </g>
            <g id="Group_58739" data-name="Group 58739" transform="translate(0.722 0.732)">
              <path id="Path_264124" data-name="Path 264124" d="M4.2,8.4,11.774,4l-1.037-.6L3.166,7.8Z" transform="translate(-3.166 -3.404)" fill="#fff"/>
            </g>
            <g id="Group_58740" data-name="Group 58740" transform="translate(0 4.687)">
              <path id="Path_264125" data-name="Path 264125" d="M1.017,15.261,1,21.153a2.266,2.266,0,0,0,1.026,1.778c.568.328,1.031.064,1.033-.589l.015-5.892-.385-.222L2.677,22.12c0,.408-.291.574-.647.369a1.418,1.418,0,0,1-.643-1.113L1.4,15.483Z" transform="translate(-1.002 -15.261)" fill="#d3374e"/>
            </g>
            <g id="Group_58741" data-name="Group 58741" transform="translate(1.689 0.967)">
              <path id="Path_264126" data-name="Path 264126" d="M6.452,9.017,14.517,4.33l-.385-.222L6.067,8.794Z" transform="translate(-6.067 -4.108)" fill="#fe91ab"/>
            </g>
          </g>
          <path id="Path_264127" data-name="Path 264127" d="M25.922,1.877,24,2.992l-.828,1.446L25.92,2.844Z" transform="translate(-15.781 -1.654)" fill="#ed5d71"/>
          <path id="Path_264128" data-name="Path 264128" d="M23.236,4.775l-.828,1.446L22.022,6l.828-1.446Z" transform="translate(-15.012 -3.437)" fill="#d3374e"/>
          <g id="Group_58743" data-name="Group 58743" transform="translate(7.839 0.001)">
            <path id="Path_264129" data-name="Path 264129" d="M24.89,2.548l1.917-1.114-.385-.222L24.505,2.326Z" transform="translate(-24.505 -1.211)" fill="#fe91ab"/>
          </g>
        </g>
        <g id="Group_58758" data-name="Group 58758" transform="translate(2.933 1.686)">
          <g id="Group_58756" data-name="Group 58756">
            <g id="Group_58752" data-name="Group 58752" transform="translate(0.015)">
              <g id="Group_58751" data-name="Group 58751">
                <g id="Group_58750" data-name="Group 58750">
                  <g id="Group_58745" data-name="Group 58745">
                    <path id="Path_264130" data-name="Path 264130" d="M10.226,11.173,18.29,6.486l-.385-.222L9.841,10.95Z" transform="translate(-9.841 -6.264)" fill="#ffdd94"/>
                  </g>
                  <g id="Group_58746" data-name="Group 58746" transform="translate(0.371 0.224)">
                    <path id="Path_264131" data-name="Path 264131" d="M19.659,13.939a1.418,1.418,0,0,1-.642-1.113l.012-5.891L16.285,8.529l-5.319,3.091-.014,5.892a1.419,1.419,0,0,0,.643,1.113.454.454,0,0,0,.458.045l8.065-4.687A.457.457,0,0,1,19.659,13.939Z" transform="translate(-10.952 -6.935)" fill="#febb61"/>
                  </g>
                  <g id="Group_58748" data-name="Group 58748" transform="translate(0.695 5.132)">
                    <g id="Group_58747" data-name="Group 58747">
                      <path id="Path_264132" data-name="Path 264132" d="M11.936,21.651l1.089.629.079.046V28.57a.788.788,0,0,1-.344-.113,1.85,1.85,0,0,1-.837-1.45Z" transform="translate(-11.924 -21.651)" fill="#e3e7f0"/>
                    </g>
                  </g>
                  <g id="Group_58749" data-name="Group 58749" transform="translate(1.744 1.189)">
                    <path id="Path_264133" data-name="Path 264133" d="M23.45,9.83l-.014,5.892a.721.721,0,0,1-.3.66L15.07,21.069a.722.722,0,0,0,.3-.66l.014-5.892Z" transform="translate(-15.07 -9.83)" fill="#febb61"/>
                  </g>
                </g>
              </g>
            </g>
            <g id="Group_58753" data-name="Group 58753" transform="translate(0.722 0.732)">
              <path id="Path_264134" data-name="Path 264134" d="M13,13.458l7.571-4.4-1.037-.6-7.571,4.4Z" transform="translate(-11.961 -8.459)" fill="#fff"/>
            </g>
            <g id="Group_58754" data-name="Group 58754" transform="translate(0 4.687)">
              <path id="Path_264135" data-name="Path 264135" d="M9.811,20.316,9.8,26.208a2.266,2.266,0,0,0,1.026,1.778c.568.328,1.031.064,1.033-.589l.015-5.892-.385-.222-.015,5.892c0,.408-.291.574-.647.369a1.418,1.418,0,0,1-.643-1.113l.015-5.892Z" transform="translate(-9.797 -20.316)" fill="#efa143"/>
            </g>
            <g id="Group_58755" data-name="Group 58755" transform="translate(1.689 0.967)">
              <path id="Path_264136" data-name="Path 264136" d="M15.247,14.071l8.064-4.687-.385-.222-8.064,4.687Z" transform="translate(-14.862 -9.163)" fill="#ffdd94"/>
            </g>
          </g>
          <path id="Path_264137" data-name="Path 264137" d="M34.717,6.932,32.8,8.047l-.828,1.446L34.715,7.9Z" transform="translate(-24.576 -6.709)" fill="#febb61"/>
          <path id="Path_264138" data-name="Path 264138" d="M32.03,9.83,31.2,11.275l-.385-.222.828-1.446Z" transform="translate(-23.807 -8.492)" fill="#efa143"/>
          <g id="Group_58757" data-name="Group 58757" transform="translate(7.839 0.001)">
            <path id="Path_264139" data-name="Path 264139" d="M33.685,7.6,35.6,6.489l-.385-.222L33.3,7.381Z" transform="translate(-33.3 -6.266)" fill="#ffdd94"/>
          </g>
        </g>
        <g id="Group_58773" data-name="Group 58773" transform="translate(5.866 3.372)">
          <g id="Group_58771" data-name="Group 58771">
            <g id="Group_58767" data-name="Group 58767" transform="translate(0.015)">
              <g id="Group_58766" data-name="Group 58766">
                <g id="Group_58765" data-name="Group 58765">
                  <g id="Group_58759" data-name="Group 58759">
                    <path id="Path_264140" data-name="Path 264140" d="M19.02,16.228l8.064-4.687-.385-.222-8.064,4.687Z" transform="translate(-18.635 -11.319)" fill="#7bb1ff"/>
                  </g>
                  <g id="Group_58760" data-name="Group 58760" transform="translate(0.371 0.224)">
                    <path id="Path_264141" data-name="Path 264141" d="M28.453,18.994a1.418,1.418,0,0,1-.642-1.113l.012-5.891L25.08,13.584l-5.319,3.091-.014,5.892a1.419,1.419,0,0,0,.643,1.113.454.454,0,0,0,.458.045l8.065-4.687a.457.457,0,0,1-.459-.044Z" transform="translate(-19.746 -11.99)" fill="#5793fb"/>
                  </g>
                  <g id="Group_58762" data-name="Group 58762" transform="translate(0.695 5.132)">
                    <g id="Group_58761" data-name="Group 58761">
                      <path id="Path_264142" data-name="Path 264142" d="M20.731,26.706l1.089.629.079.046v6.244a.789.789,0,0,1-.344-.113,1.85,1.85,0,0,1-.837-1.45Z" transform="translate(-20.718 -26.706)" fill="#e3e7f0"/>
                    </g>
                  </g>
                  <g id="Group_58764" data-name="Group 58764" transform="translate(1.744 1.189)">
                    <path id="Path_264143" data-name="Path 264143" d="M32.245,14.885l-.014,5.892a.721.721,0,0,1-.3.66l-8.065,4.687a.722.722,0,0,0,.3-.66l.014-5.892Z" transform="translate(-23.865 -14.885)" fill="#5793fb"/>
                    <g id="Group_58763" data-name="Group 58763" transform="translate(5.773 3.855)">
                      <path id="Path_264144" data-name="Path 264144" d="M41.175,32.241,43.139,31.1s0,.387,0,.411l-1.964,1.142Z" transform="translate(-41.173 -29.547)" fill="#e3e7f0"/>
                      <path id="Path_264145" data-name="Path 264145" d="M41.175,29.913l1.964-1.141s0,.387,0,.411l-1.964,1.142Z" transform="translate(-41.173 -27.996)" fill="#e3e7f0"/>
                      <path id="Path_264146" data-name="Path 264146" d="M41.175,27.585l1.964-1.141s0,.387,0,.411L41.173,28Z" transform="translate(-41.173 -26.444)" fill="#e3e7f0"/>
                    </g>
                  </g>
                </g>
              </g>
            </g>
            <g id="Group_58768" data-name="Group 58768" transform="translate(0.722 0.732)">
              <path id="Path_264147" data-name="Path 264147" d="M21.792,18.513l7.571-4.4-1.037-.6-7.571,4.4Z" transform="translate(-20.755 -13.514)" fill="#fff"/>
            </g>
            <g id="Group_58769" data-name="Group 58769" transform="translate(0 4.687)">
              <path id="Path_264148" data-name="Path 264148" d="M18.606,25.371l-.015,5.892a2.266,2.266,0,0,0,1.026,1.778c.568.328,1.031.064,1.033-.589l.015-5.892-.385-.222-.015,5.892c0,.408-.291.574-.647.369a1.419,1.419,0,0,1-.643-1.113l.015-5.892Z" transform="translate(-18.591 -25.371)" fill="#3a53d0"/>
            </g>
            <g id="Group_58770" data-name="Group 58770" transform="translate(1.689 0.967)">
              <path id="Path_264149" data-name="Path 264149" d="M24.041,19.126l8.064-4.687-.385-.222L23.656,18.9Z" transform="translate(-23.656 -14.218)" fill="#7bb1ff"/>
            </g>
          </g>
          <path id="Path_264150" data-name="Path 264150" d="M43.511,11.987,41.594,13.1l-.828,1.446,2.744-1.594Z" transform="translate(-33.37 -11.764)" fill="#5793fb"/>
          <path id="Path_264151" data-name="Path 264151" d="M40.825,14.885,40,16.33l-.385-.222.828-1.446Z" transform="translate(-32.601 -13.547)" fill="#3a53d0"/>
          <g id="Group_58772" data-name="Group 58772" transform="translate(7.839 0.001)">
            <path id="Path_264152" data-name="Path 264152" d="M42.48,12.658,44.4,11.544l-.385-.222-1.917,1.114Z" transform="translate(-42.094 -11.321)" fill="#7bb1ff"/>
          </g>
        </g>
      </g>
    </g>
    <g id="svgexport-6_32_" data-name="svgexport-6 (32)" transform="translate(238.229 86.488)">
      <g id="Group_58784" data-name="Group 58784" transform="translate(0 22.5)">
        <path id="Path_264174" data-name="Path 264174" d="M437.921,82.5H437v2.764h1.843V83.421A.921.921,0,0,0,437.921,82.5Z" transform="translate(-423.58 -80.657)" fill="#ffa436"/>
        <path id="Path_264175" data-name="Path 264175" d="M14.342,25.264l-2.764,3.685H0V23.421A.921.921,0,0,1,.921,22.5H5.407a.921.921,0,0,1,.652.27l1.573,1.573H13.42A.921.921,0,0,1,14.342,25.264Z" transform="translate(0 -22.5)" fill="#ffbc2b"/>
        <path id="Path_264176" data-name="Path 264176" d="M378.843,112.5,377,114.8h2.764v-2.3Z" transform="translate(-365.422 -109.736)" fill="#8ae7ff"/>
        <path id="Path_264177" data-name="Path 264177" d="M42.5,112.5v4.607L30,113.421V112.5Z" transform="translate(-29.079 -109.736)" fill="#bdf2ff"/>
        <path id="Path_264178" data-name="Path 264178" d="M30,142.5h8.935v2.764H30Z" transform="translate(-29.079 -138.815)" fill="#fff"/>
        <path id="Path_264179" data-name="Path 264179" d="M437.921,142.5l-.921.921V152.7h.921a.921.921,0,0,0,.921-.921v-8.353A.921.921,0,0,0,437.921,142.5Z" transform="translate(-423.58 -138.815)" fill="#ffbc2b"/>
        <path id="Path_264180" data-name="Path 264180" d="M14.342,142.5v9.274a.921.921,0,0,1-.921.921H.921A.921.921,0,0,1,0,151.774v-6.511a.921.921,0,0,1,.921-.921h6.71L9.2,142.77a.921.921,0,0,1,.652-.27Z" transform="translate(0 -138.815)" fill="#ffcf66"/>
      </g>
    </g>
    <g id="svgexport-6_34_" data-name="svgexport-6 (34)" transform="translate(263.346 84.051)">
      <path id="Path_264185" data-name="Path 264185" d="M69.912,152.269a.887.887,0,0,1-.887.887H63.418a.887.887,0,0,0-.887.887v7.5a.887.887,0,0,0,.887.887h11.4a.887.887,0,0,0,.887-.887v-9.275a.887.887,0,0,0-.887-.887H70.8a.887.887,0,0,0-.887.887Zm0,0" transform="translate(-60.13 -146.896)" fill="#e58e13"/>
      <path id="Path_264186" data-name="Path 264186" d="M145.07,77.719h9.6V89.991h-9.6Zm0,0" transform="translate(-140.14 -75.489)" fill="#b3b3b3"/>
      <path id="Path_264189" data-name="Path 264189" d="M44.207,77.719h9.6v5.762h-9.6Zm0,0" transform="translate(-42.367 -75.489)" fill="#e6e6e6"/>
      <path id="Path_264190" data-name="Path 264190" d="M13.669,152.27v9.275a.887.887,0,0,1-.887.887H1.387a.887.887,0,0,1-.887-.887v-7.5a.887.887,0,0,1,.887-.887H6.995a.887.887,0,0,0,.887-.887.887.887,0,0,1,.887-.887h4.014a.887.887,0,0,1,.887.887Zm0,0" transform="translate(0 -146.896)" fill="#e58e13"/>
      <path id="Path_264191" data-name="Path 264191" d="M13.285,152.27v9.275a.887.887,0,0,1-.887.887H1.387a.887.887,0,0,1-.887-.887v-7.5a.887.887,0,0,1,.887-.887H6.995a.887.887,0,0,0,.887-.887.887.887,0,0,1,.887-.887H12.4a.887.887,0,0,1,.887.887Zm0,0" transform="translate(0 -146.896)" fill="#f7d360"/>
      <path id="Path_264192" data-name="Path 264192" d="M91.515,111.113H85.752a.24.24,0,1,1,0-.48h5.762a.24.24,0,1,1,0,.48Zm0,0" transform="translate(-82.407 -107.395)" fill="#6198ce"/>
      <path id="Path_264193" data-name="Path 264193" d="M89.049,150.293h-3.3a.24.24,0,1,1,0-.48h3.3a.24.24,0,0,1,0,.48Zm0,0" transform="translate(-82.407 -145.374)" fill="#6198ce"/>
      <path id="Path_264194" data-name="Path 264194" d="M234.366,253.464h-4.333a.33.33,0,0,1-.33-.33v-1.116a.33.33,0,0,1,.33-.33h4.333a.33.33,0,0,1,.33.33v1.116A.33.33,0,0,1,234.366,253.464Zm0,0" transform="translate(-222.18 -244.128)" fill="#fc5f61"/>
    </g>
    <g id="svgexport-6_35_" data-name="svgexport-6 (35)" transform="translate(263.606 83.758)">
      <path id="Path_264195" data-name="Path 264195" d="M4.114,52.648H.364A.364.364,0,0,1,0,52.283V39.435a.364.364,0,0,1,.364-.364h3.75a.364.364,0,0,1,.364.364V52.283A.364.364,0,0,1,4.114,52.648Z" transform="translate(0 -13.56)" fill="#05e29a"/>
      <path id="Path_264196" data-name="Path 264196" d="M4.1,39.071H3.338V50.054a1.5,1.5,0,0,1-1.5,1.5H0v.721a.377.377,0,0,0,.377.377H4.1a.377.377,0,0,0,.377-.377V39.448A.377.377,0,0,0,4.1,39.071Z" transform="translate(0 -13.56)" fill="#1dd08d"/>
      <path id="Path_264197" data-name="Path 264197" d="M33.689,382.224H32.645a.749.749,0,0,1-.749-.749v-.053a.749.749,0,0,1,.749-.749h1.044a.749.749,0,0,1,.749.749v.053A.749.749,0,0,1,33.689,382.224Z" transform="translate(-30.927 -344.789)" fill="#586b76"/>
      <path id="Path_264198" data-name="Path 264198" d="M34.775,380.672h-.228a.776.776,0,0,1-.74,1.006h-.763a.776.776,0,0,0,.74.545h.991a.775.775,0,1,0,0-1.551Z" transform="translate(-32.041 -344.788)" fill="#465961"/>
      <path id="Path_264199" data-name="Path 264199" d="M31.316,102.283H28.995a.2.2,0,0,1-.2-.2V95.737a.2.2,0,0,1,.2-.2h2.321a.2.2,0,0,1,.2.2v6.342A.2.2,0,0,1,31.316,102.283Z" transform="translate(-27.916 -68.306)" fill="#fff0e1"/>
      <path id="Path_264200" data-name="Path 264200" d="M31.308,95.532h-.662v5.7a.212.212,0,0,1-.212.212H28.79v.624a.212.212,0,0,0,.212.212h2.307a.212.212,0,0,0,.212-.212V95.744A.212.212,0,0,0,31.308,95.532Z" transform="translate(-27.916 -68.306)" fill="#ffeccf"/>
      <path id="Path_264201" data-name="Path 264201" d="M151.556,52.648h-3.75a.364.364,0,0,1-.364-.364V39.435a.364.364,0,0,1,.364-.364h3.75a.364.364,0,0,1,.364.364V52.283A.364.364,0,0,1,151.556,52.648Z" transform="translate(-142.965 -13.56)" fill="#fcb143"/>
      <path id="Path_264202" data-name="Path 264202" d="M151.543,39.071h-.763V50.054a1.5,1.5,0,0,1-1.5,1.5h-1.843v.721a.377.377,0,0,0,.377.377h3.724a.377.377,0,0,0,.377-.377V39.448A.377.377,0,0,0,151.543,39.071Z" transform="translate(-142.965 -13.56)" fill="#fba615"/>
      <path id="Path_264203" data-name="Path 264203" d="M181.132,382.224h-1.044a.749.749,0,0,1-.749-.749v-.053a.749.749,0,0,1,.749-.749h1.044a.749.749,0,0,1,.749.749v.053A.749.749,0,0,1,181.132,382.224Z" transform="translate(-173.893 -344.789)" fill="#586b76"/>
      <path id="Path_264204" data-name="Path 264204" d="M182.218,380.672h-.228a.776.776,0,0,1-.74,1.006h-.763a.776.776,0,0,0,.74.545h.991a.775.775,0,1,0,0-1.551Z" transform="translate(-175.006 -344.788)" fill="#465961"/>
      <path id="Path_264205" data-name="Path 264205" d="M178.758,102.283h-2.321a.2.2,0,0,1-.2-.2V95.737a.2.2,0,0,1,.2-.2h2.321a.2.2,0,0,1,.2.2v6.342A.2.2,0,0,1,178.758,102.283Z" transform="translate(-170.88 -68.306)" fill="#fff0e1"/>
      <path id="Path_264206" data-name="Path 264206" d="M178.751,95.532h-.662v5.7a.212.212,0,0,1-.212.212h-1.644v.624a.212.212,0,0,0,.212.212h2.307a.212.212,0,0,0,.212-.212V95.744A.212.212,0,0,0,178.751,95.532Z" transform="translate(-170.881 -68.306)" fill="#ffeccf"/>
      <path id="Path_264207" data-name="Path 264207" d="M301.154,38.473l-3.7.634a.364.364,0,0,1-.421-.3l-2.171-12.663a.364.364,0,0,1,.3-.421l3.7-.634a.364.364,0,0,1,.421.3l2.171,12.663A.364.364,0,0,1,301.154,38.473Z" transform="translate(-285.908)" fill="#fc6b55"/>
      <path id="Path_264208" data-name="Path 264208" d="M364.389,25.158l-.771.123,1.856,10.855a1.5,1.5,0,0,1-1.221,1.726l-1.8.317.121.681a.377.377,0,0,0,.436.308l3.67-.629a.377.377,0,0,0,.308-.436l-2.166-12.638A.377.377,0,0,0,364.389,25.158Z" transform="translate(-351.449 -0.064)" fill="#fc534e"/>
      <path id="Path_264209" data-name="Path 264209" d="M387.879,370.661l-1.029.176a.749.749,0,0,1-.865-.612l-.009-.052a.749.749,0,0,1,.612-.865l1.029-.176a.749.749,0,0,1,.865.612l.009.052A.749.749,0,0,1,387.879,370.661Z" transform="translate(-374.245 -333.588)" fill="#586b76"/>
      <path id="Path_264210" data-name="Path 264210" d="M390.422,369.267l-.225.039a.776.776,0,0,1-.56,1.117l-.752.129a.776.776,0,0,0,.822.412l.977-.167a.775.775,0,0,0-.262-1.528Z" transform="translate(-377.077 -333.718)" fill="#465961"/>
      <path id="Path_264211" data-name="Path 264211" d="M335.562,91.445l-2.288.392a.2.2,0,0,1-.236-.167l-1.071-6.25a.2.2,0,0,1,.167-.236l2.288-.392a.2.2,0,0,1,.236.167l1.071,6.25A.2.2,0,0,1,335.562,91.445Z" transform="translate(-321.883 -57.889)" fill="#fff0e1"/>
      <path id="Path_264212" data-name="Path 264212" d="M365.478,84.828l-.653.112.969,5.661a.212.212,0,0,1-.173.245l-1.62.278.1.575a.212.212,0,0,0,.245.173l2.273-.39a.212.212,0,0,0,.173-.245L365.722,85A.212.212,0,0,0,365.478,84.828Z" transform="translate(-352.947 -57.924)" fill="#ffeccf"/>
      <path id="Path_264213" data-name="Path 264213" d="M26.132,372.907h-.991a1.011,1.011,0,1,0,0,2.022h.991a1.011,1.011,0,1,0,0-2.022Zm0,1.551h-.991a.539.539,0,0,1,0-1.079h.991a.539.539,0,0,1,0,1.079Z" transform="translate(-23.397 -337.258)" fill="#e5ecf1"/>
      <path id="Path_264214" data-name="Path 264214" d="M51.589,153.1a.236.236,0,0,0,.236-.236v-2.916a.236.236,0,0,0-.472,0v2.916A.236.236,0,0,0,51.589,153.1Z" transform="translate(-49.794 -120.84)" fill="#fbbe66"/>
      <path id="Path_264215" data-name="Path 264215" d="M80.836,177.64a.236.236,0,0,0,.236-.236v-2.147a.236.236,0,1,0-.472,0V177.4A.236.236,0,0,0,80.836,177.64Z" transform="translate(-78.152 -145.381)" fill="#fbbe66"/>
      <path id="Path_264216" data-name="Path 264216" d="M173.574,372.907h-.991a1.011,1.011,0,1,0,0,2.022h.991a1.011,1.011,0,1,0,0-2.022Zm0,1.551h-.991a.539.539,0,1,1,0-1.079h.991a.539.539,0,0,1,0,1.079Z" transform="translate(-166.362 -337.258)" fill="#e5ecf1"/>
      <path id="Path_264217" data-name="Path 264217" d="M199.031,153.1a.236.236,0,0,0,.236-.236v-2.916a.236.236,0,1,0-.472,0v2.916A.236.236,0,0,0,199.031,153.1Z" transform="translate(-192.758 -120.84)" fill="#fbbe66"/>
      <path id="Path_264218" data-name="Path 264218" d="M228.278,153.1a.236.236,0,0,0,.236-.236v-2.916a.236.236,0,1,0-.472,0v2.916A.236.236,0,0,0,228.278,153.1Z" transform="translate(-221.117 -120.84)" fill="#fbbe66"/>
      <path id="Path_264219" data-name="Path 264219" d="M380.148,361.506l-.977.167a1.011,1.011,0,0,0,.169,2.008,1.025,1.025,0,0,0,.173-.015l.977-.167a1.011,1.011,0,1,0-.342-1.993Zm.611,1.308a.536.536,0,0,1-.349.22l-.977.167a.539.539,0,1,1-.182-1.063l.977-.167a.539.539,0,0,1,.532.843Z" transform="translate(-366.842 -326.189)" fill="#e5ecf1"/>
      <g id="Group_58785" data-name="Group 58785" transform="translate(11.039 28.642)">
        <path id="Path_264220" data-name="Path 264220" d="M363.711,147.105a.236.236,0,0,0-.193.272l.493,2.874a.236.236,0,0,0,.232.2.238.238,0,0,0,.04,0,.236.236,0,0,0,.193-.272l-.493-2.874A.236.236,0,0,0,363.711,147.105Z" transform="translate(-363.515 -146.952)" fill="#fbbe66"/>
        <path id="Path_264221" data-name="Path 264221" d="M393.07,145.505a.238.238,0,0,0,.04,0,.236.236,0,0,0,.193-.272l-.493-2.874a.236.236,0,1,0-.465.08l.493,2.874A.236.236,0,0,0,393.07,145.505Z" transform="translate(-391.467 -142.16)" fill="#fbbe66"/>
      </g>
    </g>
  </g>
</svg>
