<svg xmlns="http://www.w3.org/2000/svg" width="60" height="52" viewBox="0 0 60 52">
  <g id="Hr_Group" data-name="Hr Group" transform="translate(-83 -79)">
    <g id="Rectangle_32277" data-name="Rectangle 32277" transform="translate(83 79)" fill="rgba(255,255,255,0.19)" stroke="#fff" stroke-width="1">
      <rect width="60" height="52" rx="2" stroke="none"/>
      <rect x="0.5" y="0.5" width="59" height="51" rx="1.5" fill="none"/>
    </g>
    <g id="Employees" transform="translate(81.818 81.381)">
      <path id="Path_264038" data-name="Path 264038" d="M48.124,71V64.631l-1.032-.484-.28-1.488H43.161l-.28,1.488-1,.468V71Z" transform="translate(-26.513 -53.005)" fill="#e2b48a"/>
      <path id="Path_264039" data-name="Path 264039" d="M25.907,81.926l-.267-3.409a3.152,3.152,0,0,0-1.805-2.609l-2.865-1.342v.829h-.326v.435H15.838v-1.2l-2.727,1.277a3.152,3.152,0,0,0-1.805,2.609l-.266,3.409Z" transform="translate(0 -63.24)" fill="#bac2d3"/>
      <path id="Path_264040" data-name="Path 264040" d="M57.033,83.64H55.66l-.261.609.788,1-.458,2.2.877,1.9.982-2.043-.412-2.1.624-1.025Z" transform="translate(-38.133 -71.04)" fill="#da2a47"/>
      <path id="Path_264041" data-name="Path 264041" d="M25.64,79.244a3.152,3.152,0,0,0-1.805-2.609l-2.611-1.223a12.49,12.49,0,0,1-1.268,3.418c-.255.508-.494,1.013-.718,1.534-.125.288-.765,1.974-.765,1.974s-1.037-2.581-1.226-3.071a16.782,16.782,0,0,0-.792-1.982c-.058-.108-.119-.213-.182-.319a1.359,1.359,0,0,1-.863-1.408l-2.3,1.077a3.152,3.152,0,0,0-1.805,2.609l-.266,3.409H25.907Z" transform="translate(0 -63.967)" fill="#707583"/>
      <path id="Path_264042" data-name="Path 264042" d="M25.64,79.244a3.152,3.152,0,0,0-1.805-2.609l-2.611-1.223a12.49,12.49,0,0,1-1.268,3.418c-.255.508-.494,1.013-.718,1.534-.125.288-.765,1.974-.765,1.974s-1.037-2.581-1.226-3.071a16.782,16.782,0,0,0-.792-1.982c-.058-.108-.119-.213-.182-.319a1.359,1.359,0,0,1-.863-1.408l-2.3,1.077a3.152,3.152,0,0,0-1.805,2.609l-.266,3.409H25.907Z" transform="translate(0 -63.967)" fill="#384868"/>
      <path id="Path_264043" data-name="Path 264043" d="M87.062,82.651H85.049l-.267-3.409a3.154,3.154,0,0,0-1.806-2.608l-.8-.373a8.14,8.14,0,0,0,.2-.851l2.612,1.224A3.152,3.152,0,0,1,86.8,79.242Z" transform="translate(-61.155 -63.966)" fill="#2f3a5a"/>
      <ellipse id="Ellipse_283" data-name="Ellipse 283" cx="1.183" cy="0.662" rx="1.183" ry="0.662" transform="translate(20.893 8.584) rotate(-76.825)" fill="#e2b48a"/>
      <ellipse id="Ellipse_284" data-name="Ellipse 284" cx="0.662" cy="1.183" rx="0.662" ry="1.183" transform="translate(14.203 6.586) rotate(-13.175)" fill="#e2b48a"/>
      <ellipse id="Ellipse_285" data-name="Ellipse 285" cx="3.345" cy="4.61" rx="3.345" ry="4.61" transform="translate(15.115 1.71)" fill="#f0c191"/>
      <path id="Path_264044" data-name="Path 264044" d="M42.887,7.91a7.263,7.263,0,0,0,.925-3.784,2.275,2.275,0,0,0-2.053-2.2,2.831,2.831,0,0,0-3.139-.793,3.854,3.854,0,0,0-2.71,4.548c.423,1.548.7,2.259.7,2.259a9.656,9.656,0,0,1,.035-3.072c.317-1.093,1.268-1.956,1.638-1.656s2.731.2,3.118-.463A2.389,2.389,0,0,1,42.354,4.3c.126,1,.69,1.621.638,2.343S42.887,7.91,42.887,7.91Z" transform="translate(-21.292 0)" fill="#2f3a5a"/>
      <path id="Path_264045" data-name="Path 264045" d="M66.009,69.583,64,71.546l1.794,1.233.839-2.435Z" transform="translate(-45.526 -58.957)" fill="#d9e2e9"/>
      <path id="Path_264046" data-name="Path 264046" d="M45.242,70.343l.909,2.379,1.724-1.176-2.009-1.963Z" transform="translate(-29.401 -58.957)" fill="#d9e2e9"/>
      <path id="Path_264047" data-name="Path 264047" d="M46.588,70.577l-1.147-1.008,0,0a22.213,22.213,0,0,1-2.007,7.685,22.2,22.2,0,0,1-2.007-7.685l0,0-1.146,1.008-.2,1.7.951-.152-.713,1.081a32.027,32.027,0,0,0,3.12,4.151,28.982,28.982,0,0,0,3.136-4.075l-.729-1.157,1.064.03Z" transform="translate(-24.959 -58.942)" fill="#43567c"/>
    </g>
    <g id="section" transform="translate(117.546 83.461)">
      <g id="Page-1" transform="translate(0 -0.235)">
        <g id="_016---Team-Organisation" data-name="016---Team-Organisation">
          <path id="Shape" d="M19.556,24.3H14.044V22.667h-.613V24.3H7.919A.919.919,0,0,0,7,25.219v.842h.613v-.842a.306.306,0,0,1,.306-.306h5.513v1.633h.613V24.913h5.513a.306.306,0,0,1,.306.306v.842h.613v-.842A.919.919,0,0,0,19.556,24.3Z" transform="translate(-4.856 -15.647)" fill="#285680"/>
          <circle id="Oval" cx="1.817" cy="1.817" r="1.817" transform="translate(0.583 10.242)" fill="#fdd7ad"/>
          <path id="Shape-2" data-name="Shape" d="M4.9,46.838v1.531a.617.617,0,0,1-.613.613H.613A.614.614,0,0,1,0,48.369V46.838A1.838,1.838,0,0,1,1.838,45H3.063A1.838,1.838,0,0,1,4.9,46.838Z" transform="translate(0 -31.141)" fill="#3b97d3"/>
          <path id="Shape-3" data-name="Shape" d="M2.919,51.306v1.531a.919.919,0,0,1-.052.306H2a.284.284,0,0,0,.211-.089.291.291,0,0,0,.095-.217V51.306a.306.306,0,0,1,.613,0Z" transform="translate(-1.387 -35.303)" fill="#2980ba"/>
          <path id="Shape-4" data-name="Shape" d="M11.919,53.144h-.864A.849.849,0,0,1,11,52.838V51.306a.306.306,0,0,1,.613,0v1.531A.306.306,0,0,0,11.919,53.144Z" transform="translate(-7.631 -35.303)" fill="#2980ba"/>
          <circle id="Oval-2" data-name="Oval" cx="1.817" cy="1.817" r="1.817" transform="translate(7.191 10.242)" fill="#fdd7ad"/>
          <path id="Shape-5" data-name="Shape" d="M25.9,46.838v1.531a.617.617,0,0,1-.613.613H21.613A.614.614,0,0,1,21,48.369V46.838A1.838,1.838,0,0,1,22.838,45h1.225A1.838,1.838,0,0,1,25.9,46.838Z" transform="translate(-14.569 -31.141)" fill="#f29c1f"/>
          <path id="Shape-6" data-name="Shape" d="M23.919,51.306v1.531a.919.919,0,0,1-.052.306H23a.284.284,0,0,0,.211-.089.291.291,0,0,0,.095-.217V51.306a.306.306,0,0,1,.613,0Z" transform="translate(-15.956 -35.303)" fill="#e57e25"/>
          <path id="Shape-7" data-name="Shape" d="M32.919,53.144h-.864A.849.849,0,0,1,32,52.838V51.306a.306.306,0,0,1,.613,0v1.531A.306.306,0,0,0,32.919,53.144Z" transform="translate(-22.2 -35.303)" fill="#e57e25"/>
          <circle id="Oval-3" data-name="Oval" cx="1.817" cy="1.817" r="1.817" transform="translate(13.468 10.242)" fill="#fdd7ad"/>
          <path id="Shape-8" data-name="Shape" d="M46.9,46.838v1.531a.617.617,0,0,1-.613.613H42.613A.614.614,0,0,1,42,48.369V46.838A1.838,1.838,0,0,1,43.838,45h1.225A1.838,1.838,0,0,1,46.9,46.838Z" transform="translate(-29.137 -31.141)" fill="#ff5364"/>
          <path id="Shape-9" data-name="Shape" d="M44.919,51.306v1.531a.919.919,0,0,1-.052.306H44a.284.284,0,0,0,.211-.089.291.291,0,0,0,.095-.217V51.306a.306.306,0,0,1,.613,0Z" transform="translate(-30.525 -35.303)" fill="#df4d60"/>
          <path id="Shape-10" data-name="Shape" d="M53.919,53.144h-.864A.849.849,0,0,1,53,52.838V51.306a.306.306,0,0,1,.613,0v1.531A.306.306,0,0,0,53.919,53.144Z" transform="translate(-36.769 -35.303)" fill="#df4d60"/>
          <circle id="Oval-4" data-name="Oval" cx="1.817" cy="1.817" r="1.817" transform="translate(7.191)" fill="#fdd7ad"/>
          <path id="Shape-11" data-name="Shape" d="M25.9,13.838v1.531a.617.617,0,0,1-.613.613H21.613A.614.614,0,0,1,21,15.369V13.838A1.838,1.838,0,0,1,22.838,12h1.225A1.838,1.838,0,0,1,25.9,13.838Z" transform="translate(-14.569 -8.247)" fill="#e64c3c"/>
          <g id="Group_58658" data-name="Group 58658" transform="translate(7.044 5.59)">
            <path id="Shape-12" data-name="Shape" d="M23.919,18.306v1.531a.919.919,0,0,1-.052.306H23a.284.284,0,0,0,.211-.089.291.291,0,0,0,.095-.217V18.306a.306.306,0,0,1,.613,0Z" transform="translate(-23 -18)" fill="#c03a2b"/>
            <path id="Shape-13" data-name="Shape" d="M32.919,20.144h-.864A.849.849,0,0,1,32,19.838V18.306a.306.306,0,1,1,.613,0v1.531A.306.306,0,0,0,32.919,20.144Z" transform="translate(-29.244 -18)" fill="#c03a2b"/>
          </g>
        </g>
      </g>
    </g>
    <g id="Auto_attendens" data-name="Auto attendens" transform="translate(91.677 108.678)">
      <path id="Path_2216" data-name="Path 2216" d="M87.416,51.2v2.028a6.083,6.083,0,0,1-12.166,0V51.2a6.083,6.083,0,1,1,12.166,0Z" transform="translate(-72.718 -43.602)" fill="#0e767b"/>
      <path id="Path_2217" data-name="Path 2217" d="M262.083,51.2v2.028A6.083,6.083,0,0,1,256,59.314V45.12a6.083,6.083,0,0,1,6.083,6.083Z" transform="translate(-247.385 -43.602)" fill="#00767b"/>
      <path id="Path_2218" data-name="Path 2218" d="M66.838,30.12a6.6,6.6,0,0,0-6.588,6.588v2.028a6.588,6.588,0,0,0,13.175,0V36.708A6.6,6.6,0,0,0,66.838,30.12Zm5.578,8.616a5.578,5.578,0,0,1-11.156,0V36.708a5.578,5.578,0,1,1,11.156,0Z" transform="translate(-58.222 -29.106)" fill="#19ab8e"/>
      <path id="Path_2220" data-name="Path 2220" d="M129.62,94.93v1.014h-1.01V94.93a3.55,3.55,0,0,0-7.1,0H120.5a4.56,4.56,0,1,1,9.12,0Z" transform="translate(-116.445 -87.329)" fill="#19ab8e"/>
      <path id="Path_2221" data-name="Path 2221" d="M185.815,153.152h-1.01a1.523,1.523,0,0,0-3.046,0v1.014h-1.01v-1.014a2.532,2.532,0,0,1,5.065,0Z" transform="translate(-174.667 -145.551)" fill="#19ab8e"/>
      <path id="Path_2222" data-name="Path 2222" d="M129.62,257.014a4.56,4.56,0,0,1-9.12,0V256h1.01v1.014a3.55,3.55,0,0,0,7.1,0Z" transform="translate(-116.445 -247.385)" fill="#19ab8e"/>
      <path id="Path_2223" data-name="Path 2223" d="M185.815,256v1.014a2.532,2.532,0,1,1-5.065,0h1.01a1.523,1.523,0,0,0,3.046,0V256Z" transform="translate(-174.667 -247.385)" fill="#19ab8e"/>
      <path id="Path_2224" data-name="Path 2224" d="M1.01,4.56H0V0H4.56V1.01H1.01Z" fill="#4c5d81"/>
      <g id="Group_853" data-name="Group 853" transform="translate(8.615 1.014)">
        <path id="Path_2226" data-name="Path 2226" d="M256,151.63v-1.01a2.535,2.535,0,0,1,2.532,2.532h-1.01A1.525,1.525,0,0,0,256,151.63Z" transform="translate(-256 -146.565)" fill="#00ab8e"/>
        <path id="Path_2227" data-name="Path 2227" d="M256,259.546v-1.01a1.525,1.525,0,0,0,1.523-1.523V256h1.01v1.014A2.535,2.535,0,0,1,256,259.546Z" transform="translate(-256 -248.398)" fill="#00ab8e"/>
        <path id="Path_2228" data-name="Path 2228" d="M256,290.69v-1.01a3.555,3.555,0,0,0,3.55-3.55h1.01A4.565,4.565,0,0,1,256,290.69Z" transform="translate(-256 -277.514)" fill="#00ab8e"/>
        <path id="Path_2229" data-name="Path 2229" d="M256,91.38V90.37a4.565,4.565,0,0,1,4.56,4.56v1.014h-1.01V94.93A3.555,3.555,0,0,0,256,91.38Z" transform="translate(-256 -88.342)" fill="#00ab8e"/>
        <path id="Path_2230" data-name="Path 2230" d="M262.588,36.708v2.028A6.6,6.6,0,0,1,256,45.323v-1.01a5.584,5.584,0,0,0,5.578-5.578V36.708A5.584,5.584,0,0,0,256,31.13V30.12A6.6,6.6,0,0,1,262.588,36.708Z" transform="translate(-256 -30.12)" fill="#00ab8e"/>
      </g>
      <path id="Path_2232" data-name="Path 2232" d="M381.06,4.56h-1.01V1.01H376.5V0h4.56Z" transform="translate(-363.83)" fill="#3d4467"/>
      <path id="Path_2234" data-name="Path 2234" d="M4.56,381.06H0V376.5H1.01v3.55H4.56Z" transform="translate(0 -363.83)" fill="#4c5d81"/>
      <path id="Path_2236" data-name="Path 2236" d="M381.06,381.06H376.5v-1.01h3.55V376.5h1.01Z" transform="translate(-363.83 -363.83)" fill="#3d4467"/>
    </g>
    <g id="svgexport-6_19_" data-name="svgexport-6 (19)" transform="translate(117.546 93.688)">
      <path id="Path_264078" data-name="Path 264078" d="M264.145,91.957h-7.6a.543.543,0,0,1-.543-.543V80.554a.543.543,0,0,1,.543-.543h7.6a.543.543,0,0,1,.543.543v10.86A.543.543,0,0,1,264.145,91.957Z" transform="translate(-247.312 -61.849)" fill="#eceff1"/>
      <g id="Group_58674" data-name="Group 58674" transform="translate(8.688 20.334)">
        <path id="Path_264079" data-name="Path 264079" d="M258.715,145.1h-2.172a.543.543,0,1,1,0-1.086h2.172a.543.543,0,1,1,0,1.086Z" transform="translate(-256 -144.011)" fill="#388e3c"/>
        <path id="Path_264080" data-name="Path 264080" d="M258.715,209.1h-2.172a.543.543,0,1,1,0-1.086h2.172a.543.543,0,1,1,0,1.086Z" transform="translate(-256 -205.839)" fill="#388e3c"/>
        <path id="Path_264081" data-name="Path 264081" d="M258.715,273.1h-2.172a.543.543,0,1,1,0-1.086h2.172a.543.543,0,1,1,0,1.086Z" transform="translate(-256 -267.667)" fill="#388e3c"/>
        <path id="Path_264082" data-name="Path 264082" d="M258.715,337.1h-2.172a.543.543,0,1,1,0-1.086h2.172a.543.543,0,1,1,0,1.086Z" transform="translate(-256 -329.495)" fill="#388e3c"/>
        <path id="Path_264083" data-name="Path 264083" d="M385.629,145.1h-1.086a.543.543,0,0,1,0-1.086h1.086a.543.543,0,0,1,0,1.086Z" transform="translate(-379.656 -144.011)" fill="#388e3c"/>
        <path id="Path_264084" data-name="Path 264084" d="M385.629,209.1h-1.086a.543.543,0,0,1,0-1.086h1.086a.543.543,0,0,1,0,1.086Z" transform="translate(-379.656 -205.839)" fill="#388e3c"/>
        <path id="Path_264085" data-name="Path 264085" d="M385.629,273.1h-1.086a.543.543,0,1,1,0-1.086h1.086a.543.543,0,1,1,0,1.086Z" transform="translate(-379.656 -267.667)" fill="#388e3c"/>
        <path id="Path_264086" data-name="Path 264086" d="M385.629,337.1h-1.086a.543.543,0,0,1,0-1.086h1.086a.543.543,0,0,1,0,1.086Z" transform="translate(-379.656 -329.495)" fill="#388e3c"/>
      </g>
      <path id="Path_264087" data-name="Path 264087" d="M9.578,16.115A.534.534,0,0,0,9.131,16L.443,17.629A.541.541,0,0,0,0,18.162V30.108a.542.542,0,0,0,.443.533l8.688,1.629a.511.511,0,0,0,.1.01.543.543,0,0,0,.543-.543v-15.2A.542.542,0,0,0,9.578,16.115Z" transform="translate(0 0)" fill="#2e7d32"/>
      <path id="Path_264088" data-name="Path 264088" d="M84.737,165.1l-1.717-1.962,1.737-2.233a.543.543,0,0,0-.857-.668L82.291,162.3l-1.355-1.549a.543.543,0,1,0-.817.715l1.493,1.707L80.1,165.123a.543.543,0,0,0,.858.667l1.385-1.781,1.579,1.8a.542.542,0,1,0,.817-.714Z" transform="translate(-77.269 -139.149)" fill="#fafafa"/>
    </g>
  </g>
</svg>
