<svg id="Logo" xmlns="http://www.w3.org/2000/svg" width="624.557" height="233.48" viewBox="0 0 624.557 233.48">
  <path id="Path_10" data-name="Path 10" d="M437,241.044H548.118V222.89H444.928Z" transform="translate(-257.714 -7.565)" fill="#ff4577"/>
  <path id="Path_11" data-name="Path 11" d="M468.469,183.843l-3.938-10.706,3.919,10.706Z" transform="translate(-231.925 -54.036)" fill="none"/>
  <path id="Path_12" data-name="Path 12" d="M450.992,149.24V134.5H366.079V279.734H455.27V265H385.757V210.322h56.68V195.584h-56.68V149.24Z" transform="translate(-324.156 -90.123)" fill="#5088ff"/>
  <path id="Path_13" data-name="Path 13" d="M344.434,111.556v233.47h145.66l32.077-75.382-.16.024L537.067,231.7h0l20.187-54.83L575.695,227h.006l1.339,3.659,3.938,10.706h-.02l6.168,16.857,15.889,42.937H623.13L566.435,154.022H548.264L477.822,326.879H362.606V129.7H950.817V326.879H634.839v18.146H968.99V111.556Z" transform="translate(-344.434 -111.556)" fill="#0a345a"/>
  <path id="Path_14" data-name="Path 14" d="M623.1,279.734h19.463V134.5h-17.54l-52.4,77.743-52.4-77.743H502.68V279.734h19.464V229.116l-1.285-63.433L565.99,232.96h13.475l44.7-66.634-1.069,62.79Z" transform="translate(-196.186 -90.123)" fill="#60c094"/>
  <path id="Path_15" data-name="Path 15" d="M667.449,262.066q-9.625,7.05-24.168,7.049-25.24,0-43.207-12.815l-6.84,14.523a75.827,75.827,0,0,0,22.029,10.252,102.756,102.756,0,0,0,28.018,3.415q15.825,0,27.91-5.123a41.988,41.988,0,0,0,18.716-14.737q6.629-9.611,6.631-22.64,0-12.173-6.2-20.183a43.166,43.166,0,0,0-14.972-12.386,217.08,217.08,0,0,0-23.1-9.506q-11.767-4.27-18.394-7.369a34.733,34.733,0,0,1-11.123-8.009,17.355,17.355,0,0,1-4.492-12.173q0-11.744,8.342-17.94t21.388-6.195a62.481,62.481,0,0,1,37.431,12.388l6.845-14.1q-19.041-13.455-44.7-13.455-21.387,0-35.076,10.463T598.8,173.22q0,12.173,6.093,19.967a42.241,42.241,0,0,0,14.758,12.068,225.5,225.5,0,0,0,22.994,9.4q11.972,4.273,18.714,7.367a33.034,33.034,0,0,1,11.229,8.224,18.435,18.435,0,0,1,4.49,12.6Q677.073,255.022,667.449,262.066Z" transform="translate(-111.353 -91.463)" fill="#f7bc51"/>
</svg>
